<?xml version="1.0" encoding="utf-8"?>
<!-- Generator: Adobe Illustrator 26.5.0, SVG Export Plug-In . SVG Version: 6.00 Build 0)  -->
<svg version="1.1" id="_x30_" xmlns="http://www.w3.org/2000/svg" xmlns:xlink="http://www.w3.org/1999/xlink" x="0px" y="0px"
	 viewBox="0 0 792 612" style="enable-background:new 0 0 792 612;" xml:space="preserve">
<style type="text/css">
	.st0{fill:none;stroke:#000000;stroke-width:0.7087;stroke-linecap:round;stroke-linejoin:round;stroke-miterlimit:10;}
	.st1{fill:none;stroke:#000000;stroke-width:0.7087;stroke-miterlimit:10;}
</style>
<g id="LWPOLYLINE_00000063594724762208555940000017618428847829960602_">
	<path class="st0" d="M469.84,198.47v36.85c0,0.78-0.63,1.42-1.42,1.42h-36.85c-0.78,0-1.42-0.63-1.42-1.42v-36.85
		c0-0.78,0.63-1.42,1.42-1.42h36.85C469.21,197.06,469.84,197.69,469.84,198.47z"/>
</g>
<g id="LWPOLYLINE_00000134242403745656548750000018077738132991525795_">
	<path class="st0" d="M743.95,186H48.05c-4.31,0-7.8,3.49-7.8,7.8v2.05c0,3.94-2.94,7.26-6.85,7.74l-5.48,0.67
		c-3.91,0.48-6.85,3.8-6.85,7.74v11.52c0,3.94,2.94,7.26,6.85,7.74l5.48,0.67c3.91,0.48,6.85,3.8,6.85,7.74v118.19
		c0,3.94-2.94,7.26-6.85,7.74l-5.48,0.67c-3.91,0.48-6.85,3.8-6.85,7.74v11.52c0,3.94,2.94,7.26,6.85,7.74l5.48,0.67
		c3.91,0.48,6.85,3.8,6.85,7.74v2.05c0,4.31,3.49,7.8,7.8,7.8h9.45c18.68,0,37.35,0.92,55.95,2.76l80.62,7.98
		c18.54,1.84,37.15,2.75,55.78,2.75h292.31c18.63,0,37.24-0.92,55.78-2.75l80.62-7.98c18.59-1.84,37.26-2.76,55.95-2.76h9.45
		c4.31,0,7.8-3.49,7.8-7.8v-2.05c0-3.94,2.94-7.26,6.85-7.74l5.48-0.67c3.91-0.48,6.85-3.8,6.85-7.74v-11.52
		c0-3.94-2.94-7.26-6.85-7.74l-5.48-0.67c-3.91-0.48-6.85-3.8-6.85-7.74V239.66c0-3.94,2.94-7.26,6.85-7.74l5.48-0.67
		c3.91-0.48,6.85-3.8,6.85-7.74v-11.52c0-3.94-2.94-7.26-6.85-7.74l-5.48-0.67c-3.91-0.48-6.85-3.8-6.85-7.74v-2.05
		C751.75,189.49,748.26,186,743.95,186z"/>
</g>
<g id="LWPOLYLINE_00000114065694941016414590000004206684462779841188_">
	<path class="st0" d="M107.58,197.06c-0.78,0-1.42,0.63-1.42,1.42v36.85c0,0.78,0.63,1.42,1.42,1.42h36.85
		c0.78,0,1.42-0.63,1.42-1.42v-36.85c0-0.78-0.63-1.42-1.42-1.42H107.58z"/>
</g>
<g id="LWPOLYLINE_00000010307239891204809200000010078611413167485603_">
	<path class="st0" d="M252.43,236.74h-36.85c-0.78,0-1.42-0.63-1.42-1.42v-36.85c0-0.78,0.63-1.42,1.42-1.42h36.85
		c0.78,0,1.42,0.63,1.42,1.42v36.85C253.84,236.11,253.21,236.74,252.43,236.74z"/>
</g>
<g id="LWPOLYLINE_00000017497673509558009050000003198680660159784334_">
	<path class="st0" d="M484.16,235.32v-36.85c0-0.78,0.63-1.42,1.42-1.42h36.85c0.78,0,1.42,0.63,1.42,1.42v36.85
		c0,0.78-0.63,1.42-1.42,1.42h-36.85C484.79,236.74,484.16,236.11,484.16,235.32z"/>
</g>
<g id="LWPOLYLINE_00000026124871067438969750000004252835902968156339_">
	<path class="st0" d="M592.16,235.32v-36.85c0-0.78,0.63-1.42,1.42-1.42h36.85c0.78,0,1.42,0.63,1.42,1.42v36.85
		c0,0.78-0.63,1.42-1.42,1.42h-36.85C592.79,236.74,592.16,236.11,592.16,235.32z"/>
</g>
<g id="LWPOLYLINE_00000158745671982936337110000010038421121515186079_">
	<path class="st0" d="M268.16,235.32c0,0.78,0.63,1.42,1.42,1.42h36.85c0.78,0,1.42-0.63,1.42-1.42v-36.85
		c0-0.78-0.63-1.42-1.42-1.42h-36.85c-0.78,0-1.42,0.63-1.42,1.42V235.32z"/>
</g>
<g id="LWPOLYLINE_00000093141166801464339140000008743086780738077837_">
	<path class="st0" d="M199.84,198.47v36.85c0,0.78-0.63,1.42-1.42,1.42h-36.85c-0.78,0-1.42-0.63-1.42-1.42v-36.85
		c0-0.78,0.63-1.42,1.42-1.42h36.85C199.21,197.06,199.84,197.69,199.84,198.47z"/>
</g>
<g id="LWPOLYLINE_00000171691282129698966130000011272890180084424125_">
	<path class="st0" d="M52.16,235.32v-36.85c0-0.78,0.63-1.42,1.42-1.42h36.85c0.78,0,1.42,0.63,1.42,1.42v36.85
		c0,0.78-0.63,1.42-1.42,1.42H53.58C52.79,236.74,52.16,236.11,52.16,235.32z"/>
</g>
<g id="LWPOLYLINE_00000136371482460466827140000002814940104415697283_">
	<path class="st0" d="M539.58,197.06c-0.78,0-1.42,0.63-1.42,1.42v36.85c0,0.78,0.63,1.42,1.42,1.42h36.85
		c0.78,0,1.42-0.63,1.42-1.42v-36.85c0-0.78-0.63-1.42-1.42-1.42H539.58z"/>
</g>
<g id="LWPOLYLINE_00000129886257857394651000000013890610931267691707_">
	<path class="st0" d="M539.58,251.06c-0.78,0-1.42,0.63-1.42,1.42v36.85c0,0.78,0.63,1.42,1.42,1.42h36.85
		c0.78,0,1.42-0.63,1.42-1.42v-36.85c0-0.78-0.63-1.42-1.42-1.42H539.58z"/>
</g>
<g id="LWPOLYLINE_00000003804690798183497740000015387996070252873867_">
	<path class="st0" d="M523.84,252.47c0-0.78-0.63-1.42-1.42-1.42h-36.85c-0.78,0-1.42,0.63-1.42,1.42v36.85
		c0,0.78,0.63,1.42,1.42,1.42h36.85c0.78,0,1.42-0.63,1.42-1.42V252.47z"/>
</g>
<g id="LWPOLYLINE_00000098932530240833557570000006461741109763799699_">
	<path class="st0" d="M469.84,252.47v36.85c0,0.78-0.63,1.42-1.42,1.42h-36.85c-0.78,0-1.42-0.63-1.42-1.42v-36.85
		c0-0.78,0.63-1.42,1.42-1.42h36.85C469.21,251.06,469.84,251.69,469.84,252.47z"/>
</g>
<g id="CIRCLE">
	<circle class="st0" cx="761.7" cy="217.75" r="4.11"/>
</g>
<g id="CIRCLE_00000069359260558966582660000005212154342645295757_">
	<circle class="st0" cx="30.3" cy="217.75" r="4.11"/>
</g>
<g id="CIRCLE_00000126307012586585977290000004191760393013484213_">
	<circle class="st0" cx="761.7" cy="379.75" r="4.11"/>
</g>
<g id="CIRCLE_00000045608905793257563570000010208981541926929568_">
	<circle class="st0" cx="30.3" cy="379.75" r="4.11"/>
</g>
<g id="LWPOLYLINE_00000175280318207540498160000014842055840893744059_">
	<path class="st0" d="M322.16,235.32c0,0.78,0.63,1.42,1.42,1.42h36.85c0.78,0,1.42-0.63,1.42-1.42v-36.85
		c0-0.78-0.63-1.42-1.42-1.42h-36.85c-0.78,0-1.42,0.63-1.42,1.42V235.32z"/>
</g>
<path class="st1" d="M738.43,197.06h-90.85c-0.78,0-1.42,0.63-1.42,1.42v36.85c0,0.78,0.63,1.42,1.42,1.42h1.35v4.25
	c0,0.78,0.63,1.42,1.42,1.42h17.01c0.78,0,1.42-0.63,1.42-1.42v-4.25h47.66v4.25c0,0.78,0.63,1.42,1.42,1.42h17.01
	c0.78,0,1.42-0.63,1.42-1.42v-4.25h2.15c0.78,0,1.42-0.63,1.42-1.42v-36.85C739.84,197.69,739.21,197.06,738.43,197.06z"/>
<path class="st1" d="M376.16,289.32v-90.85c0-0.78,0.63-1.42,1.42-1.42h36.85c0.78,0,1.42,0.63,1.42,1.42v90.85
	c0,0.78-0.63,1.42-1.42,1.42h-36.85C376.79,290.74,376.16,290.11,376.16,289.32z"/>
<g id="LWPOLYLINE_00000037676364838418496160000013066531922694071185_">
	<path class="st0" d="M107.58,251.06c-0.78,0-1.42,0.63-1.42,1.42v36.85c0,0.78,0.63,1.42,1.42,1.42h36.85
		c0.78,0,1.42-0.63,1.42-1.42v-36.85c0-0.78-0.63-1.42-1.42-1.42H107.58z"/>
</g>
<g id="LWPOLYLINE_00000096023564719386537350000002258948589370804373_">
	<path class="st0" d="M252.43,290.74h-36.85c-0.78,0-1.42-0.63-1.42-1.42v-36.85c0-0.78,0.63-1.42,1.42-1.42h36.85
		c0.78,0,1.42,0.63,1.42,1.42v36.85C253.84,290.11,253.21,290.74,252.43,290.74z"/>
</g>
<g id="LWPOLYLINE_00000044157786532206926020000006399052925351165627_">
	<path class="st0" d="M268.16,289.32c0,0.78,0.63,1.42,1.42,1.42h36.85c0.78,0,1.42-0.63,1.42-1.42v-36.85
		c0-0.78-0.63-1.42-1.42-1.42h-36.85c-0.78,0-1.42,0.63-1.42,1.42V289.32z"/>
</g>
<g id="LWPOLYLINE_00000057116339473289711470000011657436832271429038_">
	<path class="st0" d="M199.84,252.47v36.85c0,0.78-0.63,1.42-1.42,1.42h-36.85c-0.78,0-1.42-0.63-1.42-1.42v-36.85
		c0-0.78,0.63-1.42,1.42-1.42h36.85C199.21,251.06,199.84,251.69,199.84,252.47z"/>
</g>
<g id="LWPOLYLINE_00000047758173639900862310000000718464375514188983_">
	<path class="st0" d="M52.16,289.32v-36.85c0-0.78,0.63-1.42,1.42-1.42h36.85c0.78,0,1.42,0.63,1.42,1.42v36.85
		c0,0.78-0.63,1.42-1.42,1.42H53.58C52.79,290.74,52.16,290.11,52.16,289.32z"/>
</g>
<g id="LWPOLYLINE_00000125585562652168540320000006782774492284383894_">
	<path class="st0" d="M322.16,289.32c0,0.78,0.63,1.42,1.42,1.42h36.85c0.78,0,1.42-0.63,1.42-1.42v-36.85
		c0-0.78-0.63-1.42-1.42-1.42h-36.85c-0.78,0-1.42,0.63-1.42,1.42V289.32z"/>
</g>
<path class="st1" d="M734.86,296.41c0.78,0,1.42-0.63,1.42-1.42v-4.25h2.15c0.78,0,1.42-0.63,1.42-1.42v-36.85
	c0-0.78-0.63-1.42-1.42-1.42H593.58c-0.78,0-1.42,0.63-1.42,1.42v36.85c0,0.78,0.63,1.42,1.42,1.42h55.35v4.25
	c0,0.78,0.63,1.42,1.42,1.42h17.01c0.78,0,1.42-0.63,1.42-1.42v-4.25h24.64v14.31H53.57c-0.78,0-1.42,0.63-1.42,1.42v36.85
	c0,0.78,0.63,1.42,1.42,1.42h684.85c0.78,0,1.42-0.63,1.42-1.42v-36.85c0-0.78-0.63-1.42-1.42-1.42h-5.33v-8.65H734.86z"/>
<path class="st1" d="M724.93,359.06h-8.5v-4.25c0-0.78-0.63-1.42-1.42-1.42H698c-0.78,0-1.42,0.63-1.42,1.42v4.25h-25.65h-36.85
	h-25.65v-4.25c0-0.78-0.63-1.42-1.42-1.42H590c-0.78,0-1.42,0.63-1.42,1.42v4.25h-8.5c-0.78,0-1.42,0.63-1.42,1.42v36.85
	c0,0.78,0.63,1.42,1.42,1.42h54h36.85h54c0.78,0,1.42-0.63,1.42-1.42v-36.85C726.34,359.69,725.71,359.06,724.93,359.06z"/>
<path class="st1" d="M211.92,359.06h-8.5v-4.25c0-0.78-0.63-1.42-1.42-1.42H185c-0.78,0-1.42,0.63-1.42,1.42v4.25h-25.65h-36.85
	H95.42v-4.25c0-0.78-0.63-1.42-1.42-1.42H77c-0.78,0-1.42,0.63-1.42,1.42v4.25h-8.5c-0.78,0-1.42,0.63-1.42,1.42v36.85
	c0,0.78,0.63,1.42,1.42,1.42h54h36.85h54c0.78,0,1.42-0.63,1.42-1.42v-36.85C213.34,359.69,212.71,359.06,211.92,359.06z"/>
<path class="st1" d="M542.68,372.56h-2.15v-4.25c0-0.78-0.63-1.42-1.42-1.42H522.1c-0.78,0-1.42,0.63-1.42,1.42v4.25h-27.41v-4.25
	c0-0.78-0.63-1.42-1.42-1.42h-17.01c-0.78,0-1.42,0.63-1.42,1.42v4.25h-13.91v-4.25c0-0.78-0.63-1.42-1.42-1.42H441.1
	c-0.78,0-1.42,0.63-1.42,1.42v4.25h-7.16v-4.25c0-0.78-0.63-1.42-1.42-1.42h-6.75H414.1h-6.75c-0.78,0-1.42,0.63-1.42,1.42v4.25
	h-20.66v-4.25c0-0.78-0.63-1.42-1.42-1.42h-6.75h-10.26h-6.75c-0.78,0-1.42,0.63-1.42,1.42v4.25h-7.16v-4.25
	c0-0.78-0.63-1.42-1.42-1.42H333.1c-0.78,0-1.42,0.63-1.42,1.42v4.25h-14v-4.25c0-0.78-0.63-1.42-1.42-1.42h-17.01
	c-0.78,0-1.42,0.63-1.42,1.42v4.25h-27.32v-4.25c0-0.78-0.63-1.42-1.42-1.42H252.1c-0.78,0-1.42,0.63-1.42,1.42v4.25h-1.35
	c-0.78,0-1.42,0.63-1.42,1.42v36.85c0,0.78,0.63,1.42,1.42,1.42h117.85c0.78,0,1.42-0.63,1.42-1.42v-1.42h7.56v1.42
	c0,0.78,0.63,1.42,1.42,1.42h36.85c0.78,0,1.42-0.63,1.42-1.42v-1.42h7.56v1.42c0,0.78,0.63,1.42,1.42,1.42h117.85
	c0.78,0,1.42-0.63,1.42-1.42v-36.85C544.09,373.19,543.46,372.56,542.68,372.56z"/>
</svg>
