0
SECTION
2
HEADER
9
$INSUNITS
70
4
9
$ACADVER
1
AC1014
9
$HANDSEED
5
FFFF
0
ENDSEC
0
SECTION
2
TABLES
0
TABLE
2
VPORT
5
8
100
AcDbSymbolTable
0
ENDTAB
0
TABLE
2
LTYPE
5
5
100
AcDbSymbolTable
0
LTYPE
5
14
100
AcDbSymbolTableRecord
100
AcDbLinetypeTableRecord
2
BYBLOCK
70
0
0
LTYPE
5
15
100
AcDbSymbolTableRecord
100
AcDbLinetypeTableRecord
2
BYLAYER
70
0
0
ENDTAB
0
TABLE
2
LAYER
5
2
100
AcDbSymbolTable
70
2
0
LAYER
5
50
100
AcDbSymbolTableRecord
100
AcDbLayerTableRecord
2
0
70
0
6
CONTINUOUS
0
ENDTAB
0
TABLE
2
STYLE
5
3
100
AcDbSymbolTable
70
1
0
STYLE
5
11
100
AcDbSymbolTableRecord
100
AcDbTextStyleTableRecord
2
STANDARD
70
0
0
ENDTAB
0
TABLE
2
VIEW
5
6
100
AcDbSymbolTable
70
0
0
ENDTAB
0
TABLE
2
UCS
5
7
100
AcDbSymbolTable
70
0
0
ENDTAB
0
TABLE
2
APPID
5
9
100
AcDbSymbolTable
70
2
0
APPID
5
12
100
AcDbSymbolTableRecord
100
AcDbRegAppTableRecord
2
ACAD
70
0
0
ENDTAB
0
TABLE
2
DIMSTYLE
5
A
100
AcDbSymbolTable
70
1
0
ENDTAB
0
TABLE
2
BLOCK_RECORD
5
1
100
AcDbSymbolTable
70
1
0
BLOCK_RECORD
5
1F
100
AcDbSymbolTableRecord
100
AcDbBlockTableRecord
2
*MODEL_SPACE
0
BLOCK_RECORD
5
1B
100
AcDbSymbolTableRecord
100
AcDbBlockTableRecord
2
*PAPER_SPACE
0
ENDTAB
0
ENDSEC
0
SECTION
2
BLOCKS
0
BLOCK
5
20
100
AcDbEntity
100
AcDbBlockBegin
2
*MODEL_SPACE
0
ENDBLK
5
21
100
AcDbEntity
100
AcDbBlockEnd
0
BLOCK
5
1C
100
AcDbEntity
100
AcDbBlockBegin
2
*PAPER_SPACE
0
ENDBLK
5
1D
100
AcDbEntity
100
AcDbBlockEnd
0
ENDSEC
0
SECTION
2
ENTITIES
0
LWPOLYLINE
5
100
100
AcDbEntity
8
0
100
AcDbPolyline
90
8
70
1
43
0.0
10
93.012499999999989
20
-53.82500000000001
10
93.012499999999989
20
-40.825000000000003
42
-0.41421356237308982
10
93.512500000000003
20
-40.325000000000003
10
106.51250000000002
20
-40.324999999999996
42
-0.41421356237309503
10
107.01250000000002
20
-40.825000000000003
10
107.01250000000002
20
-53.82500000000001
42
-0.41421356237308982
10
106.51250000000002
20
-54.32500000000001
10
93.512500000000003
20
-54.325000000000017
42
-0.41421356237309503
0
LWPOLYLINE
5
101
100
AcDbEntity
8
0
100
AcDbPolyline
90
8
70
1
43
0.0
10
54.912500000000009
20
-53.82500000000001
42
0.41421356237309503
10
55.412500000000009
20
-54.32500000000001
10
68.412499999999994
20
-54.32500000000001
42
0.41421356237309503
10
68.912499999999994
20
-53.82500000000001
10
68.912499999999994
20
-40.825000000000003
42
0.41421356237309503
10
68.412499999999994
20
-40.325000000000003
10
55.412500000000009
20
-40.325000000000003
42
0.41421356237309503
10
54.912500000000009
20
-40.825000000000003
0
LWPOLYLINE
5
102
100
AcDbEntity
8
0
100
AcDbPolyline
90
8
70
1
43
0.0
10
112.0625
20
-53.82500000000001
10
112.0625
20
-40.825000000000003
42
-0.41421356237308982
10
112.56250000000001
20
-40.325000000000003
10
125.5625
20
-40.324999999999996
42
-0.41421356237307422
10
126.06250000000001
20
-40.825000000000003
10
126.0625
20
-53.82500000000001
42
-0.41421356237310025
10
125.5625
20
-54.32500000000001
10
112.56250000000001
20
-54.325000000000017
42
-0.41421356237309503
0
LWPOLYLINE
5
103
100
AcDbEntity
8
0
100
AcDbPolyline
90
48
70
1
43
0.0
10
72.265000196337994
20
-82.637500000000031
10
175.38499307329971
20
-82.637500000000017
42
0.024678727834391873
10
195.06237873223512
20
-81.665682434272568
10
223.50350042953096
20
-78.849539734454467
42
-0.02467872783439503
10
243.24000692670015
20
-77.874802336281164
10
246.57499999999999
20
-77.874805597370496
42
0.41421356237309792
10
249.32499999999999
20
-75.124805597370496
10
249.32499999999999
20
-74.402914142543963
42
-0.37886610869531556
10
251.73985930563583
20
-71.673412225530328
10
253.67179396194206
20
-71.436200477062656
42
0.37886610869531628
10
256.0866532675779
20
-68.706698560049006
10
256.0866532675779
20
-64.643301439950974
42
0.37886610869531301
10
253.67179396194211
20
-61.91379952293731
10
251.73985930563583
20
-61.67658777446966
42
-0.37886610869531556
10
249.32499999999999
20
-58.947085857456038
10
249.32499999999999
20
-17.252914142543958
42
-0.37886610869531501
10
251.73985930563583
20
-14.523412225530324
10
253.67179396194206
20
-14.286200477062652
42
0.3788661086953205
10
256.08665326757796
20
-11.55669856004902
10
256.0866532675779
20
-7.4933014399509679
42
0.37886610869531345
10
253.67179396194211
20
-4.7637995229372994
10
251.73985930563583
20
-4.5265877744696468
42
-0.37886610869531534
10
249.32499999999999
20
-1.7970858574560244
10
249.32499999999999
20
-1.0749999999999993
42
0.41421356237309059
10
246.57499999999999
20
1.6750000000000156
10
1.0749999999999815
20
1.675000000000002
42
0.41421356237309304
10
-1.6750000000000016
20
-1.0749999999999993
10
-1.6749999999999998
20
-1.7970432840678319
42
-0.37886610869531429
10
-4.0898593056358461
20
-4.5265452010814684
10
-6.0221406943641496
20
-4.7637995229373269
42
0.37886610869531401
10
-8.4369999999999958
20
-7.4933014399509634
10
-8.4370000000000012
20
-11.556698560049014
42
0.37886610869531312
10
-6.0221406943641487
20
-14.286200477062652
10
-4.0898593056358452
20
-14.523454798918515
42
-0.37886610869531406
10
-1.6750000000000043
20
-17.252956715932147
10
-1.6749999999999965
20
-58.947043284067831
42
-0.37886610869531412
10
-4.0898593056358443
20
-61.676545201081474
10
-6.0221406943641576
20
-61.913799522937332
42
0.37886610869531245
10
-8.4370000000000047
20
-64.643301439950974
10
-8.4370000000000012
20
-68.70669856004902
42
0.37886610869531251
10
-6.0221406943641567
20
-71.436200477062656
10
-4.0898593056358461
20
-71.673454798918513
42
-0.37886610869531412
10
-1.6749999999999998
20
-74.402956715932163
10
-1.6750000000000043
20
-75.124805597370624
42
0.41421356237309437
10
1.0749999999999997
20
-77.874805597370639
10
4.40999980366239
20
-77.874805597370624
42
-0.02467871103920791
10
24.14649291816179
20
-78.849541670438128
10
52.587627879984794
20
-81.665683755409049
42
0.024678711039207914
0
LWPOLYLINE
5
104
100
AcDbEntity
8
0
100
AcDbPolyline
90
8
70
1
43
0.0
10
87.46250000000002
20
-54.32500000000001
10
74.462500000000006
20
-54.32500000000001
42
-0.41421356237309503
10
73.962500000000006
20
-53.82500000000001
10
73.962500000000006
20
-40.825000000000003
42
-0.41421356237309503
10
74.462500000000006
20
-40.325000000000003
10
87.46250000000002
20
-40.324999999999996
42
-0.41421356237307422
10
87.96250000000002
20
-40.825000000000003
10
87.962500000000006
20
-53.82500000000001
42
-0.41421356237310025
0
LWPOLYLINE
5
105
100
AcDbEntity
8
0
100
AcDbPolyline
90
8
70
1
43
0.0
10
131.11250000000001
20
-53.82500000000001
10
131.11250000000001
20
-40.825000000000003
42
-0.41421356237308982
10
131.61250000000001
20
-40.325000000000003
10
144.61250000000001
20
-40.324999999999996
42
-0.41421356237307422
10
145.11250000000001
20
-40.825000000000003
10
145.11250000000001
20
-53.82500000000001
42
-0.41421356237310025
10
144.61250000000001
20
-54.32500000000001
10
131.61250000000001
20
-54.325000000000017
42
-0.41421356237309503
0
LWPOLYLINE
5
106
100
AcDbEntity
8
0
100
AcDbPolyline
90
8
70
1
43
0.0
10
163.66250000000002
20
-54.32500000000001
10
150.66249999999999
20
-54.325000000000017
42
-0.41421356237309503
10
150.16249999999999
20
-53.82500000000001
10
150.16249999999999
20
-40.825000000000003
42
-0.41421356237308982
10
150.66249999999999
20
-40.325000000000003
10
163.66250000000002
20
-40.325000000000024
42
-0.41421356237312101
10
164.16250000000002
20
-40.825000000000003
10
164.16249999999997
20
-53.82500000000001
42
-0.4142135623730222
0
LWPOLYLINE
5
107
100
AcDbEntity
8
0
100
AcDbPolyline
90
8
70
1
43
0.0
10
207.8125
20
-40.325000000000003
42
0.4142135623730222
10
207.3125
20
-40.825000000000003
10
207.3125
20
-53.82500000000001
42
0.41421356237312101
10
207.8125
20
-54.325000000000017
10
220.8125
20
-54.32500000000001
42
0.41421356237307422
10
221.3125
20
-53.82500000000001
10
221.3125
20
-40.825000000000003
42
0.41421356237313145
10
220.8125
20
-40.325000000000003
0
LWPOLYLINE
5
108
100
AcDbEntity
8
0
100
AcDbPolyline
90
8
70
1
43
0.0
10
130.82499999999999
20
-2.7250000000000063
42
0.41421356237309437
10
130.32499999999999
20
-2.2250000000000014
10
117.32500000000002
20
-2.2250000000000063
42
0.41421356237310542
10
116.82499999999999
20
-2.7250000000000063
10
116.82500000000002
20
-15.725000000000007
42
0.41421356237309631
10
117.32500000000002
20
-16.225000000000016
10
130.32499999999999
20
-16.225000000000009
42
0.41421356237310675
10
130.82499999999999
20
-15.725000000000007
0
LWPOLYLINE
5
109
100
AcDbEntity
8
0
100
AcDbPolyline
90
8
70
1
43
0.0
10
201.76249999999999
20
-54.32500000000001
42
0.41421356237307422
10
202.26249999999999
20
-53.82500000000001
10
202.26249999999999
20
-40.825000000000003
42
0.41421356237313145
10
201.76249999999999
20
-40.324999999999996
10
188.76249999999999
20
-40.325000000000003
42
0.4142135623730222
10
188.26250000000002
20
-40.825000000000003
10
188.26249999999999
20
-53.82500000000001
42
0.41421356237312101
10
188.76249999999999
20
-54.325000000000017
0
LWPOLYLINE
5
110
100
AcDbEntity
8
0
100
AcDbPolyline
90
8
70
1
43
0.0
10
135.08750000000001
20
-35.275000000000006
42
0.41421356237310025
10
135.58750000000001
20
-34.775000000000006
10
135.58750000000001
20
-21.775000000000006
42
0.41421356237307422
10
135.08750000000001
20
-21.274999999999999
10
122.08750000000002
20
-21.275000000000009
42
0.41421356237310802
10
121.58750000000001
20
-21.775000000000006
10
121.58750000000001
20
-34.775000000000006
42
0.41421356237309243
10
122.08750000000002
20
-35.275000000000006
0
LWPOLYLINE
5
111
100
AcDbEntity
8
0
100
AcDbPolyline
90
8
70
1
43
0.0
10
179.23750000000001
20
-21.275000000000009
42
0.41421356237308204
10
178.73750000000001
20
-21.775000000000006
10
178.73750000000001
20
-34.775000000000006
42
0.41421356237313145
10
179.23750000000001
20
-35.275000000000006
10
192.23750000000001
20
-35.275000000000006
42
0.41421356237304563
10
192.73750000000004
20
-34.775000000000006
10
192.73750000000004
20
-21.775000000000006
42
0.41421356237310281
10
192.23750000000001
20
-21.274999999999984
0
LWPOLYLINE
5
112
100
AcDbEntity
8
0
100
AcDbPolyline
90
8
70
1
43
0.0
10
218.88125000000002
20
-21.275000000000009
10
219.88124999999999
20
-21.275000000000006
42
-0.41421356237313406
10
220.38125000000002
20
-21.775000000000006
10
220.38125000000005
20
-34.775000000000006
42
-0.41421356237307683
10
219.88124999999999
20
-35.275000000000006
10
218.88125000000002
20
-35.275000000000027
42
-0.41421356237310025
10
218.38125000000002
20
-34.775000000000006
10
218.38125000000002
20
-21.775000000000006
42
-0.41421356237305079
0
LWPOLYLINE
5
113
100
AcDbEntity
8
0
100
AcDbPolyline
90
8
70
1
43
0.0
10
35.575000000000003
20
-2.7250000000000063
10
35.575000000000003
20
-15.725000000000007
42
-0.41421356237309503
10
35.075000000000003
20
-16.225000000000009
10
22.075000000000003
20
-16.225000000000009
42
-0.41421356237309892
10
21.575000000000003
20
-15.725000000000007
10
21.575000000000003
20
-2.7250000000000063
42
-0.41421356237309537
10
22.074999999999999
20
-2.2250000000000063
10
35.075000000000003
20
-2.2250000000000068
42
-0.4142135623730957
0
LWPOLYLINE
5
114
100
AcDbEntity
8
0
100
AcDbPolyline
90
8
70
1
43
0.0
10
136.375
20
-2.2250000000000063
10
149.375
20
-2.2250000000000005
42
-0.41421356237309437
10
149.875
20
-2.7250000000000063
10
149.875
20
-15.725000000000007
42
-0.41421356237310675
10
149.375
20
-16.225000000000009
10
136.375
20
-16.225000000000016
42
-0.41421356237307555
10
135.875
20
-15.725000000000007
10
135.875
20
-2.7250000000000063
42
-0.41421356237307422
0
LWPOLYLINE
5
115
100
AcDbEntity
8
0
100
AcDbPolyline
90
8
70
1
43
0.0
10
26.337499999999999
20
-34.775000000000006
10
26.337499999999999
20
-21.775000000000006
42
-0.41421356237309503
10
26.837499999999999
20
-21.275000000000009
10
39.837499999999999
20
-21.274999999999999
42
-0.41421356237310802
10
40.337500000000006
20
-21.775000000000006
10
40.337499999999991
20
-34.775000000000006
42
-0.41421356237311324
10
39.837499999999999
20
-35.275000000000006
10
26.837499999999999
20
-35.275000000000006
42
-0.41421356237309503
0
LWPOLYLINE
5
116
100
AcDbEntity
8
0
100
AcDbPolyline
90
8
70
1
43
0.0
10
168.42500000000001
20
-16.225000000000009
10
155.42500000000004
20
-16.225000000000016
42
-0.41421356237308593
10
154.92500000000001
20
-15.725000000000007
10
154.92500000000001
20
-2.7250000000000063
42
-0.41421356237307422
10
155.42500000000001
20
-2.2250000000000063
10
168.42500000000001
20
-2.2249999999999881
42
-0.41421356237310153
10
168.92500000000001
20
-2.7250000000000063
10
168.92500000000001
20
-15.725000000000007
42
-0.41421356237304691
0
LWPOLYLINE
5
117
100
AcDbEntity
8
0
100
AcDbPolyline
90
8
70
1
43
0.0
10
173.68750000000003
20
-21.775000000000006
42
0.41421356237310281
10
173.1875
20
-21.274999999999999
10
160.1875
20
-21.275000000000009
42
0.41421356237311846
10
159.68749999999997
20
-21.775000000000006
10
159.6875
20
-34.775000000000006
42
0.41421356237309243
10
160.1875
20
-35.27500000000002
10
173.1875
20
-35.275000000000006
42
0.41421356237304563
10
173.68750000000003
20
-34.775000000000006
0
LWPOLYLINE
5
118
100
AcDbEntity
8
0
100
AcDbPolyline
90
8
70
1
43
0.0
10
183.21250000000003
20
-40.825000000000003
42
0.41421356237312101
10
182.71250000000003
20
-40.325000000000003
10
169.71250000000001
20
-40.325000000000003
42
0.41421356237307422
10
169.21250000000001
20
-40.825000000000003
10
169.21250000000001
20
-53.82500000000001
42
0.41421356237313145
10
169.71250000000001
20
-54.32500000000001
10
182.71250000000003
20
-54.32500000000001
42
0.4142135623730222
10
183.21250000000003
20
-53.82500000000001
0
LWPOLYLINE
5
119
100
AcDbEntity
8
0
100
AcDbPolyline
90
8
70
1
43
0.0
10
45.387500000000003
20
-34.775000000000006
42
0.41421356237309503
10
45.887500000000003
20
-35.275000000000006
10
58.88750000000001
20
-35.275000000000006
42
0.41421356237309503
10
59.387500000000003
20
-34.775000000000006
10
59.387500000000003
20
-21.775000000000006
42
0.41421356237309503
10
58.88750000000001
20
-21.275000000000009
10
45.887500000000003
20
-21.275000000000009
42
0.41421356237309503
10
45.387500000000003
20
-21.775000000000006
0
LWPOLYLINE
5
120
100
AcDbEntity
8
0
100
AcDbPolyline
90
8
70
1
43
0.0
10
243.58125000000004
20
-21.775000000000006
10
243.58125000000004
20
-34.775000000000006
42
-0.41421356237304563
10
243.08125000000004
20
-35.275000000000006
10
242.08125000000001
20
-35.275000000000027
42
-0.41421356237310025
10
241.58125000000001
20
-34.775000000000006
10
241.58125000000001
20
-21.775000000000006
42
-0.41421356237305079
10
242.08125000000001
20
-21.275000000000009
10
243.08125000000004
20
-21.274999999999984
42
-0.41421356237310281
0
LWPOLYLINE
5
121
100
AcDbEntity
8
0
100
AcDbPolyline
90
8
70
1
43
0.0
10
211.78750000000002
20
-21.775000000000006
42
0.41421356237313406
10
211.28749999999999
20
-21.274999999999999
10
198.28749999999999
20
-21.275000000000009
42
0.41421356237305079
10
197.78749999999999
20
-21.775000000000006
10
197.78749999999999
20
-34.775000000000006
42
0.41421356237310025
10
198.28749999999999
20
-35.275000000000006
10
211.28749999999999
20
-35.275000000000006
42
0.41421356237307683
10
211.78750000000002
20
-34.775000000000006
0
LWPOLYLINE
5
122
100
AcDbEntity
8
0
100
AcDbPolyline
90
8
70
1
43
0.0
10
140.63749999999999
20
-34.775000000000006
10
140.63749999999999
20
-21.775000000000006
42
-0.41421356237310802
10
141.13749999999999
20
-21.275000000000009
10
154.13749999999999
20
-21.274999999999999
42
-0.41421356237309503
10
154.63750000000002
20
-21.775000000000006
10
154.63750000000002
20
-34.775000000000006
42
-0.41421356237310542
10
154.13749999999999
20
-35.275000000000006
10
141.13749999999999
20
-35.275000000000013
42
-0.41421356237309243
0
LWPOLYLINE
5
123
100
AcDbEntity
8
0
100
AcDbPolyline
90
8
70
1
43
0.0
10
224.48125000000002
20
-21.275000000000009
10
237.48125000000002
20
-21.274999999999984
42
-0.41421356237310281
10
237.98125000000002
20
-21.775000000000006
10
237.98125000000002
20
-34.775000000000006
42
-0.41421356237304563
10
237.48125000000002
20
-35.275000000000006
10
224.48125000000002
20
-35.275000000000006
42
-0.41421356237313145
10
223.98124999999999
20
-34.775000000000006
10
223.98124999999999
20
-21.775000000000006
42
-0.41421356237308204
0
LWPOLYLINE
5
124
100
AcDbEntity
8
0
100
AcDbPolyline
90
8
70
1
43
0.0
10
54.125000000000007
20
-16.225000000000009
10
41.125
20
-16.225000000000005
42
-0.41421356237309503
10
40.625
20
-15.725000000000007
10
40.625
20
-2.7250000000000063
42
-0.41421356237309404
10
41.125
20
-2.2250000000000063
10
54.125000000000007
20
-2.2250000000000094
42
-0.41421356237309437
10
54.625
20
-2.7250000000000063
10
54.625
20
-15.725000000000007
42
-0.4142135623730937
0
LWPOLYLINE
5
125
100
AcDbEntity
8
0
100
AcDbPolyline
90
8
70
1
43
0.0
10
36.362499999999997
20
-40.325000000000003
42
0.41421356237309503
10
35.862500000000004
20
-40.825000000000003
10
35.862500000000004
20
-53.82500000000001
42
0.41421356237309503
10
36.362499999999997
20
-54.32500000000001
10
49.362500000000004
20
-54.32500000000001
42
0.41421356237309503
10
49.862499999999997
20
-53.82500000000001
10
49.862499999999997
20
-40.825000000000003
42
0.41421356237309503
10
49.362500000000004
20
-40.325000000000003
0
LWPOLYLINE
5
126
100
AcDbEntity
8
0
100
AcDbPolyline
90
8
70
1
43
0.0
10
29.268749999999997
20
-40.825000000000003
42
0.41421356237309503
10
28.768750000000001
20
-40.325000000000003
10
27.768750000000004
20
-40.325000000000003
42
0.41421356237309503
10
27.268750000000004
20
-40.825000000000003
10
27.268750000000004
20
-53.82500000000001
42
0.41421356237309503
10
27.768750000000004
20
-54.32500000000001
10
28.768750000000001
20
-54.32500000000001
42
0.41421356237309503
10
29.268749999999997
20
-53.82500000000001
0
LWPOLYLINE
5
127
100
AcDbEntity
8
0
100
AcDbPolyline
90
8
70
1
43
0.0
10
116.53750000000001
20
-21.775000000000006
42
0.41421356237307422
10
116.03749999999999
20
-21.274999999999999
10
103.03750000000001
20
-21.275000000000009
42
0.41421356237310802
10
102.53749999999999
20
-21.775000000000006
10
102.53749999999999
20
-34.775000000000006
42
0.41421356237309243
10
103.03750000000001
20
-35.27500000000002
10
116.03749999999999
20
-35.275000000000006
42
0.41421356237310025
10
116.53749999999999
20
-34.775000000000006
0
LWPOLYLINE
5
128
100
AcDbEntity
8
0
100
AcDbPolyline
90
8
70
1
43
0.0
10
23.668749999999999
20
-40.825000000000003
42
0.41421356237309243
10
23.168750000000003
20
-40.325000000000003
10
10.168749999999999
20
-40.325000000000003
42
0.41421356237309503
10
9.6687499999999993
20
-40.825000000000003
10
9.6687499999999993
20
-53.82500000000001
42
0.41421356237309243
10
10.168749999999998
20
-54.32500000000001
10
23.168749999999999
20
-54.32500000000001
42
0.41421356237309503
10
23.668749999999996
20
-53.82500000000001
0
LWPOLYLINE
5
129
100
AcDbEntity
8
0
100
AcDbPolyline
90
8
70
1
43
0.0
10
97.487500000000011
20
-21.775000000000006
10
97.487500000000011
20
-34.775000000000006
42
-0.41421356237310542
10
96.987500000000011
20
-35.275000000000006
10
83.987499999999997
20
-35.275000000000013
42
-0.41421356237309243
10
83.487499999999983
20
-34.775000000000006
10
83.487499999999983
20
-21.775000000000006
42
-0.41421356237310802
10
83.987499999999997
20
-21.275000000000009
10
96.987500000000011
20
-21.274999999999999
42
-0.41421356237309503
0
LWPOLYLINE
5
130
100
AcDbEntity
8
0
100
AcDbPolyline
90
8
70
1
43
0.0
10
173.97500000000002
20
-15.725000000000007
10
173.97499999999997
20
-2.7250000000000085
42
-0.41421356237307877
10
174.47500000000002
20
-2.2250000000000063
10
187.47499999999999
20
-2.2250000000000059
42
-0.41421356237313273
10
187.97499999999999
20
-2.7250000000000063
10
187.97500000000002
20
-15.725000000000007
42
-0.4142135623730781
10
187.47499999999999
20
-16.225000000000009
10
174.47500000000002
20
-16.225000000000009
42
-0.41421356237313406
0
LWPOLYLINE
5
131
100
AcDbEntity
8
0
100
AcDbPolyline
90
8
70
1
43
0.0
10
111.27500000000001
20
-16.225000000000009
42
0.41421356237310675
10
111.77500000000002
20
-15.725000000000007
10
111.77500000000002
20
-2.7250000000000063
42
0.41421356237309437
10
111.27500000000001
20
-2.2250000000000059
10
98.275000000000006
20
-2.2250000000000063
42
0.41421356237310675
10
97.775000000000006
20
-2.7250000000000085
10
97.775000000000006
20
-15.725000000000007
42
0.41421356237309631
10
98.275000000000006
20
-16.225000000000005
0
LWPOLYLINE
5
132
100
AcDbEntity
8
0
100
AcDbPolyline
90
8
70
1
43
0.0
10
193.02500000000003
20
-15.725000000000007
42
0.41421356237313406
10
193.52500000000003
20
-16.225000000000016
10
206.52500000000003
20
-16.225000000000009
42
0.41421356237304691
10
207.02500000000003
20
-15.725000000000007
10
207.02500000000003
20
-2.7250000000000063
42
0.41421356237310153
10
206.52500000000003
20
-2.2249999999999881
10
193.52500000000003
20
-2.2250000000000063
42
0.41421356237307877
10
193.02500000000003
20
-2.7250000000000085
0
LWPOLYLINE
5
133
100
AcDbEntity
8
0
100
AcDbPolyline
90
8
70
1
43
0.0
10
18.40625
20
-35.275000000000006
10
5.4062500000000036
20
-35.275000000000006
42
-0.41421356237309764
10
4.90625
20
-34.775000000000006
10
4.9062500000000036
20
-21.775000000000006
42
-0.41421356237309437
10
5.40625
20
-21.275000000000009
10
18.40625
20
-21.275000000000006
42
-0.41421356237309243
10
18.906250000000004
20
-21.775000000000006
10
18.906250000000004
20
-34.775000000000006
42
-0.41421356237309631
0
LWPOLYLINE
5
134
100
AcDbEntity
8
0
100
AcDbPolyline
90
8
70
1
43
0.0
10
16.024999999999999
20
-16.225000000000009
10
3.0250000000000021
20
-16.225000000000009
42
-0.41421356237309598
10
2.5249999999999999
20
-15.725000000000007
10
2.5249999999999999
20
-2.7250000000000085
42
-0.4142135623730957
10
3.0249999999999999
20
-2.2250000000000063
10
16.024999999999999
20
-2.225000000000005
42
-0.41421356237309309
10
16.525000000000002
20
-2.7250000000000063
10
16.525000000000002
20
-15.725000000000007
42
-0.41421356237309243
0
LWPOLYLINE
5
135
100
AcDbEntity
8
0
100
AcDbPolyline
90
8
70
1
43
0.0
10
229.24375000000001
20
-40.325000000000003
42
0.41421356237307422
10
228.74374999999998
20
-40.825000000000003
10
228.74375000000001
20
-53.82500000000001
42
0.41421356237313145
10
229.24375000000001
20
-54.32500000000001
10
242.24375000000003
20
-54.32500000000001
42
0.4142135623730222
10
242.74375000000003
20
-53.82500000000001
10
242.74375000000003
20
-40.825000000000003
42
0.41421356237312101
10
242.24375000000003
20
-40.325000000000003
0
CIRCLE
5
136
100
AcDbEntity
8
0
100
AcDbCircle
10
252.8366532675779
20
-9.5249999999999879
30
0
40
1.4499999999999957
210
0
220
-0
230
1
0
LWPOLYLINE
5
137
100
AcDbEntity
8
0
100
AcDbPolyline
90
8
70
1
43
0.0
10
92.224999999999994
20
-16.225000000000009
10
79.224999999999994
20
-16.225000000000009
42
-0.41421356237309764
10
78.724999999999994
20
-15.725000000000007
10
78.724999999999994
20
-2.7250000000000063
42
-0.41421356237309664
10
79.224999999999994
20
-2.2250000000000063
10
92.224999999999994
20
-2.2250000000000005
42
-0.41421356237309437
10
92.725000000000009
20
-2.7250000000000063
10
92.725000000000009
20
-15.725000000000007
42
-0.41421356237310675
0
CIRCLE
5
138
100
AcDbEntity
8
0
100
AcDbCircle
10
252.8366532675779
20
-66.674999999999997
30
0
40
1.4499999999999957
210
0
220
-0
230
1
0
LWPOLYLINE
5
139
100
AcDbEntity
8
0
100
AcDbPolyline
90
8
70
1
43
0.0
10
73.174999999999997
20
-16.225000000000009
10
60.174999999999997
20
-16.225000000000009
42
-0.41421356237309764
10
59.675000000000004
20
-15.725000000000007
10
59.675000000000004
20
-2.7250000000000063
42
-0.41421356237309664
10
60.174999999999997
20
-2.2250000000000063
10
73.174999999999997
20
-2.2250000000000094
42
-0.41421356237309437
10
73.674999999999997
20
-2.7250000000000063
10
73.674999999999997
20
-15.725000000000007
42
-0.4142135623730937
0
LWPOLYLINE
5
140
100
AcDbEntity
8
0
100
AcDbPolyline
90
24
70
1
43
0.0
10
6.0687500000000005
20
-44.625000000000014
42
0.41421356237309631
10
6.5687500000000032
20
-45.125000000000014
10
7.5687499999999996
20
-45.125000000000014
42
-0.4142135623730957
10
8.0687499999999996
20
-45.625000000000007
10
8.0687499999999996
20
-51.125000000000007
42
-0.4142135623730957
10
7.5687499999999996
20
-51.625000000000007
10
6.5687500000000032
20
-51.625000000000007
42
0.41421356237309437
10
6.0687500000000059
20
-52.125
10
6.068749999999997
20
-54.125000000000014
42
-0.4142135623730937
10
5.5687500000000014
20
-54.625000000000014
10
4.5687500000000014
20
-54.625000000000014
42
-0.41421356237309437
10
4.0687500000000014
20
-54.125000000000014
10
4.0687500000000014
20
-52.125
42
0.41421356237309342
10
3.568750000000005
20
-51.625000000000007
10
2.5687499999999996
20
-51.625000000000014
42
-0.41421356237309437
10
2.068750000000001
20
-51.125000000000014
10
2.0687500000000023
20
-45.625000000000007
42
-0.41421356237309437
10
2.5687499999999996
20
-45.125000000000014
10
3.568750000000005
20
-45.125000000000021
42
0.41421356237309631
10
4.068750000000005
20
-44.625000000000014
10
4.0687500000000041
20
-41.125000000000007
42
-0.41421356237309404
10
4.5687500000000005
20
-40.625000000000007
10
5.5687499999999979
20
-40.625
42
-0.4142135623730957
10
6.0687500000000014
20
-41.125000000000007
0
LWPOLYLINE
5
141
100
AcDbEntity
8
0
100
AcDbPolyline
90
8
70
1
43
0.0
10
77.9375
20
-35.275000000000006
42
0.41421356237309503
10
78.4375
20
-34.775000000000006
10
78.4375
20
-21.775000000000006
42
0.41421356237309503
10
77.9375
20
-21.275000000000009
10
64.9375
20
-21.275000000000009
42
0.41421356237309764
10
64.437500000000014
20
-21.775000000000006
10
64.4375
20
-34.775000000000006
42
0.41421356237309764
10
64.9375
20
-35.275000000000006
0
CIRCLE
5
142
100
AcDbEntity
8
0
100
AcDbCircle
10
-5.1869999999999949
20
-9.5249999999999879
30
0
40
1.4499999999999991
210
0
220
-0
230
1
0
CIRCLE
5
143
100
AcDbEntity
8
0
100
AcDbCircle
10
-5.1870000000000038
20
-66.674999999999997
30
0
40
1.4500000000000002
210
0
220
-0
230
1
0
LWPOLYLINE
5
144
100
AcDbEntity
8
0
100
AcDbPolyline
90
56
70
1
43
0.0
10
175.56875000000002
20
-78.137499999999989
42
0.41421356237309503
10
176.06875000000002
20
-77.637500000000017
10
176.06874999999999
20
-64.637499999999974
42
0.41421356237309503
10
175.56875000000002
20
-64.137500000000003
10
175.45000000000002
20
-64.137500000000003
42
-0.41421356237313667
10
174.95000000000002
20
-63.637499999999996
10
174.95000000000002
20
-62.637499999999982
42
0.41421356237309503
10
174.44999999999999
20
-62.13750000000001
10
168.44999999999999
20
-62.13750000000001
42
0.41421356237309503
10
167.94999999999999
20
-62.637499999999982
10
167.94999999999999
20
-63.637499999999996
42
-0.41421356237313667
10
167.44999999999999
20
-64.137500000000003
10
146.87500000000003
20
-64.137500000000003
42
-0.41421356237309503
10
146.375
20
-63.637499999999996
10
146.375
20
-62.637499999999982
42
0.41421356237309503
10
145.875
20
-62.13750000000001
10
139.875
20
-62.13750000000001
42
0.41421356237309503
10
139.375
20
-62.637499999999982
10
139.375
20
-63.637499999999996
42
-0.41421356237313667
10
138.875
20
-64.137500000000003
10
137.35000000000002
20
-64.137500000000003
42
-0.41421356237309503
10
136.84999999999999
20
-63.637499999999996
10
136.84999999999999
20
-62.637499999999982
42
0.41421356237309503
10
136.34999999999999
20
-62.13750000000001
10
130.34999999999999
20
-62.13750000000001
42
0.41421356237309503
10
129.84999999999999
20
-62.637499999999982
10
129.84999999999999
20
-63.637499999999996
42
-0.41421356237313667
10
129.34999999999999
20
-64.137500000000003
10
118.30000000000001
20
-64.137500000000003
42
-0.41421356237313667
10
117.80000000000001
20
-63.637499999999996
10
117.80000000000001
20
-62.637499999999982
42
0.41421356237309503
10
117.30000000000001
20
-62.13750000000001
10
111.30000000000001
20
-62.13750000000001
42
0.41421356237309503
10
110.8
20
-62.637499999999982
10
110.8
20
-63.637499999999996
42
-0.41421356237309503
10
110.3
20
-64.137500000000003
10
108.77500000000005
20
-64.137500000000003
42
-0.41421356237313667
10
108.27500000000003
20
-63.637499999999996
10
108.27500000000002
20
-62.637499999999982
42
0.41421356237309503
10
107.77500000000002
20
-62.13750000000001
10
101.77500000000002
20
-62.13750000000001
42
0.41421356237309503
10
101.27500000000001
20
-62.637499999999982
10
101.27500000000001
20
-63.637499999999996
42
-0.41421356237313667
10
100.77500000000001
20
-64.137500000000003
10
80.200000000000017
20
-64.137499999999989
42
-0.41421356237310542
10
79.700000000000003
20
-63.637499999999996
10
79.700000000000003
20
-62.637499999999982
42
0.41421356237309503
10
79.200000000000003
20
-62.13750000000001
10
73.200000000000003
20
-62.13750000000001
42
0.41421356237309503
10
72.700000000000003
20
-62.637499999999982
10
72.699999999999989
20
-63.637499999999996
42
-0.41421356237313145
10
72.200000000000003
20
-64.137500000000003
10
72.081249999999997
20
-64.137500000000003
42
0.41421356237309503
10
71.581249999999997
20
-64.637499999999974
10
71.581249999999997
20
-77.637500000000017
42
0.41421356237309503
10
72.081249999999997
20
-78.137499999999989
0
LWPOLYLINE
5
145
100
AcDbEntity
8
0
100
AcDbPolyline
90
25
70
1
43
0.0
10
212.07499999999999
20
-15.724999999999998
42
0.41421356237309503
10
212.57499999999999
20
-16.225000000000005
10
213.16200000000003
20
-16.225000000000005
10
244.62500000000003
20
-16.225000000000005
42
0.4142135623730846
10
245.12500000000003
20
-15.725000000000016
10
245.12500000000003
20
-2.7250000000000085
42
0.41421356237309503
10
244.62500000000003
20
-2.2250000000000014
10
244.53800000000001
20
-2.2250000000000192
42
-0.41421356237310542
10
244.03800000000001
20
-1.7249999999999943
10
244.03800000000001
20
-0.72499999999999787
42
0.41421356237309503
10
243.53800000000001
20
-0.22499999999999076
10
237.53799999999998
20
-0.22499999999999076
42
0.41421356237309503
10
237.03800000000001
20
-0.72499999999999787
10
237.03800000000001
20
-1.7249999999999943
42
-0.41421356237313667
10
236.53800000000001
20
-2.2250000000000014
10
220.66200000000003
20
-2.2250000000000192
42
-0.41421356237310542
10
220.16200000000001
20
-1.7249999999999943
10
220.16200000000001
20
-0.72499999999999787
42
0.41421356237309503
10
219.66200000000001
20
-0.22499999999999076
10
213.66200000000003
20
-0.22499999999999076
42
0.41421356237309503
10
213.16200000000003
20
-0.72499999999999787
10
213.16200000000003
20
-1.7249999999999943
42
-0.41421356237313667
10
212.66200000000001
20
-2.2250000000000014
10
212.57499999999999
20
-2.2250000000000014
42
0.41421356237309503
10
212.07499999999999
20
-2.7250000000000085
0
LWPOLYLINE
5
146
100
AcDbEntity
8
0
100
AcDbPolyline
90
24
70
1
43
0.0
10
7.2874999999999996
20
-72.875000000000014
42
0.41421356237309503
10
7.7875000000000005
20
-73.374999999999986
10
58.88750000000001
20
-73.374999999999986
42
0.41421356237309503
10
59.387500000000003
20
-72.875000000000014
10
59.387500000000003
20
-59.874999999999986
42
0.41421356237309503
10
58.88750000000001
20
-59.375000000000014
10
56.38750000000001
20
-59.375000000000014
42
-0.414213562373069
10
55.88750000000001
20
-58.875000000000014
10
55.887500000000003
20
-57.874999999999979
42
0.41421356237309503
10
55.387500000000003
20
-57.375000000000007
10
49.387500000000003
20
-57.375000000000007
42
0.41421356237309503
10
48.88750000000001
20
-57.874999999999979
10
48.88750000000001
20
-58.875000000000014
42
-0.41421356237305862
10
48.38750000000001
20
-59.375
10
18.287500000000001
20
-59.375000000000014
42
-0.41421356237306772
10
17.787500000000001
20
-58.875000000000014
10
17.787500000000001
20
-57.874999999999979
42
0.41421356237309503
10
17.287500000000001
20
-57.375000000000007
10
11.2875
20
-57.375000000000007
42
0.41421356237309503
10
10.787499999999998
20
-57.874999999999979
10
10.787499999999994
20
-58.875000000000014
42
-0.41421356237306772
10
10.287499999999998
20
-59.375000000000014
10
7.7875000000000005
20
-59.375000000000014
42
0.41421356237309503
10
7.2874999999999996
20
-59.874999999999986
0
LWPOLYLINE
5
147
100
AcDbEntity
8
0
100
AcDbPolyline
90
24
70
1
43
0.0
10
240.36250000000001
20
-59.874999999999986
42
0.41421356237309503
10
239.86250000000001
20
-59.374999999999986
10
237.36250000000001
20
-59.374999999999986
42
-0.41421356237309503
10
236.86250000000001
20
-58.874999999999972
10
236.86250000000001
20
-57.874999999999979
42
0.41421356237309503
10
236.36250000000004
20
-57.375000000000007
10
230.36250000000001
20
-57.375000000000007
42
0.41421356237309503
10
229.86250000000001
20
-57.874999999999979
10
229.86250000000001
20
-58.874999999999993
42
-0.41421356237312623
10
229.36250000000001
20
-59.374999999999986
10
199.26249999999999
20
-59.375000000000014
42
-0.41421356237309503
10
198.76249999999999
20
-58.875000000000014
10
198.76249999999999
20
-57.874999999999979
42
0.41421356237309503
10
198.26250000000002
20
-57.375000000000007
10
192.26249999999999
20
-57.375000000000007
42
0.41421356237309503
10
191.76249999999999
20
-57.874999999999979
10
191.76249999999999
20
-58.875000000000014
42
-0.4142135623730846
10
191.26249999999999
20
-59.375
10
188.76249999999999
20
-59.375000000000014
42
0.41421356237309503
10
188.26249999999999
20
-59.874999999999986
10
188.26249999999999
20
-72.875000000000014
42
0.41421356237309503
10
188.76249999999999
20
-73.374999999999986
10
239.86250000000001
20
-73.374999999999986
42
0.41421356237309503
10
240.36250000000001
20
-72.875000000000014
0
ENDSEC
0
SECTION
2
OBJECTS
0
DICTIONARY
5
C
100
AcDbDictionary
3
ACAD_GROUP
350
D
3
ACAD_MLINESTYLE
350
17
0
DICTIONARY
5
D
100
AcDbDictionary
0
DICTIONARY
5
1A
330
C
100
AcDbDictionary
0
DICTIONARY
5
17
100
AcDbDictionary
0
ENDSEC
0
EOF
