M48
; DRILL file {KiCad (6.0.7)} date Fri Feb  3 16:15:26 2023
; FORMAT={-:-/ absolute / inch / decimal}
; #@! TF.CreationDate,2023-02-03T16:15:26+01:00
; #@! TF.GenerationSoftware,Kicad,Pcbnew,(6.0.7)
; #@! TF.FileFunction,NonPlated,1,2,NPTH
FMAT,2
INCH
; #@! TA.AperFunction,NonPlated,NPTH,ComponentDrill
T1C0.0256
; #@! TA.AperFunction,NonPlated,NPTH,ComponentDrill
T2C0.0591
; #@! TA.AperFunction,NonPlated,NPTH,ComponentDrill
T3C0.0689
; #@! TA.AperFunction,NonPlated,NPTH,ComponentDrill
T4C0.1200
; #@! TA.AperFunction,NonPlated,NPTH,ComponentDrill
T5C0.1570
; #@! TA.AperFunction,NonPlated,NPTH,ComponentDrill
T6C0.1575
%
G90
G05
T1
X1.5737Y-2.1137
X1.8013Y-2.1137
T3
X1.1125Y-2.3125
X1.1125Y-3.0625
X1.1125Y-3.8125
X1.207Y-3.8118
X1.3Y-3.8125
X1.3Y-4.5625
X1.4875Y-4.5625
X1.5125Y-2.3125
X1.5125Y-3.0625
X1.5125Y-3.8125
X1.607Y-3.8118
X1.7Y-3.8125
X1.7Y-4.5625
X1.8625Y-2.3125
X1.8625Y-3.0625
X1.8625Y-3.8125
X1.8875Y-4.5625
X2.05Y-3.8125
X2.05Y-4.5625
X2.05Y-4.5625
X2.2375Y-3.8125
X2.2625Y-2.3125
X2.2625Y-3.0625
X2.2625Y-3.8125
X2.45Y-3.8125
X2.45Y-4.5625
X2.45Y-4.5625
X2.6125Y-2.3125
X2.6125Y-3.0625
X2.6125Y-3.8125
X2.6125Y-4.5625
X2.6375Y-3.8125
X2.8Y-3.8125
X2.8Y-4.5625
X2.9875Y-3.8125
X3.0125Y-2.3125
X3.0125Y-3.0625
X3.0125Y-3.8125
X3.0125Y-4.5625
X3.2Y-3.8125
X3.2Y-4.5625
X3.3625Y-2.3125
X3.3625Y-3.0625
X3.3625Y-3.8125
X3.3875Y-3.8125
X3.55Y-3.8125
X3.7375Y-3.8125
X3.7625Y-2.3125
X3.7625Y-3.0625
X3.7625Y-3.8125
X3.8318Y-4.7494
X3.925Y-4.75
X3.95Y-3.8125
X4.1125Y-2.3125
X4.1125Y-3.0625
X4.1125Y-3.8125
X4.1375Y-3.8125
X4.2318Y-4.7494
X4.3Y-3.8125
X4.325Y-4.75
X4.4875Y-3.8125
X4.4875Y-4.75
X4.5125Y-2.3125
X4.5125Y-3.0625
X4.5125Y-3.8125
X4.7Y-3.8125
X4.8625Y-2.3125
X4.8625Y-3.0625
X4.8625Y-3.8125
X4.8625Y-4.75
X4.8875Y-3.8125
X4.8875Y-4.75
X4.9568Y-4.7494
X5.05Y-3.8125
X5.2375Y-3.8125
X5.2625Y-2.3125
X5.2625Y-3.0625
X5.2625Y-3.8125
X5.2625Y-4.75
X5.3568Y-4.7494
X5.45Y-3.8125
X5.6125Y-2.3125
X5.6125Y-3.0625
X5.6125Y-4.75
X5.6125Y-4.75
X5.6375Y-3.8125
X5.9875Y-3.8125
X6.0125Y-2.3125
X6.0125Y-3.0625
X6.0125Y-4.75
X6.0125Y-4.75
X6.175Y-3.8125
X6.2693Y-4.7494
X6.3625Y-2.3125
X6.3625Y-3.0625
X6.3625Y-3.8125
X6.3625Y-4.75
X6.3875Y-3.8125
X6.575Y-3.8125
X6.6693Y-4.7494
X6.7375Y-3.8125
X6.7375Y-4.75
X6.7625Y-2.3125
X6.7625Y-3.0625
X6.7625Y-3.8125
X6.7625Y-4.75
X6.925Y-3.8125
X7.1125Y-2.3125
X7.1125Y-3.0625
X7.1125Y-3.8125
X7.1375Y-3.8125
X7.1375Y-4.75
X7.3Y-4.75
X7.325Y-3.8125
X7.3943Y-4.7494
X7.4875Y-3.8125
X7.5125Y-2.3125
X7.5125Y-3.0625
X7.5125Y-3.8125
X7.675Y-3.8125
X7.7Y-4.75
X7.7943Y-4.7494
X7.8625Y-2.3125
X7.8625Y-3.0625
X7.8625Y-3.8125
X7.8875Y-3.8125
X8.075Y-3.8125
X8.2375Y-3.8125
X8.2625Y-2.3125
X8.2625Y-3.0625
X8.2625Y-3.8125
X8.425Y-3.8125
X8.425Y-4.5625
X8.6125Y-2.3125
X8.6125Y-3.0625
X8.6125Y-3.8125
X8.6125Y-4.5625
X8.6375Y-3.8125
X8.8Y-3.0625
X8.825Y-3.8125
X8.825Y-4.5625
X8.9875Y-3.8125
X9.0125Y-2.3125
X9.0125Y-3.0625
X9.0125Y-3.8125
X9.0125Y-4.5625
X9.175Y-3.8125
X9.175Y-4.5625
X9.175Y-4.5625
X9.2Y-3.0625
X9.3625Y-2.3125
X9.3625Y-3.0625
X9.3625Y-3.8125
X9.3875Y-3.8125
X9.575Y-3.8125
X9.575Y-4.5625
X9.575Y-4.5625
X9.7375Y-2.3125
X9.7375Y-3.0625
X9.7375Y-4.5625
X9.7625Y-2.3125
X9.7625Y-3.0625
X9.7625Y-3.8125
X9.925Y-3.8125
X9.925Y-4.5625
X10.0187Y-3.4375
X10.02Y-3.8125
X10.1125Y-2.3125
X10.1125Y-3.0625
X10.1125Y-3.8125
X10.1375Y-2.3125
X10.1375Y-3.0625
X10.1375Y-4.5625
X10.325Y-3.8125
X10.325Y-4.5625
X10.4187Y-3.4375
X10.42Y-3.8125
X10.5125Y-2.3125
X10.5125Y-3.0625
X10.5125Y-3.8125
T4
X1.5Y-4.8375
X3.0Y-4.8375
X3.9375Y-5.025
X3.9375Y-5.025
X4.5925Y-5.025
X4.5938Y-5.025
X5.0625Y-5.025
X5.4375Y-5.025
X5.5312Y-5.025
X6.0938Y-5.025
X6.1875Y-5.025
X6.5625Y-5.025
X7.0312Y-5.025
X7.0325Y-5.026
X7.6875Y-5.025
X7.6875Y-5.025
X8.625Y-4.8375
X9.4688Y-2.0375
X9.4688Y-2.7875
X9.9437Y-2.9675
X9.9437Y-3.9075
X10.125Y-4.8375
X10.4062Y-2.0375
X10.4062Y-2.7875
T5
X1.3125Y-2.3125
X1.3125Y-3.0625
X1.3125Y-3.8125
X1.407Y-3.8118
X1.5Y-3.8125
X1.5Y-4.2375
X1.5Y-4.5625
X1.6875Y-4.5625
X2.0625Y-2.3125
X2.0625Y-3.0625
X2.0625Y-3.8125
X2.25Y-3.8125
X2.25Y-4.5625
X2.25Y-4.5625
X2.4375Y-3.8125
X2.8125Y-2.3125
X2.8125Y-3.0625
X2.8125Y-3.8125
X2.8125Y-4.5625
X3.0Y-3.8125
X3.0Y-4.2375
X3.0Y-4.5625
X3.1875Y-3.8125
X3.5625Y-2.3125
X3.5625Y-3.0625
X3.5625Y-3.8125
X3.75Y-3.8125
X3.9375Y-3.8125
X3.9375Y-4.425
X3.9375Y-4.425
X4.0318Y-4.7494
X4.125Y-4.75
X4.3125Y-2.3125
X4.3125Y-3.0625
X4.3125Y-3.8125
X4.5Y-3.8125
X4.5925Y-4.425
X4.5938Y-4.425
X4.6875Y-3.8125
X4.6875Y-4.75
X5.0625Y-2.3125
X5.0625Y-3.0625
X5.0625Y-3.8125
X5.0625Y-4.425
X5.0625Y-4.75
X5.1568Y-4.7494
X5.25Y-3.8125
X5.4375Y-3.8125
X5.4375Y-4.425
X5.5312Y-4.425
X5.8125Y-2.3125
X5.8125Y-3.0625
X5.8125Y-4.75
X5.8125Y-4.75
X6.0938Y-4.425
X6.1875Y-3.8125
X6.1875Y-4.425
X6.375Y-3.8125
X6.4693Y-4.7494
X6.5625Y-2.3125
X6.5625Y-3.0625
X6.5625Y-3.8125
X6.5625Y-4.425
X6.5625Y-4.75
X6.9375Y-3.8125
X6.9375Y-4.75
X7.0312Y-4.425
X7.0325Y-4.426
X7.125Y-3.8125
X7.3125Y-2.3125
X7.3125Y-3.0625
X7.3125Y-3.8125
X7.5Y-4.75
X7.5943Y-4.7494
X7.6875Y-3.8125
X7.6875Y-4.425
X7.6875Y-4.425
X7.875Y-3.8125
X8.0625Y-2.3125
X8.0625Y-3.0625
X8.0625Y-3.8125
X8.4375Y-3.8125
X8.625Y-3.8125
X8.625Y-4.2375
X8.625Y-4.5625
X8.8125Y-2.3125
X8.8125Y-3.0625
X8.8125Y-3.8125
X8.8125Y-4.5625
X9.0Y-3.0625
X9.1875Y-3.8125
X9.375Y-3.8125
X9.375Y-4.5625
X9.375Y-4.5625
X9.4688Y-2.6375
X9.4688Y-3.3875
X9.5625Y-2.3125
X9.5625Y-3.0625
X9.5625Y-3.8125
X9.9375Y-2.3125
X9.9375Y-3.0625
X9.9375Y-4.5625
X10.125Y-3.8125
X10.125Y-4.2375
X10.125Y-4.5625
X10.2188Y-3.4375
X10.22Y-3.8125
X10.3125Y-2.3125
X10.3125Y-3.0625
X10.3125Y-3.8125
X10.4062Y-2.6375
X10.4062Y-3.3875
X10.5437Y-2.9675
X10.5437Y-3.9075
T6
X5.8125Y-4.75
T2
G00X1.092Y-2.3381
M15
G01X1.092Y-2.2869
M16
G05
G00X1.533Y-2.3381
M15
G01X1.533Y-2.2869
M16
G05
G00X3.9119Y-4.5295
M15
G01X3.9631Y-4.5295
M16
G05
G00X3.9119Y-4.9705
M15
G01X3.9631Y-4.9705
M16
G05
G00X5.592Y-2.3381
M15
G01X5.592Y-2.2869
M16
G05
G00X5.592Y-3.0881
M15
G01X5.592Y-3.0369
M16
G05
G00X6.033Y-2.3381
M15
G01X6.033Y-2.2869
M16
G05
G00X6.033Y-3.0881
M15
G01X6.033Y-3.0369
M16
G05
G00X7.7131Y-4.5295
M15
G01X7.6619Y-4.5295
M16
G05
G00X7.7131Y-4.9705
M15
G01X7.6619Y-4.9705
M16
G05
G00X10.3381Y-2.092
M15
G01X10.2869Y-2.092
M16
G05
G00X10.3381Y-2.533
M15
G01X10.2869Y-2.533
M16
G05
T0
M30
