%TF.GenerationSoftware,KiCad,Pcbnew,(6.0.11)*%
%TF.CreationDate,2023-03-04T15:51:49+01:00*%
%TF.ProjectId,alpha-curISO_routingv6,616c7068-612d-4637-9572-49534f5f726f,rev?*%
%TF.SameCoordinates,Original*%
%TF.FileFunction,Paste,Bot*%
%TF.FilePolarity,Positive*%
%FSLAX46Y46*%
G04 Gerber Fmt 4.6, Leading zero omitted, Abs format (unit mm)*
G04 Created by KiCad (PCBNEW (6.0.11)) date 2023-03-04 15:51:49*
%MOMM*%
%LPD*%
G01*
G04 APERTURE LIST*
G04 Aperture macros list*
%AMRoundRect*
0 Rectangle with rounded corners*
0 $1 Rounding radius*
0 $2 $3 $4 $5 $6 $7 $8 $9 X,Y pos of 4 corners*
0 Add a 4 corners polygon primitive as box body*
4,1,4,$2,$3,$4,$5,$6,$7,$8,$9,$2,$3,0*
0 Add four circle primitives for the rounded corners*
1,1,$1+$1,$2,$3*
1,1,$1+$1,$4,$5*
1,1,$1+$1,$6,$7*
1,1,$1+$1,$8,$9*
0 Add four rect primitives between the rounded corners*
20,1,$1+$1,$2,$3,$4,$5,0*
20,1,$1+$1,$4,$5,$6,$7,0*
20,1,$1+$1,$6,$7,$8,$9,0*
20,1,$1+$1,$8,$9,$2,$3,0*%
G04 Aperture macros list end*
%ADD10R,1.600000X1.200000*%
%ADD11R,1.100000X1.100000*%
%ADD12R,1.700000X1.000000*%
%ADD13R,1.700000X0.820000*%
%ADD14RoundRect,0.205000X0.645000X0.205000X-0.645000X0.205000X-0.645000X-0.205000X0.645000X-0.205000X0*%
%ADD15RoundRect,0.135000X0.185000X-0.135000X0.185000X0.135000X-0.185000X0.135000X-0.185000X-0.135000X0*%
%ADD16R,0.700000X0.700000*%
%ADD17RoundRect,0.140000X-0.170000X0.140000X-0.170000X-0.140000X0.170000X-0.140000X0.170000X0.140000X0*%
%ADD18RoundRect,0.140000X0.170000X-0.140000X0.170000X0.140000X-0.170000X0.140000X-0.170000X-0.140000X0*%
%ADD19RoundRect,0.250000X-0.350000X-0.450000X0.350000X-0.450000X0.350000X0.450000X-0.350000X0.450000X0*%
%ADD20RoundRect,0.140000X0.140000X0.170000X-0.140000X0.170000X-0.140000X-0.170000X0.140000X-0.170000X0*%
%ADD21RoundRect,0.250000X0.337500X0.475000X-0.337500X0.475000X-0.337500X-0.475000X0.337500X-0.475000X0*%
%ADD22R,2.300000X2.300000*%
%ADD23RoundRect,0.150000X0.512500X0.150000X-0.512500X0.150000X-0.512500X-0.150000X0.512500X-0.150000X0*%
%ADD24RoundRect,0.135000X-0.185000X0.135000X-0.185000X-0.135000X0.185000X-0.135000X0.185000X0.135000X0*%
%ADD25RoundRect,0.150000X-0.587500X-0.150000X0.587500X-0.150000X0.587500X0.150000X-0.587500X0.150000X0*%
%ADD26R,1.200000X1.400000*%
%ADD27RoundRect,0.150000X0.150000X-0.587500X0.150000X0.587500X-0.150000X0.587500X-0.150000X-0.587500X0*%
%ADD28RoundRect,0.140000X-0.140000X-0.170000X0.140000X-0.170000X0.140000X0.170000X-0.140000X0.170000X0*%
%ADD29RoundRect,0.200000X-0.275000X0.200000X-0.275000X-0.200000X0.275000X-0.200000X0.275000X0.200000X0*%
%ADD30RoundRect,0.135000X0.135000X0.185000X-0.135000X0.185000X-0.135000X-0.185000X0.135000X-0.185000X0*%
%ADD31RoundRect,0.150000X0.650000X0.150000X-0.650000X0.150000X-0.650000X-0.150000X0.650000X-0.150000X0*%
%ADD32RoundRect,0.150000X0.150000X-0.512500X0.150000X0.512500X-0.150000X0.512500X-0.150000X-0.512500X0*%
%ADD33RoundRect,0.250000X-0.625000X0.375000X-0.625000X-0.375000X0.625000X-0.375000X0.625000X0.375000X0*%
%ADD34R,0.600000X2.450000*%
%ADD35R,0.300000X2.450000*%
%ADD36RoundRect,0.250000X0.292217X0.292217X-0.292217X0.292217X-0.292217X-0.292217X0.292217X-0.292217X0*%
%ADD37RoundRect,0.050000X0.387500X0.050000X-0.387500X0.050000X-0.387500X-0.050000X0.387500X-0.050000X0*%
%ADD38RoundRect,0.050000X0.050000X0.387500X-0.050000X0.387500X-0.050000X-0.387500X0.050000X-0.387500X0*%
%ADD39RoundRect,0.250000X0.350000X0.450000X-0.350000X0.450000X-0.350000X-0.450000X0.350000X-0.450000X0*%
G04 APERTURE END LIST*
D10*
%TO.C,R8*%
X208150000Y-120650000D03*
X210950000Y-120650000D03*
%TD*%
D11*
%TO.C,D32*%
X188912500Y-79187500D03*
X188912500Y-76387500D03*
%TD*%
D12*
%TO.C,SW27*%
X84112500Y-71750000D03*
X77812500Y-71750000D03*
X84112500Y-67950000D03*
X77812500Y-67950000D03*
%TD*%
D13*
%TO.C,LED2*%
X150187500Y-108700000D03*
X150187500Y-107200000D03*
D14*
X145087500Y-107200000D03*
D13*
X145087500Y-108700000D03*
%TD*%
D11*
%TO.C,D2*%
X36512500Y-77981000D03*
X36512500Y-75181000D03*
%TD*%
D15*
%TO.C,R7*%
X43230800Y-90680000D03*
X43230800Y-89660000D03*
%TD*%
D16*
%TO.C,LED8*%
X193002500Y-105812500D03*
X193002500Y-106912500D03*
X191172500Y-106912500D03*
X191172500Y-105812500D03*
%TD*%
D11*
%TO.C,D11*%
X84137500Y-101412500D03*
X84137500Y-98612500D03*
%TD*%
D17*
%TO.C,C2*%
X47904400Y-89639200D03*
X47904400Y-90599200D03*
%TD*%
D11*
%TO.C,D9*%
X74612500Y-60137500D03*
X74612500Y-57337500D03*
%TD*%
%TO.C,D50*%
X154686000Y-101349000D03*
X154686000Y-98549000D03*
%TD*%
%TO.C,D7*%
X65087500Y-101412500D03*
X65087500Y-98612500D03*
%TD*%
D18*
%TO.C,C10*%
X40792400Y-77823000D03*
X40792400Y-76863000D03*
%TD*%
D17*
%TO.C,C14*%
X41706800Y-93855600D03*
X41706800Y-94815600D03*
%TD*%
D11*
%TO.C,D24*%
X150812500Y-123637500D03*
X150812500Y-120837500D03*
%TD*%
D19*
%TO.C,UR1*%
X159337500Y-66516250D03*
X161337500Y-66516250D03*
%TD*%
D11*
%TO.C,D42*%
X239712500Y-61725000D03*
X239712500Y-58925000D03*
%TD*%
%TO.C,D44*%
X246062500Y-101412500D03*
X246062500Y-98612500D03*
%TD*%
%TO.C,D5*%
X60325000Y-60137500D03*
X60325000Y-57337500D03*
%TD*%
%TO.C,D23*%
X138112500Y-123637500D03*
X138112500Y-120837500D03*
%TD*%
%TO.C,D49*%
X260350000Y-118875000D03*
X260350000Y-116075000D03*
%TD*%
D20*
%TO.C,C1*%
X46003085Y-94996000D03*
X45043085Y-94996000D03*
%TD*%
D11*
%TO.C,D25*%
X150812500Y-60137500D03*
X150812500Y-57337500D03*
%TD*%
D18*
%TO.C,C5*%
X32764129Y-70306555D03*
X32764129Y-69346555D03*
%TD*%
D11*
%TO.C,D13*%
X93662500Y-60137500D03*
X93662500Y-57337500D03*
%TD*%
%TO.C,D39*%
X220662500Y-80775000D03*
X220662500Y-77975000D03*
%TD*%
D21*
%TO.C,C18*%
X161375000Y-68897500D03*
X159300000Y-68897500D03*
%TD*%
D18*
%TO.C,C19*%
X29006800Y-91412000D03*
X29006800Y-90452000D03*
%TD*%
D11*
%TO.C,D19*%
X111918750Y-123637500D03*
X111918750Y-120837500D03*
%TD*%
D16*
%TO.C,LED4*%
X121322500Y-67225000D03*
X121322500Y-66125000D03*
X123152500Y-66125000D03*
X123152500Y-67225000D03*
%TD*%
D22*
%TO.C,LS2*%
X207962500Y-104625000D03*
X207962500Y-117625000D03*
%TD*%
D23*
%TO.C,U5*%
X33090700Y-89982000D03*
X33090700Y-90932000D03*
X33090700Y-91882000D03*
X30815700Y-91882000D03*
X30815700Y-89982000D03*
%TD*%
D24*
%TO.C,R9*%
X202692000Y-110615000D03*
X202692000Y-111635000D03*
%TD*%
D25*
%TO.C,Q1*%
X199087500Y-112075000D03*
X199087500Y-110175000D03*
X200962500Y-111125000D03*
%TD*%
D26*
%TO.C,Y1*%
X44629600Y-93439736D03*
X44629600Y-91239736D03*
X46329600Y-91239736D03*
X46329600Y-93439736D03*
%TD*%
D27*
%TO.C,U3*%
X37734952Y-70381444D03*
X35834952Y-70381444D03*
X36784952Y-68506444D03*
%TD*%
D20*
%TO.C,C16*%
X37056000Y-80086386D03*
X36096000Y-80086386D03*
%TD*%
D11*
%TO.C,D46*%
X265112500Y-60137500D03*
X265112500Y-57337500D03*
%TD*%
%TO.C,D21*%
X131762500Y-79187500D03*
X131762500Y-76387500D03*
%TD*%
D28*
%TO.C,C13*%
X51082000Y-85090000D03*
X52042000Y-85090000D03*
%TD*%
D11*
%TO.C,D48*%
X264795000Y-101349000D03*
X264795000Y-98549000D03*
%TD*%
%TO.C,D40*%
X227012500Y-101412500D03*
X227012500Y-98612500D03*
%TD*%
%TO.C,D35*%
X207962500Y-60137500D03*
X207962500Y-57337500D03*
%TD*%
D16*
%TO.C,LED6*%
X244449000Y-67225000D03*
X244449000Y-66125000D03*
X246279000Y-66125000D03*
X246279000Y-67225000D03*
%TD*%
D11*
%TO.C,D26*%
X150812500Y-79187500D03*
X150812500Y-76387500D03*
%TD*%
D24*
%TO.C,R3*%
X135450520Y-72515000D03*
X135450520Y-73535000D03*
%TD*%
D11*
%TO.C,D22*%
X140462000Y-101412500D03*
X140462000Y-98612500D03*
%TD*%
%TO.C,D14*%
X93662500Y-79187500D03*
X93662500Y-76387500D03*
%TD*%
D13*
%TO.C,LED3*%
X183525000Y-108700000D03*
X183525000Y-107200000D03*
D14*
X178425000Y-107200000D03*
D13*
X178425000Y-108700000D03*
%TD*%
D19*
%TO.C,UR2*%
X159337500Y-64135000D03*
X161337500Y-64135000D03*
%TD*%
D20*
%TO.C,C7*%
X40231000Y-79375000D03*
X39271000Y-79375000D03*
%TD*%
D18*
%TO.C,C15*%
X41783000Y-71677500D03*
X41783000Y-70717500D03*
%TD*%
D29*
%TO.C,R2*%
X38957250Y-72168750D03*
X38957250Y-73818750D03*
%TD*%
D30*
%TO.C,R6*%
X76107999Y-67952227D03*
X75087999Y-67952227D03*
%TD*%
D11*
%TO.C,D36*%
X207962500Y-79187500D03*
X207962500Y-76387500D03*
%TD*%
%TO.C,D6*%
X55562500Y-79187500D03*
X55562500Y-76387500D03*
%TD*%
D31*
%TO.C,U2*%
X65512500Y-67945000D03*
X65512500Y-69215000D03*
X65512500Y-70485000D03*
X65512500Y-71755000D03*
X58312500Y-71755000D03*
X58312500Y-70485000D03*
X58312500Y-69215000D03*
X58312500Y-67945000D03*
%TD*%
D18*
%TO.C,C3*%
X55626000Y-67980500D03*
X55626000Y-67020500D03*
%TD*%
D20*
%TO.C,C8*%
X37056000Y-81026000D03*
X36096000Y-81026000D03*
%TD*%
D11*
%TO.C,D37*%
X207962500Y-101412500D03*
X207962500Y-98612500D03*
%TD*%
%TO.C,D38*%
X227012500Y-60137500D03*
X227012500Y-57337500D03*
%TD*%
D29*
%TO.C,R1*%
X40481250Y-72168750D03*
X40481250Y-73818750D03*
%TD*%
D11*
%TO.C,D31*%
X188912500Y-60137500D03*
X188912500Y-57337500D03*
%TD*%
%TO.C,D47*%
X265112500Y-80775000D03*
X265112500Y-77975000D03*
%TD*%
D17*
%TO.C,C9*%
X42722800Y-93855600D03*
X42722800Y-94815600D03*
%TD*%
D11*
%TO.C,D20*%
X131762500Y-60137500D03*
X131762500Y-57337500D03*
%TD*%
D32*
%TO.C,U4*%
X43812500Y-64637500D03*
X42862500Y-64637500D03*
X41912500Y-64637500D03*
X41912500Y-62362500D03*
X42862500Y-62362500D03*
X43812500Y-62362500D03*
%TD*%
D33*
%TO.C,F1*%
X39243000Y-61973000D03*
X39243000Y-64773000D03*
%TD*%
D18*
%TO.C,C6*%
X33780128Y-70306555D03*
X33780128Y-69346555D03*
%TD*%
D11*
%TO.C,D17*%
X112712500Y-79187500D03*
X112712500Y-76387500D03*
%TD*%
D20*
%TO.C,C4*%
X39215000Y-66675000D03*
X38255000Y-66675000D03*
%TD*%
D16*
%TO.C,LED5*%
X191172500Y-67225000D03*
X191172500Y-66125000D03*
X193002500Y-66125000D03*
X193002500Y-67225000D03*
%TD*%
D11*
%TO.C,D29*%
X169862500Y-101412500D03*
X169862500Y-98612500D03*
%TD*%
%TO.C,D8*%
X60325000Y-118875000D03*
X60325000Y-116075000D03*
%TD*%
D16*
%TO.C,LED9*%
X123152500Y-105812500D03*
X123152500Y-106912500D03*
X121322500Y-106912500D03*
X121322500Y-105812500D03*
%TD*%
D24*
%TO.C,R4*%
X41402000Y-58418000D03*
X41402000Y-59438000D03*
%TD*%
D34*
%TO.C,USB1*%
X39637500Y-55631838D03*
X40412500Y-55631838D03*
D35*
X41112500Y-55631838D03*
X41612500Y-55631838D03*
X42112500Y-55631838D03*
X42612500Y-55631838D03*
X43112500Y-55631838D03*
X43612500Y-55631838D03*
X44112500Y-55631838D03*
X44612500Y-55631838D03*
D34*
X45312500Y-55631838D03*
X46087500Y-55631838D03*
%TD*%
D11*
%TO.C,D41*%
X227012500Y-118875000D03*
X227012500Y-116075000D03*
%TD*%
%TO.C,D3*%
X41910000Y-101349000D03*
X41910000Y-98549000D03*
%TD*%
D24*
%TO.C,R5*%
X45085000Y-58418000D03*
X45085000Y-59438000D03*
%TD*%
D16*
%TO.C,LED10*%
X53302500Y-105812500D03*
X53302500Y-106912500D03*
X51472500Y-106912500D03*
X51472500Y-105812500D03*
%TD*%
D13*
%TO.C,LED1*%
X116850000Y-108700000D03*
X116850000Y-107200000D03*
D14*
X111750000Y-107200000D03*
D13*
X111750000Y-108700000D03*
%TD*%
D11*
%TO.C,D4*%
X46037500Y-118875000D03*
X46037500Y-116075000D03*
%TD*%
%TO.C,D1*%
X36512500Y-60137500D03*
X36512500Y-57337500D03*
%TD*%
D16*
%TO.C,LED7*%
X243802500Y-105812500D03*
X243802500Y-106912500D03*
X241972500Y-106912500D03*
X241972500Y-105812500D03*
%TD*%
D11*
%TO.C,D34*%
X183388000Y-123637500D03*
X183388000Y-120837500D03*
%TD*%
D20*
%TO.C,C11*%
X32230000Y-84836000D03*
X31270000Y-84836000D03*
%TD*%
D11*
%TO.C,D30*%
X179387500Y-123637500D03*
X179387500Y-120837500D03*
%TD*%
D18*
%TO.C,C12*%
X42799000Y-71677500D03*
X42799000Y-70717500D03*
%TD*%
D11*
%TO.C,D18*%
X122237500Y-101412500D03*
X122237500Y-98612500D03*
%TD*%
%TO.C,D45*%
X241300000Y-118875000D03*
X241300000Y-116075000D03*
%TD*%
%TO.C,D33*%
X188912500Y-101412500D03*
X188912500Y-98612500D03*
%TD*%
%TO.C,D10*%
X74612500Y-79187500D03*
X74612500Y-76387500D03*
%TD*%
%TO.C,D27*%
X169862500Y-60137500D03*
X169862500Y-57337500D03*
%TD*%
%TO.C,D12*%
X79375000Y-118875000D03*
X79375000Y-116075000D03*
%TD*%
%TO.C,D15*%
X103187500Y-101412500D03*
X103187500Y-98612500D03*
%TD*%
D36*
%TO.C,U1*%
X42225000Y-84776414D03*
X42225000Y-83501414D03*
X43500000Y-83501414D03*
X43500000Y-84776414D03*
D37*
X46300000Y-81538914D03*
X46300000Y-81938914D03*
X46300000Y-82338914D03*
X46300000Y-82738914D03*
X46300000Y-83138914D03*
X46300000Y-83538914D03*
X46300000Y-83938914D03*
X46300000Y-84338914D03*
X46300000Y-84738914D03*
X46300000Y-85138914D03*
X46300000Y-85538914D03*
X46300000Y-85938914D03*
X46300000Y-86338914D03*
X46300000Y-86738914D03*
D38*
X45462500Y-87576414D03*
X45062500Y-87576414D03*
X44662500Y-87576414D03*
X44262500Y-87576414D03*
X43862500Y-87576414D03*
X43462500Y-87576414D03*
X43062500Y-87576414D03*
X42662500Y-87576414D03*
X42262500Y-87576414D03*
X41862500Y-87576414D03*
X41462500Y-87576414D03*
X41062500Y-87576414D03*
X40662500Y-87576414D03*
X40262500Y-87576414D03*
D37*
X39425000Y-86738914D03*
X39425000Y-86338914D03*
X39425000Y-85938914D03*
X39425000Y-85538914D03*
X39425000Y-85138914D03*
X39425000Y-84738914D03*
X39425000Y-84338914D03*
X39425000Y-83938914D03*
X39425000Y-83538914D03*
X39425000Y-83138914D03*
X39425000Y-82738914D03*
X39425000Y-82338914D03*
X39425000Y-81938914D03*
X39425000Y-81538914D03*
D38*
X40262500Y-80701414D03*
X40662500Y-80701414D03*
X41062500Y-80701414D03*
X41462500Y-80701414D03*
X41862500Y-80701414D03*
X42262500Y-80701414D03*
X42662500Y-80701414D03*
X43062500Y-80701414D03*
X43462500Y-80701414D03*
X43862500Y-80701414D03*
X44262500Y-80701414D03*
X44662500Y-80701414D03*
X45062500Y-80701414D03*
X45462500Y-80701414D03*
%TD*%
D11*
%TO.C,D16*%
X112712500Y-60137500D03*
X112712500Y-57337500D03*
%TD*%
%TO.C,D28*%
X169862500Y-79187500D03*
X169862500Y-76387500D03*
%TD*%
%TO.C,D43*%
X239712500Y-80775000D03*
X239712500Y-77975000D03*
%TD*%
D39*
%TO.C,UR3*%
X161337500Y-71278750D03*
X159337500Y-71278750D03*
%TD*%
D16*
%TO.C,LED11*%
X51472500Y-67225000D03*
X51472500Y-66125000D03*
X53302500Y-66125000D03*
X53302500Y-67225000D03*
%TD*%
D28*
%TO.C,C17*%
X48796000Y-80772000D03*
X49756000Y-80772000D03*
%TD*%
M02*
