M48
; DRILL file {KiCad (6.0.11)} date Mon Mar 20 14:56:06 2023
; FORMAT={-:-/ absolute / inch / decimal}
; #@! TF.CreationDate,2023-03-20T14:56:06+01:00
; #@! TF.GenerationSoftware,Kicad,Pcbnew,(6.0.11)
; #@! TF.FileFunction,Plated,1,2,PTH
FMAT,2
INCH
; #@! TA.AperFunction,Plated,PTH,ViaDrill
T1C0.0118
; #@! TA.AperFunction,Plated,PTH,ComponentDrill
T2C0.0138
; #@! TA.AperFunction,Plated,PTH,ComponentDrill
T3C0.0236
; #@! TA.AperFunction,Plated,PTH,ComponentDrill
T4C0.0320
; #@! TA.AperFunction,Plated,PTH,ComponentDrill
T5C0.0394
; #@! TA.AperFunction,Plated,PTH,ComponentDrill
T6C0.0579
; #@! TA.AperFunction,Plated,PTH,ComponentDrill
T7C0.0591
%
G90
G05
T1
X1.0032Y-3.97
X1.0225Y-2.6975
X1.0304Y-4.0051
X1.0428Y-2.6078
X1.0747Y-2.4997
X1.1Y-3.57
X1.1Y-3.64
X1.11Y-3.3364
X1.1389Y-3.3528
X1.1627Y-3.4288
X1.1938Y-3.34
X1.3299Y-2.6941
X1.37Y-3.54
X1.385Y-3.4298
X1.3854Y-3.1532
X1.44Y-3.115
X1.45Y-2.195
X1.485Y-2.37
X1.485Y-2.41
X1.485Y-2.45
X1.5Y-3.125
X1.5871Y-2.9929
X1.598Y-3.696
X1.6333Y-3.5456
X1.64Y-2.86
X1.654Y-3.228
X1.666Y-3.3952
X1.6767Y-2.8617
X1.69Y-2.3714
X1.73Y-3.74
X1.7496Y-2.37
X1.775Y-2.5
X1.79Y-2.71
X1.812Y-3.778
X1.885Y-2.37
X1.885Y-2.45
X1.8852Y-2.4107
X1.8889Y-2.6785
X1.9361Y-2.6785
X1.95Y-2.32
X1.98Y-4.165
X2.0Y-3.18
X2.065Y-2.62
X2.085Y-3.35
X2.14Y-2.645
X2.14Y-3.145
X2.2308Y-2.6385
X2.345Y-4.0654
X2.4375Y-2.75
X2.495Y-2.825
X2.515Y-3.1214
X2.515Y-3.17
X3.23Y-4.8091
X3.2316Y-4.872
X4.34Y-4.22
X4.8125Y-2.625
X4.8125Y-4.1875
X4.955Y-4.295
X4.985Y-3.685
X5.0567Y-4.2914
X5.21Y-3.685
X5.39Y-3.685
X5.4061Y-3.0439
X5.4578Y-3.12
X5.4578Y-3.1685
X5.4994Y-3.3328
X5.7377Y-3.625
X5.99Y-4.28
X5.99Y-4.3386
X6.075Y-2.825
X6.1Y-2.7014
X6.1Y-3.1686
X6.188Y-3.3296
X6.1888Y-3.1214
X6.4361Y-2.4614
X6.4361Y-2.525
X6.4361Y-2.62
X7.29Y-4.28
X7.29Y-4.3386
X7.5625Y-2.625
X7.5625Y-4.1875
X7.84Y-4.495
X7.91Y-4.885
X7.98Y-4.9114
X8.09Y-4.9114
X8.16Y-4.92
X8.935Y-4.06
X9.5625Y-4.1875
X9.645Y-3.155
X9.66Y-2.625
X9.68Y-3.155
X9.72Y-4.04
X9.805Y-4.04
X10.6335Y-2.6681
X10.6485Y-2.7203
T2
X1.6373Y-3.2624
X1.6373Y-3.3126
X1.6373Y-3.3628
X1.6875Y-3.2624
X1.6875Y-3.3126
X1.6875Y-3.3628
X1.7377Y-3.2624
X1.7377Y-3.3126
X1.7377Y-3.3628
T4
X5.6625Y-3.4375
X5.7625Y-3.4375
X5.8625Y-3.4375
X5.9625Y-3.4375
T5
X1.2141Y-2.0369
X1.2141Y-2.6078
X1.3125Y-2.6078
X1.4109Y-2.0369
X1.4109Y-2.6078
X3.6422Y-4.6516
X3.6422Y-4.75
X3.6422Y-4.8484
X4.2131Y-4.6516
X4.2131Y-4.8484
X5.436Y-2.5238
X5.436Y-2.6238
X5.436Y-2.7238
X5.436Y-2.8238
X5.436Y-2.9238
X5.7141Y-2.0369
X5.7141Y-2.6078
X5.7141Y-2.7869
X5.7141Y-3.3578
X5.7141Y-3.5362
X5.7141Y-4.1071
X5.8125Y-2.6078
X5.8125Y-3.3578
X5.8125Y-4.1071
X5.9109Y-2.0369
X5.9109Y-2.6078
X5.9109Y-2.7869
X5.9109Y-3.3578
X5.9109Y-3.5362
X5.9109Y-4.1071
X6.1875Y-2.525
X6.1875Y-2.625
X6.1875Y-2.725
X6.1875Y-2.825
X6.1875Y-2.925
X7.4119Y-4.6516
X7.4119Y-4.8484
X7.9828Y-4.6516
X7.9828Y-4.75
X7.9828Y-4.8484
X8.0965Y-4.75
X8.4035Y-4.75
X10.0369Y-2.2141
X10.0369Y-2.4109
X10.6078Y-2.2141
X10.6078Y-2.3125
X10.6078Y-2.4109
T6
X1.1625Y-2.2125
X1.1625Y-2.9625
X1.1625Y-3.7118
X1.2563Y-3.7118
X1.35Y-3.7118
X1.35Y-4.4625
X1.4125Y-2.1125
X1.4125Y-2.8625
X1.4125Y-3.6118
X1.5063Y-3.6118
X1.5375Y-4.4625
X1.6Y-3.6118
X1.6Y-4.3625
X1.7875Y-4.3625
X1.9125Y-2.2125
X1.9125Y-2.9625
X1.9125Y-3.7118
X2.1Y-3.7118
X2.1Y-4.4625
X2.1Y-4.4625
X2.1625Y-2.1125
X2.1625Y-2.8625
X2.1625Y-3.6118
X2.2875Y-3.7118
X2.35Y-3.6118
X2.35Y-4.3625
X2.35Y-4.3625
X2.5375Y-3.6118
X2.6625Y-2.2125
X2.6625Y-2.9625
X2.6625Y-3.7118
X2.6625Y-4.4625
X2.85Y-3.7118
X2.85Y-4.4625
X2.9125Y-2.1125
X2.9125Y-2.8625
X2.9125Y-3.6118
X2.9125Y-4.3625
X3.0375Y-3.7118
X3.1Y-3.6118
X3.1Y-4.3625
X3.2875Y-3.6118
X3.4125Y-2.2125
X3.4125Y-2.9625
X3.4125Y-3.7118
X3.6Y-3.7118
X3.6625Y-2.1125
X3.6625Y-2.8625
X3.6625Y-3.6118
X3.7875Y-3.7118
X3.7875Y-4.65
X3.85Y-3.6118
X3.8818Y-4.6494
X3.975Y-4.65
X4.0375Y-3.6118
X4.0375Y-4.55
X4.1318Y-4.5494
X4.1625Y-2.2125
X4.1625Y-2.9625
X4.1625Y-3.7118
X4.225Y-4.55
X4.35Y-3.7118
X4.4125Y-2.1125
X4.4125Y-2.8625
X4.4125Y-3.6118
X4.5375Y-3.7118
X4.5375Y-4.65
X4.6Y-3.6118
X4.7875Y-3.6118
X4.7875Y-4.55
X4.9125Y-2.2125
X4.9125Y-2.9625
X4.9125Y-3.7118
X4.9125Y-4.65
X5.0068Y-4.6494
X5.1Y-3.7118
X5.1625Y-2.1125
X5.1625Y-2.8625
X5.1625Y-3.6118
X5.1625Y-4.55
X5.2568Y-4.5494
X5.2875Y-3.7118
X5.35Y-3.6118
X5.5375Y-3.6118
X5.6625Y-2.2125
X5.6625Y-2.9625
X5.6625Y-3.7118
X5.6625Y-4.65
X5.6625Y-4.65
X5.9125Y-2.1125
X5.9125Y-2.8625
X5.9125Y-3.6118
X5.9125Y-4.55
X5.9125Y-4.55
X6.0375Y-3.7118
X6.225Y-3.7118
X6.2875Y-3.6118
X6.3193Y-4.6494
X6.4125Y-2.2125
X6.4125Y-2.9625
X6.4125Y-3.7118
X6.4125Y-4.65
X6.475Y-3.6118
X6.5693Y-4.5494
X6.6625Y-2.1125
X6.6625Y-2.8625
X6.6625Y-3.6118
X6.6625Y-4.55
X6.7875Y-3.7118
X6.7875Y-4.65
X6.975Y-3.7118
X7.0375Y-3.6118
X7.0375Y-4.55
X7.1625Y-2.2125
X7.1625Y-2.9625
X7.1625Y-3.7118
X7.225Y-3.6118
X7.35Y-4.65
X7.4125Y-2.1125
X7.4125Y-2.8625
X7.4125Y-3.6118
X7.4443Y-4.6494
X7.5375Y-3.7118
X7.5375Y-4.65
X7.6Y-4.55
X7.6943Y-4.5494
X7.725Y-3.7118
X7.7875Y-3.6118
X7.7875Y-4.55
X7.9125Y-2.2125
X7.9125Y-2.9625
X7.9125Y-3.7118
X7.975Y-3.6118
X8.1625Y-2.1125
X8.1625Y-2.8625
X8.1625Y-3.6118
X8.2875Y-3.7118
X8.475Y-3.7118
X8.475Y-4.4625
X8.5375Y-3.6118
X8.6625Y-2.2125
X8.6625Y-2.9625
X8.6625Y-3.7118
X8.6625Y-4.4625
X8.725Y-3.6118
X8.725Y-4.3625
X8.85Y-2.9625
X8.9125Y-2.1125
X8.9125Y-2.8625
X8.9125Y-3.6118
X8.9125Y-4.3625
X9.0375Y-3.7118
X9.1Y-2.8625
X9.225Y-3.7118
X9.225Y-4.4625
X9.225Y-4.4625
X9.2875Y-3.6118
X9.4125Y-2.2125
X9.4125Y-2.9625
X9.4125Y-3.7118
X9.475Y-3.6118
X9.475Y-4.3625
X9.475Y-4.3625
X9.6625Y-2.1125
X9.6625Y-2.8625
X9.6625Y-3.6118
X9.7875Y-2.2125
X9.7875Y-2.9625
X9.7875Y-4.4625
X9.975Y-2.9625
X9.975Y-3.7118
X9.975Y-4.4625
X10.0375Y-2.1125
X10.0375Y-2.8625
X10.0375Y-4.3625
X10.0687Y-3.7118
X10.0687Y-3.3375
X10.1625Y-2.2125
X10.1625Y-2.9625
X10.1625Y-3.7118
X10.225Y-2.8625
X10.225Y-3.6118
X10.225Y-4.3625
X10.3187Y-3.6118
X10.3187Y-3.2375
X10.4125Y-2.1125
X10.4125Y-2.8625
X10.4125Y-3.6118
T7
X5.6625Y-4.65
X5.9125Y-4.55
T3
G00X1.5174Y-1.9581
M15
G01X1.5174Y-1.9818
M16
G05
G00X1.5174Y-2.1129
M15
G01X1.5174Y-2.1562
M16
G05
G00X1.8576Y-1.9581
M15
G01X1.8576Y-1.9818
M16
G05
G00X1.8576Y-2.1129
M15
G01X1.8576Y-2.1562
M16
G05
T0
M30
