%TF.GenerationSoftware,KiCad,Pcbnew,(6.0.11)*%
%TF.CreationDate,2023-03-20T14:56:03+01:00*%
%TF.ProjectId,alpha-curISO_routingv6,616c7068-612d-4637-9572-49534f5f726f,rev?*%
%TF.SameCoordinates,Original*%
%TF.FileFunction,Legend,Top*%
%TF.FilePolarity,Positive*%
%FSLAX46Y46*%
G04 Gerber Fmt 4.6, Leading zero omitted, Abs format (unit mm)*
G04 Created by KiCad (PCBNEW (6.0.11)) date 2023-03-20 14:56:03*
%MOMM*%
%LPD*%
G01*
G04 APERTURE LIST*
%ADD10C,0.120000*%
%ADD11C,1.397000*%
%ADD12R,1.600000X1.600000*%
%ADD13C,1.600000*%
G04 APERTURE END LIST*
D10*
%TO.C,SW_rotary3*%
X143837500Y-66237500D02*
X143537500Y-66537500D01*
X143537500Y-65937500D02*
X143837500Y-66237500D01*
X143537500Y-66537500D02*
X143537500Y-65937500D01*
%TO.C,SW_rotary2*%
X269137500Y-62837500D02*
X269437500Y-62537500D01*
X269437500Y-62537500D02*
X269737500Y-62837500D01*
X269737500Y-62837500D02*
X269137500Y-62837500D01*
%TO.C,SW_rotary6*%
X202462500Y-124750000D02*
X202762500Y-124450000D01*
X203062500Y-124750000D02*
X202462500Y-124750000D01*
X202762500Y-124450000D02*
X203062500Y-124750000D01*
%TO.C,SW44(4)1*%
X140637500Y-113650000D02*
X154637500Y-113650000D01*
X154637500Y-113650000D02*
X154637500Y-127650000D01*
X140637500Y-113650000D02*
X140637500Y-127650000D01*
X154637500Y-127650000D02*
X140637500Y-127650000D01*
%TO.C,SW_rotary5*%
X92812500Y-116550000D02*
X92512500Y-116850000D01*
X92212500Y-116550000D02*
X92812500Y-116550000D01*
X92512500Y-116850000D02*
X92212500Y-116550000D01*
%TO.C,SW_rotary1*%
X29237500Y-66537500D02*
X29237500Y-65937500D01*
X29237500Y-65937500D02*
X29537500Y-66237500D01*
X29537500Y-66237500D02*
X29237500Y-66537500D01*
%TO.C,SW_rotary4*%
X143537500Y-84987500D02*
X143837500Y-85287500D01*
X143837500Y-85287500D02*
X143537500Y-85587500D01*
X143537500Y-85587500D02*
X143537500Y-84987500D01*
%TO.C,SW_rotary7*%
X143837500Y-104320487D02*
X143537500Y-104620487D01*
X143537500Y-104620487D02*
X143537500Y-104020487D01*
X143537500Y-104020487D02*
X143837500Y-104320487D01*
%TD*%
D11*
%TO.C,OL1*%
X143827500Y-87312500D03*
X146367500Y-87312500D03*
X148907500Y-87312500D03*
X151447500Y-87312500D03*
%TD*%
D12*
%TO.C,R8*%
X205650000Y-120650000D03*
D13*
X213450000Y-120650000D03*
%TD*%
M02*
