%TF.GenerationSoftware,KiCad,Pcbnew,(6.0.7)*%
%TF.CreationDate,2023-02-03T16:15:22+01:00*%
%TF.ProjectId,alpha-curISO_rp2040,616c7068-612d-4637-9572-49534f5f7270,rev?*%
%TF.SameCoordinates,Original*%
%TF.FileFunction,Legend,Bot*%
%TF.FilePolarity,Positive*%
%FSLAX46Y46*%
G04 Gerber Fmt 4.6, Leading zero omitted, Abs format (unit mm)*
G04 Created by KiCad (PCBNEW (6.0.7)) date 2023-02-03 16:15:22*
%MOMM*%
%LPD*%
G01*
G04 APERTURE LIST*
%ADD10C,0.150000*%
%ADD11C,0.120000*%
%ADD12C,0.100000*%
G04 APERTURE END LIST*
D10*
X192516428Y-124658380D02*
X192183095Y-124182190D01*
X191945000Y-124658380D02*
X191945000Y-123658380D01*
X192325952Y-123658380D01*
X192421190Y-123706000D01*
X192468809Y-123753619D01*
X192516428Y-123848857D01*
X192516428Y-123991714D01*
X192468809Y-124086952D01*
X192421190Y-124134571D01*
X192325952Y-124182190D01*
X191945000Y-124182190D01*
X193087857Y-124658380D02*
X192992619Y-124610761D01*
X192945000Y-124563142D01*
X192897380Y-124467904D01*
X192897380Y-124182190D01*
X192945000Y-124086952D01*
X192992619Y-124039333D01*
X193087857Y-123991714D01*
X193230714Y-123991714D01*
X193325952Y-124039333D01*
X193373571Y-124086952D01*
X193421190Y-124182190D01*
X193421190Y-124467904D01*
X193373571Y-124563142D01*
X193325952Y-124610761D01*
X193230714Y-124658380D01*
X193087857Y-124658380D01*
X193706904Y-123991714D02*
X194087857Y-123991714D01*
X193849761Y-123658380D02*
X193849761Y-124515523D01*
X193897380Y-124610761D01*
X193992619Y-124658380D01*
X194087857Y-124658380D01*
X194849761Y-124658380D02*
X194849761Y-124134571D01*
X194802142Y-124039333D01*
X194706904Y-123991714D01*
X194516428Y-123991714D01*
X194421190Y-124039333D01*
X194849761Y-124610761D02*
X194754523Y-124658380D01*
X194516428Y-124658380D01*
X194421190Y-124610761D01*
X194373571Y-124515523D01*
X194373571Y-124420285D01*
X194421190Y-124325047D01*
X194516428Y-124277428D01*
X194754523Y-124277428D01*
X194849761Y-124229809D01*
X195325952Y-124658380D02*
X195325952Y-123991714D01*
X195325952Y-124182190D02*
X195373571Y-124086952D01*
X195421190Y-124039333D01*
X195516428Y-123991714D01*
X195611666Y-123991714D01*
X195849761Y-123991714D02*
X196087857Y-124658380D01*
X196325952Y-123991714D02*
X196087857Y-124658380D01*
X195992619Y-124896476D01*
X195945000Y-124944095D01*
X195849761Y-124991714D01*
X197421190Y-123753619D02*
X197468809Y-123706000D01*
X197564047Y-123658380D01*
X197802142Y-123658380D01*
X197897380Y-123706000D01*
X197945000Y-123753619D01*
X197992619Y-123848857D01*
X197992619Y-123944095D01*
X197945000Y-124086952D01*
X197373571Y-124658380D01*
X197992619Y-124658380D01*
X64619047Y-61396571D02*
X64476190Y-61444190D01*
X64428571Y-61491809D01*
X64380952Y-61587047D01*
X64380952Y-61729904D01*
X64428571Y-61825142D01*
X64476190Y-61872761D01*
X64571428Y-61920380D01*
X64952380Y-61920380D01*
X64952380Y-60920380D01*
X64619047Y-60920380D01*
X64523809Y-60968000D01*
X64476190Y-61015619D01*
X64428571Y-61110857D01*
X64428571Y-61206095D01*
X64476190Y-61301333D01*
X64523809Y-61348952D01*
X64619047Y-61396571D01*
X64952380Y-61396571D01*
X63809523Y-61920380D02*
X63904761Y-61872761D01*
X63952380Y-61825142D01*
X64000000Y-61729904D01*
X64000000Y-61444190D01*
X63952380Y-61348952D01*
X63904761Y-61301333D01*
X63809523Y-61253714D01*
X63666666Y-61253714D01*
X63571428Y-61301333D01*
X63523809Y-61348952D01*
X63476190Y-61444190D01*
X63476190Y-61729904D01*
X63523809Y-61825142D01*
X63571428Y-61872761D01*
X63666666Y-61920380D01*
X63809523Y-61920380D01*
X62904761Y-61920380D02*
X63000000Y-61872761D01*
X63047619Y-61825142D01*
X63095238Y-61729904D01*
X63095238Y-61444190D01*
X63047619Y-61348952D01*
X63000000Y-61301333D01*
X62904761Y-61253714D01*
X62761904Y-61253714D01*
X62666666Y-61301333D01*
X62619047Y-61348952D01*
X62571428Y-61444190D01*
X62571428Y-61729904D01*
X62619047Y-61825142D01*
X62666666Y-61872761D01*
X62761904Y-61920380D01*
X62904761Y-61920380D01*
X62285714Y-61253714D02*
X61904761Y-61253714D01*
X62142857Y-60920380D02*
X62142857Y-61777523D01*
X62095238Y-61872761D01*
X62000000Y-61920380D01*
X61904761Y-61920380D01*
X30972428Y-63190380D02*
X30639095Y-62714190D01*
X30401000Y-63190380D02*
X30401000Y-62190380D01*
X30781952Y-62190380D01*
X30877190Y-62238000D01*
X30924809Y-62285619D01*
X30972428Y-62380857D01*
X30972428Y-62523714D01*
X30924809Y-62618952D01*
X30877190Y-62666571D01*
X30781952Y-62714190D01*
X30401000Y-62714190D01*
X31543857Y-63190380D02*
X31448619Y-63142761D01*
X31401000Y-63095142D01*
X31353380Y-62999904D01*
X31353380Y-62714190D01*
X31401000Y-62618952D01*
X31448619Y-62571333D01*
X31543857Y-62523714D01*
X31686714Y-62523714D01*
X31781952Y-62571333D01*
X31829571Y-62618952D01*
X31877190Y-62714190D01*
X31877190Y-62999904D01*
X31829571Y-63095142D01*
X31781952Y-63142761D01*
X31686714Y-63190380D01*
X31543857Y-63190380D01*
X32162904Y-62523714D02*
X32543857Y-62523714D01*
X32305761Y-62190380D02*
X32305761Y-63047523D01*
X32353380Y-63142761D01*
X32448619Y-63190380D01*
X32543857Y-63190380D01*
X33305761Y-63190380D02*
X33305761Y-62666571D01*
X33258142Y-62571333D01*
X33162904Y-62523714D01*
X32972428Y-62523714D01*
X32877190Y-62571333D01*
X33305761Y-63142761D02*
X33210523Y-63190380D01*
X32972428Y-63190380D01*
X32877190Y-63142761D01*
X32829571Y-63047523D01*
X32829571Y-62952285D01*
X32877190Y-62857047D01*
X32972428Y-62809428D01*
X33210523Y-62809428D01*
X33305761Y-62761809D01*
X33781952Y-63190380D02*
X33781952Y-62523714D01*
X33781952Y-62714190D02*
X33829571Y-62618952D01*
X33877190Y-62571333D01*
X33972428Y-62523714D01*
X34067666Y-62523714D01*
X34305761Y-62523714D02*
X34543857Y-63190380D01*
X34781952Y-62523714D02*
X34543857Y-63190380D01*
X34448619Y-63428476D01*
X34401000Y-63476095D01*
X34305761Y-63523714D01*
X36448619Y-63190380D02*
X35877190Y-63190380D01*
X36162904Y-63190380D02*
X36162904Y-62190380D01*
X36067666Y-62333238D01*
X35972428Y-62428476D01*
X35877190Y-62476095D01*
X147859714Y-99115619D02*
X147812095Y-99068000D01*
X147716857Y-99020380D01*
X147478761Y-99020380D01*
X147383523Y-99068000D01*
X147335904Y-99115619D01*
X147288285Y-99210857D01*
X147288285Y-99306095D01*
X147335904Y-99448952D01*
X147907333Y-100020380D01*
X147288285Y-100020380D01*
X154138380Y-72453095D02*
X154138380Y-71881666D01*
X155138380Y-72167380D02*
X154138380Y-72167380D01*
X155138380Y-71548333D02*
X154471714Y-71548333D01*
X154662190Y-71548333D02*
X154566952Y-71500714D01*
X154519333Y-71453095D01*
X154471714Y-71357857D01*
X154471714Y-71262619D01*
X155138380Y-70500714D02*
X154614571Y-70500714D01*
X154519333Y-70548333D01*
X154471714Y-70643571D01*
X154471714Y-70834047D01*
X154519333Y-70929285D01*
X155090761Y-70500714D02*
X155138380Y-70595952D01*
X155138380Y-70834047D01*
X155090761Y-70929285D01*
X154995523Y-70976904D01*
X154900285Y-70976904D01*
X154805047Y-70929285D01*
X154757428Y-70834047D01*
X154757428Y-70595952D01*
X154709809Y-70500714D01*
X155090761Y-69595952D02*
X155138380Y-69691190D01*
X155138380Y-69881666D01*
X155090761Y-69976904D01*
X155043142Y-70024523D01*
X154947904Y-70072142D01*
X154662190Y-70072142D01*
X154566952Y-70024523D01*
X154519333Y-69976904D01*
X154471714Y-69881666D01*
X154471714Y-69691190D01*
X154519333Y-69595952D01*
X155138380Y-69167380D02*
X154138380Y-69167380D01*
X154757428Y-69072142D02*
X155138380Y-68786428D01*
X154471714Y-68786428D02*
X154852666Y-69167380D01*
X154471714Y-68357857D02*
X155471714Y-68357857D01*
X154519333Y-68357857D02*
X154471714Y-68262619D01*
X154471714Y-68072142D01*
X154519333Y-67976904D01*
X154566952Y-67929285D01*
X154662190Y-67881666D01*
X154947904Y-67881666D01*
X155043142Y-67929285D01*
X155090761Y-67976904D01*
X155138380Y-68072142D01*
X155138380Y-68262619D01*
X155090761Y-68357857D01*
X155138380Y-67024523D02*
X154614571Y-67024523D01*
X154519333Y-67072142D01*
X154471714Y-67167380D01*
X154471714Y-67357857D01*
X154519333Y-67453095D01*
X155090761Y-67024523D02*
X155138380Y-67119761D01*
X155138380Y-67357857D01*
X155090761Y-67453095D01*
X154995523Y-67500714D01*
X154900285Y-67500714D01*
X154805047Y-67453095D01*
X154757428Y-67357857D01*
X154757428Y-67119761D01*
X154709809Y-67024523D01*
X155138380Y-66119761D02*
X154138380Y-66119761D01*
X155090761Y-66119761D02*
X155138380Y-66215000D01*
X155138380Y-66405476D01*
X155090761Y-66500714D01*
X155043142Y-66548333D01*
X154947904Y-66595952D01*
X154662190Y-66595952D01*
X154566952Y-66548333D01*
X154519333Y-66500714D01*
X154471714Y-66405476D01*
X154471714Y-66215000D01*
X154519333Y-66119761D01*
X145272428Y-83256380D02*
X144939095Y-82780190D01*
X144701000Y-83256380D02*
X144701000Y-82256380D01*
X145081952Y-82256380D01*
X145177190Y-82304000D01*
X145224809Y-82351619D01*
X145272428Y-82446857D01*
X145272428Y-82589714D01*
X145224809Y-82684952D01*
X145177190Y-82732571D01*
X145081952Y-82780190D01*
X144701000Y-82780190D01*
X145843857Y-83256380D02*
X145748619Y-83208761D01*
X145701000Y-83161142D01*
X145653380Y-83065904D01*
X145653380Y-82780190D01*
X145701000Y-82684952D01*
X145748619Y-82637333D01*
X145843857Y-82589714D01*
X145986714Y-82589714D01*
X146081952Y-82637333D01*
X146129571Y-82684952D01*
X146177190Y-82780190D01*
X146177190Y-83065904D01*
X146129571Y-83161142D01*
X146081952Y-83208761D01*
X145986714Y-83256380D01*
X145843857Y-83256380D01*
X146462904Y-82589714D02*
X146843857Y-82589714D01*
X146605761Y-82256380D02*
X146605761Y-83113523D01*
X146653380Y-83208761D01*
X146748619Y-83256380D01*
X146843857Y-83256380D01*
X147605761Y-83256380D02*
X147605761Y-82732571D01*
X147558142Y-82637333D01*
X147462904Y-82589714D01*
X147272428Y-82589714D01*
X147177190Y-82637333D01*
X147605761Y-83208761D02*
X147510523Y-83256380D01*
X147272428Y-83256380D01*
X147177190Y-83208761D01*
X147129571Y-83113523D01*
X147129571Y-83018285D01*
X147177190Y-82923047D01*
X147272428Y-82875428D01*
X147510523Y-82875428D01*
X147605761Y-82827809D01*
X148081952Y-83256380D02*
X148081952Y-82589714D01*
X148081952Y-82780190D02*
X148129571Y-82684952D01*
X148177190Y-82637333D01*
X148272428Y-82589714D01*
X148367666Y-82589714D01*
X148605761Y-82589714D02*
X148843857Y-83256380D01*
X149081952Y-82589714D02*
X148843857Y-83256380D01*
X148748619Y-83494476D01*
X148701000Y-83542095D01*
X148605761Y-83589714D01*
X150653380Y-82589714D02*
X150653380Y-83256380D01*
X150415285Y-82208761D02*
X150177190Y-82923047D01*
X150796238Y-82923047D01*
X145145428Y-64460380D02*
X144812095Y-63984190D01*
X144574000Y-64460380D02*
X144574000Y-63460380D01*
X144954952Y-63460380D01*
X145050190Y-63508000D01*
X145097809Y-63555619D01*
X145145428Y-63650857D01*
X145145428Y-63793714D01*
X145097809Y-63888952D01*
X145050190Y-63936571D01*
X144954952Y-63984190D01*
X144574000Y-63984190D01*
X145716857Y-64460380D02*
X145621619Y-64412761D01*
X145574000Y-64365142D01*
X145526380Y-64269904D01*
X145526380Y-63984190D01*
X145574000Y-63888952D01*
X145621619Y-63841333D01*
X145716857Y-63793714D01*
X145859714Y-63793714D01*
X145954952Y-63841333D01*
X146002571Y-63888952D01*
X146050190Y-63984190D01*
X146050190Y-64269904D01*
X146002571Y-64365142D01*
X145954952Y-64412761D01*
X145859714Y-64460380D01*
X145716857Y-64460380D01*
X146335904Y-63793714D02*
X146716857Y-63793714D01*
X146478761Y-63460380D02*
X146478761Y-64317523D01*
X146526380Y-64412761D01*
X146621619Y-64460380D01*
X146716857Y-64460380D01*
X147478761Y-64460380D02*
X147478761Y-63936571D01*
X147431142Y-63841333D01*
X147335904Y-63793714D01*
X147145428Y-63793714D01*
X147050190Y-63841333D01*
X147478761Y-64412761D02*
X147383523Y-64460380D01*
X147145428Y-64460380D01*
X147050190Y-64412761D01*
X147002571Y-64317523D01*
X147002571Y-64222285D01*
X147050190Y-64127047D01*
X147145428Y-64079428D01*
X147383523Y-64079428D01*
X147478761Y-64031809D01*
X147954952Y-64460380D02*
X147954952Y-63793714D01*
X147954952Y-63984190D02*
X148002571Y-63888952D01*
X148050190Y-63841333D01*
X148145428Y-63793714D01*
X148240666Y-63793714D01*
X148478761Y-63793714D02*
X148716857Y-64460380D01*
X148954952Y-63793714D02*
X148716857Y-64460380D01*
X148621619Y-64698476D01*
X148574000Y-64746095D01*
X148478761Y-64793714D01*
X150002571Y-63460380D02*
X150621619Y-63460380D01*
X150288285Y-63841333D01*
X150431142Y-63841333D01*
X150526380Y-63888952D01*
X150574000Y-63936571D01*
X150621619Y-64031809D01*
X150621619Y-64269904D01*
X150574000Y-64365142D01*
X150526380Y-64412761D01*
X150431142Y-64460380D01*
X150145428Y-64460380D01*
X150050190Y-64412761D01*
X150002571Y-64365142D01*
X97647428Y-124658380D02*
X97314095Y-124182190D01*
X97076000Y-124658380D02*
X97076000Y-123658380D01*
X97456952Y-123658380D01*
X97552190Y-123706000D01*
X97599809Y-123753619D01*
X97647428Y-123848857D01*
X97647428Y-123991714D01*
X97599809Y-124086952D01*
X97552190Y-124134571D01*
X97456952Y-124182190D01*
X97076000Y-124182190D01*
X98218857Y-124658380D02*
X98123619Y-124610761D01*
X98076000Y-124563142D01*
X98028380Y-124467904D01*
X98028380Y-124182190D01*
X98076000Y-124086952D01*
X98123619Y-124039333D01*
X98218857Y-123991714D01*
X98361714Y-123991714D01*
X98456952Y-124039333D01*
X98504571Y-124086952D01*
X98552190Y-124182190D01*
X98552190Y-124467904D01*
X98504571Y-124563142D01*
X98456952Y-124610761D01*
X98361714Y-124658380D01*
X98218857Y-124658380D01*
X98837904Y-123991714D02*
X99218857Y-123991714D01*
X98980761Y-123658380D02*
X98980761Y-124515523D01*
X99028380Y-124610761D01*
X99123619Y-124658380D01*
X99218857Y-124658380D01*
X99980761Y-124658380D02*
X99980761Y-124134571D01*
X99933142Y-124039333D01*
X99837904Y-123991714D01*
X99647428Y-123991714D01*
X99552190Y-124039333D01*
X99980761Y-124610761D02*
X99885523Y-124658380D01*
X99647428Y-124658380D01*
X99552190Y-124610761D01*
X99504571Y-124515523D01*
X99504571Y-124420285D01*
X99552190Y-124325047D01*
X99647428Y-124277428D01*
X99885523Y-124277428D01*
X99980761Y-124229809D01*
X100456952Y-124658380D02*
X100456952Y-123991714D01*
X100456952Y-124182190D02*
X100504571Y-124086952D01*
X100552190Y-124039333D01*
X100647428Y-123991714D01*
X100742666Y-123991714D01*
X100980761Y-123991714D02*
X101218857Y-124658380D01*
X101456952Y-123991714D02*
X101218857Y-124658380D01*
X101123619Y-124896476D01*
X101076000Y-124944095D01*
X100980761Y-124991714D01*
X103123619Y-124658380D02*
X102552190Y-124658380D01*
X102837904Y-124658380D02*
X102837904Y-123658380D01*
X102742666Y-123801238D01*
X102647428Y-123896476D01*
X102552190Y-123944095D01*
X140660380Y-72167904D02*
X140184190Y-71834571D01*
X140660380Y-71596476D02*
X139660380Y-71596476D01*
X139660380Y-71977428D01*
X139708000Y-72072666D01*
X139755619Y-72120285D01*
X139850857Y-72167904D01*
X139993714Y-72167904D01*
X140088952Y-72120285D01*
X140136571Y-72072666D01*
X140184190Y-71977428D01*
X140184190Y-71596476D01*
X140612761Y-72977428D02*
X140660380Y-72882190D01*
X140660380Y-72691714D01*
X140612761Y-72596476D01*
X140517523Y-72548857D01*
X140136571Y-72548857D01*
X140041333Y-72596476D01*
X139993714Y-72691714D01*
X139993714Y-72882190D01*
X140041333Y-72977428D01*
X140136571Y-73025047D01*
X140231809Y-73025047D01*
X140327047Y-72548857D01*
X140612761Y-73406000D02*
X140660380Y-73501238D01*
X140660380Y-73691714D01*
X140612761Y-73786952D01*
X140517523Y-73834571D01*
X140469904Y-73834571D01*
X140374666Y-73786952D01*
X140327047Y-73691714D01*
X140327047Y-73548857D01*
X140279428Y-73453619D01*
X140184190Y-73406000D01*
X140136571Y-73406000D01*
X140041333Y-73453619D01*
X139993714Y-73548857D01*
X139993714Y-73691714D01*
X140041333Y-73786952D01*
X140612761Y-74644095D02*
X140660380Y-74548857D01*
X140660380Y-74358380D01*
X140612761Y-74263142D01*
X140517523Y-74215523D01*
X140136571Y-74215523D01*
X140041333Y-74263142D01*
X139993714Y-74358380D01*
X139993714Y-74548857D01*
X140041333Y-74644095D01*
X140136571Y-74691714D01*
X140231809Y-74691714D01*
X140327047Y-74215523D01*
X139993714Y-74977428D02*
X139993714Y-75358380D01*
X139660380Y-75120285D02*
X140517523Y-75120285D01*
X140612761Y-75167904D01*
X140660380Y-75263142D01*
X140660380Y-75358380D01*
X151128387Y-103903599D02*
X150509339Y-103903599D01*
X150842673Y-104284552D01*
X150699815Y-104284552D01*
X150604577Y-104332171D01*
X150556958Y-104379790D01*
X150509339Y-104475028D01*
X150509339Y-104713123D01*
X150556958Y-104808361D01*
X150604577Y-104855980D01*
X150699815Y-104903599D01*
X150985530Y-104903599D01*
X151080768Y-104855980D01*
X151128387Y-104808361D01*
X144113285Y-104846380D02*
X144684714Y-104846380D01*
X144399000Y-104846380D02*
X144399000Y-103846380D01*
X144494238Y-103989238D01*
X144589476Y-104084476D01*
X144684714Y-104132095D01*
X259572428Y-62682380D02*
X259239095Y-62206190D01*
X259001000Y-62682380D02*
X259001000Y-61682380D01*
X259381952Y-61682380D01*
X259477190Y-61730000D01*
X259524809Y-61777619D01*
X259572428Y-61872857D01*
X259572428Y-62015714D01*
X259524809Y-62110952D01*
X259477190Y-62158571D01*
X259381952Y-62206190D01*
X259001000Y-62206190D01*
X260143857Y-62682380D02*
X260048619Y-62634761D01*
X260001000Y-62587142D01*
X259953380Y-62491904D01*
X259953380Y-62206190D01*
X260001000Y-62110952D01*
X260048619Y-62063333D01*
X260143857Y-62015714D01*
X260286714Y-62015714D01*
X260381952Y-62063333D01*
X260429571Y-62110952D01*
X260477190Y-62206190D01*
X260477190Y-62491904D01*
X260429571Y-62587142D01*
X260381952Y-62634761D01*
X260286714Y-62682380D01*
X260143857Y-62682380D01*
X260762904Y-62015714D02*
X261143857Y-62015714D01*
X260905761Y-61682380D02*
X260905761Y-62539523D01*
X260953380Y-62634761D01*
X261048619Y-62682380D01*
X261143857Y-62682380D01*
X261905761Y-62682380D02*
X261905761Y-62158571D01*
X261858142Y-62063333D01*
X261762904Y-62015714D01*
X261572428Y-62015714D01*
X261477190Y-62063333D01*
X261905761Y-62634761D02*
X261810523Y-62682380D01*
X261572428Y-62682380D01*
X261477190Y-62634761D01*
X261429571Y-62539523D01*
X261429571Y-62444285D01*
X261477190Y-62349047D01*
X261572428Y-62301428D01*
X261810523Y-62301428D01*
X261905761Y-62253809D01*
X262381952Y-62682380D02*
X262381952Y-62015714D01*
X262381952Y-62206190D02*
X262429571Y-62110952D01*
X262477190Y-62063333D01*
X262572428Y-62015714D01*
X262667666Y-62015714D01*
X262905761Y-62015714D02*
X263143857Y-62682380D01*
X263381952Y-62015714D02*
X263143857Y-62682380D01*
X263048619Y-62920476D01*
X263001000Y-62968095D01*
X262905761Y-63015714D01*
X264477190Y-61777619D02*
X264524809Y-61730000D01*
X264620047Y-61682380D01*
X264858142Y-61682380D01*
X264953380Y-61730000D01*
X265001000Y-61777619D01*
X265048619Y-61872857D01*
X265048619Y-61968095D01*
X265001000Y-62110952D01*
X264429571Y-62682380D01*
X265048619Y-62682380D01*
%TO.C,OL1*%
X146185119Y-88352380D02*
X146375595Y-88352380D01*
X146470833Y-88400000D01*
X146566071Y-88495238D01*
X146613690Y-88685714D01*
X146613690Y-89019047D01*
X146566071Y-89209523D01*
X146470833Y-89304761D01*
X146375595Y-89352380D01*
X146185119Y-89352380D01*
X146089880Y-89304761D01*
X145994642Y-89209523D01*
X145947023Y-89019047D01*
X145947023Y-88685714D01*
X145994642Y-88495238D01*
X146089880Y-88400000D01*
X146185119Y-88352380D01*
X147518452Y-89352380D02*
X147042261Y-89352380D01*
X147042261Y-88352380D01*
X147851785Y-88828571D02*
X148185119Y-88828571D01*
X148327976Y-89352380D02*
X147851785Y-89352380D01*
X147851785Y-88352380D01*
X148327976Y-88352380D01*
X148756547Y-89352380D02*
X148756547Y-88352380D01*
X148994642Y-88352380D01*
X149137500Y-88400000D01*
X149232738Y-88495238D01*
X149280357Y-88590476D01*
X149327976Y-88780952D01*
X149327976Y-88923809D01*
X149280357Y-89114285D01*
X149232738Y-89209523D01*
X149137500Y-89304761D01*
X148994642Y-89352380D01*
X148756547Y-89352380D01*
D11*
%TO.C,D32*%
X187912500Y-79987500D02*
X187912500Y-76137500D01*
X189912500Y-79987500D02*
X187912500Y-79987500D01*
X189912500Y-79987500D02*
X189912500Y-76137500D01*
%TO.C,SW27*%
X64750000Y-62337500D02*
X62250000Y-62337500D01*
X64750000Y-67837500D02*
X62250000Y-67837500D01*
X60750000Y-64087500D02*
X60750000Y-66087500D01*
X61800000Y-67387500D02*
X62250000Y-67837500D01*
X65200000Y-62787500D02*
X64750000Y-62337500D01*
X66250000Y-64087500D02*
X66250000Y-66087500D01*
X65200000Y-67387500D02*
X64750000Y-67837500D01*
X61800000Y-62787500D02*
X62250000Y-62337500D01*
%TO.C,LED2*%
G36*
X149637500Y-94637500D02*
G01*
X149037500Y-94637500D01*
X149037500Y-94037500D01*
X149637500Y-94637500D01*
G37*
D12*
X149637500Y-94637500D02*
X149037500Y-94637500D01*
X149037500Y-94037500D01*
X149637500Y-94637500D01*
D11*
%TO.C,D2*%
X37512500Y-79987500D02*
X35512500Y-79987500D01*
X35512500Y-79987500D02*
X35512500Y-76137500D01*
X37512500Y-79987500D02*
X37512500Y-76137500D01*
%TO.C,R7*%
X111853940Y-67814341D02*
X111636659Y-67597060D01*
X112391341Y-67276940D02*
X112174060Y-67059659D01*
%TO.C,LED8*%
G36*
X192587500Y-107362500D02*
G01*
X192087500Y-107362500D01*
X192087500Y-105362500D01*
X192587500Y-105362500D01*
X192587500Y-107362500D01*
G37*
%TO.C,D11*%
X69262500Y-102212500D02*
X67262500Y-102212500D01*
X67262500Y-102212500D02*
X67262500Y-98362500D01*
X69262500Y-102212500D02*
X69262500Y-98362500D01*
%TO.C,C2*%
X115264693Y-64465810D02*
X115112190Y-64313307D01*
X115773810Y-63956693D02*
X115621307Y-63804190D01*
%TO.C,D9*%
X73612500Y-60937500D02*
X73612500Y-57087500D01*
X75612500Y-60937500D02*
X73612500Y-60937500D01*
X75612500Y-60937500D02*
X75612500Y-57087500D01*
%TO.C,D7*%
X66087500Y-102212500D02*
X64087500Y-102212500D01*
X66087500Y-102212500D02*
X66087500Y-98362500D01*
X64087500Y-102212500D02*
X64087500Y-98362500D01*
%TO.C,C10*%
X95611836Y-70019500D02*
X95396164Y-70019500D01*
X95611836Y-69299500D02*
X95396164Y-69299500D01*
%TO.C,C14*%
X109366164Y-67585000D02*
X109581836Y-67585000D01*
X109366164Y-68305000D02*
X109581836Y-68305000D01*
%TO.C,D24*%
X151812500Y-124437500D02*
X151812500Y-120587500D01*
X151812500Y-124437500D02*
X149812500Y-124437500D01*
X149812500Y-124437500D02*
X149812500Y-120587500D01*
%TO.C,UR1*%
X160110436Y-67251250D02*
X160564564Y-67251250D01*
X160110436Y-65781250D02*
X160564564Y-65781250D01*
%TO.C,D42*%
X240712500Y-62525000D02*
X238712500Y-62525000D01*
X238712500Y-62525000D02*
X238712500Y-58675000D01*
X240712500Y-62525000D02*
X240712500Y-58675000D01*
%TO.C,D44*%
X247062500Y-102212500D02*
X245062500Y-102212500D01*
X245062500Y-102212500D02*
X245062500Y-98362500D01*
X247062500Y-102212500D02*
X247062500Y-98362500D01*
%TO.C,D5*%
X59325000Y-60937500D02*
X59325000Y-57087500D01*
X61325000Y-60937500D02*
X61325000Y-57087500D01*
X61325000Y-60937500D02*
X59325000Y-60937500D01*
%TO.C,D23*%
X137112500Y-124437500D02*
X137112500Y-120587500D01*
X139112500Y-124437500D02*
X139112500Y-120587500D01*
X139112500Y-124437500D02*
X137112500Y-124437500D01*
%TO.C,D49*%
X261350000Y-119675000D02*
X259350000Y-119675000D01*
X261350000Y-119675000D02*
X261350000Y-115825000D01*
X259350000Y-119675000D02*
X259350000Y-115825000D01*
%TO.C,C1*%
X116027810Y-67996307D02*
X115875307Y-68148810D01*
X115518693Y-67487190D02*
X115366190Y-67639693D01*
%TO.C,D25*%
X149812500Y-60937500D02*
X149812500Y-57087500D01*
X151812500Y-60937500D02*
X149812500Y-60937500D01*
X151812500Y-60937500D02*
X151812500Y-57087500D01*
%TO.C,C5*%
X44429000Y-70758164D02*
X44429000Y-70973836D01*
X43709000Y-70758164D02*
X43709000Y-70973836D01*
%TO.C,D13*%
X94662500Y-60937500D02*
X92662500Y-60937500D01*
X92662500Y-60937500D02*
X92662500Y-57087500D01*
X94662500Y-60937500D02*
X94662500Y-57087500D01*
%TO.C,D39*%
X221662500Y-81575000D02*
X219662500Y-81575000D01*
X221662500Y-81575000D02*
X221662500Y-77725000D01*
X219662500Y-81575000D02*
X219662500Y-77725000D01*
%TO.C,C18*%
X160598752Y-69632500D02*
X160076248Y-69632500D01*
X160598752Y-68162500D02*
X160076248Y-68162500D01*
%TO.C,D19*%
X110918750Y-124437500D02*
X110918750Y-120587500D01*
X112918750Y-124437500D02*
X110918750Y-124437500D01*
X112918750Y-124437500D02*
X112918750Y-120587500D01*
%TO.C,LED4*%
G36*
X122737500Y-67675000D02*
G01*
X122237500Y-67675000D01*
X122237500Y-65675000D01*
X122737500Y-65675000D01*
X122737500Y-67675000D01*
G37*
%TO.C,Y1*%
X116245940Y-66033487D02*
X113912487Y-68366940D01*
X113912487Y-68366940D02*
X111084060Y-65538513D01*
%TO.C,U3*%
X40386000Y-67909000D02*
X39736000Y-67909000D01*
X40386000Y-71029000D02*
X41036000Y-71029000D01*
X40386000Y-71029000D02*
X39736000Y-71029000D01*
X40386000Y-67909000D02*
X42061000Y-67909000D01*
%TO.C,C16*%
X95906000Y-72980664D02*
X95906000Y-73196336D01*
X96626000Y-72980664D02*
X96626000Y-73196336D01*
%TO.C,D46*%
X266112500Y-60937500D02*
X264112500Y-60937500D01*
X266112500Y-60937500D02*
X266112500Y-57087500D01*
X264112500Y-60937500D02*
X264112500Y-57087500D01*
%TO.C,D21*%
X130762500Y-79987500D02*
X130762500Y-76137500D01*
X132762500Y-79987500D02*
X130762500Y-79987500D01*
X132762500Y-79987500D02*
X132762500Y-76137500D01*
%TO.C,C13*%
X102256000Y-59734336D02*
X102256000Y-59518664D01*
X102976000Y-59734336D02*
X102976000Y-59518664D01*
%TO.C,D48*%
X265795000Y-102149000D02*
X265795000Y-98299000D01*
X265795000Y-102149000D02*
X263795000Y-102149000D01*
X263795000Y-102149000D02*
X263795000Y-98299000D01*
%TO.C,D40*%
X228012500Y-102212500D02*
X228012500Y-98362500D01*
X228012500Y-102212500D02*
X226012500Y-102212500D01*
X226012500Y-102212500D02*
X226012500Y-98362500D01*
%TO.C,D35*%
X208962500Y-60937500D02*
X206962500Y-60937500D01*
X206962500Y-60937500D02*
X206962500Y-57087500D01*
X208962500Y-60937500D02*
X208962500Y-57087500D01*
%TO.C,LED6*%
G36*
X245864000Y-67675000D02*
G01*
X245364000Y-67675000D01*
X245364000Y-65675000D01*
X245864000Y-65675000D01*
X245864000Y-67675000D01*
G37*
%TO.C,D26*%
X149812500Y-79987500D02*
X149812500Y-76137500D01*
X151812500Y-79987500D02*
X149812500Y-79987500D01*
X151812500Y-79987500D02*
X151812500Y-76137500D01*
%TO.C,R3*%
X134499020Y-73231639D02*
X134499020Y-73538921D01*
X135259020Y-73231639D02*
X135259020Y-73538921D01*
%TO.C,D22*%
X142287500Y-102212500D02*
X142287500Y-98362500D01*
X142287500Y-102212500D02*
X140287500Y-102212500D01*
X140287500Y-102212500D02*
X140287500Y-98362500D01*
%TO.C,D14*%
X94662500Y-79987500D02*
X92662500Y-79987500D01*
X94662500Y-79987500D02*
X94662500Y-76137500D01*
X92662500Y-79987500D02*
X92662500Y-76137500D01*
%TO.C,LED3*%
G36*
X152812500Y-99400000D02*
G01*
X152212500Y-99400000D01*
X152212500Y-98800000D01*
X152812500Y-99400000D01*
G37*
D12*
X152812500Y-99400000D02*
X152212500Y-99400000D01*
X152212500Y-98800000D01*
X152812500Y-99400000D01*
D11*
%TO.C,UR2*%
X160110436Y-64870000D02*
X160564564Y-64870000D01*
X160110436Y-63400000D02*
X160564564Y-63400000D01*
%TO.C,C7*%
X95611836Y-70315500D02*
X95396164Y-70315500D01*
X95611836Y-71035500D02*
X95396164Y-71035500D01*
%TO.C,C15*%
X92182836Y-66696000D02*
X91967164Y-66696000D01*
X92182836Y-67416000D02*
X91967164Y-67416000D01*
%TO.C,R2*%
X89170742Y-69356500D02*
X89645258Y-69356500D01*
X89170742Y-68311500D02*
X89645258Y-68311500D01*
%TO.C,R6*%
X68710860Y-66605273D02*
X69018142Y-66605273D01*
X68710860Y-67365273D02*
X69018142Y-67365273D01*
%TO.C,D36*%
X206962500Y-79987500D02*
X206962500Y-76137500D01*
X208962500Y-79987500D02*
X206962500Y-79987500D01*
X208962500Y-79987500D02*
X208962500Y-76137500D01*
%TO.C,D6*%
X56562500Y-79987500D02*
X54562500Y-79987500D01*
X54562500Y-79987500D02*
X54562500Y-76137500D01*
X56562500Y-79987500D02*
X56562500Y-76137500D01*
%TO.C,U2*%
X71887500Y-67812500D02*
X71887500Y-67552500D01*
X74612500Y-62362500D02*
X77337500Y-62362500D01*
X74612500Y-62362500D02*
X71887500Y-62362500D01*
X71887500Y-67552500D02*
X70212500Y-67552500D01*
X71887500Y-62362500D02*
X71887500Y-62622500D01*
X77337500Y-67812500D02*
X77337500Y-67552500D01*
X74612500Y-67812500D02*
X77337500Y-67812500D01*
X74612500Y-67812500D02*
X71887500Y-67812500D01*
X77337500Y-62362500D02*
X77337500Y-62622500D01*
%TO.C,C3*%
X80539000Y-67329164D02*
X80539000Y-67544836D01*
X81259000Y-67329164D02*
X81259000Y-67544836D01*
%TO.C,C8*%
X97176000Y-72980664D02*
X97176000Y-73196336D01*
X97896000Y-72980664D02*
X97896000Y-73196336D01*
%TO.C,D37*%
X208962500Y-102212500D02*
X206962500Y-102212500D01*
X208962500Y-102212500D02*
X208962500Y-98362500D01*
X206962500Y-102212500D02*
X206962500Y-98362500D01*
%TO.C,D38*%
X226012500Y-60937500D02*
X226012500Y-57087500D01*
X228012500Y-60937500D02*
X226012500Y-60937500D01*
X228012500Y-60937500D02*
X228012500Y-57087500D01*
%TO.C,R1*%
X89170742Y-66787500D02*
X89645258Y-66787500D01*
X89170742Y-67832500D02*
X89645258Y-67832500D01*
%TO.C,D31*%
X189912500Y-60937500D02*
X189912500Y-57087500D01*
X187912500Y-60937500D02*
X187912500Y-57087500D01*
X189912500Y-60937500D02*
X187912500Y-60937500D01*
%TO.C,D47*%
X266112500Y-81575000D02*
X266112500Y-77725000D01*
X266112500Y-81575000D02*
X264112500Y-81575000D01*
X264112500Y-81575000D02*
X264112500Y-77725000D01*
%TO.C,C9*%
X109366164Y-66442000D02*
X109581836Y-66442000D01*
X109366164Y-67162000D02*
X109581836Y-67162000D01*
%TO.C,D20*%
X132762500Y-60937500D02*
X130762500Y-60937500D01*
X132762500Y-60937500D02*
X132762500Y-57087500D01*
X130762500Y-60937500D02*
X130762500Y-57087500D01*
%TO.C,U4*%
X44422500Y-63500000D02*
X44422500Y-65300000D01*
X41302500Y-63500000D02*
X41302500Y-62700000D01*
X41302500Y-63500000D02*
X41302500Y-64300000D01*
X44422500Y-63500000D02*
X44422500Y-62700000D01*
%TO.C,F1*%
X38333000Y-62770936D02*
X38333000Y-63975064D01*
X40153000Y-62770936D02*
X40153000Y-63975064D01*
%TO.C,C6*%
X42693000Y-70758164D02*
X42693000Y-70973836D01*
X43413000Y-70758164D02*
X43413000Y-70973836D01*
%TO.C,D17*%
X113712500Y-79987500D02*
X113712500Y-76137500D01*
X111712500Y-79987500D02*
X111712500Y-76137500D01*
X113712500Y-79987500D02*
X111712500Y-79987500D01*
%TO.C,C4*%
X38842836Y-67035000D02*
X38627164Y-67035000D01*
X38842836Y-66315000D02*
X38627164Y-66315000D01*
%TO.C,LED5*%
G36*
X192587500Y-67675000D02*
G01*
X192087500Y-67675000D01*
X192087500Y-65675000D01*
X192587500Y-65675000D01*
X192587500Y-67675000D01*
G37*
%TO.C,D29*%
X170862500Y-102212500D02*
X168862500Y-102212500D01*
X170862500Y-102212500D02*
X170862500Y-98362500D01*
X168862500Y-102212500D02*
X168862500Y-98362500D01*
%TO.C,D8*%
X59325000Y-119675000D02*
X59325000Y-115825000D01*
X61325000Y-119675000D02*
X61325000Y-115825000D01*
X61325000Y-119675000D02*
X59325000Y-119675000D01*
%TO.C,LED9*%
G36*
X122737500Y-107362500D02*
G01*
X122237500Y-107362500D01*
X122237500Y-105362500D01*
X122737500Y-105362500D01*
X122737500Y-107362500D01*
G37*
%TO.C,R4*%
X41782000Y-58774359D02*
X41782000Y-59081641D01*
X41022000Y-58774359D02*
X41022000Y-59081641D01*
%TO.C,D41*%
X228012500Y-119675000D02*
X228012500Y-115825000D01*
X226012500Y-119675000D02*
X226012500Y-115825000D01*
X228012500Y-119675000D02*
X226012500Y-119675000D01*
%TO.C,D3*%
X40910000Y-102149000D02*
X40910000Y-98299000D01*
X42910000Y-102149000D02*
X40910000Y-102149000D01*
X42910000Y-102149000D02*
X42910000Y-98299000D01*
%TO.C,R5*%
X45657500Y-58774359D02*
X45657500Y-59081641D01*
X46417500Y-58774359D02*
X46417500Y-59081641D01*
%TO.C,LED10*%
G36*
X52387500Y-107362500D02*
G01*
X51887500Y-107362500D01*
X51887500Y-105362500D01*
X52387500Y-105362500D01*
X52387500Y-107362500D01*
G37*
%TO.C,LED1*%
G36*
X143062500Y-104400000D02*
G01*
X142462500Y-103800000D01*
X143062500Y-103800000D01*
X143062500Y-104400000D01*
G37*
D12*
X143062500Y-104400000D02*
X142462500Y-103800000D01*
X143062500Y-103800000D01*
X143062500Y-104400000D01*
D11*
%TO.C,D4*%
X45037500Y-119675000D02*
X45037500Y-115825000D01*
X47037500Y-119675000D02*
X45037500Y-119675000D01*
X47037500Y-119675000D02*
X47037500Y-115825000D01*
%TO.C,D1*%
X35512500Y-60937500D02*
X35512500Y-57087500D01*
X37512500Y-60937500D02*
X37512500Y-57087500D01*
X37512500Y-60937500D02*
X35512500Y-60937500D01*
%TO.C,LED7*%
G36*
X243387500Y-107362500D02*
G01*
X242887500Y-107362500D01*
X242887500Y-105362500D01*
X243387500Y-105362500D01*
X243387500Y-107362500D01*
G37*
%TO.C,D34*%
X199025000Y-124437500D02*
X199025000Y-120587500D01*
X201025000Y-124437500D02*
X201025000Y-120587500D01*
X201025000Y-124437500D02*
X199025000Y-124437500D01*
%TO.C,C11*%
X101960000Y-74550414D02*
X101960000Y-74766086D01*
X101240000Y-74550414D02*
X101240000Y-74766086D01*
%TO.C,D30*%
X180387500Y-124437500D02*
X178387500Y-124437500D01*
X180387500Y-124437500D02*
X180387500Y-120587500D01*
X178387500Y-124437500D02*
X178387500Y-120587500D01*
%TO.C,C12*%
X92182836Y-65680000D02*
X91967164Y-65680000D01*
X92182836Y-66400000D02*
X91967164Y-66400000D01*
%TO.C,D18*%
X121237500Y-102212500D02*
X121237500Y-98362500D01*
X123237500Y-102212500D02*
X123237500Y-98362500D01*
X123237500Y-102212500D02*
X121237500Y-102212500D01*
%TO.C,D45*%
X240300000Y-119675000D02*
X240300000Y-115825000D01*
X242300000Y-119675000D02*
X240300000Y-119675000D01*
X242300000Y-119675000D02*
X242300000Y-115825000D01*
%TO.C,D33*%
X189912500Y-102212500D02*
X189912500Y-98362500D01*
X187912500Y-102212500D02*
X187912500Y-98362500D01*
X189912500Y-102212500D02*
X187912500Y-102212500D01*
%TO.C,D10*%
X73612500Y-79987500D02*
X73612500Y-76137500D01*
X75612500Y-79987500D02*
X75612500Y-76137500D01*
X75612500Y-79987500D02*
X73612500Y-79987500D01*
%TO.C,D27*%
X168862500Y-60937500D02*
X168862500Y-57087500D01*
X170862500Y-60937500D02*
X170862500Y-57087500D01*
X170862500Y-60937500D02*
X168862500Y-60937500D01*
%TO.C,D12*%
X80375000Y-119675000D02*
X78375000Y-119675000D01*
X78375000Y-119675000D02*
X78375000Y-115825000D01*
X80375000Y-119675000D02*
X80375000Y-115825000D01*
%TO.C,D15*%
X104187500Y-102212500D02*
X102187500Y-102212500D01*
X102187500Y-102212500D02*
X102187500Y-98362500D01*
X104187500Y-102212500D02*
X104187500Y-98362500D01*
%TO.C,U1*%
X105210000Y-69635000D02*
X105210000Y-70285000D01*
X105210000Y-70285000D02*
X104560000Y-70285000D01*
X105210000Y-63065000D02*
X104560000Y-63065000D01*
X97990000Y-69635000D02*
X97990000Y-70285000D01*
X97990000Y-63715000D02*
X97990000Y-63065000D01*
X97990000Y-70285000D02*
X98640000Y-70285000D01*
X105210000Y-63715000D02*
X105210000Y-63065000D01*
%TO.C,D16*%
X113712500Y-60937500D02*
X113712500Y-57087500D01*
X111712500Y-60937500D02*
X111712500Y-57087500D01*
X113712500Y-60937500D02*
X111712500Y-60937500D01*
%TO.C,J1*%
X138896000Y-75976000D02*
X138896000Y-74646000D01*
X137566000Y-75976000D02*
X138896000Y-75976000D01*
X136236000Y-63156000D02*
X138896000Y-63156000D01*
X136236000Y-73376000D02*
X136236000Y-63156000D01*
X136236000Y-73376000D02*
X138896000Y-73376000D01*
X138896000Y-73376000D02*
X138896000Y-63156000D01*
%TO.C,D28*%
X170862500Y-79987500D02*
X168862500Y-79987500D01*
X168862500Y-79987500D02*
X168862500Y-76137500D01*
X170862500Y-79987500D02*
X170862500Y-76137500D01*
%TO.C,D43*%
X240712500Y-81575000D02*
X240712500Y-77725000D01*
X238712500Y-81575000D02*
X238712500Y-77725000D01*
X240712500Y-81575000D02*
X238712500Y-81575000D01*
%TO.C,UR3*%
X160564564Y-72013750D02*
X160110436Y-72013750D01*
X160564564Y-70543750D02*
X160110436Y-70543750D01*
%TO.C,LED11*%
G36*
X52387500Y-66087500D02*
G01*
X51887500Y-66087500D01*
X51887500Y-64087500D01*
X52387500Y-64087500D01*
X52387500Y-66087500D01*
G37*
%TO.C,C17*%
X97389836Y-62336000D02*
X97174164Y-62336000D01*
X97389836Y-61616000D02*
X97174164Y-61616000D01*
%TD*%
M02*
