M48
; DRILL file {KiCad (6.0.7)} date Fri Feb  3 16:15:26 2023
; FORMAT={-:-/ absolute / inch / decimal}
; #@! TF.CreationDate,2023-02-03T16:15:26+01:00
; #@! TF.GenerationSoftware,Kicad,Pcbnew,(6.0.7)
; #@! TF.FileFunction,Plated,1,2,PTH
FMAT,2
INCH
; #@! TA.AperFunction,Plated,PTH,ViaDrill
T1C0.0118
; #@! TA.AperFunction,Plated,PTH,ComponentDrill
T2C0.0138
; #@! TA.AperFunction,Plated,PTH,ComponentDrill
T3C0.0236
; #@! TA.AperFunction,Plated,PTH,ComponentDrill
T4C0.0320
; #@! TA.AperFunction,Plated,PTH,ComponentDrill
T5C0.0394
; #@! TA.AperFunction,Plated,PTH,ComponentDrill
T6C0.0579
; #@! TA.AperFunction,Plated,PTH,ComponentDrill
T7C0.0591
%
G90
G05
T1
X1.03Y-3.16
X1.0779Y-3.185
X1.4688Y-2.6562
X1.4871Y-2.394
X1.54Y-2.37
X1.615Y-2.4176
X1.6266Y-2.6462
X1.63Y-2.37
X1.775Y-2.805
X1.78Y-2.5
X1.81Y-2.3704
X1.8578Y-2.2572
X1.8817Y-2.3932
X1.883Y-2.427
X2.14Y-2.585
X2.3116Y-2.4872
X2.345Y-4.0686
X2.7021Y-2.4887
X2.7247Y-2.4197
X2.86Y-2.485
X3.15Y-2.675
X3.22Y-2.64
X3.25Y-2.77
X3.385Y-2.3714
X3.4361Y-2.37
X3.4375Y-2.625
X3.675Y-2.605
X3.675Y-2.6408
X3.7Y-2.74
X3.725Y-2.4
X3.7415Y-2.8954
X3.755Y-3.125
X3.775Y-2.44
X3.8222Y-3.9928
X3.8414Y-4.045
X3.8414Y-4.135
X3.8921Y-4.135
X3.8932Y-4.0418
X3.915Y-3.99
X3.9161Y-2.6631
X4.0Y-2.9918
X4.04Y-2.2925
X4.0827Y-2.6475
X4.1389Y-3.1371
X4.215Y-2.3914
X4.215Y-2.4634
X4.25Y-2.6722
X4.2538Y-2.625
X4.285Y-2.73
X4.325Y-2.73
X4.37Y-2.675
X4.58Y-2.705
X4.585Y-2.565
X4.595Y-2.63
X4.7271Y-2.81
X4.7347Y-2.603
X4.7436Y-4.215
X4.845Y-2.4816
X4.8889Y-2.37
X5.165Y-2.705
X5.34Y-2.4816
X5.599Y-1.9661
X5.63Y-2.4658
X5.6336Y-4.1
X5.685Y-2.4658
X5.78Y-2.725
X5.8099Y-2.4501
X5.92Y-3.715
X6.015Y-3.9
X6.085Y-4.04
X6.385Y-2.88
X7.4936Y-4.21
X7.69Y-1.95
X8.0654Y-4.75
X9.4075Y-2.4825
X9.485Y-4.165
X9.485Y-4.21
X9.625Y-2.695
X9.735Y-2.645
X10.055Y-2.4936
X10.63Y-3.295
X10.63Y-3.55
T2
X3.9498Y-2.5748
X3.9498Y-2.625
X3.9498Y-2.6752
X4.0Y-2.5748
X4.0Y-2.625
X4.0Y-2.6752
X4.0502Y-2.5748
X4.0502Y-2.625
X4.0502Y-2.6752
T4
X5.6625Y-3.4375
X5.7625Y-3.4375
X5.8625Y-3.4375
X5.9625Y-3.4375
T5
X1.2141Y-2.0369
X1.2141Y-2.6078
X1.3125Y-2.6078
X1.4109Y-2.0369
X1.4109Y-2.6078
X3.6422Y-4.6516
X3.6422Y-4.75
X3.6422Y-4.8484
X4.2131Y-4.6516
X4.2131Y-4.8484
X5.416Y-2.5388
X5.416Y-2.6388
X5.416Y-2.7388
X5.416Y-2.8388
X5.416Y-2.9388
X5.7141Y-2.0369
X5.7141Y-2.6078
X5.7141Y-2.7869
X5.7141Y-3.3578
X5.8125Y-2.6078
X5.8125Y-3.3578
X5.9109Y-2.0369
X5.9109Y-2.6078
X5.9109Y-2.7869
X5.9109Y-3.3578
X6.1875Y-2.525
X6.1875Y-2.625
X6.1875Y-2.725
X6.1875Y-2.825
X6.1875Y-2.925
X7.4119Y-4.6516
X7.4119Y-4.8484
X7.9828Y-4.6516
X7.9828Y-4.75
X7.9828Y-4.8484
X10.0369Y-2.2141
X10.0369Y-2.4109
X10.6078Y-2.2141
X10.6078Y-2.3125
X10.6078Y-2.4109
T6
X1.1625Y-2.2125
X1.1625Y-2.9625
X1.1625Y-3.7125
X1.257Y-3.7118
X1.35Y-3.7125
X1.35Y-4.4625
X1.4125Y-2.1125
X1.4125Y-2.8625
X1.4125Y-3.6125
X1.507Y-3.6118
X1.5375Y-4.4625
X1.6Y-3.6125
X1.6Y-4.3625
X1.7875Y-4.3625
X1.9125Y-2.2125
X1.9125Y-2.9625
X1.9125Y-3.7125
X2.1Y-3.7125
X2.1Y-4.4625
X2.1Y-4.4625
X2.1625Y-2.1125
X2.1625Y-2.8625
X2.1625Y-3.6125
X2.2875Y-3.7125
X2.35Y-3.6125
X2.35Y-4.3625
X2.35Y-4.3625
X2.5375Y-3.6125
X2.6625Y-2.2125
X2.6625Y-2.9625
X2.6625Y-3.7125
X2.6625Y-4.4625
X2.85Y-3.7125
X2.85Y-4.4625
X2.9125Y-2.1125
X2.9125Y-2.8625
X2.9125Y-3.6125
X2.9125Y-4.3625
X3.0375Y-3.7125
X3.1Y-3.6125
X3.1Y-4.3625
X3.2875Y-3.6125
X3.4125Y-2.2125
X3.4125Y-2.9625
X3.4125Y-3.7125
X3.6Y-3.7125
X3.6625Y-2.1125
X3.6625Y-2.8625
X3.6625Y-3.6125
X3.7875Y-3.7125
X3.85Y-3.6125
X3.8818Y-4.6494
X3.975Y-4.65
X4.0375Y-3.6125
X4.1318Y-4.5494
X4.1625Y-2.2125
X4.1625Y-2.9625
X4.1625Y-3.7125
X4.225Y-4.55
X4.35Y-3.7125
X4.4125Y-2.1125
X4.4125Y-2.8625
X4.4125Y-3.6125
X4.5375Y-3.7125
X4.5375Y-4.65
X4.6Y-3.6125
X4.7875Y-3.6125
X4.7875Y-4.55
X4.9125Y-2.2125
X4.9125Y-2.9625
X4.9125Y-3.7125
X4.9125Y-4.65
X5.0068Y-4.6494
X5.1Y-3.7125
X5.1625Y-2.1125
X5.1625Y-2.8625
X5.1625Y-3.6125
X5.1625Y-4.55
X5.2568Y-4.5494
X5.2875Y-3.7125
X5.35Y-3.6125
X5.5375Y-3.6125
X5.6625Y-2.2125
X5.6625Y-2.9625
X5.6625Y-4.65
X5.6625Y-4.65
X5.9125Y-2.1125
X5.9125Y-2.8625
X5.9125Y-4.55
X5.9125Y-4.55
X6.0375Y-3.7125
X6.225Y-3.7125
X6.2875Y-3.6125
X6.3193Y-4.6494
X6.4125Y-2.2125
X6.4125Y-2.9625
X6.4125Y-3.7125
X6.4125Y-4.65
X6.475Y-3.6125
X6.5693Y-4.5494
X6.6625Y-2.1125
X6.6625Y-2.8625
X6.6625Y-3.6125
X6.6625Y-4.55
X6.7875Y-3.7125
X6.7875Y-4.65
X6.975Y-3.7125
X7.0375Y-3.6125
X7.0375Y-4.55
X7.1625Y-2.2125
X7.1625Y-2.9625
X7.1625Y-3.7125
X7.225Y-3.6125
X7.35Y-4.65
X7.4125Y-2.1125
X7.4125Y-2.8625
X7.4125Y-3.6125
X7.4443Y-4.6494
X7.5375Y-3.7125
X7.6Y-4.55
X7.6943Y-4.5494
X7.725Y-3.7125
X7.7875Y-3.6125
X7.9125Y-2.2125
X7.9125Y-2.9625
X7.9125Y-3.7125
X7.975Y-3.6125
X8.1625Y-2.1125
X8.1625Y-2.8625
X8.1625Y-3.6125
X8.2875Y-3.7125
X8.475Y-3.7125
X8.475Y-4.4625
X8.5375Y-3.6125
X8.6625Y-2.2125
X8.6625Y-2.9625
X8.6625Y-3.7125
X8.6625Y-4.4625
X8.725Y-3.6125
X8.725Y-4.3625
X8.85Y-2.9625
X8.9125Y-2.1125
X8.9125Y-2.8625
X8.9125Y-3.6125
X8.9125Y-4.3625
X9.0375Y-3.7125
X9.1Y-2.8625
X9.225Y-3.7125
X9.225Y-4.4625
X9.225Y-4.4625
X9.2875Y-3.6125
X9.4125Y-2.2125
X9.4125Y-2.9625
X9.4125Y-3.7125
X9.475Y-3.6125
X9.475Y-4.3625
X9.475Y-4.3625
X9.6625Y-2.1125
X9.6625Y-2.8625
X9.6625Y-3.6125
X9.7875Y-2.2125
X9.7875Y-2.9625
X9.7875Y-4.4625
X9.975Y-3.7125
X9.975Y-4.4625
X10.0375Y-2.1125
X10.0375Y-2.8625
X10.0375Y-4.3625
X10.0687Y-3.3375
X10.07Y-3.7125
X10.1625Y-2.2125
X10.1625Y-2.9625
X10.1625Y-3.7125
X10.225Y-3.6125
X10.225Y-4.3625
X10.3187Y-3.2375
X10.32Y-3.6125
X10.4125Y-2.1125
X10.4125Y-2.8625
X10.4125Y-3.6125
T7
X5.6625Y-4.65
X5.9125Y-4.55
T3
G00X1.5174Y-1.9581
M15
G01X1.5174Y-1.9818
M16
G05
G00X1.5174Y-2.1129
M15
G01X1.5174Y-2.1562
M16
G05
G00X1.8576Y-1.9581
M15
G01X1.8576Y-1.9818
M16
G05
G00X1.8576Y-2.1129
M15
G01X1.8576Y-2.1562
M16
G05
T0
M30
