%TF.GenerationSoftware,KiCad,Pcbnew,(6.0.7)*%
%TF.CreationDate,2023-02-03T16:15:22+01:00*%
%TF.ProjectId,alpha-curISO_rp2040,616c7068-612d-4637-9572-49534f5f7270,rev?*%
%TF.SameCoordinates,Original*%
%TF.FileFunction,Paste,Bot*%
%TF.FilePolarity,Positive*%
%FSLAX46Y46*%
G04 Gerber Fmt 4.6, Leading zero omitted, Abs format (unit mm)*
G04 Created by KiCad (PCBNEW (6.0.7)) date 2023-02-03 16:15:22*
%MOMM*%
%LPD*%
G01*
G04 APERTURE LIST*
G04 Aperture macros list*
%AMRoundRect*
0 Rectangle with rounded corners*
0 $1 Rounding radius*
0 $2 $3 $4 $5 $6 $7 $8 $9 X,Y pos of 4 corners*
0 Add a 4 corners polygon primitive as box body*
4,1,4,$2,$3,$4,$5,$6,$7,$8,$9,$2,$3,0*
0 Add four circle primitives for the rounded corners*
1,1,$1+$1,$2,$3*
1,1,$1+$1,$4,$5*
1,1,$1+$1,$6,$7*
1,1,$1+$1,$8,$9*
0 Add four rect primitives between the rounded corners*
20,1,$1+$1,$2,$3,$4,$5,0*
20,1,$1+$1,$4,$5,$6,$7,0*
20,1,$1+$1,$6,$7,$8,$9,0*
20,1,$1+$1,$8,$9,$2,$3,0*%
%AMRotRect*
0 Rectangle, with rotation*
0 The origin of the aperture is its center*
0 $1 length*
0 $2 width*
0 $3 Rotation angle, in degrees counterclockwise*
0 Add horizontal line*
21,1,$1,$2,0,0,$3*%
G04 Aperture macros list end*
%ADD10R,1.100000X1.100000*%
%ADD11R,1.700000X1.000000*%
%ADD12R,0.820000X1.700000*%
%ADD13RoundRect,0.205000X0.205000X-0.645000X0.205000X0.645000X-0.205000X0.645000X-0.205000X-0.645000X0*%
%ADD14RoundRect,0.135000X0.226274X0.035355X0.035355X0.226274X-0.226274X-0.035355X-0.035355X-0.226274X0*%
%ADD15R,0.700000X0.700000*%
%ADD16RoundRect,0.140000X0.219203X0.021213X0.021213X0.219203X-0.219203X-0.021213X-0.021213X-0.219203X0*%
%ADD17RoundRect,0.140000X0.140000X0.170000X-0.140000X0.170000X-0.140000X-0.170000X0.140000X-0.170000X0*%
%ADD18RoundRect,0.140000X-0.140000X-0.170000X0.140000X-0.170000X0.140000X0.170000X-0.140000X0.170000X0*%
%ADD19RoundRect,0.250000X-0.350000X-0.450000X0.350000X-0.450000X0.350000X0.450000X-0.350000X0.450000X0*%
%ADD20RoundRect,0.140000X-0.021213X0.219203X-0.219203X0.021213X0.021213X-0.219203X0.219203X-0.021213X0*%
%ADD21RoundRect,0.140000X-0.170000X0.140000X-0.170000X-0.140000X0.170000X-0.140000X0.170000X0.140000X0*%
%ADD22RoundRect,0.250000X0.337500X0.475000X-0.337500X0.475000X-0.337500X-0.475000X0.337500X-0.475000X0*%
%ADD23RotRect,1.400000X1.200000X135.000000*%
%ADD24RoundRect,0.150000X0.587500X0.150000X-0.587500X0.150000X-0.587500X-0.150000X0.587500X-0.150000X0*%
%ADD25RoundRect,0.140000X0.170000X-0.140000X0.170000X0.140000X-0.170000X0.140000X-0.170000X-0.140000X0*%
%ADD26RoundRect,0.135000X-0.185000X0.135000X-0.185000X-0.135000X0.185000X-0.135000X0.185000X0.135000X0*%
%ADD27RoundRect,0.200000X-0.200000X-0.275000X0.200000X-0.275000X0.200000X0.275000X-0.200000X0.275000X0*%
%ADD28RoundRect,0.135000X-0.135000X-0.185000X0.135000X-0.185000X0.135000X0.185000X-0.135000X0.185000X0*%
%ADD29RoundRect,0.150000X-0.650000X-0.150000X0.650000X-0.150000X0.650000X0.150000X-0.650000X0.150000X0*%
%ADD30RoundRect,0.150000X0.150000X-0.512500X0.150000X0.512500X-0.150000X0.512500X-0.150000X-0.512500X0*%
%ADD31RoundRect,0.250000X-0.625000X0.375000X-0.625000X-0.375000X0.625000X-0.375000X0.625000X0.375000X0*%
%ADD32R,0.600000X2.450000*%
%ADD33R,0.300000X2.450000*%
%ADD34RoundRect,0.205000X-0.205000X0.645000X-0.205000X-0.645000X0.205000X-0.645000X0.205000X0.645000X0*%
%ADD35RoundRect,0.250000X-0.292217X0.292217X-0.292217X-0.292217X0.292217X-0.292217X0.292217X0.292217X0*%
%ADD36RoundRect,0.050000X-0.050000X0.387500X-0.050000X-0.387500X0.050000X-0.387500X0.050000X0.387500X0*%
%ADD37RoundRect,0.050000X-0.387500X0.050000X-0.387500X-0.050000X0.387500X-0.050000X0.387500X0.050000X0*%
%ADD38RoundRect,0.250000X0.350000X0.450000X-0.350000X0.450000X-0.350000X-0.450000X0.350000X-0.450000X0*%
G04 APERTURE END LIST*
D10*
%TO.C,D32*%
X188912500Y-79187500D03*
X188912500Y-76387500D03*
%TD*%
D11*
%TO.C,SW27*%
X60350000Y-63187500D03*
X66650000Y-63187500D03*
X60350000Y-66987500D03*
X66650000Y-66987500D03*
%TD*%
D12*
%TO.C,LED2*%
X146887500Y-99387500D03*
X148387500Y-99387500D03*
D13*
X148387500Y-94287500D03*
D12*
X146887500Y-94287500D03*
%TD*%
D10*
%TO.C,D2*%
X36512500Y-79187500D03*
X36512500Y-76387500D03*
%TD*%
D14*
%TO.C,R7*%
X112374624Y-67797624D03*
X111653376Y-67076376D03*
%TD*%
D15*
%TO.C,LED8*%
X193002500Y-105812500D03*
X193002500Y-106912500D03*
X191172500Y-106912500D03*
X191172500Y-105812500D03*
%TD*%
D10*
%TO.C,D11*%
X68262500Y-101412500D03*
X68262500Y-98612500D03*
%TD*%
D16*
%TO.C,C2*%
X115782411Y-64474411D03*
X115103589Y-63795589D03*
%TD*%
D10*
%TO.C,D9*%
X74612500Y-60137500D03*
X74612500Y-57337500D03*
%TD*%
%TO.C,D7*%
X65087500Y-101412500D03*
X65087500Y-98612500D03*
%TD*%
D17*
%TO.C,C10*%
X95984000Y-69659500D03*
X95024000Y-69659500D03*
%TD*%
D18*
%TO.C,C14*%
X108994000Y-67945000D03*
X109954000Y-67945000D03*
%TD*%
D10*
%TO.C,D24*%
X150812500Y-123637500D03*
X150812500Y-120837500D03*
%TD*%
D19*
%TO.C,UR1*%
X159337500Y-66516250D03*
X161337500Y-66516250D03*
%TD*%
D10*
%TO.C,D42*%
X239712500Y-61725000D03*
X239712500Y-58925000D03*
%TD*%
%TO.C,D44*%
X246062500Y-101412500D03*
X246062500Y-98612500D03*
%TD*%
%TO.C,D5*%
X60325000Y-60137500D03*
X60325000Y-57337500D03*
%TD*%
%TO.C,D23*%
X138112500Y-123637500D03*
X138112500Y-120837500D03*
%TD*%
%TO.C,D49*%
X260350000Y-118875000D03*
X260350000Y-116075000D03*
%TD*%
D20*
%TO.C,C1*%
X116036411Y-67478589D03*
X115357589Y-68157411D03*
%TD*%
D10*
%TO.C,D25*%
X150812500Y-60137500D03*
X150812500Y-57337500D03*
%TD*%
D21*
%TO.C,C5*%
X44069000Y-70386000D03*
X44069000Y-71346000D03*
%TD*%
D10*
%TO.C,D13*%
X93662500Y-60137500D03*
X93662500Y-57337500D03*
%TD*%
%TO.C,D39*%
X220662500Y-80775000D03*
X220662500Y-77975000D03*
%TD*%
D22*
%TO.C,C18*%
X161375000Y-68897500D03*
X159300000Y-68897500D03*
%TD*%
D10*
%TO.C,D19*%
X111918750Y-123637500D03*
X111918750Y-120837500D03*
%TD*%
D15*
%TO.C,LED4*%
X123152500Y-66125000D03*
X123152500Y-67225000D03*
X121322500Y-67225000D03*
X121322500Y-66125000D03*
%TD*%
D23*
%TO.C,Y1*%
X113841777Y-67164858D03*
X112286142Y-65609223D03*
X113488223Y-64407142D03*
X115043858Y-65962777D03*
%TD*%
D24*
%TO.C,U3*%
X41323500Y-68519000D03*
X41323500Y-70419000D03*
X39448500Y-69469000D03*
%TD*%
D21*
%TO.C,C16*%
X96266000Y-72608500D03*
X96266000Y-73568500D03*
%TD*%
D10*
%TO.C,D46*%
X265112500Y-60137500D03*
X265112500Y-57337500D03*
%TD*%
%TO.C,D21*%
X131762500Y-79187500D03*
X131762500Y-76387500D03*
%TD*%
D25*
%TO.C,C13*%
X102616000Y-60106500D03*
X102616000Y-59146500D03*
%TD*%
D10*
%TO.C,D48*%
X264795000Y-101349000D03*
X264795000Y-98549000D03*
%TD*%
%TO.C,D40*%
X227012500Y-101412500D03*
X227012500Y-98612500D03*
%TD*%
%TO.C,D35*%
X207962500Y-60137500D03*
X207962500Y-57337500D03*
%TD*%
D15*
%TO.C,LED6*%
X246279000Y-66125000D03*
X246279000Y-67225000D03*
X244449000Y-67225000D03*
X244449000Y-66125000D03*
%TD*%
D10*
%TO.C,D26*%
X150812500Y-79187500D03*
X150812500Y-76387500D03*
%TD*%
D26*
%TO.C,R3*%
X134879020Y-72875280D03*
X134879020Y-73895280D03*
%TD*%
D10*
%TO.C,D22*%
X141287500Y-101412500D03*
X141287500Y-98612500D03*
%TD*%
%TO.C,D14*%
X93662500Y-79187500D03*
X93662500Y-76387500D03*
%TD*%
D12*
%TO.C,LED3*%
X150062500Y-104150000D03*
X151562500Y-104150000D03*
D13*
X151562500Y-99050000D03*
D12*
X150062500Y-99050000D03*
%TD*%
D19*
%TO.C,UR2*%
X159337500Y-64135000D03*
X161337500Y-64135000D03*
%TD*%
D17*
%TO.C,C7*%
X95984000Y-70675500D03*
X95024000Y-70675500D03*
%TD*%
%TO.C,C15*%
X92555000Y-67056000D03*
X91595000Y-67056000D03*
%TD*%
D27*
%TO.C,R2*%
X88583000Y-68834000D03*
X90233000Y-68834000D03*
%TD*%
D28*
%TO.C,R6*%
X68354501Y-66985273D03*
X69374501Y-66985273D03*
%TD*%
D10*
%TO.C,D36*%
X207962500Y-79187500D03*
X207962500Y-76387500D03*
%TD*%
%TO.C,D6*%
X55562500Y-79187500D03*
X55562500Y-76387500D03*
%TD*%
D29*
%TO.C,U2*%
X71012500Y-66992500D03*
X71012500Y-65722500D03*
X71012500Y-64452500D03*
X71012500Y-63182500D03*
X78212500Y-63182500D03*
X78212500Y-64452500D03*
X78212500Y-65722500D03*
X78212500Y-66992500D03*
%TD*%
D21*
%TO.C,C3*%
X80899000Y-66957000D03*
X80899000Y-67917000D03*
%TD*%
%TO.C,C8*%
X97536000Y-72608500D03*
X97536000Y-73568500D03*
%TD*%
D10*
%TO.C,D37*%
X207962500Y-101412500D03*
X207962500Y-98612500D03*
%TD*%
%TO.C,D38*%
X227012500Y-60137500D03*
X227012500Y-57337500D03*
%TD*%
D27*
%TO.C,R1*%
X88583000Y-67310000D03*
X90233000Y-67310000D03*
%TD*%
D10*
%TO.C,D31*%
X188912500Y-60137500D03*
X188912500Y-57337500D03*
%TD*%
%TO.C,D47*%
X265112500Y-80775000D03*
X265112500Y-77975000D03*
%TD*%
D18*
%TO.C,C9*%
X108994000Y-66802000D03*
X109954000Y-66802000D03*
%TD*%
D10*
%TO.C,D20*%
X131762500Y-60137500D03*
X131762500Y-57337500D03*
%TD*%
D30*
%TO.C,U4*%
X43812500Y-64637500D03*
X42862500Y-64637500D03*
X41912500Y-64637500D03*
X41912500Y-62362500D03*
X42862500Y-62362500D03*
X43812500Y-62362500D03*
%TD*%
D31*
%TO.C,F1*%
X39243000Y-61973000D03*
X39243000Y-64773000D03*
%TD*%
D21*
%TO.C,C6*%
X43053000Y-70386000D03*
X43053000Y-71346000D03*
%TD*%
D10*
%TO.C,D17*%
X112712500Y-79187500D03*
X112712500Y-76387500D03*
%TD*%
D17*
%TO.C,C4*%
X39215000Y-66675000D03*
X38255000Y-66675000D03*
%TD*%
D15*
%TO.C,LED5*%
X193002500Y-66125000D03*
X193002500Y-67225000D03*
X191172500Y-67225000D03*
X191172500Y-66125000D03*
%TD*%
D10*
%TO.C,D29*%
X169862500Y-101412500D03*
X169862500Y-98612500D03*
%TD*%
%TO.C,D8*%
X60325000Y-118875000D03*
X60325000Y-116075000D03*
%TD*%
D15*
%TO.C,LED9*%
X123152500Y-105812500D03*
X123152500Y-106912500D03*
X121322500Y-106912500D03*
X121322500Y-105812500D03*
%TD*%
D26*
%TO.C,R4*%
X41402000Y-58418000D03*
X41402000Y-59438000D03*
%TD*%
D32*
%TO.C,USB1*%
X39637500Y-55631838D03*
X40412500Y-55631838D03*
D33*
X41112500Y-55631838D03*
X41612500Y-55631838D03*
X42112500Y-55631838D03*
X42612500Y-55631838D03*
X43112500Y-55631838D03*
X43612500Y-55631838D03*
X44112500Y-55631838D03*
X44612500Y-55631838D03*
D32*
X45312500Y-55631838D03*
X46087500Y-55631838D03*
%TD*%
D10*
%TO.C,D41*%
X227012500Y-118875000D03*
X227012500Y-116075000D03*
%TD*%
%TO.C,D3*%
X41910000Y-101349000D03*
X41910000Y-98549000D03*
%TD*%
D26*
%TO.C,R5*%
X46037500Y-58418000D03*
X46037500Y-59438000D03*
%TD*%
D15*
%TO.C,LED10*%
X51472500Y-106912500D03*
X51472500Y-105812500D03*
X53302500Y-105812500D03*
X53302500Y-106912500D03*
%TD*%
D12*
%TO.C,LED1*%
X145212500Y-99050000D03*
X143712500Y-99050000D03*
D34*
X143712500Y-104150000D03*
D12*
X145212500Y-104150000D03*
%TD*%
D10*
%TO.C,D4*%
X46037500Y-118875000D03*
X46037500Y-116075000D03*
%TD*%
%TO.C,D1*%
X36512500Y-60137500D03*
X36512500Y-57337500D03*
%TD*%
D15*
%TO.C,LED7*%
X243802500Y-105812500D03*
X243802500Y-106912500D03*
X241972500Y-106912500D03*
X241972500Y-105812500D03*
%TD*%
D10*
%TO.C,D34*%
X200025000Y-123637500D03*
X200025000Y-120837500D03*
%TD*%
D21*
%TO.C,C11*%
X101600000Y-74178250D03*
X101600000Y-75138250D03*
%TD*%
D10*
%TO.C,D30*%
X179387500Y-123637500D03*
X179387500Y-120837500D03*
%TD*%
D17*
%TO.C,C12*%
X92555000Y-66040000D03*
X91595000Y-66040000D03*
%TD*%
D10*
%TO.C,D18*%
X122237500Y-101412500D03*
X122237500Y-98612500D03*
%TD*%
%TO.C,D45*%
X241300000Y-118875000D03*
X241300000Y-116075000D03*
%TD*%
%TO.C,D33*%
X188912500Y-101412500D03*
X188912500Y-98612500D03*
%TD*%
%TO.C,D10*%
X74612500Y-79187500D03*
X74612500Y-76387500D03*
%TD*%
%TO.C,D27*%
X169862500Y-60137500D03*
X169862500Y-57337500D03*
%TD*%
%TO.C,D12*%
X79375000Y-118875000D03*
X79375000Y-116075000D03*
%TD*%
%TO.C,D15*%
X103187500Y-101412500D03*
X103187500Y-98612500D03*
%TD*%
D35*
%TO.C,U1*%
X102237500Y-67312500D03*
X100962500Y-67312500D03*
X100962500Y-66037500D03*
X102237500Y-66037500D03*
D36*
X99000000Y-63237500D03*
X99400000Y-63237500D03*
X99800000Y-63237500D03*
X100200000Y-63237500D03*
X100600000Y-63237500D03*
X101000000Y-63237500D03*
X101400000Y-63237500D03*
X101800000Y-63237500D03*
X102200000Y-63237500D03*
X102600000Y-63237500D03*
X103000000Y-63237500D03*
X103400000Y-63237500D03*
X103800000Y-63237500D03*
X104200000Y-63237500D03*
D37*
X105037500Y-64075000D03*
X105037500Y-64475000D03*
X105037500Y-64875000D03*
X105037500Y-65275000D03*
X105037500Y-65675000D03*
X105037500Y-66075000D03*
X105037500Y-66475000D03*
X105037500Y-66875000D03*
X105037500Y-67275000D03*
X105037500Y-67675000D03*
X105037500Y-68075000D03*
X105037500Y-68475000D03*
X105037500Y-68875000D03*
X105037500Y-69275000D03*
D36*
X104200000Y-70112500D03*
X103800000Y-70112500D03*
X103400000Y-70112500D03*
X103000000Y-70112500D03*
X102600000Y-70112500D03*
X102200000Y-70112500D03*
X101800000Y-70112500D03*
X101400000Y-70112500D03*
X101000000Y-70112500D03*
X100600000Y-70112500D03*
X100200000Y-70112500D03*
X99800000Y-70112500D03*
X99400000Y-70112500D03*
X99000000Y-70112500D03*
D37*
X98162500Y-69275000D03*
X98162500Y-68875000D03*
X98162500Y-68475000D03*
X98162500Y-68075000D03*
X98162500Y-67675000D03*
X98162500Y-67275000D03*
X98162500Y-66875000D03*
X98162500Y-66475000D03*
X98162500Y-66075000D03*
X98162500Y-65675000D03*
X98162500Y-65275000D03*
X98162500Y-64875000D03*
X98162500Y-64475000D03*
X98162500Y-64075000D03*
%TD*%
D10*
%TO.C,D16*%
X112712500Y-60137500D03*
X112712500Y-57337500D03*
%TD*%
%TO.C,D28*%
X169862500Y-79187500D03*
X169862500Y-76387500D03*
%TD*%
%TO.C,D43*%
X239712500Y-80775000D03*
X239712500Y-77975000D03*
%TD*%
D38*
%TO.C,UR3*%
X161337500Y-71278750D03*
X159337500Y-71278750D03*
%TD*%
D15*
%TO.C,LED11*%
X51472500Y-65637500D03*
X51472500Y-64537500D03*
X53302500Y-64537500D03*
X53302500Y-65637500D03*
%TD*%
D17*
%TO.C,C17*%
X97762000Y-61976000D03*
X96802000Y-61976000D03*
%TD*%
M02*
