%TF.GenerationSoftware,KiCad,Pcbnew,(6.0.11)*%
%TF.CreationDate,2023-03-24T14:41:53+01:00*%
%TF.ProjectId,alpha-curISO_routingv6,616c7068-612d-4637-9572-49534f5f726f,rev?*%
%TF.SameCoordinates,Original*%
%TF.FileFunction,Soldermask,Top*%
%TF.FilePolarity,Negative*%
%FSLAX46Y46*%
G04 Gerber Fmt 4.6, Leading zero omitted, Abs format (unit mm)*
G04 Created by KiCad (PCBNEW (6.0.11)) date 2023-03-24 14:41:53*
%MOMM*%
%LPD*%
G01*
G04 APERTURE LIST*
%ADD10C,1.750000*%
%ADD11C,3.987800*%
%ADD12O,2.000000X3.200000*%
%ADD13R,2.000000X2.000000*%
%ADD14C,2.000000*%
%ADD15C,3.048000*%
%ADD16O,3.200000X2.000000*%
%ADD17C,4.000000*%
%ADD18C,2.200000*%
%ADD19R,1.700000X1.700000*%
%ADD20O,1.700000X1.700000*%
%ADD21R,1.600000X1.600000*%
%ADD22C,1.600000*%
%ADD23C,0.650000*%
%ADD24O,1.000000X1.600000*%
%ADD25O,1.000000X2.100000*%
G04 APERTURE END LIST*
D10*
%TO.C,SW30(ortho)1*%
X95567500Y-96820487D03*
D11*
X90487500Y-96820487D03*
D10*
X85407500Y-96820487D03*
%TD*%
%TO.C,SW12*%
X247967500Y-58737500D03*
D11*
X242887500Y-58737500D03*
D10*
X237807500Y-58737500D03*
%TD*%
D11*
%TO.C,SW31(ortho)1*%
X109537500Y-96820487D03*
D10*
X114617500Y-96820487D03*
X104457500Y-96820487D03*
%TD*%
%TO.C,SW43(1.75)1*%
X136062566Y-120635521D03*
X125902566Y-120635521D03*
D11*
X130982566Y-120635521D03*
%TD*%
D10*
%TO.C,SW48*%
X243205000Y-115887500D03*
X233045000Y-115887500D03*
D11*
X238125000Y-115887500D03*
%TD*%
D10*
%TO.C,SW33(1.5stagger)1*%
X152082500Y-96820487D03*
D11*
X157162500Y-96820487D03*
D10*
X162242500Y-96820487D03*
%TD*%
D12*
%TO.C,SW_rotary3*%
X153237500Y-58737500D03*
X142037500Y-58737500D03*
D13*
X145137500Y-66237500D03*
D14*
X150137500Y-66237500D03*
X147637500Y-66237500D03*
X150137500Y-51737500D03*
X145137500Y-51737500D03*
%TD*%
D10*
%TO.C,SW42(3)1*%
X124142500Y-120650000D03*
X113982500Y-120650000D03*
D11*
X119062500Y-120650000D03*
D15*
X138112500Y-127635000D03*
D11*
X100012500Y-112395000D03*
X138112500Y-112395000D03*
D15*
X100012500Y-127635000D03*
%TD*%
D10*
%TO.C,SW32(ortho)1*%
X133667500Y-96820487D03*
X123507500Y-96820487D03*
D11*
X128587500Y-96820487D03*
%TD*%
%TO.C,SW42(1)1*%
X100012500Y-120650000D03*
D10*
X105092500Y-120650000D03*
X94932500Y-120650000D03*
%TD*%
%TO.C,SW34(1.5stagger)1*%
X171132500Y-96820487D03*
D11*
X176212500Y-96820487D03*
D10*
X181292500Y-96820487D03*
%TD*%
%TO.C,SW21*%
X171767500Y-77787500D03*
D11*
X166687500Y-77787500D03*
D10*
X161607500Y-77787500D03*
%TD*%
D11*
%TO.C,SW28*%
X57150000Y-96820487D03*
D10*
X52070000Y-96820487D03*
X62230000Y-96820487D03*
%TD*%
D11*
%TO.C,SW8*%
X166687500Y-58737500D03*
D10*
X161607500Y-58737500D03*
X171767500Y-58737500D03*
%TD*%
%TO.C,SW28(1.5stagger)1*%
X66992500Y-96820487D03*
D11*
X61912500Y-96820487D03*
D10*
X56832500Y-96820487D03*
%TD*%
%TO.C,SW46(1.5)1*%
X195580000Y-120650000D03*
D11*
X190500000Y-120650000D03*
D10*
X185420000Y-120650000D03*
%TD*%
%TO.C,SW23*%
X209867500Y-77787500D03*
X199707500Y-77787500D03*
D11*
X204787500Y-77787500D03*
%TD*%
D10*
%TO.C,SW36*%
X224155000Y-96820487D03*
D11*
X219075000Y-96820487D03*
D10*
X213995000Y-96820487D03*
%TD*%
D11*
%TO.C,SW12(2)1*%
X240506250Y-66992500D03*
X252412500Y-58737500D03*
X264318750Y-66992500D03*
D10*
X247332500Y-58737500D03*
D15*
X240506250Y-51752500D03*
D10*
X257492500Y-58737500D03*
D15*
X264318750Y-51752500D03*
%TD*%
D11*
%TO.C,SW15*%
X52387500Y-77787500D03*
D10*
X57467500Y-77787500D03*
X47307500Y-77787500D03*
%TD*%
%TO.C,SW50(ortho)1*%
X152717500Y-96820487D03*
D11*
X147637500Y-96820487D03*
D10*
X142557500Y-96820487D03*
%TD*%
D11*
%TO.C,SW39(1.5)1*%
X42862500Y-115887500D03*
D10*
X37782500Y-115887500D03*
X47942500Y-115887500D03*
%TD*%
D11*
%TO.C,SW6*%
X128587500Y-58737500D03*
D10*
X133667500Y-58737500D03*
X123507500Y-58737500D03*
%TD*%
%TO.C,SW31*%
X109220000Y-96820487D03*
D11*
X114300000Y-96820487D03*
D10*
X119380000Y-96820487D03*
%TD*%
%TO.C,SW37(1.5stagger)1*%
X238442500Y-96820487D03*
D11*
X233362500Y-96820487D03*
D10*
X228282500Y-96820487D03*
%TD*%
%TO.C,SW38(1.25)1*%
X254475000Y-96820487D03*
X264635000Y-96820487D03*
D11*
X259555000Y-96820487D03*
%TD*%
D10*
%TO.C,SW47*%
X213995000Y-115887500D03*
X224155000Y-115887500D03*
D11*
X219075000Y-115887500D03*
%TD*%
D10*
%TO.C,SW26(1.5)1*%
X252095000Y-77787500D03*
D11*
X257175000Y-77787500D03*
D10*
X262255000Y-77787500D03*
%TD*%
%TO.C,SW46(1)1*%
X200342500Y-120650000D03*
X190182500Y-120650000D03*
D11*
X195262500Y-120650000D03*
%TD*%
%TO.C,SW1*%
X33337500Y-58737500D03*
D10*
X38417500Y-58737500D03*
X28257500Y-58737500D03*
%TD*%
D11*
%TO.C,SW26(ISO)1*%
X259556250Y-87312500D03*
X251301250Y-99250500D03*
X251301250Y-75374500D03*
D10*
X254476250Y-87312500D03*
X264636250Y-87312500D03*
D15*
X266541250Y-75374500D03*
X266541250Y-99250500D03*
%TD*%
D10*
%TO.C,SW37(ortho)1*%
X247967500Y-96820487D03*
X237807500Y-96820487D03*
D11*
X242887500Y-96820487D03*
%TD*%
D10*
%TO.C,SW41(1.5)1*%
X76517500Y-115887500D03*
X66357500Y-115887500D03*
D11*
X71437500Y-115887500D03*
%TD*%
%TO.C,SW27(ortho)1*%
X33337500Y-96820487D03*
D10*
X38417500Y-96820487D03*
X28257500Y-96820487D03*
%TD*%
D11*
%TO.C,SW38(1.5)1*%
X257175000Y-96820487D03*
D10*
X262255000Y-96820487D03*
X252095000Y-96820487D03*
%TD*%
D16*
%TO.C,SW_rotary2*%
X261937500Y-53137500D03*
X261937500Y-64337500D03*
D13*
X269437500Y-61237500D03*
D14*
X269437500Y-56237500D03*
X269437500Y-58737500D03*
X254937500Y-56237500D03*
X254937500Y-61237500D03*
%TD*%
D16*
%TO.C,SW_rotary6*%
X195262500Y-126250000D03*
D13*
X202762500Y-123150000D03*
D14*
X202762500Y-118150000D03*
X202762500Y-120650000D03*
X188262500Y-118150000D03*
X188262500Y-123150000D03*
%TD*%
D10*
%TO.C,SW9*%
X180657500Y-58737500D03*
X190817500Y-58737500D03*
D11*
X185737500Y-58737500D03*
%TD*%
%TO.C,SW33*%
X161925000Y-96820487D03*
D10*
X156845000Y-96820487D03*
X167005000Y-96820487D03*
%TD*%
%TO.C,SW43(2)1*%
X133667500Y-120650000D03*
D15*
X116681250Y-127635000D03*
D10*
X123507500Y-120650000D03*
D11*
X116681250Y-112395000D03*
X128587500Y-120650000D03*
D15*
X140493750Y-127635000D03*
D11*
X140493750Y-112395000D03*
%TD*%
D17*
%TO.C,SW44(4)1*%
X147637500Y-120650000D03*
D11*
X178625500Y-112420400D03*
D15*
X116649500Y-127635000D03*
X178625500Y-127660400D03*
D11*
X116649500Y-112395000D03*
D18*
X143827500Y-118110000D03*
X150177500Y-115570000D03*
%TD*%
D10*
%TO.C,SW33(ortho)1*%
X171767500Y-96820487D03*
X161607500Y-96820487D03*
D11*
X166687500Y-96820487D03*
%TD*%
%TO.C,SW10*%
X204787500Y-58737500D03*
D10*
X199707500Y-58737500D03*
X209867500Y-58737500D03*
%TD*%
D11*
%TO.C,SW18*%
X109537500Y-77787500D03*
D10*
X114617500Y-77787500D03*
X104457500Y-77787500D03*
%TD*%
%TO.C,SW34(ortho)1*%
X180657500Y-96820487D03*
D11*
X185737500Y-96820487D03*
D10*
X190817500Y-96820487D03*
%TD*%
D11*
%TO.C,SW36(ortho)1*%
X223837500Y-96820487D03*
D10*
X218757500Y-96820487D03*
X228917500Y-96820487D03*
%TD*%
D16*
%TO.C,SW_rotary5*%
X100012500Y-126250000D03*
X100012500Y-115050000D03*
D13*
X92512500Y-118150000D03*
D14*
X92512500Y-123150000D03*
X92512500Y-120650000D03*
X107012500Y-123150000D03*
X107012500Y-118150000D03*
%TD*%
D10*
%TO.C,SW2*%
X47307500Y-58737500D03*
X57467500Y-58737500D03*
D11*
X52387500Y-58737500D03*
%TD*%
%TO.C,SW38(ortho)1*%
X261937500Y-96820487D03*
D10*
X256857500Y-96820487D03*
X267017500Y-96820487D03*
%TD*%
D11*
%TO.C,SW49(1.5)1*%
X252412500Y-115887500D03*
D10*
X257492500Y-115887500D03*
X247332500Y-115887500D03*
%TD*%
%TO.C,SW34*%
X175895000Y-96820487D03*
X186055000Y-96820487D03*
D11*
X180975000Y-96820487D03*
%TD*%
D10*
%TO.C,SW4*%
X85407500Y-58737500D03*
X95567500Y-58737500D03*
D11*
X90487500Y-58737500D03*
%TD*%
D10*
%TO.C,SW13*%
X267017500Y-58737500D03*
D11*
X261937500Y-58737500D03*
D10*
X256857500Y-58737500D03*
%TD*%
%TO.C,SW35(ortho)1*%
X199707500Y-96820487D03*
D11*
X204787500Y-96820487D03*
D10*
X209867500Y-96820487D03*
%TD*%
%TO.C,SW32*%
X138430000Y-96820487D03*
D11*
X133350000Y-96820487D03*
D10*
X128270000Y-96820487D03*
%TD*%
D11*
%TO.C,SW29(ortho)1*%
X71437500Y-96820487D03*
D10*
X76517500Y-96820487D03*
X66357500Y-96820487D03*
%TD*%
D11*
%TO.C,SW30(1.5stagger)1*%
X100012500Y-96820487D03*
D10*
X105092500Y-96820487D03*
X94932500Y-96820487D03*
%TD*%
%TO.C,SW29(1.5stagger)1*%
X86042500Y-96820487D03*
X75882500Y-96820487D03*
D11*
X80962500Y-96820487D03*
%TD*%
D10*
%TO.C,SW45(2)1*%
X161607500Y-120650000D03*
D15*
X154781250Y-127635000D03*
X178593750Y-127635000D03*
D11*
X166687500Y-120650000D03*
X178593750Y-112395000D03*
X154781250Y-112395000D03*
D10*
X171767500Y-120650000D03*
%TD*%
D11*
%TO.C,SW46(1.25)1*%
X192895066Y-120635521D03*
D10*
X197975066Y-120635521D03*
X187815066Y-120635521D03*
%TD*%
%TO.C,SW16*%
X66357500Y-77787500D03*
X76517500Y-77787500D03*
D11*
X71437500Y-77787500D03*
%TD*%
D10*
%TO.C,SW25*%
X247967500Y-77787500D03*
D11*
X242887500Y-77787500D03*
D10*
X237807500Y-77787500D03*
%TD*%
D11*
%TO.C,SW46(3)1*%
X157162500Y-112395000D03*
X195262500Y-112395000D03*
D15*
X195262500Y-127635000D03*
D10*
X171132500Y-120650000D03*
D15*
X157162500Y-127635000D03*
D10*
X181292500Y-120650000D03*
D11*
X176212500Y-120650000D03*
%TD*%
D10*
%TO.C,SW39*%
X33020000Y-115887500D03*
D11*
X38100000Y-115887500D03*
D10*
X43180000Y-115887500D03*
%TD*%
%TO.C,SW19*%
X123507500Y-77787500D03*
D11*
X128587500Y-77787500D03*
D10*
X133667500Y-77787500D03*
%TD*%
D19*
%TO.C,J2*%
X157162500Y-64135000D03*
D20*
X157162500Y-66675000D03*
X157162500Y-69215000D03*
X157162500Y-71755000D03*
X157162500Y-74295000D03*
%TD*%
D11*
%TO.C,SW44(6)1*%
X195262500Y-112395000D03*
X147637500Y-120650000D03*
X100012500Y-112395000D03*
D15*
X100012500Y-127635000D03*
D10*
X152717500Y-120650000D03*
X142557500Y-120650000D03*
D15*
X195262500Y-127635000D03*
%TD*%
D10*
%TO.C,SW35*%
X194945000Y-96820487D03*
D11*
X200025000Y-96820487D03*
D10*
X205105000Y-96820487D03*
%TD*%
D11*
%TO.C,SW37*%
X238125000Y-96820487D03*
D10*
X243205000Y-96820487D03*
X233045000Y-96820487D03*
%TD*%
D11*
%TO.C,SW20*%
X147637500Y-77787500D03*
D10*
X152717500Y-77787500D03*
X142557500Y-77787500D03*
%TD*%
D11*
%TO.C,SW11*%
X223837500Y-58737500D03*
D10*
X218757500Y-58737500D03*
X228917500Y-58737500D03*
%TD*%
%TO.C,SW24(1.5)1*%
X233680000Y-77787500D03*
D11*
X228600000Y-77787500D03*
D10*
X223520000Y-77787500D03*
%TD*%
D11*
%TO.C,SW7*%
X147637500Y-58737500D03*
D10*
X142557500Y-58737500D03*
X152717500Y-58737500D03*
%TD*%
D11*
%TO.C,SW40*%
X57150000Y-115887500D03*
D10*
X52070000Y-115887500D03*
X62230000Y-115887500D03*
%TD*%
D15*
%TO.C,SW26(2)1*%
X264318750Y-70802500D03*
D10*
X257492500Y-77787500D03*
X247332500Y-77787500D03*
D11*
X240506250Y-86042500D03*
D15*
X240506250Y-70802500D03*
D11*
X264318750Y-86042500D03*
X252412500Y-77787500D03*
%TD*%
D10*
%TO.C,SW48(3)1*%
X243205000Y-115887500D03*
X233045000Y-115887500D03*
D15*
X257175000Y-122872500D03*
D11*
X219075000Y-107632500D03*
X257175000Y-107632500D03*
D15*
X219075000Y-122872500D03*
D11*
X238125000Y-115887500D03*
%TD*%
D12*
%TO.C,SW_rotary1*%
X27737500Y-58737500D03*
X38937500Y-58737500D03*
D13*
X30837500Y-66237500D03*
D14*
X35837500Y-66237500D03*
X33337500Y-66237500D03*
X35837500Y-51737500D03*
X30837500Y-51737500D03*
%TD*%
D12*
%TO.C,SW_rotary4*%
X153237500Y-77787500D03*
X142037500Y-77787500D03*
D13*
X145137500Y-85287500D03*
D14*
X150137500Y-85287500D03*
X147637500Y-85287500D03*
X150137500Y-70787500D03*
X145137500Y-70787500D03*
%TD*%
D10*
%TO.C,SW36(1.5stagger)1*%
X209232500Y-96820487D03*
D11*
X214312500Y-96820487D03*
D10*
X219392500Y-96820487D03*
%TD*%
%TO.C,SW5*%
X104457500Y-58737500D03*
X114617500Y-58737500D03*
D11*
X109537500Y-58737500D03*
%TD*%
D15*
%TO.C,SW44(3)1*%
X166687500Y-127635000D03*
D11*
X147637500Y-120650000D03*
X128587500Y-112395000D03*
D15*
X128587500Y-127635000D03*
D10*
X142557500Y-120650000D03*
D11*
X166687500Y-112395000D03*
D10*
X152717500Y-120650000D03*
%TD*%
D21*
%TO.C,R8*%
X205650000Y-120650000D03*
D22*
X213450000Y-120650000D03*
%TD*%
D12*
%TO.C,SW_rotary7*%
X153237500Y-96820487D03*
X142037500Y-96820487D03*
D13*
X145137500Y-104320487D03*
D14*
X150137500Y-104320487D03*
X147637500Y-104320487D03*
X150137500Y-89820487D03*
X145137500Y-89820487D03*
%TD*%
D10*
%TO.C,SW22*%
X190817500Y-77787500D03*
X180657500Y-77787500D03*
D11*
X185737500Y-77787500D03*
%TD*%
D10*
%TO.C,SW27(1.5)1*%
X33020000Y-96820487D03*
D11*
X38100000Y-96820487D03*
D10*
X43180000Y-96820487D03*
%TD*%
%TO.C,SW42(1.25)1*%
X97327566Y-120635521D03*
X107487566Y-120635521D03*
D11*
X102407566Y-120635521D03*
%TD*%
D10*
%TO.C,SW42(1.5)1*%
X109855000Y-120650000D03*
X99695000Y-120650000D03*
D11*
X104775000Y-120650000D03*
%TD*%
D10*
%TO.C,SW27(1.25)1*%
X30640000Y-96820487D03*
X40800000Y-96820487D03*
D11*
X35720000Y-96820487D03*
%TD*%
%TO.C,SW49*%
X257175000Y-115887500D03*
D10*
X252095000Y-115887500D03*
X262255000Y-115887500D03*
%TD*%
D11*
%TO.C,SW26*%
X261937500Y-77787500D03*
D10*
X256857500Y-77787500D03*
X267017500Y-77787500D03*
%TD*%
D11*
%TO.C,SW28(ortho)1*%
X52387500Y-96820487D03*
D10*
X47307500Y-96820487D03*
X57467500Y-96820487D03*
%TD*%
%TO.C,SW24*%
X218757500Y-77787500D03*
X228917500Y-77787500D03*
D11*
X223837500Y-77787500D03*
%TD*%
D10*
%TO.C,SW17*%
X95567500Y-77787500D03*
X85407500Y-77787500D03*
D11*
X90487500Y-77787500D03*
%TD*%
%TO.C,SW40(3)1*%
X76200000Y-107632500D03*
D10*
X62230000Y-115887500D03*
D15*
X76200000Y-122872500D03*
X38100000Y-122872500D03*
D11*
X57150000Y-115887500D03*
X38100000Y-107632500D03*
D10*
X52070000Y-115887500D03*
%TD*%
%TO.C,SW3*%
X76517500Y-58737500D03*
D11*
X71437500Y-58737500D03*
D10*
X66357500Y-58737500D03*
%TD*%
%TO.C,SW45(1.75)1*%
X169400066Y-120635521D03*
X159240066Y-120635521D03*
D11*
X164320066Y-120635521D03*
%TD*%
%TO.C,SW14*%
X33337500Y-77787500D03*
D10*
X38417500Y-77787500D03*
X28257500Y-77787500D03*
%TD*%
%TO.C,SW41*%
X81280000Y-115887500D03*
D11*
X76200000Y-115887500D03*
D10*
X71120000Y-115887500D03*
%TD*%
%TO.C,SW47(1.5)1*%
X228917500Y-115887500D03*
D11*
X223837500Y-115887500D03*
D10*
X218757500Y-115887500D03*
%TD*%
%TO.C,SW35(1.5stagger)1*%
X190182500Y-96820487D03*
D11*
X195262500Y-96820487D03*
D10*
X200342500Y-96820487D03*
%TD*%
D11*
%TO.C,SW30*%
X95250000Y-96820487D03*
D10*
X100330000Y-96820487D03*
X90170000Y-96820487D03*
%TD*%
%TO.C,SW32(1.5stagger)1*%
X143192500Y-96820487D03*
X133032500Y-96820487D03*
D11*
X138112500Y-96820487D03*
%TD*%
D10*
%TO.C,SW31(1.5stagger)1*%
X113982500Y-96820487D03*
X124142500Y-96820487D03*
D11*
X119062500Y-96820487D03*
%TD*%
D10*
%TO.C,SW29*%
X81280000Y-96820487D03*
X71120000Y-96820487D03*
D11*
X76200000Y-96820487D03*
%TD*%
D23*
%TO.C,USB1*%
X39972500Y-53686838D03*
X45752500Y-53686838D03*
D24*
X47182500Y-50036838D03*
D25*
X38542500Y-54216838D03*
X47182500Y-54216838D03*
D24*
X38542500Y-50036838D03*
%TD*%
D19*
%TO.C,J1*%
X138074000Y-74265000D03*
D20*
X138074000Y-71725000D03*
X138074000Y-69185000D03*
X138074000Y-66645000D03*
X138074000Y-64105000D03*
%TD*%
M02*
