  0
SECTION
  2
HEADER
  9
$ACADVER
  1
AC1032
  9
$ACADMAINTVER
 90
      228
  9
$DWGCODEPAGE
  3
ANSI_949
  9
$REQUIREDVERSIONS
160
                 0
  9
$INSBASE
 10
0.0
 20
0.0
 30
0.0
  9
$EXTMIN
 10
1.000000000000000E+20
 20
1.000000000000000E+20
 30
1.000000000000000E+20
  9
$EXTMAX
 10
-1.000000000000000E+20
 20
-1.000000000000000E+20
 30
-1.000000000000000E+20
  9
$LIMMIN
 10
0.0
 20
0.0
  9
$LIMMAX
 10
12.0
 20
9.0
  9
$ORTHOMODE
 70
     0
  9
$REGENMODE
 70
     1
  9
$FILLMODE
 70
     1
  9
$QTEXTMODE
 70
     0
  9
$MIRRTEXT
 70
     0
  9
$LTSCALE
 40
1.0
  9
$ATTMODE
 70
     1
  9
$TEXTSIZE
 40
0.2
  9
$TRACEWID
 40
0.05
  9
$TEXTSTYLE
  7
Standard
  9
$CLAYER
  8
0
  9
$CELTYPE
  6
ByLayer
  9
$CECOLOR
 62
   256
  9
$CELTSCALE
 40
1.0
  9
$DISPSILH
 70
     0
  9
$DIMSCALE
 40
1.0
  9
$DIMASZ
 40
0.18
  9
$DIMEXO
 40
0.0625
  9
$DIMDLI
 40
0.38
  9
$DIMRND
 40
0.0
  9
$DIMDLE
 40
0.0
  9
$DIMEXE
 40
0.18
  9
$DIMTP
 40
0.0
  9
$DIMTM
 40
0.0
  9
$DIMTXT
 40
0.18
  9
$DIMCEN
 40
0.09
  9
$DIMTSZ
 40
0.0
  9
$DIMTOL
 70
     0
  9
$DIMLIM
 70
     0
  9
$DIMTIH
 70
     1
  9
$DIMTOH
 70
     1
  9
$DIMSE1
 70
     0
  9
$DIMSE2
 70
     0
  9
$DIMTAD
 70
     0
  9
$DIMZIN
 70
     0
  9
$DIMBLK
  1

  9
$DIMASO
 70
     1
  9
$DIMSHO
 70
     1
  9
$DIMPOST
  1

  9
$DIMAPOST
  1

  9
$DIMALT
 70
     0
  9
$DIMALTD
 70
     2
  9
$DIMALTF
 40
25.4
  9
$DIMLFAC
 40
1.0
  9
$DIMTOFL
 70
     0
  9
$DIMTVP
 40
0.0
  9
$DIMTIX
 70
     0
  9
$DIMSOXD
 70
     0
  9
$DIMSAH
 70
     0
  9
$DIMBLK1
  1

  9
$DIMBLK2
  1

  9
$DIMSTYLE
  2
Standard
  9
$DIMCLRD
 70
     0
  9
$DIMCLRE
 70
     0
  9
$DIMCLRT
 70
     0
  9
$DIMTFAC
 40
1.0
  9
$DIMGAP
 40
0.09
  9
$DIMJUST
 70
     0
  9
$DIMSD1
 70
     0
  9
$DIMSD2
 70
     0
  9
$DIMTOLJ
 70
     1
  9
$DIMTZIN
 70
     0
  9
$DIMALTZ
 70
     0
  9
$DIMALTTZ
 70
     0
  9
$DIMUPT
 70
     0
  9
$DIMDEC
 70
     4
  9
$DIMTDEC
 70
     4
  9
$DIMALTU
 70
     2
  9
$DIMALTTD
 70
     2
  9
$DIMTXSTY
  7
Standard
  9
$DIMAUNIT
 70
     0
  9
$DIMADEC
 70
     0
  9
$DIMALTRND
 40
0.0
  9
$DIMAZIN
 70
     0
  9
$DIMDSEP
 70
    46
  9
$DIMATFIT
 70
     3
  9
$DIMFRAC
 70
     0
  9
$DIMLDRBLK
  1

  9
$DIMLUNIT
 70
     2
  9
$DIMLWD
 70
    -2
  9
$DIMLWE
 70
    -2
  9
$DIMTMOVE
 70
     0
  9
$DIMFXL
 40
1.0
  9
$DIMFXLON
 70
     0
  9
$DIMJOGANG
 40
0.7853981633974483
  9
$DIMTFILL
 70
     0
  9
$DIMTFILLCLR
 70
     0
  9
$DIMARCSYM
 70
     0
  9
$DIMLTYPE
  6

  9
$DIMLTEX1
  6

  9
$DIMLTEX2
  6

  9
$DIMTXTDIRECTION
 70
     0
  9
$LUNITS
 70
     2
  9
$LUPREC
 70
     4
  9
$SKETCHINC
 40
0.1
  9
$FILLETRAD
 40
0.0
  9
$AUNITS
 70
     0
  9
$AUPREC
 70
     0
  9
$MENU
  1
.
  9
$ELEVATION
 40
0.0
  9
$PELEVATION
 40
0.0
  9
$THICKNESS
 40
0.0
  9
$LIMCHECK
 70
     0
  9
$CHAMFERA
 40
0.0
  9
$CHAMFERB
 40
0.0
  9
$CHAMFERC
 40
0.0
  9
$CHAMFERD
 40
0.0
  9
$SKPOLY
 70
     0
  9
$TDCREATE
 40
2459976.851979167
  9
$TDUCREATE
 40
2459977.060312500
  9
$TDUPDATE
 40
2459976.851979167
  9
$TDUUPDATE
 40
2459977.060312500
  9
$TDINDWG
 40
0.0000000000
  9
$TDUSRTIMER
 40
0.0000000000
  9
$USRTIMER
 70
     1
  9
$ANGBASE
 50
0.0
  9
$ANGDIR
 70
     0
  9
$PDMODE
 70
     0
  9
$PDSIZE
 40
0.0
  9
$PLINEWID
 40
0.0
  9
$SPLFRAME
 70
     0
  9
$SPLINETYPE
 70
     6
  9
$SPLINESEGS
 70
     8
  9
$HANDSEED
  5
9F
  9
$SURFTAB1
 70
     6
  9
$SURFTAB2
 70
     6
  9
$SURFTYPE
 70
     6
  9
$SURFU
 70
     6
  9
$SURFV
 70
     6
  9
$UCSBASE
  2

  9
$UCSNAME
  2

  9
$UCSORG
 10
0.0
 20
0.0
 30
0.0
  9
$UCSXDIR
 10
1.0
 20
0.0
 30
0.0
  9
$UCSYDIR
 10
0.0
 20
1.0
 30
0.0
  9
$UCSORTHOREF
  2

  9
$UCSORTHOVIEW
 70
     0
  9
$UCSORGTOP
 10
0.0
 20
0.0
 30
0.0
  9
$UCSORGBOTTOM
 10
0.0
 20
0.0
 30
0.0
  9
$UCSORGLEFT
 10
0.0
 20
0.0
 30
0.0
  9
$UCSORGRIGHT
 10
0.0
 20
0.0
 30
0.0
  9
$UCSORGFRONT
 10
0.0
 20
0.0
 30
0.0
  9
$UCSORGBACK
 10
0.0
 20
0.0
 30
0.0
  9
$PUCSBASE
  2

  9
$PUCSNAME
  2

  9
$PUCSORG
 10
0.0
 20
0.0
 30
0.0
  9
$PUCSXDIR
 10
1.0
 20
0.0
 30
0.0
  9
$PUCSYDIR
 10
0.0
 20
1.0
 30
0.0
  9
$PUCSORTHOREF
  2

  9
$PUCSORTHOVIEW
 70
     0
  9
$PUCSORGTOP
 10
0.0
 20
0.0
 30
0.0
  9
$PUCSORGBOTTOM
 10
0.0
 20
0.0
 30
0.0
  9
$PUCSORGLEFT
 10
0.0
 20
0.0
 30
0.0
  9
$PUCSORGRIGHT
 10
0.0
 20
0.0
 30
0.0
  9
$PUCSORGFRONT
 10
0.0
 20
0.0
 30
0.0
  9
$PUCSORGBACK
 10
0.0
 20
0.0
 30
0.0
  9
$USERI1
 70
     0
  9
$USERI2
 70
     0
  9
$USERI3
 70
     0
  9
$USERI4
 70
     0
  9
$USERI5
 70
     0
  9
$USERR1
 40
0.0
  9
$USERR2
 40
0.0
  9
$USERR3
 40
0.0
  9
$USERR4
 40
0.0
  9
$USERR5
 40
0.0
  9
$WORLDVIEW
 70
     1
  9
$SHADEDGE
 70
     3
  9
$SHADEDIF
 70
    70
  9
$TILEMODE
 70
     1
  9
$MAXACTVP
 70
    64
  9
$PINSBASE
 10
0.0
 20
0.0
 30
0.0
  9
$PLIMCHECK
 70
     0
  9
$PEXTMIN
 10
1.000000000000000E+20
 20
1.000000000000000E+20
 30
1.000000000000000E+20
  9
$PEXTMAX
 10
-1.000000000000000E+20
 20
-1.000000000000000E+20
 30
-1.000000000000000E+20
  9
$PLIMMIN
 10
0.0
 20
0.0
  9
$PLIMMAX
 10
12.0
 20
9.0
  9
$UNITMODE
 70
     0
  9
$VISRETAIN
 70
     1
  9
$PLINEGEN
 70
     0
  9
$PSLTSCALE
 70
     1
  9
$TREEDEPTH
 70
  3020
  9
$CMLSTYLE
  2
Standard
  9
$CMLJUST
 70
     0
  9
$CMLSCALE
 40
1.0
  9
$PROXYGRAPHICS
 70
     1
  9
$MEASUREMENT
 70
     0
  9
$CELWEIGHT
370
    -1
  9
$ENDCAPS
280
     0
  9
$JOINSTYLE
280
     0
  9
$LWDISPLAY
290
     1
  9
$INSUNITS
 70
     4
  9
$HYPERLINKBASE
  1

  9
$STYLESHEET
  1

  9
$XEDIT
290
     1
  9
$CEPSNTYPE
380
     0
  9
$PSTYLEMODE
290
     1
  9
$FINGERPRINTGUID
  2
{8E47E568-6212-8747-B834-70B1B1040E94}
  9
$VERSIONGUID
  2
{B9AF55F4-675B-FA49-9116-CFF803C19196}
  9
$EXTNAMES
290
     1
  9
$PSVPSCALE
 40
0.0
  9
$OLESTARTUP
290
     0
  9
$SORTENTS
280
   127
  9
$INDEXCTL
280
     0
  9
$HIDETEXT
280
     1
  9
$XCLIPFRAME
280
     2
  9
$HALOGAP
280
     0
  9
$OBSCOLOR
 70
   257
  9
$OBSLTYPE
280
     0
  9
$INTERSECTIONDISPLAY
280
     0
  9
$INTERSECTIONCOLOR
 70
   257
  9
$DIMASSOC
280
     2
  9
$PROJECTNAME
  1

  9
$CAMERADISPLAY
290
     0
  9
$LENSLENGTH
 40
50.0
  9
$CAMERAHEIGHT
 40
0.0
  9
$STEPSPERSEC
 40
2.0
  9
$STEPSIZE
 40
6.0
  9
$3DDWFPREC
 40
2.0
  9
$PSOLWIDTH
 40
0.25
  9
$PSOLHEIGHT
 40
4.0
  9
$LOFTANG1
 40
1.570796326794896
  9
$LOFTANG2
 40
1.570796326794896
  9
$LOFTMAG1
 40
0.0
  9
$LOFTMAG2
 40
0.0
  9
$LOFTPARAM
 70
     7
  9
$LOFTNORMALS
280
     1
  9
$LATITUDE
 40
37.795
  9
$LONGITUDE
 40
-122.394
  9
$NORTHDIRECTION
 40
0.0
  9
$TIMEZONE
 70
 -8000
  9
$LIGHTGLYPHDISPLAY
280
     1
  9
$TILEMODELIGHTSYNCH
280
     1
  9
$CMATERIAL
347
11
  9
$SOLIDHIST
280
     0
  9
$SHOWHIST
280
     1
  9
$DWFFRAME
280
     2
  9
$DGNFRAME
280
     0
  9
$REALWORLDSCALE
290
     1
  9
$INTERFERECOLOR
 62
     1
  9
$INTERFEREOBJVS
345
33
  9
$INTERFEREVPVS
346
30
  9
$CSHADOW
280
     0
  9
$SHADOWPLANELOCATION
 40
0.0
  0
ENDSEC
  0
SECTION
  2
CLASSES
  0
CLASS
  1
ACDBDICTIONARYWDFLT
  2
AcDbDictionaryWithDefault
  3
ObjectDBX Classes
 90
        0
 91
        1
280
     0
281
     0
  0
CLASS
  1
MATERIAL
  2
AcDbMaterial
  3
ObjectDBX Classes
 90
     1153
 91
        3
280
     0
281
     0
  0
CLASS
  1
VISUALSTYLE
  2
AcDbVisualStyle
  3
ObjectDBX Classes
 90
     4095
 91
       24
280
     0
281
     0
  0
CLASS
  1
SCALE
  2
AcDbScale
  3
ObjectDBX Classes
 90
     1153
 91
       17
280
     0
281
     0
  0
CLASS
  1
TABLESTYLE
  2
AcDbTableStyle
  3
ObjectDBX Classes
 90
     4095
 91
        1
280
     0
281
     0
  0
CLASS
  1
MLEADERSTYLE
  2
AcDbMLeaderStyle
  3
ACDB_MLEADERSTYLE_CLASS
 90
     4095
 91
        1
280
     0
281
     0
  0
CLASS
  1
ACDBSECTIONVIEWSTYLE
  2
AcDbSectionViewStyle
  3
ObjectDBX Classes
 90
     1025
 91
        1
280
     0
281
     0
  0
CLASS
  1
ACDBDETAILVIEWSTYLE
  2
AcDbDetailViewStyle
  3
ObjectDBX Classes
 90
     1025
 91
        1
280
     0
281
     0
  0
CLASS
  1
DICTIONARYVAR
  2
AcDbDictionaryVar
  3
ObjectDBX Classes
 90
        0
 91
        5
280
     0
281
     0
  0
CLASS
  1
CELLSTYLEMAP
  2
AcDbCellStyleMap
  3
ObjectDBX Classes
 90
     1152
 91
        1
280
     0
281
     0
  0
ENDSEC
  0
SECTION
  2
TABLES
  0
TABLE
  2
VPORT
  5
8
330
0
100
AcDbSymbolTable
 70
     1
  0
VPORT
  5
57
330
8
100
AcDbSymbolTableRecord
100
AcDbViewportTableRecord
  2
*Active
 70
     0
 10
0.0
 20
0.0
 11
1.0
 21
1.0
 12
0.0
 22
0.0
 13
0.0
 23
0.0
 14
1.0
 24
1.0
 15
0.0
 25
0.0
 16
0.0
 26
0.0
 36
1.0
 17
107.9499999730125
 27
139.699999965075
 37
0.0
 40
220.2179999449455
 41
1.294117647058823
 42
50.0
 43
0.0
 44
0.0
 50
0.0
 51
0.0
 71
     0
 72
   100
 73
     1
 74
     1
 75
     0
 76
     0
 77
     0
 78
     0
281
     0
 65
     1
110
0.0
120
0.0
130
0.0
111
1.0
121
0.0
131
0.0
112
0.0
122
1.0
132
0.0
 79
     0
146
0.0
 60
     3
 61
     5
292
     1
282
     1
141
0.0
142
0.0
 63
   250
421
  3355443
  0
ENDTAB
  0
TABLE
  2
LTYPE
  5
5
330
0
100
AcDbSymbolTable
 70
     1
  0
LTYPE
  5
5B
330
5
100
AcDbSymbolTableRecord
100
AcDbLinetypeTableRecord
  2
ByBlock
 70
     0
  3

 72
    65
 73
     0
 40
0.0
  0
LTYPE
  5
5C
330
5
100
AcDbSymbolTableRecord
100
AcDbLinetypeTableRecord
  2
ByLayer
 70
     0
  3

 72
    65
 73
     0
 40
0.0
  0
LTYPE
  5
5D
330
5
100
AcDbSymbolTableRecord
100
AcDbLinetypeTableRecord
  2
Continuous
 70
     0
  3
Solid line
 72
    65
 73
     0
 40
0.0
  0
ENDTAB
  0
TABLE
  2
LAYER
  5
2
330
0
100
AcDbSymbolTable
 70
     1
  0
LAYER
  5
54
330
2
100
AcDbSymbolTableRecord
100
AcDbLayerTableRecord
  2
0
 70
     0
 62
     7
  6
Continuous
370
     0
390
F
347
21
348
0
  0
ENDTAB
  0
TABLE
  2
STYLE
  5
3
330
0
100
AcDbSymbolTable
 70
     2
  0
STYLE
  5
55
330
3
100
AcDbSymbolTableRecord
100
AcDbTextStyleTableRecord
  2
Standard
 70
     0
 40
0.0
 41
1.0
 50
0.0
 71
     0
 42
0.2
  3
txt
  4

  0
STYLE
  5
5A
330
3
100
AcDbSymbolTableRecord
100
AcDbTextStyleTableRecord
  2
Annotative
 70
     0
 40
0.0
 41
1.0
 50
0.0
 71
     0
 42
0.2
  3
txt
  4

1001
AcadAnnotative
1000
AnnotativeData
1002
{
1070
     1
1070
     1
1002
}
  0
ENDTAB
  0
TABLE
  2
VIEW
  5
6
330
0
100
AcDbSymbolTable
 70
     0
  0
ENDTAB
  0
TABLE
  2
UCS
  5
7
330
0
100
AcDbSymbolTable
 70
     0
  0
ENDTAB
  0
TABLE
  2
APPID
  5
9
330
0
100
AcDbSymbolTable
 70
     2
  0
APPID
  5
56
330
9
100
AcDbSymbolTableRecord
100
AcDbRegAppTableRecord
  2
ACAD
 70
     0
  0
APPID
  5
5E
330
9
100
AcDbSymbolTableRecord
100
AcDbRegAppTableRecord
  2
AcadAnnotative
 70
     0
  0
ENDTAB
  0
TABLE
  2
DIMSTYLE
  5
A
330
0
100
AcDbSymbolTable
 70
     2
100
AcDbDimStyleTable
 71
     0
  0
DIMSTYLE
105
58
330
A
100
AcDbSymbolTableRecord
100
AcDbDimStyleTableRecord
  2
Standard
 70
     0
340
55
  0
DIMSTYLE
105
59
330
A
100
AcDbSymbolTableRecord
100
AcDbDimStyleTableRecord
  2
Annotative
 70
     0
340
55
1001
AcadAnnotative
1000
AnnotativeData
1002
{
1070
     1
1070
     1
1002
}
  0
ENDTAB
  0
TABLE
  2
BLOCK_RECORD
  5
1
330
0
100
AcDbSymbolTable
 70
     1
  0
BLOCK_RECORD
  5
70
330
1
100
AcDbSymbolTableRecord
100
AcDbBlockTableRecord
  2
*Model_Space
340
73
 70
     0
280
     1
281
     0
  0
BLOCK_RECORD
  5
6C
330
1
100
AcDbSymbolTableRecord
100
AcDbBlockTableRecord
  2
*Paper_Space
340
6F
 70
     0
280
     1
281
     0
  0
BLOCK_RECORD
  5
74
330
1
100
AcDbSymbolTableRecord
100
AcDbBlockTableRecord
  2
*Paper_Space0
340
77
 70
     0
280
     1
281
     0
  0
ENDTAB
  0
ENDSEC
  0
SECTION
  2
BLOCKS
  0
BLOCK
  5
71
330
70
100
AcDbEntity
  8
0
100
AcDbBlockBegin
  2
*Model_Space
 70
     0
 10
0.0
 20
0.0
 30
0.0
  3
*Model_Space
  1

  0
ENDBLK
  5
72
330
70
100
AcDbEntity
  8
0
100
AcDbBlockEnd
  0
BLOCK
  5
6D
330
6C
100
AcDbEntity
 67
     1
  8
0
100
AcDbBlockBegin
  2
*Paper_Space
 70
     0
 10
0.0
 20
0.0
 30
0.0
  3
*Paper_Space
  1

  0
ENDBLK
  5
6E
330
6C
100
AcDbEntity
 67
     1
  8
0
100
AcDbBlockEnd
  0
BLOCK
  5
75
330
74
100
AcDbEntity
 67
     1
  8
0
100
AcDbBlockBegin
  2
*Paper_Space0
 70
     0
 10
0.0
 20
0.0
 30
0.0
  3
*Paper_Space0
  1

  0
ENDBLK
  5
76
330
74
100
AcDbEntity
 67
     1
  8
0
100
AcDbBlockEnd
  0
ENDSEC
  0
SECTION
  2
ENTITIES
  0
SPLINE
  5
78
330
70
100
AcDbEntity
  8
0
 62
    18
420
        0
370
    25
100
AcDbSpline
210
0.0
220
0.0
230
1.0
 70
     9
 71
     3
 72
    29
 73
    25
 74
     0
 42
0.0000000001
 43
0.0000000001
 40
0.0
 40
0.0
 40
0.0
 40
0.0
 40
1.0
 40
1.0
 40
1.0
 40
2.0
 40
2.0
 40
2.0
 40
3.0
 40
3.0
 40
3.0
 40
4.0
 40
4.0
 40
4.0
 40
5.0
 40
5.0
 40
5.0
 40
6.0
 40
6.0
 40
6.0
 40
7.0
 40
7.0
 40
7.0
 40
8.0
 40
8.0
 40
8.0
 40
8.0
 10
134.0001733392234
 20
177.6326388539198
 30
0.0
 10
134.0001733392234
 20
177.6326388539198
 30
0.0
 10
134.0001733392234
 20
164.6326388539197
 30
0.0
 10
134.0001733392234
 20
164.6326388539197
 30
0.0
 10
134.0001733392234
 20
164.3564964790042
 30
0.0
 10
133.7763157141389
 20
164.1326388539197
 30
0.0
 10
133.5001733392237
 20
164.1326388539197
 30
0.0
 10
133.5001733392237
 20
164.1326388539197
 30
0.0
 10
120.5001733392232
 20
164.1326388539197
 30
0.0
 10
120.5001733392232
 20
164.1326388539197
 30
0.0
 10
120.2240309643081
 20
164.1326388539197
 30
0.0
 10
120.0001733392235
 20
164.3564964790042
 30
0.0
 10
120.0001733392235
 20
164.6326388539197
 30
0.0
 10
120.0001733392235
 20
164.6326388539197
 30
0.0
 10
120.0001733392235
 20
177.6326388539198
 30
0.0
 10
120.0001733392235
 20
177.6326388539198
 30
0.0
 10
120.0001733392235
 20
177.9087812288353
 30
0.0
 10
120.2240309643081
 20
178.1326388539199
 30
0.0
 10
120.5001733392232
 20
178.1326388539199
 30
0.0
 10
120.5001733392232
 20
178.1326388539199
 30
0.0
 10
133.5001733392237
 20
178.1326388539199
 30
0.0
 10
133.5001733392237
 20
178.1326388539199
 30
0.0
 10
133.7763157141389
 20
178.1326388539199
 30
0.0
 10
134.0001733392234
 20
177.9087812288353
 30
0.0
 10
134.0001733392234
 20
177.6326388539198
 30
0.0
  0
SPLINE
  5
79
330
70
100
AcDbEntity
  8
0
 62
    18
420
        0
370
    25
100
AcDbSpline
210
0.0
220
0.0
230
1.0
 70
     9
 71
     3
 72
   149
 73
   145
 74
     0
 42
0.0000000001
 43
0.0000000001
 40
0.0
 40
0.0
 40
0.0
 40
0.0
 40
1.0
 40
1.0
 40
1.0
 40
2.0
 40
2.0
 40
2.0
 40
3.0
 40
3.0
 40
3.0
 40
4.0
 40
4.0
 40
4.0
 40
5.0
 40
5.0
 40
5.0
 40
6.0
 40
6.0
 40
6.0
 40
7.0
 40
7.0
 40
7.0
 40
8.0
 40
8.0
 40
8.0
 40
9.0
 40
9.0
 40
9.0
 40
10.0
 40
10.0
 40
10.0
 40
11.0
 40
11.0
 40
11.0
 40
12.0
 40
12.0
 40
12.0
 40
13.0
 40
13.0
 40
13.0
 40
14.0
 40
14.0
 40
14.0
 40
15.0
 40
15.0
 40
15.0
 40
16.0
 40
16.0
 40
16.0
 40
17.0
 40
17.0
 40
17.0
 40
18.0
 40
18.0
 40
18.0
 40
19.0
 40
19.0
 40
19.0
 40
20.0
 40
20.0
 40
20.0
 40
21.0
 40
21.0
 40
21.0
 40
22.0
 40
22.0
 40
22.0
 40
23.0
 40
23.0
 40
23.0
 40
24.0
 40
24.0
 40
24.0
 40
25.0
 40
25.0
 40
25.0
 40
26.0
 40
26.0
 40
26.0
 40
27.0
 40
27.0
 40
27.0
 40
28.0
 40
28.0
 40
28.0
 40
29.0
 40
29.0
 40
29.0
 40
30.0
 40
30.0
 40
30.0
 40
31.0
 40
31.0
 40
31.0
 40
32.0
 40
32.0
 40
32.0
 40
33.0
 40
33.0
 40
33.0
 40
34.0
 40
34.0
 40
34.0
 40
35.0
 40
35.0
 40
35.0
 40
36.0
 40
36.0
 40
36.0
 40
37.0
 40
37.0
 40
37.0
 40
38.0
 40
38.0
 40
38.0
 40
39.0
 40
39.0
 40
39.0
 40
40.0
 40
40.0
 40
40.0
 40
41.0
 40
41.0
 40
41.0
 40
42.0
 40
42.0
 40
42.0
 40
43.0
 40
43.0
 40
43.0
 40
44.0
 40
44.0
 40
44.0
 40
45.0
 40
45.0
 40
45.0
 40
46.0
 40
46.0
 40
46.0
 40
47.0
 40
47.0
 40
47.0
 40
48.0
 40
48.0
 40
48.0
 40
48.0
 10
230.7001733392233
 20
182.0326388539197
 30
0.0
 10
230.7001733392233
 20
182.0326388539197
 30
0.0
 10
-14.79982666077638
 20
182.0326388539197
 30
0.0
 10
-14.79982666077638
 20
182.0326388539197
 30
0.0
 10
-16.31860972281102
 20
182.0326388539197
 30
0.0
 10
-17.54982666077632
 20
180.8014219159544
 30
0.0
 10
-17.54982666077664
 20
179.2826388539197
 30
0.0
 10
-17.54982666077664
 20
179.2826388539197
 30
0.0
 10
-17.54982666077664
 20
178.5605955698521
 30
0.0
 10
-17.54982666077664
 20
178.5605955698521
 30
0.0
 10
-17.54982666077664
 20
177.171419837969
 30
0.0
 10
-18.58586493977853
 20
176.0003915871573
 30
0.0
 10
-19.96468596641236
 20
175.8310936528384
 30
0.0
 10
-19.96468596641236
 20
175.8310936528384
 30
0.0
 10
-21.89696735514052
 20
175.5938393309825
 30
0.0
 10
-21.89696735514052
 20
175.5938393309825
 30
0.0
 10
-23.27578838177434
 20
175.4245413966637
 30
0.0
 10
-24.31182666077656
 20
174.2535131458516
 30
0.0
 10
-24.31182666077656
 20
172.8643374139689
 30
0.0
 10
-24.31182666077656
 20
172.8643374139689
 30
0.0
 10
-24.31182666077656
 20
168.8009402938706
 30
0.0
 10
-24.31182666077656
 20
168.8009402938706
 30
0.0
 10
-24.31182666077656
 20
167.4117645619879
 30
0.0
 10
-23.27578838177434
 20
166.2407363111761
 30
0.0
 10
-21.89696735514052
 20
166.071438376857
 30
0.0
 10
-21.89696735514052
 20
166.071438376857
 30
0.0
 10
-19.96468596641236
 20
165.8341840550014
 30
0.0
 10
-19.96468596641236
 20
165.8341840550014
 30
0.0
 10
-18.58586493977853
 20
165.6648861206823
 30
0.0
 10
-17.54982666077664
 20
164.4938578698705
 30
0.0
 10
-17.54982666077664
 20
163.1046821379874
 30
0.0
 10
-17.54982666077664
 20
163.1046821379874
 30
0.0
 10
-17.54982666077632
 20
121.4105955698518
 30
0.0
 10
-17.54982666077632
 20
121.4105955698518
 30
0.0
 10
-17.54982666077632
 20
120.0214198379694
 30
0.0
 10
-18.58586493977853
 20
118.8503915871573
 30
0.0
 10
-19.96468596641236
 20
118.6810936528385
 30
0.0
 10
-19.96468596641236
 20
118.6810936528385
 30
0.0
 10
-21.89696735514052
 20
118.4438393309826
 30
0.0
 10
-21.89696735514052
 20
118.4438393309826
 30
0.0
 10
-23.27578838177434
 20
118.2745413966638
 30
0.0
 10
-24.31182666077656
 20
117.1035131458517
 30
0.0
 10
-24.31182666077656
 20
115.7143374139686
 30
0.0
 10
-24.31182666077656
 20
115.7143374139686
 30
0.0
 10
-24.31182666077656
 20
111.6509402938707
 30
0.0
 10
-24.31182666077656
 20
111.6509402938707
 30
0.0
 10
-24.31182666077656
 20
110.2617645619877
 30
0.0
 10
-23.27578838177434
 20
109.0907363111762
 30
0.0
 10
-21.89696735514052
 20
108.9214383768574
 30
0.0
 10
-21.89696735514052
 20
108.9214383768574
 30
0.0
 10
-19.96468596641236
 20
108.6841840550015
 30
0.0
 10
-19.96468596641236
 20
108.6841840550015
 30
0.0
 10
-18.58586493977853
 20
108.5148861206826
 30
0.0
 10
-17.54982666077664
 20
107.3438578698705
 30
0.0
 10
-17.54982666077664
 20
105.9546821379875
 30
0.0
 10
-17.54982666077664
 20
105.9546821379875
 30
0.0
 10
-17.54982666077664
 20
105.2328332565489
 30
0.0
 10
-17.54982666077664
 20
105.2328332565489
 30
0.0
 10
-17.54982666077632
 20
103.7140501945142
 30
0.0
 10
-16.31860972281102
 20
102.4828332565489
 30
0.0
 10
-14.79982666077638
 20
102.4828332565489
 30
0.0
 10
-14.79982666077638
 20
102.4828332565489
 30
0.0
 10
-11.46482685711424
 20
102.4828332565489
 30
0.0
 10
-11.46482685711424
 20
102.4828332565489
 30
0.0
 10
-4.873965762242747
 20
102.4828332565489
 30
0.0
 10
1.712878802363038
 20
102.1575254641483
 30
0.0
 10
8.271666257385231
 20
101.5080971834816
 30
0.0
 10
8.271666257385231
 20
101.5080971834816
 30
0.0
 10
36.71280121920819
 20
98.6919550985106
 30
0.0
 10
36.71280121920819
 20
98.6919550985106
 30
0.0
 10
43.25194178220331
 20
98.04447218463579
 30
0.0
 10
49.81905540952185
 20
97.72013885391958
 30
0.0
 10
56.39017353556162
 20
97.72013885391958
 30
0.0
 10
56.39017353556162
 20
97.72013885391958
 30
0.0
 10
159.5101664125231
 20
97.72013885391958
 30
0.0
 10
159.5101664125231
 20
97.72013885391958
 30
0.0
 10
166.0812890105599
 20
97.72013885391958
 30
0.0
 10
172.6484071016977
 20
98.04447262608816
 30
0.0
 10
179.1875520714574
 20
98.69195641964701
 30
0.0
 10
179.1875520714574
 20
98.69195641964701
 30
0.0
 10
207.6286737687545
 20
101.5080991194652
 30
0.0
 10
207.6286737687545
 20
101.5080991194652
 30
0.0
 10
214.1874656437826
 20
102.157528282459
 30
0.0
 10
220.7743146856195
 20
102.4828365176384
 30
0.0
 10
227.3651802659256
 20
102.4828365176384
 30
0.0
 10
227.3651802659256
 20
102.4828365176384
 30
0.0
 10
230.7001733392233
 20
102.4828332565496
 30
0.0
 10
230.7001733392233
 20
102.4828332565496
 30
0.0
 10
232.218956401258
 20
102.4828332565496
 30
0.0
 10
233.4501733392232
 20
103.7140501945149
 30
0.0
 10
233.4501733392232
 20
105.2328332565495
 30
0.0
 10
233.4501733392232
 20
105.2328332565495
 30
0.0
 10
233.4501733392232
 20
105.9547247113755
 30
0.0
 10
233.4501733392232
 20
105.9547247113755
 30
0.0
 10
233.4501733392232
 20
107.3439004432586
 30
0.0
 10
234.4862116182258
 20
108.5149286940707
 30
0.0
 10
235.8650326448596
 20
108.6842266283895
 30
0.0
 10
235.8650326448596
 20
108.6842266283895
 30
0.0
 10
237.7969673011655
 20
108.9214383768574
 30
0.0
 10
237.7969673011655
 20
108.9214383768574
 30
0.0
 10
239.1757883277993
 20
109.0907363111762
 30
0.0
 10
240.2118266068013
 20
110.2617645619877
 30
0.0
 10
240.2118266068013
 20
111.6509402938707
 30
0.0
 10
240.2118266068013
 20
111.6509402938707
 30
0.0
 10
240.2118266068013
 20
115.7143374139686
 30
0.0
 10
240.2118266068013
 20
115.7143374139686
 30
0.0
 10
240.2118266068013
 20
117.1035131458517
 30
0.0
 10
239.1757883277993
 20
118.2745413966638
 30
0.0
 10
237.7969673011655
 20
118.4438393309826
 30
0.0
 10
237.7969673011655
 20
118.4438393309826
 30
0.0
 10
235.8650326448596
 20
118.6810510794499
 30
0.0
 10
235.8650326448596
 20
118.6810510794499
 30
0.0
 10
234.4862116182251
 20
118.8503490137693
 30
0.0
 10
233.4501733392232
 20
120.0213772645808
 30
0.0
 10
233.4501733392232
 20
121.4105529964638
 30
0.0
 10
233.4501733392232
 20
121.4105529964638
 30
0.0
 10
233.4501733392232
 20
163.1047247113758
 30
0.0
 10
233.4501733392232
 20
163.1047247113758
 30
0.0
 10
233.4501733392232
 20
164.4939004432585
 30
0.0
 10
234.4862116182258
 20
165.6649286940706
 30
0.0
 10
235.8650326448596
 20
165.8342266283894
 30
0.0
 10
235.8650326448596
 20
165.8342266283894
 30
0.0
 10
237.7969673011655
 20
166.071438376857
 30
0.0
 10
237.7969673011655
 20
166.071438376857
 30
0.0
 10
239.1757883277993
 20
166.2407363111761
 30
0.0
 10
240.2118266068013
 20
167.4117645619879
 30
0.0
 10
240.2118266068013
 20
168.8009402938706
 30
0.0
 10
240.2118266068013
 20
168.8009402938706
 30
0.0
 10
240.2118266068013
 20
172.8643374139689
 30
0.0
 10
240.2118266068013
 20
172.8643374139689
 30
0.0
 10
240.2118266068013
 20
174.2535131458516
 30
0.0
 10
239.1757883277993
 20
175.4245413966637
 30
0.0
 10
237.7969673011655
 20
175.5938393309825
 30
0.0
 10
237.7969673011655
 20
175.5938393309825
 30
0.0
 10
235.8650326448596
 20
175.8310510794501
 30
0.0
 10
235.8650326448596
 20
175.8310510794501
 30
0.0
 10
234.4862116182251
 20
176.0003490137689
 30
0.0
 10
233.4501733392232
 20
177.171377264581
 30
0.0
 10
233.4501733392232
 20
178.5605529964637
 30
0.0
 10
233.4501733392232
 20
178.5605529964637
 30
0.0
 10
233.4501733392232
 20
179.2826388539197
 30
0.0
 10
233.4501733392232
 20
179.2826388539197
 30
0.0
 10
233.4501733392232
 20
180.8014219159544
 30
0.0
 10
232.218956401258
 20
182.0326388539197
 30
0.0
 10
230.7001733392233
 20
182.0326388539197
 30
0.0
  0
SPLINE
  5
7A
330
70
100
AcDbEntity
  8
0
 62
    18
420
        0
370
    25
100
AcDbSpline
210
0.0
220
0.0
230
1.0
 70
     9
 71
     3
 72
    29
 73
    25
 74
     0
 42
0.0000000001
 43
0.0000000001
 40
0.0
 40
0.0
 40
0.0
 40
0.0
 40
1.0
 40
1.0
 40
1.0
 40
2.0
 40
2.0
 40
2.0
 40
3.0
 40
3.0
 40
3.0
 40
4.0
 40
4.0
 40
4.0
 40
5.0
 40
5.0
 40
5.0
 40
6.0
 40
6.0
 40
6.0
 40
7.0
 40
7.0
 40
7.0
 40
8.0
 40
8.0
 40
8.0
 40
8.0
 10
6.200173339223398
 20
178.1326388539199
 30
0.0
 10
5.924030964308241
 20
178.1326388539199
 30
0.0
 10
5.70017333922338
 20
177.9087812288353
 30
0.0
 10
5.70017333922338
 20
177.6326388539198
 30
0.0
 10
5.70017333922338
 20
177.6326388539198
 30
0.0
 10
5.70017333922338
 20
164.6326388539197
 30
0.0
 10
5.70017333922338
 20
164.6326388539197
 30
0.0
 10
5.70017333922338
 20
164.3564964790042
 30
0.0
 10
5.924030964308241
 20
164.1326388539197
 30
0.0
 10
6.200173339223398
 20
164.1326388539197
 30
0.0
 10
6.200173339223398
 20
164.1326388539197
 30
0.0
 10
19.20017333922353
 20
164.1326388539197
 30
0.0
 10
19.20017333922353
 20
164.1326388539197
 30
0.0
 10
19.47631571413901
 20
164.1326388539197
 30
0.0
 10
19.70017333922355
 20
164.3564964790042
 30
0.0
 10
19.70017333922355
 20
164.6326388539197
 30
0.0
 10
19.70017333922355
 20
164.6326388539197
 30
0.0
 10
19.70017333922355
 20
177.6326388539198
 30
0.0
 10
19.70017333922355
 20
177.6326388539198
 30
0.0
 10
19.70017333922355
 20
177.9087812288353
 30
0.0
 10
19.47631571413901
 20
178.1326388539199
 30
0.0
 10
19.20017333922353
 20
178.1326388539199
 30
0.0
 10
19.20017333922353
 20
178.1326388539199
 30
0.0
 10
6.200173339223398
 20
178.1326388539199
 30
0.0
 10
6.200173339223398
 20
178.1326388539199
 30
0.0
  0
SPLINE
  5
7B
330
70
100
AcDbEntity
  8
0
 62
    18
420
        0
370
    25
100
AcDbSpline
210
0.0
220
0.0
230
1.0
 70
     9
 71
     3
 72
    29
 73
    25
 74
     0
 42
0.0000000001
 43
0.0000000001
 40
0.0
 40
0.0
 40
0.0
 40
0.0
 40
1.0
 40
1.0
 40
1.0
 40
2.0
 40
2.0
 40
2.0
 40
3.0
 40
3.0
 40
3.0
 40
4.0
 40
4.0
 40
4.0
 40
5.0
 40
5.0
 40
5.0
 40
6.0
 40
6.0
 40
6.0
 40
7.0
 40
7.0
 40
7.0
 40
8.0
 40
8.0
 40
8.0
 40
8.0
 10
57.3001733392236
 20
164.1326388539197
 30
0.0
 10
57.3001733392236
 20
164.1326388539197
 30
0.0
 10
44.30017333922346
 20
164.1326388539197
 30
0.0
 10
44.30017333922346
 20
164.1326388539197
 30
0.0
 10
44.02403096430798
 20
164.1326388539197
 30
0.0
 10
43.80017333922344
 20
164.3564964790042
 30
0.0
 10
43.80017333922344
 20
164.6326388539197
 30
0.0
 10
43.80017333922344
 20
164.6326388539197
 30
0.0
 10
43.80017333922344
 20
177.6326388539198
 30
0.0
 10
43.80017333922344
 20
177.6326388539198
 30
0.0
 10
43.80017333922344
 20
177.9087812288353
 30
0.0
 10
44.02403096430798
 20
178.1326388539199
 30
0.0
 10
44.30017333922346
 20
178.1326388539199
 30
0.0
 10
44.30017333922346
 20
178.1326388539199
 30
0.0
 10
57.3001733392236
 20
178.1326388539199
 30
0.0
 10
57.3001733392236
 20
178.1326388539199
 30
0.0
 10
57.57631571413876
 20
178.1326388539199
 30
0.0
 10
57.80017333922362
 20
177.9087812288353
 30
0.0
 10
57.80017333922362
 20
177.6326388539198
 30
0.0
 10
57.80017333922362
 20
177.6326388539198
 30
0.0
 10
57.80017333922362
 20
164.6326388539197
 30
0.0
 10
57.80017333922362
 20
164.6326388539197
 30
0.0
 10
57.80017333922362
 20
164.3564964790042
 30
0.0
 10
57.57631571413876
 20
164.1326388539197
 30
0.0
 10
57.3001733392236
 20
164.1326388539197
 30
0.0
  0
SPLINE
  5
7C
330
70
100
AcDbEntity
  8
0
 62
    18
420
        0
370
    25
100
AcDbSpline
210
0.0
220
0.0
230
1.0
 70
     9
 71
     3
 72
    29
 73
    25
 74
     0
 42
0.0000000001
 43
0.0000000001
 40
0.0
 40
0.0
 40
0.0
 40
0.0
 40
1.0
 40
1.0
 40
1.0
 40
2.0
 40
2.0
 40
2.0
 40
3.0
 40
3.0
 40
3.0
 40
4.0
 40
4.0
 40
4.0
 40
5.0
 40
5.0
 40
5.0
 40
6.0
 40
6.0
 40
6.0
 40
7.0
 40
7.0
 40
7.0
 40
8.0
 40
8.0
 40
8.0
 40
8.0
 10
139.0501733392237
 20
164.6326388539197
 30
0.0
 10
139.0501733392237
 20
164.6326388539197
 30
0.0
 10
139.0501733392237
 20
177.6326388539198
 30
0.0
 10
139.0501733392237
 20
177.6326388539198
 30
0.0
 10
139.0501733392237
 20
177.9087812288353
 30
0.0
 10
139.2740309643083
 20
178.1326388539199
 30
0.0
 10
139.5501733392234
 20
178.1326388539199
 30
0.0
 10
139.5501733392234
 20
178.1326388539199
 30
0.0
 10
152.5501733392232
 20
178.1326388539199
 30
0.0
 10
152.5501733392232
 20
178.1326388539199
 30
0.0
 10
152.826315714139
 20
178.1326388539199
 30
0.0
 10
153.0501733392236
 20
177.9087812288353
 30
0.0
 10
153.0501733392236
 20
177.6326388539198
 30
0.0
 10
153.0501733392236
 20
177.6326388539198
 30
0.0
 10
153.0501733392236
 20
164.6326388539197
 30
0.0
 10
153.0501733392236
 20
164.6326388539197
 30
0.0
 10
153.0501733392236
 20
164.3564964790042
 30
0.0
 10
152.826315714139
 20
164.1326388539197
 30
0.0
 10
152.5501733392232
 20
164.1326388539197
 30
0.0
 10
152.5501733392232
 20
164.1326388539197
 30
0.0
 10
139.5501733392234
 20
164.1326388539197
 30
0.0
 10
139.5501733392234
 20
164.1326388539197
 30
0.0
 10
139.2740309643083
 20
164.1326388539197
 30
0.0
 10
139.0501733392237
 20
164.3564964790042
 30
0.0
 10
139.0501733392237
 20
164.6326388539197
 30
0.0
  0
SPLINE
  5
7D
330
70
100
AcDbEntity
  8
0
 62
    18
420
        0
370
    25
100
AcDbSpline
210
0.0
220
0.0
230
1.0
 70
     9
 71
     3
 72
    29
 73
    25
 74
     0
 42
0.0000000001
 43
0.0000000001
 40
0.0
 40
0.0
 40
0.0
 40
0.0
 40
1.0
 40
1.0
 40
1.0
 40
2.0
 40
2.0
 40
2.0
 40
3.0
 40
3.0
 40
3.0
 40
4.0
 40
4.0
 40
4.0
 40
5.0
 40
5.0
 40
5.0
 40
6.0
 40
6.0
 40
6.0
 40
7.0
 40
7.0
 40
7.0
 40
8.0
 40
8.0
 40
8.0
 40
8.0
 10
177.1501733392235
 20
164.6326388539197
 30
0.0
 10
177.1501733392235
 20
164.6326388539197
 30
0.0
 10
177.1501733392235
 20
177.6326388539198
 30
0.0
 10
177.1501733392235
 20
177.6326388539198
 30
0.0
 10
177.1501733392235
 20
177.9087812288353
 30
0.0
 10
177.374030964308
 20
178.1326388539199
 30
0.0
 10
177.6501733392238
 20
178.1326388539199
 30
0.0
 10
177.6501733392238
 20
178.1326388539199
 30
0.0
 10
190.6501733392236
 20
178.1326388539199
 30
0.0
 10
190.6501733392236
 20
178.1326388539199
 30
0.0
 10
190.9263157141388
 20
178.1326388539199
 30
0.0
 10
191.1501733392233
 20
177.9087812288353
 30
0.0
 10
191.1501733392233
 20
177.6326388539198
 30
0.0
 10
191.1501733392233
 20
177.6326388539198
 30
0.0
 10
191.1501733392233
 20
164.6326388539197
 30
0.0
 10
191.1501733392233
 20
164.6326388539197
 30
0.0
 10
191.1501733392233
 20
164.3564964790042
 30
0.0
 10
190.9263157141388
 20
164.1326388539197
 30
0.0
 10
190.6501733392236
 20
164.1326388539197
 30
0.0
 10
190.6501733392236
 20
164.1326388539197
 30
0.0
 10
177.6501733392238
 20
164.1326388539197
 30
0.0
 10
177.6501733392238
 20
164.1326388539197
 30
0.0
 10
177.374030964308
 20
164.1326388539197
 30
0.0
 10
177.1501733392235
 20
164.3564964790042
 30
0.0
 10
177.1501733392235
 20
164.6326388539197
 30
0.0
  0
SPLINE
  5
7E
330
70
100
AcDbEntity
  8
0
 62
    18
420
        0
370
    25
100
AcDbSpline
210
0.0
220
0.0
230
1.0
 70
     9
 71
     3
 72
    29
 73
    25
 74
     0
 42
0.0000000001
 43
0.0000000001
 40
0.0
 40
0.0
 40
0.0
 40
0.0
 40
1.0
 40
1.0
 40
1.0
 40
2.0
 40
2.0
 40
2.0
 40
3.0
 40
3.0
 40
3.0
 40
4.0
 40
4.0
 40
4.0
 40
5.0
 40
5.0
 40
5.0
 40
6.0
 40
6.0
 40
6.0
 40
7.0
 40
7.0
 40
7.0
 40
8.0
 40
8.0
 40
8.0
 40
8.0
 10
62.85017333922363
 20
164.6326388539197
 30
0.0
 10
62.85017333922363
 20
164.3564964790042
 30
0.0
 10
63.07403096430817
 20
164.1326388539197
 30
0.0
 10
63.35017333922333
 20
164.1326388539197
 30
0.0
 10
63.35017333922333
 20
164.1326388539197
 30
0.0
 10
76.35017333922347
 20
164.1326388539197
 30
0.0
 10
76.35017333922347
 20
164.1326388539197
 30
0.0
 10
76.62631571413894
 20
164.1326388539197
 30
0.0
 10
76.85017333922349
 20
164.3564964790042
 30
0.0
 10
76.85017333922349
 20
164.6326388539197
 30
0.0
 10
76.85017333922349
 20
164.6326388539197
 30
0.0
 10
76.85017333922349
 20
177.6326388539198
 30
0.0
 10
76.85017333922349
 20
177.6326388539198
 30
0.0
 10
76.85017333922349
 20
177.908781228835
 30
0.0
 10
76.62631571413894
 20
178.1326388539199
 30
0.0
 10
76.35017333922347
 20
178.1326388539199
 30
0.0
 10
76.35017333922347
 20
178.1326388539199
 30
0.0
 10
63.35017333922333
 20
178.1326388539199
 30
0.0
 10
63.35017333922333
 20
178.1326388539199
 30
0.0
 10
63.07403096430817
 20
178.1326388539199
 30
0.0
 10
62.85017333922363
 20
177.908781228835
 30
0.0
 10
62.85017333922363
 20
177.6326388539198
 30
0.0
 10
62.85017333922363
 20
177.6326388539198
 30
0.0
 10
62.85017333922363
 20
164.6326388539197
 30
0.0
 10
62.85017333922363
 20
164.6326388539197
 30
0.0
  0
SPLINE
  5
7F
330
70
100
AcDbEntity
  8
0
 62
    18
420
        0
370
    25
100
AcDbSpline
210
0.0
220
0.0
230
1.0
 70
     9
 71
     3
 72
    29
 73
    25
 74
     0
 42
0.0000000001
 43
0.0000000001
 40
0.0
 40
0.0
 40
0.0
 40
0.0
 40
1.0
 40
1.0
 40
1.0
 40
2.0
 40
2.0
 40
2.0
 40
3.0
 40
3.0
 40
3.0
 40
4.0
 40
4.0
 40
4.0
 40
5.0
 40
5.0
 40
5.0
 40
6.0
 40
6.0
 40
6.0
 40
7.0
 40
7.0
 40
7.0
 40
8.0
 40
8.0
 40
8.0
 40
8.0
 10
38.75017333922342
 20
177.6326388539198
 30
0.0
 10
38.75017333922342
 20
177.6326388539198
 30
0.0
 10
38.75017333922342
 20
164.6326388539197
 30
0.0
 10
38.75017333922342
 20
164.6326388539197
 30
0.0
 10
38.75017333922342
 20
164.3564964790042
 30
0.0
 10
38.52631571413888
 20
164.1326388539197
 30
0.0
 10
38.25017333922341
 20
164.1326388539197
 30
0.0
 10
38.25017333922341
 20
164.1326388539197
 30
0.0
 10
25.25017333922359
 20
164.1326388539197
 30
0.0
 10
25.25017333922359
 20
164.1326388539197
 30
0.0
 10
24.97403096430812
 20
164.1326388539197
 30
0.0
 10
24.75017333922358
 20
164.3564964790042
 30
0.0
 10
24.75017333922358
 20
164.6326388539197
 30
0.0
 10
24.75017333922358
 20
164.6326388539197
 30
0.0
 10
24.75017333922358
 20
177.6326388539198
 30
0.0
 10
24.75017333922358
 20
177.6326388539198
 30
0.0
 10
24.75017333922358
 20
177.9087812288353
 30
0.0
 10
24.97403096430812
 20
178.1326388539199
 30
0.0
 10
25.25017333922359
 20
178.1326388539199
 30
0.0
 10
25.25017333922359
 20
178.1326388539199
 30
0.0
 10
38.25017333922341
 20
178.1326388539199
 30
0.0
 10
38.25017333922341
 20
178.1326388539199
 30
0.0
 10
38.52631571413888
 20
178.1326388539199
 30
0.0
 10
38.75017333922342
 20
177.908781228835
 30
0.0
 10
38.75017333922342
 20
177.6326388539198
 30
0.0
  0
SPLINE
  5
80
330
70
100
AcDbEntity
  8
0
 62
    18
420
        0
370
    25
100
AcDbSpline
210
0.0
220
0.0
230
1.0
 70
     9
 71
     3
 72
    29
 73
    25
 74
     0
 42
0.0000000001
 43
0.0000000001
 40
0.0
 40
0.0
 40
0.0
 40
0.0
 40
1.0
 40
1.0
 40
1.0
 40
2.0
 40
2.0
 40
2.0
 40
3.0
 40
3.0
 40
3.0
 40
4.0
 40
4.0
 40
4.0
 40
5.0
 40
5.0
 40
5.0
 40
6.0
 40
6.0
 40
6.0
 40
7.0
 40
7.0
 40
7.0
 40
8.0
 40
8.0
 40
8.0
 40
8.0
 10
-13.34982666077649
 20
164.6326388539197
 30
0.0
 10
-13.34982666077649
 20
164.6326388539197
 30
0.0
 10
-13.34982666077649
 20
177.6326388539198
 30
0.0
 10
-13.34982666077649
 20
177.6326388539198
 30
0.0
 10
-13.34982666077649
 20
177.908781228835
 30
0.0
 10
-13.12596903569195
 20
178.1326388539199
 30
0.0
 10
-12.84982666077647
 20
178.1326388539199
 30
0.0
 10
-12.84982666077647
 20
178.1326388539199
 30
0.0
 10
0.1501733392236662
 20
178.1326388539199
 30
0.0
 10
0.1501733392236662
 20
178.1326388539199
 30
0.0
 10
0.4263157141388231
 20
178.1326388539199
 30
0.0
 10
0.6501733392233631
 20
177.908781228835
 30
0.0
 10
0.650173339223684
 20
177.6326388539198
 30
0.0
 10
0.650173339223684
 20
177.6326388539198
 30
0.0
 10
0.6501733392233631
 20
164.6326388539197
 30
0.0
 10
0.6501733392233631
 20
164.6326388539197
 30
0.0
 10
0.6501733392233631
 20
164.3564964790042
 30
0.0
 10
0.4263157141388231
 20
164.1326388539197
 30
0.0
 10
0.1501733392236662
 20
164.1326388539197
 30
0.0
 10
0.1501733392236662
 20
164.1326388539197
 30
0.0
 10
-12.84982666077647
 20
164.1326388539197
 30
0.0
 10
-12.84982666077647
 20
164.1326388539197
 30
0.0
 10
-13.12596903569195
 20
164.1326388539197
 30
0.0
 10
-13.34982666077649
 20
164.3564964790042
 30
0.0
 10
-13.34982666077649
 20
164.6326388539197
 30
0.0
  0
SPLINE
  5
81
330
70
100
AcDbEntity
  8
0
 62
    18
420
        0
370
    25
100
AcDbSpline
210
0.0
220
0.0
230
1.0
 70
     9
 71
     3
 72
    29
 73
    25
 74
     0
 42
0.0000000001
 43
0.0000000001
 40
0.0
 40
0.0
 40
0.0
 40
0.0
 40
1.0
 40
1.0
 40
1.0
 40
2.0
 40
2.0
 40
2.0
 40
3.0
 40
3.0
 40
3.0
 40
4.0
 40
4.0
 40
4.0
 40
5.0
 40
5.0
 40
5.0
 40
6.0
 40
6.0
 40
6.0
 40
7.0
 40
7.0
 40
7.0
 40
8.0
 40
8.0
 40
8.0
 40
8.0
 10
158.6001733392236
 20
178.1326388539199
 30
0.0
 10
158.3240309643085
 20
178.1326388539199
 30
0.0
 10
158.1001733392233
 20
177.9087812288353
 30
0.0
 10
158.1001733392233
 20
177.6326388539198
 30
0.0
 10
158.1001733392233
 20
177.6326388539198
 30
0.0
 10
158.1001733392233
 20
164.6326388539197
 30
0.0
 10
158.1001733392233
 20
164.6326388539197
 30
0.0
 10
158.1001733392233
 20
164.3564964790042
 30
0.0
 10
158.3240309643078
 20
164.1326388539197
 30
0.0
 10
158.6001733392236
 20
164.1326388539197
 30
0.0
 10
158.6001733392236
 20
164.1326388539197
 30
0.0
 10
171.6001733392234
 20
164.1326388539197
 30
0.0
 10
171.6001733392234
 20
164.1326388539197
 30
0.0
 10
171.8763157141386
 20
164.1326388539197
 30
0.0
 10
172.1001733392231
 20
164.3564964790042
 30
0.0
 10
172.1001733392238
 20
164.6326388539197
 30
0.0
 10
172.1001733392238
 20
164.6326388539197
 30
0.0
 10
172.1001733392238
 20
177.6326388539198
 30
0.0
 10
172.1001733392238
 20
177.6326388539198
 30
0.0
 10
172.1001733392238
 20
177.908781228835
 30
0.0
 10
171.8763157141386
 20
178.1326388539199
 30
0.0
 10
171.6001733392234
 20
178.1326388539199
 30
0.0
 10
171.6001733392234
 20
178.1326388539199
 30
0.0
 10
158.6001733392236
 20
178.1326388539199
 30
0.0
 10
158.6001733392236
 20
178.1326388539199
 30
0.0
  0
SPLINE
  5
82
330
70
100
AcDbEntity
  8
0
 62
    18
420
        0
370
    25
100
AcDbSpline
210
0.0
220
0.0
230
1.0
 70
     9
 71
     3
 72
    29
 73
    25
 74
     0
 42
0.0000000001
 43
0.0000000001
 40
0.0
 40
0.0
 40
0.0
 40
0.0
 40
1.0
 40
1.0
 40
1.0
 40
2.0
 40
2.0
 40
2.0
 40
3.0
 40
3.0
 40
3.0
 40
4.0
 40
4.0
 40
4.0
 40
5.0
 40
5.0
 40
5.0
 40
6.0
 40
6.0
 40
6.0
 40
7.0
 40
7.0
 40
7.0
 40
8.0
 40
8.0
 40
8.0
 40
8.0
 10
158.6001733392236
 20
159.0826388539197
 30
0.0
 10
158.3240309643085
 20
159.0826388539197
 30
0.0
 10
158.1001733392239
 20
158.8587812288351
 30
0.0
 10
158.1001733392239
 20
158.5826388539197
 30
0.0
 10
158.1001733392239
 20
158.5826388539197
 30
0.0
 10
158.1001733392239
 20
145.5826388539198
 30
0.0
 10
158.1001733392239
 20
145.5826388539198
 30
0.0
 10
158.1001733392239
 20
145.3064964790043
 30
0.0
 10
158.3240309643085
 20
145.0826388539198
 30
0.0
 10
158.6001733392236
 20
145.0826388539198
 30
0.0
 10
158.6001733392236
 20
145.0826388539198
 30
0.0
 10
171.6001733392241
 20
145.0826388539198
 30
0.0
 10
171.6001733392241
 20
145.0826388539198
 30
0.0
 10
171.8763157141392
 20
145.0826388539198
 30
0.0
 10
172.1001733392238
 20
145.3064964790043
 30
0.0
 10
172.1001733392238
 20
145.5826388539198
 30
0.0
 10
172.1001733392238
 20
145.5826388539198
 30
0.0
 10
172.1001733392238
 20
158.5826388539197
 30
0.0
 10
172.1001733392238
 20
158.5826388539197
 30
0.0
 10
172.1001733392238
 20
158.8587812288351
 30
0.0
 10
171.8763157141392
 20
159.0826388539197
 30
0.0
 10
171.6001733392241
 20
159.0826388539197
 30
0.0
 10
171.6001733392241
 20
159.0826388539197
 30
0.0
 10
158.6001733392236
 20
159.0826388539197
 30
0.0
 10
158.6001733392236
 20
159.0826388539197
 30
0.0
  0
SPLINE
  5
83
330
70
100
AcDbEntity
  8
0
 62
    18
420
        0
370
    25
100
AcDbSpline
210
0.0
220
0.0
230
1.0
 70
     9
 71
     3
 72
    29
 73
    25
 74
     0
 42
0.0000000001
 43
0.0000000001
 40
0.0
 40
0.0
 40
0.0
 40
0.0
 40
1.0
 40
1.0
 40
1.0
 40
2.0
 40
2.0
 40
2.0
 40
3.0
 40
3.0
 40
3.0
 40
4.0
 40
4.0
 40
4.0
 40
5.0
 40
5.0
 40
5.0
 40
6.0
 40
6.0
 40
6.0
 40
7.0
 40
7.0
 40
7.0
 40
8.0
 40
8.0
 40
8.0
 40
8.0
 10
153.0501733392236
 20
158.5826388539197
 30
0.0
 10
153.0501733392236
 20
158.8587812288351
 30
0.0
 10
152.826315714139
 20
159.0826388539197
 30
0.0
 10
152.5501733392239
 20
159.0826388539197
 30
0.0
 10
152.5501733392239
 20
159.0826388539197
 30
0.0
 10
139.5501733392241
 20
159.0826388539197
 30
0.0
 10
139.5501733392241
 20
159.0826388539197
 30
0.0
 10
139.2740309643083
 20
159.0826388539197
 30
0.0
 10
139.0501733392237
 20
158.8587812288351
 30
0.0
 10
139.0501733392237
 20
158.5826388539197
 30
0.0
 10
139.0501733392237
 20
158.5826388539197
 30
0.0
 10
139.0501733392237
 20
145.5826388539198
 30
0.0
 10
139.0501733392237
 20
145.5826388539198
 30
0.0
 10
139.0501733392237
 20
145.3064964790043
 30
0.0
 10
139.2740309643083
 20
145.0826388539198
 30
0.0
 10
139.5501733392241
 20
145.0826388539198
 30
0.0
 10
139.5501733392241
 20
145.0826388539198
 30
0.0
 10
152.5501733392239
 20
145.0826388539198
 30
0.0
 10
152.5501733392239
 20
145.0826388539198
 30
0.0
 10
152.826315714139
 20
145.0826388539198
 30
0.0
 10
153.0501733392236
 20
145.3064964790043
 30
0.0
 10
153.0501733392236
 20
145.5826388539198
 30
0.0
 10
153.0501733392236
 20
145.5826388539198
 30
0.0
 10
153.0501733392236
 20
158.5826388539197
 30
0.0
 10
153.0501733392236
 20
158.5826388539197
 30
0.0
  0
SPLINE
  5
84
330
70
100
AcDbEntity
  8
0
 62
    18
420
        0
370
    25
100
AcDbSpline
210
0.0
220
0.0
230
1.0
 70
     9
 71
     3
 72
    29
 73
    25
 74
     0
 42
0.0000000001
 43
0.0000000001
 40
0.0
 40
0.0
 40
0.0
 40
0.0
 40
1.0
 40
1.0
 40
1.0
 40
2.0
 40
2.0
 40
2.0
 40
3.0
 40
3.0
 40
3.0
 40
4.0
 40
4.0
 40
4.0
 40
5.0
 40
5.0
 40
5.0
 40
6.0
 40
6.0
 40
6.0
 40
7.0
 40
7.0
 40
7.0
 40
8.0
 40
8.0
 40
8.0
 40
8.0
 10
134.000173339224
 20
158.5826388539197
 30
0.0
 10
134.000173339224
 20
158.5826388539197
 30
0.0
 10
134.000173339224
 20
145.5826388539198
 30
0.0
 10
134.000173339224
 20
145.5826388539198
 30
0.0
 10
134.000173339224
 20
145.3064964790043
 30
0.0
 10
133.7763157141395
 20
145.0826388539198
 30
0.0
 10
133.5001733392237
 20
145.0826388539198
 30
0.0
 10
133.5001733392237
 20
145.0826388539198
 30
0.0
 10
120.5001733392239
 20
145.0826388539198
 30
0.0
 10
120.5001733392239
 20
145.0826388539198
 30
0.0
 10
120.2240309643081
 20
145.0826388539198
 30
0.0
 10
120.0001733392235
 20
145.3064964790043
 30
0.0
 10
120.0001733392235
 20
145.5826388539198
 30
0.0
 10
120.0001733392235
 20
145.5826388539198
 30
0.0
 10
120.0001733392235
 20
158.5826388539197
 30
0.0
 10
120.0001733392235
 20
158.5826388539197
 30
0.0
 10
120.0001733392235
 20
158.8587812288351
 30
0.0
 10
120.2240309643081
 20
159.0826388539197
 30
0.0
 10
120.5001733392239
 20
159.0826388539197
 30
0.0
 10
120.5001733392239
 20
159.0826388539197
 30
0.0
 10
133.5001733392237
 20
159.0826388539197
 30
0.0
 10
133.5001733392237
 20
159.0826388539197
 30
0.0
 10
133.7763157141395
 20
159.0826388539197
 30
0.0
 10
134.000173339224
 20
158.8587812288351
 30
0.0
 10
134.000173339224
 20
158.5826388539197
 30
0.0
  0
CIRCLE
  5
85
330
70
100
AcDbEntity
  8
0
 62
    18
420
        0
370
    25
100
AcDbCircle
 10
236.9618266068015
 20
170.8326388539198
 30
0.0
 40
1.450000000000011
  0
CIRCLE
  5
86
330
70
100
AcDbEntity
  8
0
 62
    18
420
        0
370
    25
100
AcDbCircle
 10
-21.06182666077653
 20
170.8326388539198
 30
0.0
 40
1.44999999999997
  0
CIRCLE
  5
87
330
70
100
AcDbEntity
  8
0
 62
    18
420
        0
370
    25
100
AcDbCircle
 10
236.9618266068015
 20
113.6826388539198
 30
0.0
 40
1.450000000000051
  0
CIRCLE
  5
88
330
70
100
AcDbEntity
  8
0
 62
    18
420
        0
370
    25
100
AcDbCircle
 10
-21.06182666077653
 20
113.6826388539198
 30
0.0
 40
1.450000000000011
  0
SPLINE
  5
89
330
70
100
AcDbEntity
  8
0
 62
    18
420
        0
370
    25
100
AcDbSpline
210
0.0
220
0.0
230
1.0
 70
     9
 71
     3
 72
    29
 73
    25
 74
     0
 42
0.0000000001
 43
0.0000000001
 40
0.0
 40
0.0
 40
0.0
 40
0.0
 40
1.0
 40
1.0
 40
1.0
 40
2.0
 40
2.0
 40
2.0
 40
3.0
 40
3.0
 40
3.0
 40
4.0
 40
4.0
 40
4.0
 40
5.0
 40
5.0
 40
5.0
 40
6.0
 40
6.0
 40
6.0
 40
7.0
 40
7.0
 40
7.0
 40
8.0
 40
8.0
 40
8.0
 40
8.0
 10
81.9001733392235
 20
164.6326388539197
 30
0.0
 10
81.9001733392235
 20
164.3564964790042
 30
0.0
 10
82.12403096430804
 20
164.1326388539197
 30
0.0
 10
82.40017333922352
 20
164.1326388539197
 30
0.0
 10
82.40017333922352
 20
164.1326388539197
 30
0.0
 10
95.40017333922365
 20
164.1326388539197
 30
0.0
 10
95.40017333922365
 20
164.1326388539197
 30
0.0
 10
95.67631571413881
 20
164.1326388539197
 30
0.0
 10
95.90017333922366
 20
164.3564964790042
 30
0.0
 10
95.90017333922366
 20
164.6326388539197
 30
0.0
 10
95.90017333922366
 20
164.6326388539197
 30
0.0
 10
95.90017333922366
 20
177.6326388539198
 30
0.0
 10
95.90017333922366
 20
177.6326388539198
 30
0.0
 10
95.90017333922366
 20
177.908781228835
 30
0.0
 10
95.67631571413881
 20
178.1326388539199
 30
0.0
 10
95.40017333922365
 20
178.1326388539199
 30
0.0
 10
95.40017333922365
 20
178.1326388539199
 30
0.0
 10
82.40017333922352
 20
178.1326388539199
 30
0.0
 10
82.40017333922352
 20
178.1326388539199
 30
0.0
 10
82.12403096430804
 20
178.1326388539199
 30
0.0
 10
81.9001733392235
 20
177.9087812288353
 30
0.0
 10
81.9001733392235
 20
177.6326388539198
 30
0.0
 10
81.9001733392235
 20
177.6326388539198
 30
0.0
 10
81.9001733392235
 20
164.6326388539197
 30
0.0
 10
81.9001733392235
 20
164.6326388539197
 30
0.0
  0
SPLINE
  5
8A
330
70
100
AcDbEntity
  8
0
 62
    18
420
        0
370
    25
100
AcDbSpline
210
0.0
220
0.0
230
1.0
 70
     9
 71
     3
 72
    65
 73
    61
 74
     0
 42
0.0000000001
 43
0.0000000001
 40
0.0
 40
0.0
 40
0.0
 40
0.0
 40
1.0
 40
1.0
 40
1.0
 40
2.0
 40
2.0
 40
2.0
 40
3.0
 40
3.0
 40
3.0
 40
4.0
 40
4.0
 40
4.0
 40
5.0
 40
5.0
 40
5.0
 40
6.0
 40
6.0
 40
6.0
 40
7.0
 40
7.0
 40
7.0
 40
8.0
 40
8.0
 40
8.0
 40
9.0
 40
9.0
 40
9.0
 40
10.0
 40
10.0
 40
10.0
 40
11.0
 40
11.0
 40
11.0
 40
12.0
 40
12.0
 40
12.0
 40
13.0
 40
13.0
 40
13.0
 40
14.0
 40
14.0
 40
14.0
 40
15.0
 40
15.0
 40
15.0
 40
16.0
 40
16.0
 40
16.0
 40
17.0
 40
17.0
 40
17.0
 40
18.0
 40
18.0
 40
18.0
 40
19.0
 40
19.0
 40
19.0
 40
20.0
 40
20.0
 40
20.0
 40
20.0
 10
228.7501630423133
 20
178.1326454564976
 30
0.0
 10
228.7501630423133
 20
178.1326454564976
 30
0.0
 10
196.7001813608727
 20
178.1326454564976
 30
0.0
 10
196.7001813608727
 20
178.1326454564976
 30
0.0
 10
196.4240354258831
 20
178.1326454564976
 30
0.0
 10
196.2001688148822
 20
177.9087788454968
 30
0.0
 10
196.2001688148822
 20
177.6326329105072
 30
0.0
 10
196.2001688148822
 20
177.6326329105072
 30
0.0
 10
196.2001688148822
 20
164.6326296924573
 30
0.0
 10
196.2001688148822
 20
164.6326296924573
 30
0.0
 10
196.2001688148822
 20
164.3565052893145
 30
0.0
 10
196.4240354258831
 20
164.1326386783136
 30
0.0
 10
196.7001813608727
 20
164.1326386783136
 30
0.0
 10
196.7001813608727
 20
164.1326386783136
 30
0.0
 10
197.1781883594511
 20
164.1326386783136
 30
0.0
 10
197.1781883594511
 20
164.1326386783136
 30
0.0
 10
197.1781883594511
 20
164.1326386783136
 30
0.0
 10
197.1781883594511
 20
162.6330101454311
 30
0.0
 10
197.1781883594511
 20
162.6330101454311
 30
0.0
 10
197.1781883594511
 20
162.3568642104416
 30
0.0
 10
197.402054970452
 20
162.1329975994407
 30
0.0
 10
197.6782009054415
 20
162.1329975994407
 30
0.0
 10
197.6782009054415
 20
162.1329975994407
 30
0.0
 10
203.6782007343995
 20
162.1329975994407
 30
0.0
 10
203.6782007343995
 20
162.1329975994407
 30
0.0
 10
203.954346669389
 20
162.1329975994407
 30
0.0
 10
204.1781917485431
 20
162.3568642104416
 30
0.0
 10
204.1781917485431
 20
162.6330101454311
 30
0.0
 10
204.1781917485431
 20
162.6330101454311
 30
0.0
 10
204.1781917485431
 20
164.1326386783136
 30
0.0
 10
204.1781917485431
 20
164.1326386783136
 30
0.0
 10
204.1781917485431
 20
164.1326386783136
 30
0.0
 10
220.990688353498
 20
164.1326386783136
 30
0.0
 10
220.990688353498
 20
164.1326386783136
 30
0.0
 10
220.990688353498
 20
164.1326386783136
 30
0.0
 10
220.990688353498
 20
162.6330101454311
 30
0.0
 10
220.990688353498
 20
162.6330101454311
 30
0.0
 10
220.990688353498
 20
162.3568642104416
 30
0.0
 10
221.2145549644989
 20
162.1329975994407
 30
0.0
 10
221.4907008994885
 20
162.1329975994407
 30
0.0
 10
221.4907008994885
 20
162.1329975994407
 30
0.0
 10
227.4907007284463
 20
162.1329975994407
 30
0.0
 10
227.4907007284463
 20
162.1329975994407
 30
0.0
 10
227.7668251315891
 20
162.1329975994407
 30
0.0
 10
227.99069174259
 20
162.3568642104416
 30
0.0
 10
227.99069174259
 20
162.6330101454311
 30
0.0
 10
227.99069174259
 20
162.6330101454311
 30
0.0
 10
227.99069174259
 20
164.1326386783136
 30
0.0
 10
227.99069174259
 20
164.1326386783136
 30
0.0
 10
227.99069174259
 20
164.1326386783136
 30
0.0
 10
228.7501630423133
 20
164.1326386783136
 30
0.0
 10
228.7501630423133
 20
164.1326386783136
 30
0.0
 10
229.0263089773029
 20
164.1326386783136
 30
0.0
 10
229.2501755883038
 20
164.3565052893145
 30
0.0
 10
229.2501755883038
 20
164.6326296924573
 30
0.0
 10
229.2501755883038
 20
164.6326296924573
 30
0.0
 10
229.2501755883038
 20
177.6326329105072
 30
0.0
 10
229.2501755883038
 20
177.6326329105072
 30
0.0
 10
229.2501755883038
 20
177.9087788454968
 30
0.0
 10
229.0263089773029
 20
178.1326454564976
 30
0.0
 10
228.7501630423133
 20
178.1326454564976
 30
0.0
  0
SPLINE
  5
8B
330
70
100
AcDbEntity
  8
0
 62
    18
420
        0
370
    25
100
AcDbSpline
210
0.0
220
0.0
230
1.0
 70
     9
 71
     3
 72
    29
 73
    25
 74
     0
 42
0.0000000001
 43
0.0000000001
 40
0.0
 40
0.0
 40
0.0
 40
0.0
 40
1.0
 40
1.0
 40
1.0
 40
2.0
 40
2.0
 40
2.0
 40
3.0
 40
3.0
 40
3.0
 40
4.0
 40
4.0
 40
4.0
 40
5.0
 40
5.0
 40
5.0
 40
6.0
 40
6.0
 40
6.0
 40
7.0
 40
7.0
 40
7.0
 40
8.0
 40
8.0
 40
8.0
 40
8.0
 10
100.9501733409736
 20
145.5826388620575
 30
0.0
 10
100.9501733409736
 20
145.5826388620575
 30
0.0
 10
100.9501733409736
 20
177.6326388540453
 30
0.0
 10
100.9501733409736
 20
177.6326388540453
 30
0.0
 10
100.9501733409736
 20
177.9087812288912
 30
0.0
 10
101.1740309660023
 20
178.1326388539199
 30
0.0
 10
101.4501733408481
 20
178.1326388539199
 30
0.0
 10
101.4501733408481
 20
178.1326388539199
 30
0.0
 10
114.4501733375981
 20
178.1326388539199
 30
0.0
 10
114.4501733375981
 20
178.1326388539199
 30
0.0
 10
114.7263157124439
 20
178.1326388539199
 30
0.0
 10
114.9501733374727
 20
177.9087812288912
 30
0.0
 10
114.9501733374727
 20
177.6326388540446
 30
0.0
 10
114.9501733374727
 20
177.6326388540446
 30
0.0
 10
114.9501733374727
 20
145.5826388620575
 30
0.0
 10
114.9501733374727
 20
145.5826388620575
 30
0.0
 10
114.9501733374727
 20
145.306496487211
 30
0.0
 10
114.7263157124439
 20
145.0826388621823
 30
0.0
 10
114.4501733375981
 20
145.0826388621823
 30
0.0
 10
114.4501733375981
 20
145.0826388621823
 30
0.0
 10
101.4501733408481
 20
145.0826388621823
 30
0.0
 10
101.4501733408481
 20
145.0826388621823
 30
0.0
 10
101.1740309660023
 20
145.0826388621823
 30
0.0
 10
100.9501733409736
 20
145.306496487211
 30
0.0
 10
100.9501733409736
 20
145.5826388620575
 30
0.0
  0
SPLINE
  5
8C
330
70
100
AcDbEntity
  8
0
 62
    18
420
        0
370
    25
100
AcDbSpline
210
0.0
220
0.0
230
1.0
 70
     9
 71
     3
 72
    29
 73
    25
 74
     0
 42
0.0000000001
 43
0.0000000001
 40
0.0
 40
0.0
 40
0.0
 40
0.0
 40
1.0
 40
1.0
 40
1.0
 40
2.0
 40
2.0
 40
2.0
 40
3.0
 40
3.0
 40
3.0
 40
4.0
 40
4.0
 40
4.0
 40
5.0
 40
5.0
 40
5.0
 40
6.0
 40
6.0
 40
6.0
 40
7.0
 40
7.0
 40
7.0
 40
8.0
 40
8.0
 40
8.0
 40
8.0
 10
6.200173339223398
 20
159.08263885392
 30
0.0
 10
5.924030964308241
 20
159.08263885392
 30
0.0
 10
5.70017333922338
 20
158.8587812288348
 30
0.0
 10
5.70017333922338
 20
158.5826388539197
 30
0.0
 10
5.70017333922338
 20
158.5826388539197
 30
0.0
 10
5.70017333922338
 20
145.5826388539198
 30
0.0
 10
5.70017333922338
 20
145.5826388539198
 30
0.0
 10
5.70017333922338
 20
145.306496479004
 30
0.0
 10
5.924030964308241
 20
145.0826388539195
 30
0.0
 10
6.200173339223398
 20
145.0826388539195
 30
0.0
 10
6.200173339223398
 20
145.0826388539195
 30
0.0
 10
19.20017333922321
 20
145.0826388539195
 30
0.0
 10
19.20017333922321
 20
145.0826388539195
 30
0.0
 10
19.47631571413901
 20
145.0826388539195
 30
0.0
 10
19.70017333922355
 20
145.306496479004
 30
0.0
 10
19.70017333922355
 20
145.5826388539198
 30
0.0
 10
19.70017333922355
 20
145.5826388539198
 30
0.0
 10
19.70017333922355
 20
158.5826388539197
 30
0.0
 10
19.70017333922355
 20
158.5826388539197
 30
0.0
 10
19.70017333922355
 20
158.8587812288348
 30
0.0
 10
19.47631571413901
 20
159.08263885392
 30
0.0
 10
19.20017333922321
 20
159.08263885392
 30
0.0
 10
19.20017333922321
 20
159.08263885392
 30
0.0
 10
6.200173339223398
 20
159.08263885392
 30
0.0
 10
6.200173339223398
 20
159.08263885392
 30
0.0
  0
SPLINE
  5
8D
330
70
100
AcDbEntity
  8
0
 62
    18
420
        0
370
    25
100
AcDbSpline
210
0.0
220
0.0
230
1.0
 70
     9
 71
     3
 72
    29
 73
    25
 74
     0
 42
0.0000000001
 43
0.0000000001
 40
0.0
 40
0.0
 40
0.0
 40
0.0
 40
1.0
 40
1.0
 40
1.0
 40
2.0
 40
2.0
 40
2.0
 40
3.0
 40
3.0
 40
3.0
 40
4.0
 40
4.0
 40
4.0
 40
5.0
 40
5.0
 40
5.0
 40
6.0
 40
6.0
 40
6.0
 40
7.0
 40
7.0
 40
7.0
 40
8.0
 40
8.0
 40
8.0
 40
8.0
 10
57.3001733392236
 20
145.0826388539195
 30
0.0
 10
57.3001733392236
 20
145.0826388539195
 30
0.0
 10
44.30017333922378
 20
145.0826388539195
 30
0.0
 10
44.30017333922378
 20
145.0826388539195
 30
0.0
 10
44.02403096430798
 20
145.0826388539195
 30
0.0
 10
43.80017333922344
 20
145.306496479004
 30
0.0
 10
43.80017333922344
 20
145.5826388539198
 30
0.0
 10
43.80017333922344
 20
145.5826388539198
 30
0.0
 10
43.80017333922344
 20
158.5826388539197
 30
0.0
 10
43.80017333922344
 20
158.5826388539197
 30
0.0
 10
43.80017333922344
 20
158.8587812288348
 30
0.0
 10
44.02403096430798
 20
159.08263885392
 30
0.0
 10
44.30017333922378
 20
159.08263885392
 30
0.0
 10
44.30017333922378
 20
159.08263885392
 30
0.0
 10
57.3001733392236
 20
159.08263885392
 30
0.0
 10
57.3001733392236
 20
159.08263885392
 30
0.0
 10
57.57631571413876
 20
159.08263885392
 30
0.0
 10
57.80017333922394
 20
158.8587812288348
 30
0.0
 10
57.80017333922394
 20
158.5826388539197
 30
0.0
 10
57.80017333922394
 20
158.5826388539197
 30
0.0
 10
57.80017333922394
 20
145.5826388539198
 30
0.0
 10
57.80017333922394
 20
145.5826388539198
 30
0.0
 10
57.80017333922394
 20
145.306496479004
 30
0.0
 10
57.57631571413876
 20
145.0826388539195
 30
0.0
 10
57.3001733392236
 20
145.0826388539195
 30
0.0
  0
SPLINE
  5
8E
330
70
100
AcDbEntity
  8
0
 62
    18
420
        0
370
    25
100
AcDbSpline
210
0.0
220
0.0
230
1.0
 70
     9
 71
     3
 72
    29
 73
    25
 74
     0
 42
0.0000000001
 43
0.0000000001
 40
0.0
 40
0.0
 40
0.0
 40
0.0
 40
1.0
 40
1.0
 40
1.0
 40
2.0
 40
2.0
 40
2.0
 40
3.0
 40
3.0
 40
3.0
 40
4.0
 40
4.0
 40
4.0
 40
5.0
 40
5.0
 40
5.0
 40
6.0
 40
6.0
 40
6.0
 40
7.0
 40
7.0
 40
7.0
 40
8.0
 40
8.0
 40
8.0
 40
8.0
 10
62.85017333922363
 20
145.5826388539198
 30
0.0
 10
62.85017333922363
 20
145.306496479004
 30
0.0
 10
63.07403096430817
 20
145.0826388539195
 30
0.0
 10
63.35017333922333
 20
145.0826388539195
 30
0.0
 10
63.35017333922333
 20
145.0826388539195
 30
0.0
 10
76.35017333922379
 20
145.0826388539195
 30
0.0
 10
76.35017333922379
 20
145.0826388539195
 30
0.0
 10
76.62631571413894
 20
145.0826388539195
 30
0.0
 10
76.85017333922349
 20
145.306496479004
 30
0.0
 10
76.85017333922349
 20
145.5826388539198
 30
0.0
 10
76.85017333922349
 20
145.5826388539198
 30
0.0
 10
76.85017333922349
 20
158.5826388539197
 30
0.0
 10
76.85017333922349
 20
158.5826388539197
 30
0.0
 10
76.85017333922349
 20
158.8587812288348
 30
0.0
 10
76.62631571413894
 20
159.08263885392
 30
0.0
 10
76.35017333922379
 20
159.08263885392
 30
0.0
 10
76.35017333922379
 20
159.08263885392
 30
0.0
 10
63.35017333922333
 20
159.08263885392
 30
0.0
 10
63.35017333922333
 20
159.08263885392
 30
0.0
 10
63.07403096430817
 20
159.08263885392
 30
0.0
 10
62.85017333922363
 20
158.8587812288348
 30
0.0
 10
62.85017333922363
 20
158.5826388539197
 30
0.0
 10
62.85017333922363
 20
158.5826388539197
 30
0.0
 10
62.85017333922363
 20
145.5826388539198
 30
0.0
 10
62.85017333922363
 20
145.5826388539198
 30
0.0
  0
SPLINE
  5
8F
330
70
100
AcDbEntity
  8
0
 62
    18
420
        0
370
    25
100
AcDbSpline
210
0.0
220
0.0
230
1.0
 70
     9
 71
     3
 72
    29
 73
    25
 74
     0
 42
0.0000000001
 43
0.0000000001
 40
0.0
 40
0.0
 40
0.0
 40
0.0
 40
1.0
 40
1.0
 40
1.0
 40
2.0
 40
2.0
 40
2.0
 40
3.0
 40
3.0
 40
3.0
 40
4.0
 40
4.0
 40
4.0
 40
5.0
 40
5.0
 40
5.0
 40
6.0
 40
6.0
 40
6.0
 40
7.0
 40
7.0
 40
7.0
 40
8.0
 40
8.0
 40
8.0
 40
8.0
 10
38.75017333922374
 20
158.5826388539197
 30
0.0
 10
38.75017333922374
 20
158.5826388539197
 30
0.0
 10
38.75017333922374
 20
145.5826388539198
 30
0.0
 10
38.75017333922374
 20
145.5826388539198
 30
0.0
 10
38.75017333922374
 20
145.306496479004
 30
0.0
 10
38.52631571413856
 20
145.0826388539195
 30
0.0
 10
38.25017333922341
 20
145.0826388539195
 30
0.0
 10
38.25017333922341
 20
145.0826388539195
 30
0.0
 10
25.25017333922359
 20
145.0826388539195
 30
0.0
 10
25.25017333922359
 20
145.0826388539195
 30
0.0
 10
24.97403096430844
 20
145.0826388539195
 30
0.0
 10
24.75017333922326
 20
145.306496479004
 30
0.0
 10
24.75017333922326
 20
145.5826388539198
 30
0.0
 10
24.75017333922326
 20
145.5826388539198
 30
0.0
 10
24.75017333922326
 20
158.5826388539197
 30
0.0
 10
24.75017333922326
 20
158.5826388539197
 30
0.0
 10
24.75017333922326
 20
158.8587812288348
 30
0.0
 10
24.97403096430844
 20
159.08263885392
 30
0.0
 10
25.25017333922359
 20
159.08263885392
 30
0.0
 10
25.25017333922359
 20
159.08263885392
 30
0.0
 10
38.25017333922341
 20
159.08263885392
 30
0.0
 10
38.25017333922341
 20
159.08263885392
 30
0.0
 10
38.52631571413856
 20
159.08263885392
 30
0.0
 10
38.75017333922374
 20
158.8587812288348
 30
0.0
 10
38.75017333922374
 20
158.5826388539197
 30
0.0
  0
SPLINE
  5
90
330
70
100
AcDbEntity
  8
0
 62
    18
420
        0
370
    25
100
AcDbSpline
210
0.0
220
0.0
230
1.0
 70
     9
 71
     3
 72
    29
 73
    25
 74
     0
 42
0.0000000001
 43
0.0000000001
 40
0.0
 40
0.0
 40
0.0
 40
0.0
 40
1.0
 40
1.0
 40
1.0
 40
2.0
 40
2.0
 40
2.0
 40
3.0
 40
3.0
 40
3.0
 40
4.0
 40
4.0
 40
4.0
 40
5.0
 40
5.0
 40
5.0
 40
6.0
 40
6.0
 40
6.0
 40
7.0
 40
7.0
 40
7.0
 40
8.0
 40
8.0
 40
8.0
 40
8.0
 10
-13.34982666077649
 20
145.5826388539198
 30
0.0
 10
-13.34982666077649
 20
145.5826388539198
 30
0.0
 10
-13.34982666077649
 20
158.5826388539197
 30
0.0
 10
-13.34982666077649
 20
158.5826388539197
 30
0.0
 10
-13.34982666077649
 20
158.8587812288348
 30
0.0
 10
-13.12596903569195
 20
159.08263885392
 30
0.0
 10
-12.84982666077647
 20
159.08263885392
 30
0.0
 10
-12.84982666077647
 20
159.08263885392
 30
0.0
 10
0.1501733392236662
 20
159.08263885392
 30
0.0
 10
0.1501733392236662
 20
159.08263885392
 30
0.0
 10
0.4263157141388231
 20
159.08263885392
 30
0.0
 10
0.6501733392233631
 20
158.8587812288348
 30
0.0
 10
0.650173339223684
 20
158.5826388539197
 30
0.0
 10
0.650173339223684
 20
158.5826388539197
 30
0.0
 10
0.6501733392233631
 20
145.5826388539198
 30
0.0
 10
0.6501733392233631
 20
145.5826388539198
 30
0.0
 10
0.6501733392233631
 20
145.306496479004
 30
0.0
 10
0.4263157141388231
 20
145.0826388539195
 30
0.0
 10
0.1501733392236662
 20
145.0826388539195
 30
0.0
 10
0.1501733392236662
 20
145.0826388539195
 30
0.0
 10
-12.84982666077647
 20
145.0826388539195
 30
0.0
 10
-12.84982666077647
 20
145.0826388539195
 30
0.0
 10
-13.12596903569195
 20
145.0826388539195
 30
0.0
 10
-13.34982666077649
 20
145.306496479004
 30
0.0
 10
-13.34982666077649
 20
145.5826388539198
 30
0.0
  0
SPLINE
  5
91
330
70
100
AcDbEntity
  8
0
 62
    18
420
        0
370
    25
100
AcDbSpline
210
0.0
220
0.0
230
1.0
 70
     9
 71
     3
 72
    29
 73
    25
 74
     0
 42
0.0000000001
 43
0.0000000001
 40
0.0
 40
0.0
 40
0.0
 40
0.0
 40
1.0
 40
1.0
 40
1.0
 40
2.0
 40
2.0
 40
2.0
 40
3.0
 40
3.0
 40
3.0
 40
4.0
 40
4.0
 40
4.0
 40
5.0
 40
5.0
 40
5.0
 40
6.0
 40
6.0
 40
6.0
 40
7.0
 40
7.0
 40
7.0
 40
8.0
 40
8.0
 40
8.0
 40
8.0
 10
81.90017333922382
 20
145.5826388539198
 30
0.0
 10
81.90017333922382
 20
145.306496479004
 30
0.0
 10
82.12403096430772
 20
145.0826388539195
 30
0.0
 10
82.40017333922352
 20
145.0826388539195
 30
0.0
 10
82.40017333922352
 20
145.0826388539195
 30
0.0
 10
95.40017333922397
 20
145.0826388539195
 30
0.0
 10
95.40017333922397
 20
145.0826388539195
 30
0.0
 10
95.67631571413913
 20
145.0826388539195
 30
0.0
 10
95.90017333922366
 20
145.306496479004
 30
0.0
 10
95.90017333922366
 20
145.5826388539198
 30
0.0
 10
95.90017333922366
 20
145.5826388539198
 30
0.0
 10
95.90017333922366
 20
158.5826388539197
 30
0.0
 10
95.90017333922366
 20
158.5826388539197
 30
0.0
 10
95.90017333922366
 20
158.8587812288348
 30
0.0
 10
95.67631571413913
 20
159.08263885392
 30
0.0
 10
95.40017333922397
 20
159.08263885392
 30
0.0
 10
95.40017333922397
 20
159.08263885392
 30
0.0
 10
82.40017333922352
 20
159.08263885392
 30
0.0
 10
82.40017333922352
 20
159.08263885392
 30
0.0
 10
82.12403096430772
 20
159.08263885392
 30
0.0
 10
81.90017333922382
 20
158.8587812288348
 30
0.0
 10
81.90017333922382
 20
158.5826388539197
 30
0.0
 10
81.90017333922382
 20
158.5826388539197
 30
0.0
 10
81.90017333922382
 20
145.5826388539198
 30
0.0
 10
81.90017333922382
 20
145.5826388539198
 30
0.0
  0
SPLINE
  5
92
330
70
100
AcDbEntity
  8
0
 62
    18
420
        0
370
    25
100
AcDbSpline
210
0.0
220
0.0
230
1.0
 70
     9
 71
     3
 72
    92
 73
    88
 74
     0
 42
0.0000000001
 43
0.0000000001
 40
0.0
 40
0.0
 40
0.0
 40
0.0
 40
1.0
 40
1.0
 40
1.0
 40
2.0
 40
2.0
 40
2.0
 40
3.0
 40
3.0
 40
3.0
 40
4.0
 40
4.0
 40
4.0
 40
5.0
 40
5.0
 40
5.0
 40
6.0
 40
6.0
 40
6.0
 40
7.0
 40
7.0
 40
7.0
 40
8.0
 40
8.0
 40
8.0
 40
9.0
 40
9.0
 40
9.0
 40
10.0
 40
10.0
 40
10.0
 40
11.0
 40
11.0
 40
11.0
 40
12.0
 40
12.0
 40
12.0
 40
13.0
 40
13.0
 40
13.0
 40
14.0
 40
14.0
 40
14.0
 40
15.0
 40
15.0
 40
15.0
 40
16.0
 40
16.0
 40
16.0
 40
17.0
 40
17.0
 40
17.0
 40
18.0
 40
18.0
 40
18.0
 40
19.0
 40
19.0
 40
19.0
 40
20.0
 40
20.0
 40
20.0
 40
21.0
 40
21.0
 40
21.0
 40
22.0
 40
22.0
 40
22.0
 40
23.0
 40
23.0
 40
23.0
 40
24.0
 40
24.0
 40
24.0
 40
25.0
 40
25.0
 40
25.0
 40
26.0
 40
26.0
 40
26.0
 40
27.0
 40
27.0
 40
27.0
 40
28.0
 40
28.0
 40
28.0
 40
29.0
 40
29.0
 40
29.0
 40
29.0
 10
227.4907007284463
 20
143.0829976042032
 30
0.0
 10
227.7668251315891
 20
143.0829976042032
 30
0.0
 10
227.99069174259
 20
143.3068642152041
 30
0.0
 10
227.99069174259
 20
143.5830101501936
 30
0.0
 10
227.99069174259
 20
143.5830101501936
 30
0.0
 10
227.99069174259
 20
145.0826386830761
 30
0.0
 10
227.99069174259
 20
145.0826386830761
 30
0.0
 10
227.99069174259
 20
145.0826386830761
 30
0.0
 10
228.7501630423133
 20
145.0826386830761
 30
0.0
 10
228.7501630423133
 20
145.0826386830761
 30
0.0
 10
229.0263089773029
 20
145.0826386830761
 30
0.0
 10
229.2501755883038
 20
145.306505294077
 30
0.0
 10
229.2501755883038
 20
145.5826296972198
 30
0.0
 10
229.2501755883038
 20
145.5826296972198
 30
0.0
 10
229.2501755883038
 20
158.5826329152697
 30
0.0
 10
229.2501755883038
 20
158.5826329152697
 30
0.0
 10
229.2501755883038
 20
158.8587788502593
 30
0.0
 10
229.0263089773029
 20
159.0826454612601
 30
0.0
 10
228.7501630423133
 20
159.0826454612601
 30
0.0
 10
228.7501630423133
 20
159.0826454612601
 30
0.0
 10
177.6501813656352
 20
159.0826454612601
 30
0.0
 10
177.6501813656352
 20
159.0826454612601
 30
0.0
 10
177.3740354306456
 20
159.0826454612601
 30
0.0
 10
177.1501688196447
 20
158.8587788502593
 30
0.0
 10
177.1501688196447
 20
158.5826329152697
 30
0.0
 10
177.1501688196447
 20
158.5826329152697
 30
0.0
 10
177.1501688196447
 20
145.5826296972198
 30
0.0
 10
177.1501688196447
 20
145.5826296972198
 30
0.0
 10
177.1501688196447
 20
145.306505294077
 30
0.0
 10
177.3740354306456
 20
145.0826386830761
 30
0.0
 10
177.6501813656352
 20
145.0826386830761
 30
0.0
 10
177.6501813656352
 20
145.0826386830761
 30
0.0
 10
197.1781883594511
 20
145.0826386830761
 30
0.0
 10
197.1781883594511
 20
145.0826386830761
 30
0.0
 10
197.1781883594511
 20
145.0826386830761
 30
0.0
 10
197.1781883594511
 20
143.5830101501936
 30
0.0
 10
197.1781883594511
 20
143.5830101501936
 30
0.0
 10
197.1781883594511
 20
143.3068642152041
 30
0.0
 10
197.402054970452
 20
143.0829976042032
 30
0.0
 10
197.6782009054415
 20
143.0829976042032
 30
0.0
 10
197.6782009054415
 20
143.0829976042032
 30
0.0
 10
203.6782007343995
 20
143.0829976042032
 30
0.0
 10
203.6782007343995
 20
143.0829976042032
 30
0.0
 10
203.954346669389
 20
143.0829976042032
 30
0.0
 10
204.1781917485431
 20
143.3068642152041
 30
0.0
 10
204.1781917485431
 20
143.5830101501936
 30
0.0
 10
204.1781917485431
 20
143.5830101501936
 30
0.0
 10
204.1781917485431
 20
145.0826386830761
 30
0.0
 10
204.1781917485431
 20
145.0826386830761
 30
0.0
 10
204.1781917485431
 20
145.0826386830761
 30
0.0
 10
212.8689188107151
 20
145.0826386830761
 30
0.0
 10
212.8689188107151
 20
145.0826386830761
 30
0.0
 10
212.8689188107151
 20
145.0826386830761
 30
0.0
 10
212.8689188107151
 20
140.0326454660226
 30
0.0
 10
212.8689188107151
 20
140.0326454660226
 30
0.0
 10
212.8689188107151
 20
140.0326454660226
 30
0.0
 10
-12.84999084151406
 20
140.0326454660226
 30
0.0
 10
-12.84999084151406
 20
140.0326454660226
 30
0.0
 10
-13.12613677650362
 20
140.0326454660226
 30
0.0
 10
-13.35000338750451
 20
139.8087788550217
 30
0.0
 10
-13.35000338750451
 20
139.5326329200322
 30
0.0
 10
-13.35000338750451
 20
139.5326329200322
 30
0.0
 10
-13.35000338750451
 20
126.5326297019823
 30
0.0
 10
-13.35000338750451
 20
126.5326297019823
 30
0.0
 10
-13.35000338750451
 20
126.2565052988395
 30
0.0
 10
-13.12613677650362
 20
126.0326386878386
 30
0.0
 10
-12.84999084151406
 20
126.0326386878386
 30
0.0
 10
-12.84999084151406
 20
126.0326386878386
 30
0.0
 10
228.7499907875391
 20
126.0326386878386
 30
0.0
 10
228.7499907875391
 20
126.0326386878386
 30
0.0
 10
229.0261367225286
 20
126.0326386878386
 30
0.0
 10
229.2500033335295
 20
126.2565052988395
 30
0.0
 10
229.2500033335295
 20
126.5326297019823
 30
0.0
 10
229.2500033335295
 20
126.5326297019823
 30
0.0
 10
229.2500033335295
 20
139.5326329200322
 30
0.0
 10
229.2500033335295
 20
139.5326329200322
 30
0.0
 10
229.2500033335295
 20
139.8087788550217
 30
0.0
 10
229.0261367225286
 20
140.0326454660226
 30
0.0
 10
228.7499907875391
 20
140.0326454660226
 30
0.0
 10
228.7499907875391
 20
140.0326454660226
 30
0.0
 10
226.8689255888991
 20
140.0326454660226
 30
0.0
 10
226.8689255888991
 20
140.0326454660226
 30
0.0
 10
226.8689255888991
 20
140.0326454660226
 30
0.0
 10
226.8689255888991
 20
143.0829976042032
 30
0.0
 10
226.8689255888991
 20
143.0829976042032
 30
0.0
 10
226.8689255888991
 20
143.0829976042032
 30
0.0
 10
227.4907007284463
 20
143.0829976042032
 30
0.0
 10
227.4907007284463
 20
143.0829976042032
 30
0.0
  0
SPLINE
  5
93
330
70
100
AcDbEntity
  8
0
 62
    18
420
        0
370
    25
100
AcDbSpline
210
0.0
220
0.0
230
1.0
 70
     9
 71
     3
 72
    77
 73
    73
 74
     0
 42
0.0000000001
 43
0.0000000001
 40
0.0
 40
0.0
 40
0.0
 40
0.0
 40
1.0
 40
1.0
 40
1.0
 40
2.0
 40
2.0
 40
2.0
 40
3.0
 40
3.0
 40
3.0
 40
4.0
 40
4.0
 40
4.0
 40
5.0
 40
5.0
 40
5.0
 40
6.0
 40
6.0
 40
6.0
 40
7.0
 40
7.0
 40
7.0
 40
8.0
 40
8.0
 40
8.0
 40
9.0
 40
9.0
 40
9.0
 40
10.0
 40
10.0
 40
10.0
 40
11.0
 40
11.0
 40
11.0
 40
12.0
 40
12.0
 40
12.0
 40
13.0
 40
13.0
 40
13.0
 40
14.0
 40
14.0
 40
14.0
 40
15.0
 40
15.0
 40
15.0
 40
16.0
 40
16.0
 40
16.0
 40
17.0
 40
17.0
 40
17.0
 40
18.0
 40
18.0
 40
18.0
 40
19.0
 40
19.0
 40
19.0
 40
20.0
 40
20.0
 40
20.0
 40
21.0
 40
21.0
 40
21.0
 40
22.0
 40
22.0
 40
22.0
 40
23.0
 40
23.0
 40
23.0
 40
24.0
 40
24.0
 40
24.0
 40
24.0
 10
223.987663043504
 20
120.9826454707851
 30
0.0
 10
223.987663043504
 20
120.9826454707851
 30
0.0
 10
220.9876738949484
 20
120.9826454707851
 30
0.0
 10
220.9876738949484
 20
120.9826454707851
 30
0.0
 10
220.9876738949484
 20
120.9826454707851
 30
0.0
 10
220.9876738949484
 20
122.4826400450629
 30
0.0
 10
220.9876738949484
 20
122.4826400450629
 30
0.0
 10
220.9876738949484
 20
122.7587859800525
 30
0.0
 10
220.7638072839475
 20
122.9826310592066
 30
0.0
 10
220.4876828808047
 20
122.9826310592066
 30
0.0
 10
220.4876828808047
 20
122.9826310592066
 30
0.0
 10
214.4876615200001
 20
122.9826310592066
 30
0.0
 10
214.4876615200001
 20
122.9826310592066
 30
0.0
 10
214.2115371168573
 20
122.9826310592066
 30
0.0
 10
213.9876705058564
 20
122.7587859800525
 30
0.0
 10
213.9876705058564
 20
122.4826400450629
 30
0.0
 10
213.9876705058564
 20
122.4826400450629
 30
0.0
 10
213.9876705058564
 20
120.9826454707851
 30
0.0
 10
213.9876705058564
 20
120.9826454707851
 30
0.0
 10
213.9876705058564
 20
120.9826454707851
 30
0.0
 10
204.9376630482665
 20
120.9826454707851
 30
0.0
 10
204.9376630482665
 20
120.9826454707851
 30
0.0
 10
204.9376630482665
 20
120.9826454707851
 30
0.0
 10
191.9376813620633
 20
120.9826454707851
 30
0.0
 10
191.9376813620633
 20
120.9826454707851
 30
0.0
 10
191.9376813620633
 20
120.9826454707851
 30
0.0
 10
182.8876739044734
 20
120.9826454707851
 30
0.0
 10
182.8876739044734
 20
120.9826454707851
 30
0.0
 10
182.8876739044734
 20
120.9826454707851
 30
0.0
 10
182.8876739044734
 20
122.4826400450629
 30
0.0
 10
182.8876739044734
 20
122.4826400450629
 30
0.0
 10
182.8876739044734
 20
122.7587859800525
 30
0.0
 10
182.6638072934725
 20
122.9826310592066
 30
0.0
 10
182.3876828903297
 20
122.9826310592066
 30
0.0
 10
182.3876828903297
 20
122.9826310592066
 30
0.0
 10
176.3876830613718
 20
122.9826310592066
 30
0.0
 10
176.3876830613718
 20
122.9826310592066
 30
0.0
 10
176.1115371263823
 20
122.9826310592066
 30
0.0
 10
175.8876705153814
 20
122.7587859800525
 30
0.0
 10
175.8876705153814
 20
122.4826400450629
 30
0.0
 10
175.8876705153814
 20
122.4826400450629
 30
0.0
 10
175.8876705153814
 20
120.9826454707851
 30
0.0
 10
175.8876705153814
 20
120.9826454707851
 30
0.0
 10
175.8876705153814
 20
120.9826454707851
 30
0.0
 10
172.8876813668258
 20
120.9826454707851
 30
0.0
 10
172.8876813668258
 20
120.9826454707851
 30
0.0
 10
172.6115354318362
 20
120.9826454707851
 30
0.0
 10
172.3876688208354
 20
120.7587788597842
 30
0.0
 10
172.3876688208354
 20
120.4826329247947
 30
0.0
 10
172.3876688208354
 20
120.4826329247947
 30
0.0
 10
172.3876688208354
 20
107.4826297067448
 30
0.0
 10
172.3876688208354
 20
107.4826297067448
 30
0.0
 10
172.3876688208354
 20
107.206505303602
 30
0.0
 10
172.6115354318362
 20
106.9826386926011
 30
0.0
 10
172.8876813668258
 20
106.9826386926011
 30
0.0
 10
172.8876813668258
 20
106.9826386926011
 30
0.0
 10
191.9376813620633
 20
106.9826386926011
 30
0.0
 10
191.9376813620633
 20
106.9826386926011
 30
0.0
 10
191.9376813620633
 20
106.9826386926011
 30
0.0
 10
204.9376630482665
 20
106.9826386926011
 30
0.0
 10
204.9376630482665
 20
106.9826386926011
 30
0.0
 10
204.9376630482665
 20
106.9826386926011
 30
0.0
 10
223.987663043504
 20
106.9826386926011
 30
0.0
 10
223.987663043504
 20
106.9826386926011
 30
0.0
 10
224.2638089784935
 20
106.9826386926011
 30
0.0
 10
224.4876755894944
 20
107.206505303602
 30
0.0
 10
224.4876755894944
 20
107.4826297067448
 30
0.0
 10
224.4876755894944
 20
107.4826297067448
 30
0.0
 10
224.4876755894944
 20
120.4826329247947
 30
0.0
 10
224.4876755894944
 20
120.4826329247947
 30
0.0
 10
224.4876755894944
 20
120.7587788597842
 30
0.0
 10
224.2638089784935
 20
120.9826454707851
 30
0.0
 10
223.987663043504
 20
120.9826454707851
 30
0.0
  0
SPLINE
  5
94
330
70
100
AcDbEntity
  8
0
 62
    18
420
        0
370
    25
100
AcDbSpline
210
0.0
220
0.0
230
1.0
 70
     9
 71
     3
 72
    77
 73
    73
 74
     0
 42
0.0000000001
 43
0.0000000001
 40
0.0
 40
0.0
 40
0.0
 40
0.0
 40
1.0
 40
1.0
 40
1.0
 40
2.0
 40
2.0
 40
2.0
 40
3.0
 40
3.0
 40
3.0
 40
4.0
 40
4.0
 40
4.0
 40
5.0
 40
5.0
 40
5.0
 40
6.0
 40
6.0
 40
6.0
 40
7.0
 40
7.0
 40
7.0
 40
8.0
 40
8.0
 40
8.0
 40
9.0
 40
9.0
 40
9.0
 40
10.0
 40
10.0
 40
10.0
 40
11.0
 40
11.0
 40
11.0
 40
12.0
 40
12.0
 40
12.0
 40
13.0
 40
13.0
 40
13.0
 40
14.0
 40
14.0
 40
14.0
 40
15.0
 40
15.0
 40
15.0
 40
16.0
 40
16.0
 40
16.0
 40
17.0
 40
17.0
 40
17.0
 40
18.0
 40
18.0
 40
18.0
 40
19.0
 40
19.0
 40
19.0
 40
20.0
 40
20.0
 40
20.0
 40
21.0
 40
21.0
 40
21.0
 40
22.0
 40
22.0
 40
22.0
 40
23.0
 40
23.0
 40
23.0
 40
24.0
 40
24.0
 40
24.0
 40
24.0
 10
43.0121678562717
 20
120.9826454707851
 30
0.0
 10
43.0121678562717
 20
120.9826454707851
 30
0.0
 10
40.01217870771614
 20
120.9826454707851
 30
0.0
 10
40.01217870771614
 20
120.9826454707851
 30
0.0
 10
40.01217870771614
 20
120.9826454707851
 30
0.0
 10
40.01217870771614
 20
122.4826400450629
 30
0.0
 10
40.01217870771614
 20
122.4826400450629
 30
0.0
 10
40.01217870771614
 20
122.7587859800525
 30
0.0
 10
39.78831209671525
 20
122.9826310592066
 30
0.0
 10
39.51216616172569
 20
122.9826310592066
 30
0.0
 10
39.51216616172569
 20
122.9826310592066
 30
0.0
 10
33.51216633276779
 20
122.9826310592066
 30
0.0
 10
33.51216633276779
 20
122.9826310592066
 30
0.0
 10
33.23602039777823
 20
122.9826310592066
 30
0.0
 10
33.01217531862413
 20
122.7587859800525
 30
0.0
 10
33.01217531862413
 20
122.4826400450629
 30
0.0
 10
33.01217531862413
 20
122.4826400450629
 30
0.0
 10
33.01217531862413
 20
120.9826454707851
 30
0.0
 10
33.01217531862413
 20
120.9826454707851
 30
0.0
 10
33.01217531862413
 20
120.9826454707851
 30
0.0
 10
23.9621678610342
 20
120.9826454707851
 30
0.0
 10
23.9621678610342
 20
120.9826454707851
 30
0.0
 10
23.9621678610342
 20
120.9826454707851
 30
0.0
 10
10.96216464298428
 20
120.9826454707851
 30
0.0
 10
10.96216464298428
 20
120.9826454707851
 30
0.0
 10
10.96216464298428
 20
120.9826454707851
 30
0.0
 10
1.912178717241139
 20
120.9826454707851
 30
0.0
 10
1.912178717241139
 20
120.9826454707851
 30
0.0
 10
1.912178717241139
 20
120.9826454707851
 30
0.0
 10
1.912178717241139
 20
122.4826400450629
 30
0.0
 10
1.912178717241139
 20
122.4826400450629
 30
0.0
 10
1.912178717241139
 20
122.7587859800525
 30
0.0
 10
1.688312106240248
 20
122.9826310592066
 30
0.0
 10
1.412166171250691
 20
122.9826310592066
 30
0.0
 10
1.412166171250691
 20
122.9826310592066
 30
0.0
 10
-4.587812125860425
 20
122.9826310592066
 30
0.0
 10
-4.587812125860425
 20
122.9826310592066
 30
0.0
 10
-4.863958060849983
 20
122.9826310592066
 30
0.0
 10
-5.087824671850873
 20
122.7587859800525
 30
0.0
 10
-5.087824671850873
 20
122.4826400450629
 30
0.0
 10
-5.087824671850873
 20
122.4826400450629
 30
0.0
 10
-5.087824671850873
 20
120.9826454707851
 30
0.0
 10
-5.087824671850873
 20
120.9826454707851
 30
0.0
 10
-5.087824671850873
 20
120.9826454707851
 30
0.0
 10
-8.087813820406433
 20
120.9826454707851
 30
0.0
 10
-8.087813820406433
 20
120.9826454707851
 30
0.0
 10
-8.363959755395988
 20
120.9826454707851
 30
0.0
 10
-8.58782636639688
 20
120.7587788597842
 30
0.0
 10
-8.58782636639688
 20
120.4826329247947
 30
0.0
 10
-8.58782636639688
 20
120.4826329247947
 30
0.0
 10
-8.58782636639688
 20
107.4826297067448
 30
0.0
 10
-8.58782636639688
 20
107.4826297067448
 30
0.0
 10
-8.58782636639688
 20
107.206505303602
 30
0.0
 10
-8.363959755395988
 20
106.9826386926011
 30
0.0
 10
-8.087813820406433
 20
106.9826386926011
 30
0.0
 10
-8.087813820406433
 20
106.9826386926011
 30
0.0
 10
10.96216464298428
 20
106.9826386926011
 30
0.0
 10
10.96216464298428
 20
106.9826386926011
 30
0.0
 10
10.96216464298428
 20
106.9826386926011
 30
0.0
 10
23.9621678610342
 20
106.9826386926011
 30
0.0
 10
23.9621678610342
 20
106.9826386926011
 30
0.0
 10
23.9621678610342
 20
106.9826386926011
 30
0.0
 10
43.0121678562717
 20
106.9826386926011
 30
0.0
 10
43.0121678562717
 20
106.9826386926011
 30
0.0
 10
43.28831379126126
 20
106.9826386926011
 30
0.0
 10
43.51218040226214
 20
107.206505303602
 30
0.0
 10
43.51218040226214
 20
107.4826297067448
 30
0.0
 10
43.51218040226214
 20
107.4826297067448
 30
0.0
 10
43.51218040226214
 20
120.4826329247947
 30
0.0
 10
43.51218040226214
 20
120.4826329247947
 30
0.0
 10
43.51218040226214
 20
120.7587788597842
 30
0.0
 10
43.28831379126126
 20
120.9826454707851
 30
0.0
 10
43.0121678562717
 20
120.9826454707851
 30
0.0
  0
SPLINE
  5
95
330
70
100
AcDbEntity
  8
0
 62
    18
420
        0
370
    25
100
AcDbSpline
210
0.0
220
0.0
230
1.0
 70
     9
 71
     3
 72
   221
 73
   217
 74
     0
 42
0.0000000001
 43
0.0000000001
 40
0.0
 40
0.0
 40
0.0
 40
0.0
 40
1.0
 40
1.0
 40
1.0
 40
2.0
 40
2.0
 40
2.0
 40
3.0
 40
3.0
 40
3.0
 40
4.0
 40
4.0
 40
4.0
 40
5.0
 40
5.0
 40
5.0
 40
6.0
 40
6.0
 40
6.0
 40
7.0
 40
7.0
 40
7.0
 40
8.0
 40
8.0
 40
8.0
 40
9.0
 40
9.0
 40
9.0
 40
10.0
 40
10.0
 40
10.0
 40
11.0
 40
11.0
 40
11.0
 40
12.0
 40
12.0
 40
12.0
 40
13.0
 40
13.0
 40
13.0
 40
14.0
 40
14.0
 40
14.0
 40
15.0
 40
15.0
 40
15.0
 40
16.0
 40
16.0
 40
16.0
 40
17.0
 40
17.0
 40
17.0
 40
18.0
 40
18.0
 40
18.0
 40
19.0
 40
19.0
 40
19.0
 40
20.0
 40
20.0
 40
20.0
 40
21.0
 40
21.0
 40
21.0
 40
22.0
 40
22.0
 40
22.0
 40
23.0
 40
23.0
 40
23.0
 40
24.0
 40
24.0
 40
24.0
 40
25.0
 40
25.0
 40
25.0
 40
26.0
 40
26.0
 40
26.0
 40
27.0
 40
27.0
 40
27.0
 40
28.0
 40
28.0
 40
28.0
 40
29.0
 40
29.0
 40
29.0
 40
30.0
 40
30.0
 40
30.0
 40
31.0
 40
31.0
 40
31.0
 40
32.0
 40
32.0
 40
32.0
 40
33.0
 40
33.0
 40
33.0
 40
34.0
 40
34.0
 40
34.0
 40
35.0
 40
35.0
 40
35.0
 40
36.0
 40
36.0
 40
36.0
 40
37.0
 40
37.0
 40
37.0
 40
38.0
 40
38.0
 40
38.0
 40
39.0
 40
39.0
 40
39.0
 40
40.0
 40
40.0
 40
40.0
 40
41.0
 40
41.0
 40
41.0
 40
42.0
 40
42.0
 40
42.0
 40
43.0
 40
43.0
 40
43.0
 40
44.0
 40
44.0
 40
44.0
 40
45.0
 40
45.0
 40
45.0
 40
46.0
 40
46.0
 40
46.0
 40
47.0
 40
47.0
 40
47.0
 40
48.0
 40
48.0
 40
48.0
 40
49.0
 40
49.0
 40
49.0
 40
50.0
 40
50.0
 40
50.0
 40
51.0
 40
51.0
 40
51.0
 40
52.0
 40
52.0
 40
52.0
 40
53.0
 40
53.0
 40
53.0
 40
54.0
 40
54.0
 40
54.0
 40
55.0
 40
55.0
 40
55.0
 40
56.0
 40
56.0
 40
56.0
 40
57.0
 40
57.0
 40
57.0
 40
58.0
 40
58.0
 40
58.0
 40
59.0
 40
59.0
 40
59.0
 40
60.0
 40
60.0
 40
60.0
 40
61.0
 40
61.0
 40
61.0
 40
62.0
 40
62.0
 40
62.0
 40
63.0
 40
63.0
 40
63.0
 40
64.0
 40
64.0
 40
64.0
 40
65.0
 40
65.0
 40
65.0
 40
66.0
 40
66.0
 40
66.0
 40
67.0
 40
67.0
 40
67.0
 40
68.0
 40
68.0
 40
68.0
 40
69.0
 40
69.0
 40
69.0
 40
70.0
 40
70.0
 40
70.0
 40
71.0
 40
71.0
 40
71.0
 40
72.0
 40
72.0
 40
72.0
 40
72.0
 10
159.6939130595774
 20
116.2201454719758
 30
0.0
 10
159.6939130595774
 20
116.2201454719758
 30
0.0
 10
158.9344417598541
 20
116.2201454719758
 30
0.0
 10
158.9344417598541
 20
116.2201454719758
 30
0.0
 10
158.9344417598541
 20
116.2201454719758
 30
0.0
 10
158.9344417598541
 20
117.7199893233261
 30
0.0
 10
158.9344417598541
 20
117.7199893233261
 30
0.0
 10
158.9344417598541
 20
117.9961352583156
 30
0.0
 10
158.7105751488531
 20
118.2200018693165
 30
0.0
 10
158.4344507457104
 20
118.2200018693165
 30
0.0
 10
158.4344507457104
 20
118.2200018693165
 30
0.0
 10
152.4344509167525
 20
118.2200018693165
 30
0.0
 10
152.4344509167525
 20
118.2200018693165
 30
0.0
 10
152.1583049817629
 20
118.2200018693165
 30
0.0
 10
151.934438370762
 20
117.9961352583156
 30
0.0
 10
151.934438370762
 20
117.7199893233261
 30
0.0
 10
151.934438370762
 20
117.7199893233261
 30
0.0
 10
151.934438370762
 20
116.2201454719758
 30
0.0
 10
151.934438370762
 20
116.2201454719758
 30
0.0
 10
151.934438370762
 20
116.2201454719758
 30
0.0
 10
142.2656917640212
 20
116.2201454719758
 30
0.0
 10
142.2656917640212
 20
116.2201454719758
 30
0.0
 10
142.2656917640212
 20
116.2201454719758
 30
0.0
 10
142.2656917640212
 20
117.7199893233261
 30
0.0
 10
142.2656917640212
 20
117.7199893233261
 30
0.0
 10
142.2656917640212
 20
117.9961352583156
 30
0.0
 10
142.0418251530203
 20
118.2200018693165
 30
0.0
 10
141.7657007498776
 20
118.2200018693165
 30
0.0
 10
141.7657007498776
 20
118.2200018693165
 30
0.0
 10
135.7657009209197
 20
118.2200018693165
 30
0.0
 10
135.7657009209197
 20
118.2200018693165
 30
0.0
 10
135.4895549859301
 20
118.2200018693165
 30
0.0
 10
135.2656883749292
 20
117.9961352583156
 30
0.0
 10
135.2656883749292
 20
117.7199893233261
 30
0.0
 10
135.2656883749292
 20
117.7199893233261
 30
0.0
 10
135.2656883749292
 20
116.2201454719758
 30
0.0
 10
135.2656883749292
 20
116.2201454719758
 30
0.0
 10
135.2656883749292
 20
116.2201454719758
 30
0.0
 10
130.3594632988446
 20
116.2201454719758
 30
0.0
 10
130.3594632988446
 20
116.2201454719758
 30
0.0
 10
130.3594632988446
 20
116.2201454719758
 30
0.0
 10
130.3594632988446
 20
117.7199893233261
 30
0.0
 10
130.3594632988446
 20
117.7199893233261
 30
0.0
 10
130.3594632988446
 20
117.9961352583156
 30
0.0
 10
130.1355966878437
 20
118.2200018693165
 30
0.0
 10
129.8594507528541
 20
118.2200018693165
 30
0.0
 10
129.8594507528541
 20
118.2200018693165
 30
0.0
 10
123.8594509238962
 20
118.2200018693165
 30
0.0
 10
123.8594509238962
 20
118.2200018693165
 30
0.0
 10
123.5833049889067
 20
118.2200018693165
 30
0.0
 10
123.3594599097526
 20
117.9961352583156
 30
0.0
 10
123.3594599097526
 20
117.7199893233261
 30
0.0
 10
123.3594599097526
 20
117.7199893233261
 30
0.0
 10
123.3594599097526
 20
116.2201454719758
 30
0.0
 10
123.3594599097526
 20
116.2201454719758
 30
0.0
 10
123.3594599097526
 20
116.2201454719758
 30
0.0
 10
120.834441769379
 20
116.2201454719758
 30
0.0
 10
120.834441769379
 20
116.2201454719758
 30
0.0
 10
120.834441769379
 20
116.2201454719758
 30
0.0
 10
120.834441769379
 20
117.7199893233261
 30
0.0
 10
120.834441769379
 20
117.7199893233261
 30
0.0
 10
120.834441769379
 20
117.9961352583156
 30
0.0
 10
120.6105966902249
 20
118.2200018693165
 30
0.0
 10
120.3344507552354
 20
118.2200018693165
 30
0.0
 10
120.3344507552354
 20
118.2200018693165
 30
0.0
 10
117.9532007558307
 20
118.2200018693165
 30
0.0
 10
117.9532007558307
 20
118.2200018693165
 30
0.0
 10
117.9532007558307
 20
118.2200018693165
 30
0.0
 10
114.3344509262775
 20
118.2200018693165
 30
0.0
 10
114.3344509262775
 20
118.2200018693165
 30
0.0
 10
114.3344509262775
 20
118.2200018693165
 30
0.0
 10
111.9532009268728
 20
118.2200018693165
 30
0.0
 10
111.9532009268728
 20
118.2200018693165
 30
0.0
 10
111.6770549918832
 20
118.2200018693165
 30
0.0
 10
111.4532099127291
 20
117.9961352583156
 30
0.0
 10
111.4532099127291
 20
117.7199893233261
 30
0.0
 10
111.4532099127291
 20
117.7199893233261
 30
0.0
 10
111.4532099127291
 20
116.2201454719758
 30
0.0
 10
111.4532099127291
 20
116.2201454719758
 30
0.0
 10
111.4532099127291
 20
116.2201454719758
 30
0.0
 10
104.1656917735462
 20
116.2201454719758
 30
0.0
 10
104.1656917735462
 20
116.2201454719758
 30
0.0
 10
104.1656917735462
 20
116.2201454719758
 30
0.0
 10
104.1656917735462
 20
117.7199893233261
 30
0.0
 10
104.1656917735462
 20
117.7199893233261
 30
0.0
 10
104.1656917735462
 20
117.9961352583156
 30
0.0
 10
103.9418466943921
 20
118.2200018693165
 30
0.0
 10
103.6657007594026
 20
118.2200018693165
 30
0.0
 10
103.6657007594026
 20
118.2200018693165
 30
0.0
 10
101.2844507599979
 20
118.2200018693165
 30
0.0
 10
101.2844507599979
 20
118.2200018693165
 30
0.0
 10
101.2844507599979
 20
118.2200018693165
 30
0.0
 10
97.66570093044469
 20
118.2200018693165
 30
0.0
 10
97.66570093044469
 20
118.2200018693165
 30
0.0
 10
97.66570093044469
 20
118.2200018693165
 30
0.0
 10
95.28445093104
 20
118.2200018693165
 30
0.0
 10
95.28445093104
 20
118.2200018693165
 30
0.0
 10
95.00830499605044
 20
118.2200018693165
 30
0.0
 10
94.78445991689634
 20
117.9961352583156
 30
0.0
 10
94.78445991689634
 20
117.7199893233261
 30
0.0
 10
94.78445991689634
 20
117.7199893233261
 30
0.0
 10
94.78445991689634
 20
116.2201454719758
 30
0.0
 10
94.78445991689634
 20
116.2201454719758
 30
0.0
 10
94.78445991689634
 20
116.2201454719758
 30
0.0
 10
92.2594633083696
 20
116.2201454719758
 30
0.0
 10
92.2594633083696
 20
116.2201454719758
 30
0.0
 10
92.2594633083696
 20
116.2201454719758
 30
0.0
 10
92.2594633083696
 20
117.7199893233261
 30
0.0
 10
92.2594633083696
 20
117.7199893233261
 30
0.0
 10
92.2594633083696
 20
117.9961352583156
 30
0.0
 10
92.0355966973687
 20
118.2200018693165
 30
0.0
 10
91.75945076237914
 20
118.2200018693165
 30
0.0
 10
91.75945076237914
 20
118.2200018693165
 30
0.0
 10
85.75945093342125
 20
118.2200018693165
 30
0.0
 10
85.75945093342125
 20
118.2200018693165
 30
0.0
 10
85.48332653027847
 20
118.2200018693165
 30
0.0
 10
85.25945991927759
 20
117.9961352583156
 30
0.0
 10
85.25945991927759
 20
117.7199893233261
 30
0.0
 10
85.25945991927759
 20
117.7199893233261
 30
0.0
 10
85.25945991927759
 20
116.2201454719758
 30
0.0
 10
85.25945991927759
 20
116.2201454719758
 30
0.0
 10
85.25945991927759
 20
116.2201454719758
 30
0.0
 10
80.32145383734151
 20
116.2201454719758
 30
0.0
 10
80.32145383734151
 20
116.2201454719758
 30
0.0
 10
80.32145383734151
 20
116.2201454719758
 30
0.0
 10
80.32145383734151
 20
117.7199893233261
 30
0.0
 10
80.32145383734151
 20
117.7199893233261
 30
0.0
 10
80.32145383734151
 20
117.9961352583156
 30
0.0
 10
80.0976087581874
 20
118.2200018693165
 30
0.0
 10
79.82146282319785
 20
118.2200018693165
 30
0.0
 10
79.82146282319785
 20
118.2200018693165
 30
0.0
 10
73.82146299423995
 20
118.2200018693165
 30
0.0
 10
73.82146299423995
 20
118.2200018693165
 30
0.0
 10
73.54531705925039
 20
118.2200018693165
 30
0.0
 10
73.32145044824951
 20
117.9961352583156
 30
0.0
 10
73.32145044824951
 20
117.7199893233261
 30
0.0
 10
73.32145044824951
 20
117.7199893233261
 30
0.0
 10
73.32145044824951
 20
116.2201454719758
 30
0.0
 10
73.32145044824951
 20
116.2201454719758
 30
0.0
 10
73.32145044824951
 20
116.2201454719758
 30
0.0
 10
63.68398961488413
 20
116.2201454719758
 30
0.0
 10
63.68398961488413
 20
116.2201454719758
 30
0.0
 10
63.68398961488413
 20
116.2201454719758
 30
0.0
 10
63.68398961488413
 20
117.7199893233261
 30
0.0
 10
63.68398961488413
 20
117.7199893233261
 30
0.0
 10
63.68398961488413
 20
117.9961352583156
 30
0.0
 10
63.46014453573001
 20
118.2200018693165
 30
0.0
 10
63.18399860074046
 20
118.2200018693165
 30
0.0
 10
63.18399860074046
 20
118.2200018693165
 30
0.0
 10
57.18399877178256
 20
118.2200018693165
 30
0.0
 10
57.18399877178256
 20
118.2200018693165
 30
0.0
 10
56.907852836793
 20
118.2200018693165
 30
0.0
 10
56.68400775763889
 20
117.9961352583156
 30
0.0
 10
56.68400775763889
 20
117.7199893233261
 30
0.0
 10
56.68400775763889
 20
117.7199893233261
 30
0.0
 10
56.68400775763889
 20
116.2201454719758
 30
0.0
 10
56.68400775763889
 20
116.2201454719758
 30
0.0
 10
56.68400775763889
 20
116.2201454719758
 30
0.0
 10
56.20643139599614
 20
116.2201454719758
 30
0.0
 10
56.20643139599614
 20
116.2201454719758
 30
0.0
 10
55.93028546100658
 20
116.2201454719758
 30
0.0
 10
55.70641885000569
 20
115.9962788609749
 30
0.0
 10
55.70641885000569
 20
115.7201329259853
 30
0.0
 10
55.70641885000569
 20
115.7201329259853
 30
0.0
 10
55.70641885000569
 20
102.7201297079354
 30
0.0
 10
55.70641885000569
 20
102.7201297079354
 30
0.0
 10
55.70641885000569
 20
102.4440053047926
 30
0.0
 10
55.93028546100658
 20
102.2201386937917
 30
0.0
 10
56.20643139599614
 20
102.2201386937917
 30
0.0
 10
56.20643139599614
 20
102.2201386937917
 30
0.0
 10
97.78141307505553
 20
102.2201386937917
 30
0.0
 10
97.78141307505553
 20
102.2201386937917
 30
0.0
 10
98.05755901004509
 20
102.2201386937917
 30
0.0
 10
98.28142562104597
 20
102.4440053047926
 30
0.0
 10
98.28142562104597
 20
102.7201297079354
 30
0.0
 10
98.28142562104597
 20
102.7201297079354
 30
0.0
 10
98.28142562104597
 20
103.2199915309984
 30
0.0
 10
98.28142562104597
 20
103.2199915309984
 30
0.0
 10
98.28142562104597
 20
103.2199915309984
 30
0.0
 10
100.9501688386947
 20
103.2199915309984
 30
0.0
 10
100.9501688386947
 20
103.2199915309984
 30
0.0
 10
100.9501688386947
 20
103.2199915309984
 30
0.0
 10
100.9501688386947
 20
102.7201297079354
 30
0.0
 10
100.9501688386947
 20
102.7201297079354
 30
0.0
 10
100.9501688386947
 20
102.4440053047926
 30
0.0
 10
101.1740354496956
 20
102.2201386937917
 30
0.0
 10
101.4501813846852
 20
102.2201386937917
 30
0.0
 10
101.4501813846852
 20
102.2201386937917
 30
0.0
 10
114.4501630708883
 20
102.2201386937917
 30
0.0
 10
114.4501630708883
 20
102.2201386937917
 30
0.0
 10
114.7263090058779
 20
102.2201386937917
 30
0.0
 10
114.9501756168788
 20
102.4440053047926
 30
0.0
 10
114.9501756168788
 20
102.7201297079354
 30
0.0
 10
114.9501756168788
 20
102.7201297079354
 30
0.0
 10
114.9501756168788
 20
103.2199915309984
 30
0.0
 10
114.9501756168788
 20
103.2199915309984
 30
0.0
 10
114.9501756168788
 20
103.2199915309984
 30
0.0
 10
117.6189188345275
 20
103.2199915309984
 30
0.0
 10
117.6189188345275
 20
103.2199915309984
 30
0.0
 10
117.6189188345275
 20
103.2199915309984
 30
0.0
 10
117.6189188345275
 20
102.7201297079354
 30
0.0
 10
117.6189188345275
 20
102.7201297079354
 30
0.0
 10
117.6189188345275
 20
102.4440053047926
 30
0.0
 10
117.8427854455284
 20
102.2201386937917
 30
0.0
 10
118.118931380518
 20
102.2201386937917
 30
0.0
 10
118.118931380518
 20
102.2201386937917
 30
0.0
 10
159.6939130595774
 20
102.2201386937917
 30
0.0
 10
159.6939130595774
 20
102.2201386937917
 30
0.0
 10
159.9700589945669
 20
102.2201386937917
 30
0.0
 10
160.1939256055678
 20
102.4440053047926
 30
0.0
 10
160.1939256055678
 20
102.7201297079354
 30
0.0
 10
160.1939256055678
 20
102.7201297079354
 30
0.0
 10
160.1939256055678
 20
115.7201329259853
 30
0.0
 10
160.1939256055678
 20
115.7201329259853
 30
0.0
 10
160.1939256055678
 20
115.9962788609749
 30
0.0
 10
159.9700589945669
 20
116.2201454719758
 30
0.0
 10
159.6939130595774
 20
116.2201454719758
 30
0.0
  0
ENDSEC
  0
SECTION
  2
OBJECTS
  0
DICTIONARY
  5
C
330
0
100
AcDbDictionary
281
     1
  3
ACAD_COLOR
350
63
  3
ACAD_DETAILVIEWSTYLE
350
6A
  3
ACAD_GROUP
350
D
  3
ACAD_LAYOUT
350
62
  3
ACAD_MATERIAL
350
10
  3
ACAD_MLEADERSTYLE
350
66
  3
ACAD_MLINESTYLE
350
5F
  3
ACAD_PLOTSETTINGS
350
61
  3
ACAD_PLOTSTYLENAME
350
E
  3
ACAD_SCALELIST
350
42
  3
ACAD_SECTIONVIEWSTYLE
350
68
  3
ACAD_TABLESTYLE
350
64
  3
ACAD_VISUALSTYLE
350
29
  3
ACDB_RECOMPOSE_DATA
350
9E
  3
AcDbVariableDictionary
350
96
  0
DICTIONARY
  5
63
102
{ACAD_REACTORS
330
C
102
}
330
C
100
AcDbDictionary
281
     1
  0
DICTIONARY
  5
6A
102
{ACAD_REACTORS
330
C
102
}
330
C
100
AcDbDictionary
281
     1
  3
Imperial24
350
6B
  0
DICTIONARY
  5
D
102
{ACAD_REACTORS
330
C
102
}
330
C
100
AcDbDictionary
281
     1
  0
DICTIONARY
  5
62
102
{ACAD_REACTORS
330
C
102
}
330
C
100
AcDbDictionary
281
     1
  3
Layout1
350
6F
  3
Layout2
350
77
  3
Model
350
73
  0
DICTIONARY
  5
10
102
{ACAD_REACTORS
330
C
102
}
330
C
100
AcDbDictionary
281
     1
  3
ByBlock
350
19
  3
ByLayer
350
11
  3
Global
350
21
  0
DICTIONARY
  5
66
102
{ACAD_REACTORS
330
C
102
}
330
C
100
AcDbDictionary
281
     1
  3
Standard
350
67
  0
DICTIONARY
  5
5F
102
{ACAD_REACTORS
330
C
102
}
330
C
100
AcDbDictionary
281
     1
  3
Standard
350
60
  0
DICTIONARY
  5
61
102
{ACAD_REACTORS
330
C
102
}
330
C
100
AcDbDictionary
281
     1
  0
ACDBDICTIONARYWDFLT
  5
E
102
{ACAD_REACTORS
330
C
102
}
330
C
100
AcDbDictionary
281
     1
  3
Normal
350
F
100
AcDbDictionaryWithDefault
340
F
  0
DICTIONARY
  5
42
102
{ACAD_REACTORS
330
C
102
}
330
C
100
AcDbDictionary
281
     1
  3
A0
350
43
  3
A1
350
44
  3
A2
350
45
  3
A3
350
46
  3
A4
350
47
  3
A5
350
48
  3
A6
350
49
  3
A7
350
4A
  3
A8
350
4B
  3
A9
350
4C
  3
B0
350
4D
  3
B1
350
4E
  3
B2
350
4F
  3
B3
350
50
  3
B4
350
51
  3
B5
350
52
  3
B6
350
53
  0
DICTIONARY
  5
68
102
{ACAD_REACTORS
330
C
102
}
330
C
100
AcDbDictionary
281
     1
  3
Imperial24
350
69
  0
DICTIONARY
  5
64
102
{ACAD_REACTORS
330
C
102
}
330
C
100
AcDbDictionary
281
     1
  3
Standard
350
65
  0
DICTIONARY
  5
29
102
{ACAD_REACTORS
330
C
102
}
330
C
100
AcDbDictionary
281
     1
  3
2dWireframe
350
2F
  3
Basic
350
2E
  3
Brighten
350
35
  3
ColorChange
350
39
  3
Conceptual
350
32
  3
Dim
350
34
  3
EdgeColorOff
350
41
  3
Facepattern
350
38
  3
Flat
350
2A
  3
FlatWithEdges
350
2B
  3
Gouraud
350
2C
  3
GouraudWithEdges
350
2D
  3
Hidden
350
31
  3
JitterOff
350
3F
  3
Linepattern
350
37
  3
OverhangOff
350
40
  3
Realistic
350
33
  3
Shaded
350
3E
  3
Shaded with edges
350
3D
  3
Shades of Gray
350
3A
  3
Sketchy
350
3B
  3
Thicken
350
36
  3
Wireframe
350
30
  3
X-Ray
350
3C
  0
XRECORD
  5
9E
102
{ACAD_REACTORS
330
C
102
}
330
C
100
AcDbXrecord
280
     1
 90
        1
330
65
  0
DICTIONARY
  5
96
102
{ACAD_REACTORS
330
C
102
}
330
C
100
AcDbDictionary
281
     1
  3
CANNOSCALE
350
9B
  3
CMLEADERSTYLE
350
98
  3
CTABLESTYLE
350
97
  3
CVIEWDETAILSTYLE
350
99
  3
CVIEWSECTIONSTYLE
350
9A
  0
ACDBDETAILVIEWSTYLE
  5
6B
102
{ACAD_REACTORS
330
6A
102
}
330
6A
100
AcDbModelDocViewStyle
 70
     0
  3
Imperial24
290
     1
300
Imperial24
 90
        0
100
AcDbDetailViewStyle
 70
     0
 71
     0
 90
        3
 71
     1
340
55
 62
   256
 40
0.24
340
0
 62
   256
 40
0.24
300

 40
0.36
280
     3
 71
     2
340
5D
 90
       25
 62
   256
 71
     3
340
55
 62
   256
 40
0.24
 90
        1
 40
0.75
 90
        1
300
%<\AcVar ViewType \f "%tc1">% %<\AcVar ViewDetailId>%\PSCALE %<\AcVar ViewScale \f "%sn">%
 71
     4
340
5D
 90
       25
 62
   256
340
5D
 90
       25
 62
   256
280
     0
  0
LAYOUT
  5
6F
102
{ACAD_REACTORS
330
62
102
}
330
62
100
AcDbPlotSettings
  1

  2

  4

  6

 40
0.0
 41
0.0
 42
0.0
 43
0.0
 44
0.0
 45
0.0
 46
0.0
 47
0.0
 48
0.0
 49
0.0
140
0.0
141
0.0
142
1.0
143
1.0
 70
   688
 72
     0
 73
     0
 74
     5
  7

 75
    16
147
1.0
 76
     0
 77
     2
 78
   300
148
0.0
149
0.0
100
AcDbLayout
  1
Layout1
 70
     1
 71
     1
 10
0.0
 20
0.0
 11
12.0
 21
9.0
 12
0.0
 22
0.0
 32
0.0
 14
0.0
 24
0.0
 34
0.0
 15
0.0
 25
0.0
 35
0.0
146
0.0
 13
0.0
 23
0.0
 33
0.0
 16
1.0
 26
0.0
 36
0.0
 17
0.0
 27
1.0
 37
0.0
 76
     0
330
6C
  0
LAYOUT
  5
77
102
{ACAD_REACTORS
330
62
102
}
330
62
100
AcDbPlotSettings
  1

  2

  4

  6

 40
0.0
 41
0.0
 42
0.0
 43
0.0
 44
0.0
 45
0.0
 46
0.0
 47
0.0
 48
0.0
 49
0.0
140
0.0
141
0.0
142
1.0
143
1.0
 70
   688
 72
     0
 73
     0
 74
     5
  7

 75
    16
147
1.0
 76
     0
 77
     2
 78
   300
148
0.0
149
0.0
100
AcDbLayout
  1
Layout2
 70
     1
 71
     2
 10
0.0
 20
0.0
 11
12.0
 21
9.0
 12
0.0
 22
0.0
 32
0.0
 14
0.0
 24
0.0
 34
0.0
 15
0.0
 25
0.0
 35
0.0
146
0.0
 13
0.0
 23
0.0
 33
0.0
 16
1.0
 26
0.0
 36
0.0
 17
0.0
 27
1.0
 37
0.0
 76
     0
330
74
  0
LAYOUT
  5
73
102
{ACAD_REACTORS
330
62
102
}
330
62
100
AcDbPlotSettings
  1

  2

  4

  6

 40
0.0
 41
0.0
 42
0.0
 43
0.0
 44
0.0
 45
0.0
 46
0.0
 47
0.0
 48
0.0
 49
0.0
140
0.0
141
0.0
142
1.0
143
1.0
 70
  1712
 72
     0
 73
     0
 74
     0
  7

 75
     0
147
1.0
 76
     0
 77
     2
 78
   300
148
0.0
149
0.0
100
AcDbLayout
  1
Model
 70
     1
 71
     0
 10
0.0
 20
0.0
 11
12.0
 21
9.0
 12
0.0
 22
0.0
 32
0.0
 14
0.0
 24
0.0
 34
0.0
 15
0.0
 25
0.0
 35
0.0
146
0.0
 13
0.0
 23
0.0
 33
0.0
 16
1.0
 26
0.0
 36
0.0
 17
0.0
 27
1.0
 37
0.0
 76
     0
330
70
  0
MATERIAL
  5
19
102
{ACAD_XDICTIONARY
360
1A
102
}
102
{ACAD_REACTORS
330
10
102
}
330
10
100
AcDbMaterial
  1
ByBlock
 72
     0
 43
0.0208333333333333
 43
0.0
 43
0.0
 43
0.0
 43
0.0
 43
0.0208333333333333
 43
0.0
 43
0.0
 43
0.0
 43
0.0
 43
1.0
 43
0.0
 43
0.0
 43
0.0
 43
0.0
 43
1.0
 77
     0
 47
0.0208333333333333
 47
0.0
 47
0.0
 47
0.0
 47
0.0
 47
0.0208333333333333
 47
0.0
 47
0.0
 47
0.0
 47
0.0
 47
1.0
 47
0.0
 47
0.0
 47
0.0
 47
0.0
 47
1.0
171
     0
 49
0.0208333333333333
 49
0.0
 49
0.0
 49
0.0
 49
0.0
 49
0.0208333333333333
 49
0.0
 49
0.0
 49
0.0
 49
0.0
 49
1.0
 49
0.0
 49
0.0
 49
0.0
 49
0.0
 49
1.0
175
     0
142
0.0208333333333333
142
0.0
142
0.0
142
0.0
142
0.0
142
0.0208333333333333
142
0.0
142
0.0
142
0.0
142
0.0
142
1.0
142
0.0
142
0.0
142
0.0
142
0.0
142
1.0
179
     0
144
0.0208333333333333
144
0.0
144
0.0
144
0.0
144
0.0
144
0.0208333333333333
144
0.0
144
0.0
144
0.0
144
0.0
144
1.0
144
0.0
144
0.0
144
0.0
144
0.0
144
1.0
147
0.0208333333333333
147
0.0
147
0.0
147
0.0
147
0.0
147
0.0208333333333333
147
0.0
147
0.0
147
0.0
147
0.0
147
1.0
147
0.0
147
0.0
147
0.0
147
0.0
147
1.0
  0
MATERIAL
  5
11
102
{ACAD_XDICTIONARY
360
12
102
}
102
{ACAD_REACTORS
330
10
102
}
330
10
100
AcDbMaterial
  1
ByLayer
 72
     0
 43
0.0208333333333333
 43
0.0
 43
0.0
 43
0.0
 43
0.0
 43
0.0208333333333333
 43
0.0
 43
0.0
 43
0.0
 43
0.0
 43
1.0
 43
0.0
 43
0.0
 43
0.0
 43
0.0
 43
1.0
 77
     0
 47
0.0208333333333333
 47
0.0
 47
0.0
 47
0.0
 47
0.0
 47
0.0208333333333333
 47
0.0
 47
0.0
 47
0.0
 47
0.0
 47
1.0
 47
0.0
 47
0.0
 47
0.0
 47
0.0
 47
1.0
171
     0
 49
0.0208333333333333
 49
0.0
 49
0.0
 49
0.0
 49
0.0
 49
0.0208333333333333
 49
0.0
 49
0.0
 49
0.0
 49
0.0
 49
1.0
 49
0.0
 49
0.0
 49
0.0
 49
0.0
 49
1.0
175
     0
142
0.0208333333333333
142
0.0
142
0.0
142
0.0
142
0.0
142
0.0208333333333333
142
0.0
142
0.0
142
0.0
142
0.0
142
1.0
142
0.0
142
0.0
142
0.0
142
0.0
142
1.0
179
     0
144
0.0208333333333333
144
0.0
144
0.0
144
0.0
144
0.0
144
0.0208333333333333
144
0.0
144
0.0
144
0.0
144
0.0
144
1.0
144
0.0
144
0.0
144
0.0
144
0.0
144
1.0
147
0.0208333333333333
147
0.0
147
0.0
147
0.0
147
0.0
147
0.0208333333333333
147
0.0
147
0.0
147
0.0
147
0.0
147
1.0
147
0.0
147
0.0
147
0.0
147
0.0
147
1.0
  0
MATERIAL
  5
21
102
{ACAD_XDICTIONARY
360
22
102
}
102
{ACAD_REACTORS
330
10
102
}
330
10
100
AcDbMaterial
  1
Global
 72
     0
 43
0.0208333333333333
 43
0.0
 43
0.0
 43
0.0
 43
0.0
 43
0.0208333333333333
 43
0.0
 43
0.0
 43
0.0
 43
0.0
 43
1.0
 43
0.0
 43
0.0
 43
0.0
 43
0.0
 43
1.0
 77
     0
 47
0.0208333333333333
 47
0.0
 47
0.0
 47
0.0
 47
0.0
 47
0.0208333333333333
 47
0.0
 47
0.0
 47
0.0
 47
0.0
 47
1.0
 47
0.0
 47
0.0
 47
0.0
 47
0.0
 47
1.0
171
     0
 49
0.0208333333333333
 49
0.0
 49
0.0
 49
0.0
 49
0.0
 49
0.0208333333333333
 49
0.0
 49
0.0
 49
0.0
 49
0.0
 49
1.0
 49
0.0
 49
0.0
 49
0.0
 49
0.0
 49
1.0
175
     0
142
0.0208333333333333
142
0.0
142
0.0
142
0.0
142
0.0
142
0.0208333333333333
142
0.0
142
0.0
142
0.0
142
0.0
142
1.0
142
0.0
142
0.0
142
0.0
142
0.0
142
1.0
179
     0
144
0.0208333333333333
144
0.0
144
0.0
144
0.0
144
0.0
144
0.0208333333333333
144
0.0
144
0.0
144
0.0
144
0.0
144
1.0
144
0.0
144
0.0
144
0.0
144
0.0
144
1.0
147
0.0208333333333333
147
0.0
147
0.0
147
0.0
147
0.0
147
0.0208333333333333
147
0.0
147
0.0
147
0.0
147
0.0
147
1.0
147
0.0
147
0.0
147
0.0
147
0.0
147
1.0
  0
MLEADERSTYLE
  5
67
102
{ACAD_REACTORS
330
66
102
}
330
66
100
AcDbMLeaderStyle
179
     2
170
     2
171
     1
172
     0
 90
        2
 40
0.0
 41
0.0
173
     1
 91
-1056964608
340
5B
 92
       -2
290
     1
 42
0.09
291
     1
 43
0.36
  3
Standard
 44
0.18
300

342
55
174
     1
178
     6
175
     1
176
     0
 93
-1056964608
 45
0.18
292
     0
297
     0
 46
0.18
 94
-1056964608
 47
1.0
 49
1.0
140
1.0
293
     1
141
0.0
294
     1
177
     0
142
1.0
295
     1
296
     0
143
0.125
271
     0
272
     9
273
     9
298
     1
  0
MLINESTYLE
  5
60
102
{ACAD_REACTORS
330
5F
102
}
330
5F
100
AcDbMlineStyle
  2
STANDARD
 70
     0
  3

 62
   256
 51
90.0
 52
90.0
 71
     2
 49
0.5
 62
   256
  6
BYLAYER
 49
-0.5
 62
   256
  6
BYLAYER
  0
ACDBPLACEHOLDER
  5
F
102
{ACAD_REACTORS
330
E
102
}
330
E
  0
SCALE
  5
43
102
{ACAD_REACTORS
330
42
102
}
330
42
100
AcDbScale
 70
     0
300
1:1
140
1.0
141
1.0
290
     1
  0
SCALE
  5
44
102
{ACAD_REACTORS
330
42
102
}
330
42
100
AcDbScale
 70
     0
300
1/128" = 1'-0"
140
0.0078125
141
12.0
290
     0
  0
SCALE
  5
45
102
{ACAD_REACTORS
330
42
102
}
330
42
100
AcDbScale
 70
     0
300
1/64" = 1'-0"
140
0.015625
141
12.0
290
     0
  0
SCALE
  5
46
102
{ACAD_REACTORS
330
42
102
}
330
42
100
AcDbScale
 70
     0
300
1/32" = 1'-0"
140
0.03125
141
12.0
290
     0
  0
SCALE
  5
47
102
{ACAD_REACTORS
330
42
102
}
330
42
100
AcDbScale
 70
     0
300
1/16" = 1'-0"
140
0.0625
141
12.0
290
     0
  0
SCALE
  5
48
102
{ACAD_REACTORS
330
42
102
}
330
42
100
AcDbScale
 70
     0
300
3/32" = 1'-0"
140
0.09375
141
12.0
290
     0
  0
SCALE
  5
49
102
{ACAD_REACTORS
330
42
102
}
330
42
100
AcDbScale
 70
     0
300
1/8" = 1'-0"
140
0.125
141
12.0
290
     0
  0
SCALE
  5
4A
102
{ACAD_REACTORS
330
42
102
}
330
42
100
AcDbScale
 70
     0
300
3/16" = 1'-0"
140
0.1875
141
12.0
290
     0
  0
SCALE
  5
4B
102
{ACAD_REACTORS
330
42
102
}
330
42
100
AcDbScale
 70
     0
300
1/4" = 1'-0"
140
0.25
141
12.0
290
     0
  0
SCALE
  5
4C
102
{ACAD_REACTORS
330
42
102
}
330
42
100
AcDbScale
 70
     0
300
3/8" = 1'-0"
140
0.375
141
12.0
290
     0
  0
SCALE
  5
4D
102
{ACAD_REACTORS
330
42
102
}
330
42
100
AcDbScale
 70
     0
300
1/2" = 1'-0"
140
0.5
141
12.0
290
     0
  0
SCALE
  5
4E
102
{ACAD_REACTORS
330
42
102
}
330
42
100
AcDbScale
 70
     0
300
3/4" = 1'-0"
140
0.75
141
12.0
290
     0
  0
SCALE
  5
4F
102
{ACAD_REACTORS
330
42
102
}
330
42
100
AcDbScale
 70
     0
300
1" = 1'-0"
140
1.0
141
12.0
290
     0
  0
SCALE
  5
50
102
{ACAD_REACTORS
330
42
102
}
330
42
100
AcDbScale
 70
     0
300
1-1/2" = 1'-0"
140
1.5
141
12.0
290
     0
  0
SCALE
  5
51
102
{ACAD_REACTORS
330
42
102
}
330
42
100
AcDbScale
 70
     0
300
3" = 1'-0"
140
3.0
141
12.0
290
     0
  0
SCALE
  5
52
102
{ACAD_REACTORS
330
42
102
}
330
42
100
AcDbScale
 70
     0
300
6" = 1'-0"
140
6.0
141
12.0
290
     0
  0
SCALE
  5
53
102
{ACAD_REACTORS
330
42
102
}
330
42
100
AcDbScale
 70
     0
300
1'-0" = 1'-0"
140
12.0
141
12.0
290
     0
  0
ACDBSECTIONVIEWSTYLE
  5
69
102
{ACAD_REACTORS
330
68
102
}
330
68
100
AcDbModelDocViewStyle
 70
     0
  3
Imperial24
290
     1
300
Imperial24
 90
        0
100
AcDbSectionViewStyle
 70
     0
 71
     0
 90
       78
 71
     1
340
55
 62
   256
 40
0.24
340
0
340
0
 62
   256
 40
0.24
300
I, O, Q, S, X, Z
 40
0.48
 90
        3
 40
0.18
 90
        1
 71
     2
340
5D
 90
       25
 62
   256
340
5D
 90
       50
 62
   256
 40
0.24
 40
0.0
 40
0.24
 71
     3
340
55
 62
   256
 40
0.24
 90
        1
 40
0.75
 90
        1
300
%<\AcVar ViewType \f "%tc1">% %<\AcVar ViewSectionStartId>%-%<\AcVar ViewSectionEndId>%\PSCALE %<\AcVar ViewScale \f "%sn">%
 71
     4
 62
   256
 62
   257
300
ANSI31
 40
1.0
 90
        0
290
     0
290
     0
 90
        6
 40
0.0
 40
1.570796326794896
 40
0.2617993877991494
 40
1.308996938995747
 40
-0.2617993877991494
 40
1.832595714594046
  0
TABLESTYLE
  5
65
102
{ACAD_XDICTIONARY
360
9C
102
}
102
{ACAD_REACTORS
330
64
102
}
330
64
100
AcDbTableStyle
280
     0
  3
Standard
 70
     0
 71
     0
 40
0.06
 41
0.06
280
     0
281
     0
  7
Standard
140
0.18
170
     2
 62
     0
 63
     7
283
     0
 90
      512
 91
        0
  1

274
    -2
284
     1
 64
     0
275
    -2
285
     1
 65
     0
276
    -2
286
     1
 66
     0
277
    -2
287
     1
 67
     0
278
    -2
288
     1
 68
     0
279
    -2
289
     1
 69
     0
  7
Standard
140
0.25
170
     5
 62
     0
 63
     7
283
     0
 90
      512
 91
        0
  1

274
    -2
284
     1
 64
     0
275
    -2
285
     1
 65
     0
276
    -2
286
     1
 66
     0
277
    -2
287
     1
 67
     0
278
    -2
288
     1
 68
     0
279
    -2
289
     1
 69
     0
  7
Standard
140
0.18
170
     5
 62
     0
 63
     7
283
     0
 90
      512
 91
        0
  1

274
    -2
284
     1
 64
     0
275
    -2
285
     1
 65
     0
276
    -2
286
     1
 66
     0
277
    -2
287
     1
 67
     0
278
    -2
288
     1
 68
     0
279
    -2
289
     1
 69
     0
  0
VISUALSTYLE
  5
2F
102
{ACAD_REACTORS
330
29
102
}
330
29
100
AcDbVisualStyle
  2
2dWireframe
 70
     4
177
     3
291
     0
 70
    58
 90
        0
176
     1
 90
        2
176
     1
 90
        0
176
     1
 90
        0
176
     1
 40
0.6
176
     1
 40
30.0
176
     1
 62
     7
420
 16777215
176
     1
 90
        1
176
     1
 90
        4
176
     1
 62
     7
176
     1
 62
   257
176
     1
 90
        1
176
     1
 90
        1
176
     1
 40
1.0
176
     1
 90
        0
176
     1
 62
   257
176
     1
 40
1.0
176
     1
 90
        1
176
     1
 90
        6
176
     1
 90
        2
176
     1
 62
     7
176
     1
 90
        5
176
     1
 90
        0
176
     1
 90
        0
176
     1
290
     0
176
     1
 90
        1
176
     1
 40
0.0
176
     1
 90
        0
176
     1
290
     1
176
     1
290
     1
176
     1
290
     0
176
     1
290
     0
176
     1
290
     0
176
     1
290
     0
176
     1
290
     0
176
     1
290
     0
176
     1
290
     0
176
     1
 90
       50
176
     1
 40
0.0
176
     1
 40
1.0
176
     1
 90
        0
176
     1
 62
    18
420
        0
176
     1
 90
       50
176
     1
 90
        3
176
     1
 62
     5
420
      255
176
     1
290
     0
176
     1
 90
       50
176
     1
 90
       50
176
     1
 90
       50
176
     1
290
     0
176
     1
 90
       50
176
     1
 62
   256
176
     0
 40
1.0
176
     0
 90
        2
176
     1
  1
strokes_ogs.tif
176
     1
290
     0
176
     1
 40
1.0
176
     1
 40
1.0
176
     1
  0
VISUALSTYLE
  5
2E
102
{ACAD_REACTORS
330
29
102
}
330
29
100
AcDbVisualStyle
  2
Basic
 70
     7
177
     3
291
     1
 70
    58
 90
        1
176
     1
 90
        0
176
     1
 90
        1
176
     1
 90
        0
176
     1
 40
0.6
176
     1
 40
30.0
176
     1
 62
     7
420
 16777215
176
     1
 90
        0
176
     1
 90
        4
176
     1
 62
     7
176
     1
 62
   257
176
     1
 90
        1
176
     1
 90
        1
176
     1
 40
1.0
176
     1
 90
        8
176
     1
 62
     7
176
     1
 40
1.0
176
     1
 90
        1
176
     1
 90
        6
176
     1
 90
        2
176
     1
 62
     7
176
     1
 90
        5
176
     1
 90
        0
176
     1
 90
        0
176
     1
290
     0
176
     1
 90
        1
176
     1
 40
0.0
176
     1
 90
        0
176
     1
290
     0
176
     1
290
     1
176
     1
290
     1
176
     1
290
     0
176
     1
290
     0
176
     1
290
     0
176
     1
290
     0
176
     1
290
     0
176
     1
290
     0
176
     1
 90
       50
176
     1
 40
0.0
176
     1
 40
1.0
176
     1
 90
        0
176
     1
 62
    18
420
        0
176
     1
 90
       50
176
     1
 90
        3
176
     1
 62
     5
420
      255
176
     1
290
     0
176
     1
 90
       50
176
     1
 90
       50
176
     1
 90
       50
176
     1
290
     0
176
     1
 90
       50
176
     1
 62
   256
176
     0
 40
1.0
176
     0
 90
        2
176
     1
  1
strokes_ogs.tif
176
     1
290
     0
176
     1
 40
1.0
176
     1
 40
1.0
176
     1
  0
VISUALSTYLE
  5
35
102
{ACAD_REACTORS
330
29
102
}
330
29
100
AcDbVisualStyle
  2
Brighten
 70
    12
177
     3
291
     1
 70
    58
 90
        2
176
     1
 90
        2
176
     1
 90
        0
176
     1
 90
        0
176
     1
 40
0.6
176
     1
 40
30.0
176
     1
 62
     7
420
 16777215
176
     1
 90
        1
176
     1
 90
        4
176
     1
 62
     7
176
     1
 62
   257
176
     1
 90
        1
176
     1
 90
        1
176
     1
 40
1.0
176
     1
 90
        8
176
     1
 62
     7
176
     1
 40
1.0
176
     1
 90
        1
176
     1
 90
        6
176
     1
 90
        2
176
     1
 62
     7
176
     1
 90
        5
176
     1
 90
        0
176
     1
 90
        0
176
     1
290
     0
176
     1
 90
        1
176
     1
 40
50.0
176
     1
 90
        0
176
     1
290
     0
176
     1
290
     1
176
     1
290
     1
176
     1
290
     0
176
     1
290
     0
176
     1
290
     0
176
     1
290
     0
176
     1
290
     0
176
     1
290
     0
176
     1
 90
       50
176
     1
 40
0.0
176
     1
 40
1.0
176
     1
 90
        0
176
     1
 62
    18
420
        0
176
     1
 90
       50
176
     1
 90
        3
176
     1
 62
     5
420
      255
176
     1
290
     0
176
     1
 90
       50
176
     1
 90
       50
176
     1
 90
       50
176
     1
290
     0
176
     1
 90
       50
176
     1
 62
   256
176
     0
 40
1.0
176
     0
 90
        2
176
     1
  1
strokes_ogs.tif
176
     1
290
     0
176
     1
 40
1.0
176
     1
 40
1.0
176
     1
  0
VISUALSTYLE
  5
39
102
{ACAD_REACTORS
330
29
102
}
330
29
100
AcDbVisualStyle
  2
ColorChange
 70
    16
177
     3
291
     1
 70
    58
 90
        2
176
     1
 90
        2
176
     1
 90
        3
176
     1
 90
        0
176
     1
 40
0.6
176
     1
 40
30.0
176
     1
 62
     8
420
  8421504
176
     1
 90
        1
176
     1
 90
        4
176
     1
 62
     7
176
     1
 62
   257
176
     1
 90
        1
176
     1
 90
        1
176
     1
 40
1.0
176
     1
 90
        8
176
     1
 62
     8
420
  8421504
176
     1
 40
1.0
176
     1
 90
        1
176
     1
 90
        6
176
     1
 90
        2
176
     1
 62
     7
176
     1
 90
        5
176
     1
 90
        0
176
     1
 90
        0
176
     1
290
     0
176
     1
 90
        1
176
     1
 40
0.0
176
     1
 90
        0
176
     1
290
     0
176
     1
290
     1
176
     1
290
     1
176
     1
290
     0
176
     1
290
     0
176
     1
290
     0
176
     1
290
     0
176
     1
290
     0
176
     1
290
     0
176
     1
 90
       50
176
     1
 40
0.0
176
     1
 40
1.0
176
     1
 90
        0
176
     1
 62
    18
420
        0
176
     1
 90
       50
176
     1
 90
        3
176
     1
 62
     5
420
      255
176
     1
290
     0
176
     1
 90
       50
176
     1
 90
       50
176
     1
 90
       50
176
     1
290
     0
176
     1
 90
       50
176
     1
 62
   256
176
     0
 40
1.0
176
     0
 90
        2
176
     1
  1
strokes_ogs.tif
176
     1
290
     0
176
     1
 40
1.0
176
     1
 40
1.0
176
     1
  0
VISUALSTYLE
  5
32
102
{ACAD_REACTORS
330
29
102
}
330
29
100
AcDbVisualStyle
  2
Conceptual
 70
     9
177
     3
291
     0
 70
    58
 90
        3
176
     1
 90
        2
176
     1
 90
        0
176
     1
 90
        0
176
     1
 40
0.6
176
     1
 40
30.0
176
     1
 62
     7
420
 16777215
176
     1
 90
        2
176
     1
 90
        2
176
     1
 62
     7
176
     1
 62
   257
176
     1
 90
        1
176
     1
 90
        1
176
     1
 40
179.0
176
     1
 90
        8
176
     1
 62
     7
176
     1
 40
1.0
176
     1
 90
        1
176
     1
 90
        6
176
     1
 90
        2
176
     1
 62
     7
176
     1
 90
        3
176
     1
 90
        0
176
     1
 90
        0
176
     1
290
     0
176
     1
 90
        1
176
     1
 40
0.0
176
     1
 90
        0
176
     1
290
     0
176
     1
290
     1
176
     1
290
     1
176
     1
290
     0
176
     1
290
     0
176
     1
290
     0
176
     1
290
     0
176
     1
290
     0
176
     1
290
     0
176
     1
 90
       50
176
     1
 40
0.0
176
     1
 40
1.0
176
     1
 90
        0
176
     1
 62
    18
420
        0
176
     1
 90
       50
176
     1
 90
        3
176
     1
 62
     5
420
      255
176
     1
290
     0
176
     1
 90
       50
176
     1
 90
       50
176
     1
 90
       50
176
     1
290
     0
176
     1
 90
       50
176
     1
 62
   256
176
     0
 40
1.0
176
     0
 90
        2
176
     1
  1
strokes_ogs.tif
176
     1
290
     0
176
     1
 40
1.0
176
     1
 40
1.0
176
     1
  0
VISUALSTYLE
  5
34
102
{ACAD_REACTORS
330
29
102
}
330
29
100
AcDbVisualStyle
  2
Dim
 70
    11
177
     3
291
     1
 70
    58
 90
        2
176
     1
 90
        2
176
     1
 90
        0
176
     1
 90
        0
176
     1
 40
0.6
176
     1
 40
30.0
176
     1
 62
     7
420
 16777215
176
     1
 90
        1
176
     1
 90
        4
176
     1
 62
     7
176
     1
 62
   257
176
     1
 90
        1
176
     1
 90
        1
176
     1
 40
1.0
176
     1
 90
        8
176
     1
 62
     7
176
     1
 40
1.0
176
     1
 90
        1
176
     1
 90
        6
176
     1
 90
        2
176
     1
 62
     7
176
     1
 90
        5
176
     1
 90
        0
176
     1
 90
        0
176
     1
290
     0
176
     1
 90
        1
176
     1
 40
-50.0
176
     1
 90
        0
176
     1
290
     0
176
     1
290
     1
176
     1
290
     1
176
     1
290
     0
176
     1
290
     0
176
     1
290
     0
176
     1
290
     0
176
     1
290
     0
176
     1
290
     0
176
     1
 90
       50
176
     1
 40
0.0
176
     1
 40
1.0
176
     1
 90
        0
176
     1
 62
    18
420
        0
176
     1
 90
       50
176
     1
 90
        3
176
     1
 62
     5
420
      255
176
     1
290
     0
176
     1
 90
       50
176
     1
 90
       50
176
     1
 90
       50
176
     1
290
     0
176
     1
 90
       50
176
     1
 62
   256
176
     0
 40
1.0
176
     0
 90
        2
176
     1
  1
strokes_ogs.tif
176
     1
290
     0
176
     1
 40
1.0
176
     1
 40
1.0
176
     1
  0
VISUALSTYLE
  5
41
102
{ACAD_REACTORS
330
29
102
}
330
29
100
AcDbVisualStyle
  2
EdgeColorOff
 70
    22
177
     3
291
     1
 70
    58
 90
        2
176
     0
 90
        2
176
     0
 90
        0
176
     0
 90
        0
176
     0
 40
0.6
176
     0
 40
30.0
176
     0
 62
     7
420
 16777215
176
     0
 90
        1
176
     0
 90
        4
176
     0
 62
     7
176
     0
 62
   257
176
     0
 90
        1
176
     0
 90
        1
176
     0
 40
1.0
176
     0
 90
        8
176
     2
 62
     7
176
     0
 40
1.0
176
     0
 90
        1
176
     0
 90
        6
176
     0
 90
        2
176
     0
 62
     7
176
     0
 90
        5
176
     0
 90
        0
176
     0
 90
        0
176
     0
290
     0
176
     0
 90
        1
176
     0
 40
0.0
176
     0
 90
        0
176
     0
290
     0
176
     0
290
     1
176
     0
290
     1
176
     0
290
     0
176
     0
290
     0
176
     0
290
     0
176
     0
290
     0
176
     0
290
     0
176
     0
290
     0
176
     0
 90
       50
176
     0
 40
0.0
176
     0
 40
1.0
176
     0
 90
        0
176
     0
 62
    18
420
        0
176
     0
 90
       50
176
     0
 90
        3
176
     0
 62
     5
420
      255
176
     0
290
     0
176
     0
 90
       50
176
     0
 90
       50
176
     0
 90
       50
176
     0
290
     0
176
     0
 90
       50
176
     0
 62
   256
176
     0
 40
1.0
176
     0
 90
        2
176
     0
  1
strokes_ogs.tif
176
     0
290
     0
176
     0
 40
1.0
176
     0
 40
1.0
176
     0
  0
VISUALSTYLE
  5
38
102
{ACAD_REACTORS
330
29
102
}
330
29
100
AcDbVisualStyle
  2
Facepattern
 70
    15
177
     3
291
     1
 70
    58
 90
        2
176
     1
 90
        2
176
     1
 90
        0
176
     1
 90
        0
176
     1
 40
0.6
176
     1
 40
30.0
176
     1
 62
     7
420
 16777215
176
     1
 90
        1
176
     1
 90
        4
176
     1
 62
     7
176
     1
 62
   257
176
     1
 90
        1
176
     1
 90
        1
176
     1
 40
1.0
176
     1
 90
        8
176
     1
 62
     7
176
     1
 40
1.0
176
     1
 90
        1
176
     1
 90
        6
176
     1
 90
        2
176
     1
 62
     7
176
     1
 90
        5
176
     1
 90
        0
176
     1
 90
        0
176
     1
290
     0
176
     1
 90
        1
176
     1
 40
0.0
176
     1
 90
        0
176
     1
290
     0
176
     1
290
     1
176
     1
290
     1
176
     1
290
     0
176
     1
290
     0
176
     1
290
     0
176
     1
290
     0
176
     1
290
     0
176
     1
290
     0
176
     1
 90
       50
176
     1
 40
0.0
176
     1
 40
1.0
176
     1
 90
        0
176
     1
 62
    18
420
        0
176
     1
 90
       50
176
     1
 90
        3
176
     1
 62
     5
420
      255
176
     1
290
     0
176
     1
 90
       50
176
     1
 90
       50
176
     1
 90
       50
176
     1
290
     0
176
     1
 90
       50
176
     1
 62
   256
176
     0
 40
1.0
176
     0
 90
        2
176
     1
  1
strokes_ogs.tif
176
     1
290
     0
176
     1
 40
1.0
176
     1
 40
1.0
176
     1
  0
VISUALSTYLE
  5
2A
102
{ACAD_REACTORS
330
29
102
}
330
29
100
AcDbVisualStyle
  2
Flat
 70
     0
177
     3
291
     1
 70
    58
 90
        2
176
     1
 90
        1
176
     1
 90
        1
176
     1
 90
        2
176
     1
 40
0.6
176
     1
 40
30.0
176
     1
 62
     7
420
 16777215
176
     1
 90
        0
176
     1
 90
        0
176
     1
 62
     7
176
     1
 62
   257
176
     1
 90
        1
176
     1
 90
        1
176
     1
 40
1.0
176
     1
 90
        8
176
     1
 62
     7
176
     1
 40
1.0
176
     1
 90
        1
176
     1
 90
        6
176
     1
 90
        2
176
     1
 62
     7
176
     1
 90
        5
176
     1
 90
        0
176
     1
 90
        0
176
     1
290
     0
176
     1
 90
       13
176
     1
 40
0.0
176
     1
 90
        0
176
     1
290
     0
176
     1
290
     1
176
     1
290
     1
176
     1
290
     0
176
     1
290
     0
176
     1
290
     0
176
     1
290
     0
176
     1
290
     0
176
     1
290
     0
176
     1
 90
       50
176
     1
 40
0.0
176
     1
 40
1.0
176
     1
 90
        0
176
     1
 62
    18
420
        0
176
     1
 90
       50
176
     1
 90
        3
176
     1
 62
     5
420
      255
176
     1
290
     0
176
     1
 90
       50
176
     1
 90
       50
176
     1
 90
       50
176
     1
290
     0
176
     1
 90
       50
176
     1
 62
   256
176
     0
 40
1.0
176
     0
 90
        2
176
     1
  1
strokes_ogs.tif
176
     1
290
     0
176
     1
 40
1.0
176
     1
 40
1.0
176
     1
  0
VISUALSTYLE
  5
2B
102
{ACAD_REACTORS
330
29
102
}
330
29
100
AcDbVisualStyle
  2
FlatWithEdges
 70
     1
177
     3
291
     1
 70
    58
 90
        2
176
     1
 90
        1
176
     1
 90
        1
176
     1
 90
        2
176
     1
 40
0.6
176
     1
 40
30.0
176
     1
 62
     7
420
 16777215
176
     1
 90
        1
176
     1
 90
        0
176
     1
 62
     7
176
     1
 62
   257
176
     1
 90
        1
176
     1
 90
        1
176
     1
 40
1.0
176
     1
 90
        0
176
     1
 62
   257
176
     1
 40
1.0
176
     1
 90
        1
176
     1
 90
        6
176
     1
 90
        2
176
     1
 62
     7
176
     1
 90
        5
176
     1
 90
        0
176
     1
 90
        0
176
     1
290
     0
176
     1
 90
       13
176
     1
 40
0.0
176
     1
 90
        0
176
     1
290
     0
176
     1
290
     1
176
     1
290
     1
176
     1
290
     0
176
     1
290
     0
176
     1
290
     0
176
     1
290
     0
176
     1
290
     0
176
     1
290
     0
176
     1
 90
       50
176
     1
 40
0.0
176
     1
 40
1.0
176
     1
 90
        0
176
     1
 62
    18
420
        0
176
     1
 90
       50
176
     1
 90
        3
176
     1
 62
     5
420
      255
176
     1
290
     0
176
     1
 90
       50
176
     1
 90
       50
176
     1
 90
       50
176
     1
290
     0
176
     1
 90
       50
176
     1
 62
   256
176
     0
 40
1.0
176
     0
 90
        2
176
     1
  1
strokes_ogs.tif
176
     1
290
     0
176
     1
 40
1.0
176
     1
 40
1.0
176
     1
  0
VISUALSTYLE
  5
2C
102
{ACAD_REACTORS
330
29
102
}
330
29
100
AcDbVisualStyle
  2
Gouraud
 70
     2
177
     3
291
     1
 70
    58
 90
        2
176
     1
 90
        2
176
     1
 90
        1
176
     1
 90
        2
176
     1
 40
0.6
176
     1
 40
30.0
176
     1
 62
     7
420
 16777215
176
     1
 90
        0
176
     1
 90
        0
176
     1
 62
     7
176
     1
 62
   257
176
     1
 90
        1
176
     1
 90
        1
176
     1
 40
1.0
176
     1
 90
        0
176
     1
 62
     7
176
     1
 40
1.0
176
     1
 90
        1
176
     1
 90
        6
176
     1
 90
        2
176
     1
 62
     7
176
     1
 90
        5
176
     1
 90
        0
176
     1
 90
        0
176
     1
290
     0
176
     1
 90
       13
176
     1
 40
0.0
176
     1
 90
        0
176
     1
290
     0
176
     1
290
     1
176
     1
290
     1
176
     1
290
     0
176
     1
290
     0
176
     1
290
     0
176
     1
290
     0
176
     1
290
     0
176
     1
290
     0
176
     1
 90
       50
176
     1
 40
0.0
176
     1
 40
1.0
176
     1
 90
        0
176
     1
 62
    18
420
        0
176
     1
 90
       50
176
     1
 90
        3
176
     1
 62
     5
420
      255
176
     1
290
     0
176
     1
 90
       50
176
     1
 90
       50
176
     1
 90
       50
176
     1
290
     0
176
     1
 90
       50
176
     1
 62
   256
176
     0
 40
1.0
176
     0
 90
        2
176
     1
  1
strokes_ogs.tif
176
     1
290
     0
176
     1
 40
1.0
176
     1
 40
1.0
176
     1
  0
VISUALSTYLE
  5
2D
102
{ACAD_REACTORS
330
29
102
}
330
29
100
AcDbVisualStyle
  2
GouraudWithEdges
 70
     3
177
     3
291
     1
 70
    58
 90
        2
176
     1
 90
        2
176
     1
 90
        1
176
     1
 90
        2
176
     1
 40
0.6
176
     1
 40
30.0
176
     1
 62
     7
420
 16777215
176
     1
 90
        1
176
     1
 90
        0
176
     1
 62
     7
176
     1
 62
   257
176
     1
 90
        1
176
     1
 90
        1
176
     1
 40
1.0
176
     1
 90
        0
176
     1
 62
   257
176
     1
 40
1.0
176
     1
 90
        1
176
     1
 90
        6
176
     1
 90
        2
176
     1
 62
     7
176
     1
 90
        5
176
     1
 90
        0
176
     1
 90
        0
176
     1
290
     0
176
     1
 90
       13
176
     1
 40
0.0
176
     1
 90
        0
176
     1
290
     0
176
     1
290
     1
176
     1
290
     1
176
     1
290
     0
176
     1
290
     0
176
     1
290
     0
176
     1
290
     0
176
     1
290
     0
176
     1
290
     0
176
     1
 90
       50
176
     1
 40
0.0
176
     1
 40
1.0
176
     1
 90
        0
176
     1
 62
    18
420
        0
176
     1
 90
       50
176
     1
 90
        3
176
     1
 62
     5
420
      255
176
     1
290
     0
176
     1
 90
       50
176
     1
 90
       50
176
     1
 90
       50
176
     1
290
     0
176
     1
 90
       50
176
     1
 62
   256
176
     0
 40
1.0
176
     0
 90
        2
176
     1
  1
strokes_ogs.tif
176
     1
290
     0
176
     1
 40
1.0
176
     1
 40
1.0
176
     1
  0
VISUALSTYLE
  5
31
102
{ACAD_REACTORS
330
29
102
}
330
29
100
AcDbVisualStyle
  2
Hidden
 70
     6
177
     3
291
     0
 70
    58
 90
        1
176
     1
 90
        2
176
     1
 90
        2
176
     1
 90
        0
176
     1
 40
0.6
176
     1
 40
30.0
176
     1
 62
     7
420
 16777215
176
     1
 90
        2
176
     1
 90
        2
176
     1
 62
     7
176
     1
 62
   257
176
     1
 90
        2
176
     1
 90
        1
176
     1
 40
40.0
176
     1
 90
        0
176
     1
 62
   257
176
     1
 40
1.0
176
     1
 90
        1
176
     1
 90
        6
176
     1
 90
        2
176
     1
 62
     7
176
     1
 90
        3
176
     1
 90
        0
176
     1
 90
        0
176
     1
290
     0
176
     1
 90
        1
176
     1
 40
0.0
176
     1
 90
        0
176
     1
290
     0
176
     1
290
     1
176
     1
290
     1
176
     1
290
     0
176
     1
290
     0
176
     1
290
     0
176
     1
290
     0
176
     1
290
     0
176
     1
290
     0
176
     1
 90
       50
176
     1
 40
0.0
176
     1
 40
1.0
176
     1
 90
        0
176
     1
 62
    18
420
        0
176
     1
 90
       50
176
     1
 90
        3
176
     1
 62
     5
420
      255
176
     1
290
     0
176
     1
 90
       50
176
     1
 90
       50
176
     1
 90
       50
176
     1
290
     0
176
     1
 90
       50
176
     1
 62
   256
176
     0
 40
1.0
176
     0
 90
        2
176
     1
  1
strokes_ogs.tif
176
     1
290
     0
176
     1
 40
1.0
176
     1
 40
1.0
176
     1
  0
VISUALSTYLE
  5
3F
102
{ACAD_REACTORS
330
29
102
}
330
29
100
AcDbVisualStyle
  2
JitterOff
 70
    20
177
     3
291
     1
 70
    58
 90
        2
176
     0
 90
        2
176
     0
 90
        0
176
     0
 90
        0
176
     0
 40
0.6
176
     0
 40
30.0
176
     0
 62
     7
420
 16777215
176
     0
 90
        1
176
     0
 90
        4
176
     0
 62
     7
176
     0
 62
   257
176
     0
 90
        1
176
     0
 90
        1
176
     0
 40
1.0
176
     0
 90
       10
176
     2
 62
     7
176
     0
 40
1.0
176
     0
 90
        1
176
     0
 90
        6
176
     0
 90
        2
176
     0
 62
     7
176
     0
 90
        5
176
     0
 90
        0
176
     0
 90
        0
176
     0
290
     0
176
     0
 90
        1
176
     0
 40
0.0
176
     0
 90
        0
176
     0
290
     0
176
     0
290
     1
176
     0
290
     1
176
     0
290
     0
176
     0
290
     0
176
     0
290
     0
176
     0
290
     0
176
     0
290
     0
176
     0
290
     0
176
     0
 90
       50
176
     0
 40
0.0
176
     0
 40
1.0
176
     0
 90
        0
176
     0
 62
    18
420
        0
176
     0
 90
       50
176
     0
 90
        3
176
     0
 62
     5
420
      255
176
     0
290
     0
176
     0
 90
       50
176
     0
 90
       50
176
     0
 90
       50
176
     0
290
     0
176
     0
 90
       50
176
     0
 62
   256
176
     0
 40
1.0
176
     0
 90
        2
176
     0
  1
strokes_ogs.tif
176
     0
290
     0
176
     0
 40
1.0
176
     0
 40
1.0
176
     0
  0
VISUALSTYLE
  5
37
102
{ACAD_REACTORS
330
29
102
}
330
29
100
AcDbVisualStyle
  2
Linepattern
 70
    14
177
     3
291
     1
 70
    58
 90
        2
176
     1
 90
        2
176
     1
 90
        0
176
     1
 90
        0
176
     1
 40
0.6
176
     1
 40
30.0
176
     1
 62
     7
420
 16777215
176
     1
 90
        1
176
     1
 90
        4
176
     1
 62
     7
176
     1
 62
   257
176
     1
 90
        7
176
     1
 90
        7
176
     1
 40
1.0
176
     1
 90
        8
176
     1
 62
     7
176
     1
 40
1.0
176
     1
 90
        1
176
     1
 90
        6
176
     1
 90
        2
176
     1
 62
     7
176
     1
 90
        5
176
     1
 90
        0
176
     1
 90
        0
176
     1
290
     0
176
     1
 90
        1
176
     1
 40
0.0
176
     1
 90
        0
176
     1
290
     0
176
     1
290
     1
176
     1
290
     1
176
     1
290
     0
176
     1
290
     0
176
     1
290
     0
176
     1
290
     0
176
     1
290
     0
176
     1
290
     0
176
     1
 90
       50
176
     1
 40
0.0
176
     1
 40
1.0
176
     1
 90
        0
176
     1
 62
    18
420
        0
176
     1
 90
       50
176
     1
 90
        3
176
     1
 62
     5
420
      255
176
     1
290
     0
176
     1
 90
       50
176
     1
 90
       50
176
     1
 90
       50
176
     1
290
     0
176
     1
 90
       50
176
     1
 62
   256
176
     0
 40
1.0
176
     0
 90
        2
176
     1
  1
strokes_ogs.tif
176
     1
290
     0
176
     1
 40
1.0
176
     1
 40
1.0
176
     1
  0
VISUALSTYLE
  5
40
102
{ACAD_REACTORS
330
29
102
}
330
29
100
AcDbVisualStyle
  2
OverhangOff
 70
    21
177
     3
291
     1
 70
    58
 90
        2
176
     0
 90
        2
176
     0
 90
        0
176
     0
 90
        0
176
     0
 40
0.6
176
     0
 40
30.0
176
     0
 62
     7
420
 16777215
176
     0
 90
        1
176
     0
 90
        4
176
     0
 62
     7
176
     0
 62
   257
176
     0
 90
        1
176
     0
 90
        1
176
     0
 40
1.0
176
     0
 90
        9
176
     2
 62
     7
176
     0
 40
1.0
176
     0
 90
        1
176
     0
 90
        6
176
     0
 90
        2
176
     0
 62
     7
176
     0
 90
        5
176
     0
 90
        0
176
     0
 90
        0
176
     0
290
     0
176
     0
 90
        1
176
     0
 40
0.0
176
     0
 90
        0
176
     0
290
     0
176
     0
290
     1
176
     0
290
     1
176
     0
290
     0
176
     0
290
     0
176
     0
290
     0
176
     0
290
     0
176
     0
290
     0
176
     0
290
     0
176
     0
 90
       50
176
     0
 40
0.0
176
     0
 40
1.0
176
     0
 90
        0
176
     0
 62
    18
420
        0
176
     0
 90
       50
176
     0
 90
        3
176
     0
 62
     5
420
      255
176
     0
290
     0
176
     0
 90
       50
176
     0
 90
       50
176
     0
 90
       50
176
     0
290
     0
176
     0
 90
       50
176
     0
 62
   256
176
     0
 40
1.0
176
     0
 90
        2
176
     0
  1
strokes_ogs.tif
176
     0
290
     0
176
     0
 40
1.0
176
     0
 40
1.0
176
     0
  0
VISUALSTYLE
  5
33
102
{ACAD_REACTORS
330
29
102
}
330
29
100
AcDbVisualStyle
  2
Realistic
 70
     8
177
     3
291
     0
 70
    58
 90
        2
176
     1
 90
        3
176
     1
 90
        0
176
     1
 90
        2
176
     1
 40
0.6
176
     1
 40
30.0
176
     1
 62
     7
420
 16777215
176
     1
 90
        0
176
     1
 90
        0
176
     1
 62
     7
176
     1
 62
   257
176
     1
 90
        1
176
     1
 90
        1
176
     1
 40
1.0
176
     1
 90
        8
176
     1
 62
   257
176
     1
 40
1.0
176
     1
 90
        1
176
     1
 90
        6
176
     1
 90
        2
176
     1
 62
     7
176
     1
 90
        3
176
     1
 90
        0
176
     1
 90
        0
176
     1
290
     0
176
     1
 90
       13
176
     1
 40
0.0
176
     1
 90
        0
176
     1
290
     0
176
     1
290
     1
176
     1
290
     1
176
     1
290
     0
176
     1
290
     0
176
     1
290
     0
176
     1
290
     0
176
     1
290
     0
176
     1
290
     0
176
     1
 90
       50
176
     1
 40
0.0
176
     1
 40
1.0
176
     1
 90
        0
176
     1
 62
    18
420
        0
176
     1
 90
       50
176
     1
 90
        3
176
     1
 62
     5
420
      255
176
     1
290
     0
176
     1
 90
       50
176
     1
 90
       50
176
     1
 90
       50
176
     1
290
     0
176
     1
 90
       50
176
     1
 62
   256
176
     0
 40
1.0
176
     0
 90
        2
176
     1
  1
strokes_ogs.tif
176
     1
290
     0
176
     1
 40
1.0
176
     1
 40
1.0
176
     1
  0
VISUALSTYLE
  5
3E
102
{ACAD_REACTORS
330
29
102
}
330
29
100
AcDbVisualStyle
  2
Shaded
 70
    27
177
     3
291
     0
 70
    58
 90
        2
176
     1
 90
        2
176
     1
 90
        1
176
     1
 90
        2
176
     1
 40
0.6
176
     1
 40
30.0
176
     1
 62
     7
420
 16777215
176
     1
 90
        0
176
     1
 90
        4
176
     1
 62
     7
176
     1
 62
   257
176
     1
 90
        1
176
     1
 90
        1
176
     1
 40
1.0
176
     1
 90
        8
176
     1
 62
   257
176
     1
 40
1.0
176
     1
 90
        1
176
     1
 90
        6
176
     1
 90
        2
176
     1
 62
     8
420
  7895160
176
     1
 90
        3
176
     1
 90
        0
176
     1
 90
        0
176
     1
290
     0
176
     1
 90
        5
176
     1
 40
0.0
176
     1
 90
        0
176
     1
290
     0
176
     1
290
     1
176
     1
290
     1
176
     1
290
     0
176
     1
290
     0
176
     1
290
     0
176
     1
290
     0
176
     1
290
     0
176
     1
290
     0
176
     1
 90
       50
176
     1
 40
0.0
176
     1
 40
1.0
176
     1
 90
        0
176
     1
 62
    18
420
        0
176
     1
 90
       50
176
     1
 90
        3
176
     1
 62
     5
420
      255
176
     1
290
     0
176
     1
 90
       50
176
     1
 90
       50
176
     1
 90
       50
176
     1
290
     0
176
     1
 90
       50
176
     1
 62
   256
176
     0
 40
1.0
176
     0
 90
        2
176
     1
  1
strokes_ogs.tif
176
     1
290
     0
176
     1
 40
1.0
176
     1
 40
1.0
176
     1
  0
VISUALSTYLE
  5
3D
102
{ACAD_REACTORS
330
29
102
}
330
29
100
AcDbVisualStyle
  2
Shaded with edges
 70
    26
177
     3
291
     0
 70
    58
 90
        2
176
     1
 90
        2
176
     1
 90
        1
176
     1
 90
        2
176
     1
 40
0.6
176
     1
 40
30.0
176
     1
 62
     7
420
 16777215
176
     1
 90
        1
176
     1
 90
        2
176
     1
 62
     7
176
     1
 62
   257
176
     1
 90
        2
176
     1
 90
        1
176
     1
 40
1.0
176
     1
 90
        8
176
     1
 62
   257
176
     1
 40
1.0
176
     1
 90
        1
176
     1
 90
        6
176
     1
 90
        2
176
     1
 62
     7
176
     1
 90
        3
176
     1
 90
        0
176
     1
 90
        0
176
     1
290
     0
176
     1
 90
        5
176
     1
 40
0.0
176
     1
 90
        0
176
     1
290
     0
176
     1
290
     1
176
     1
290
     1
176
     1
290
     0
176
     1
290
     0
176
     1
290
     0
176
     1
290
     0
176
     1
290
     0
176
     1
290
     0
176
     1
 90
       50
176
     1
 40
0.0
176
     1
 40
1.0
176
     1
 90
        0
176
     1
 62
    18
420
        0
176
     1
 90
       50
176
     1
 90
        3
176
     1
 62
     5
420
      255
176
     1
290
     0
176
     1
 90
       50
176
     1
 90
       50
176
     1
 90
       50
176
     1
290
     0
176
     1
 90
       50
176
     1
 62
   256
176
     0
 40
1.0
176
     0
 90
        2
176
     1
  1
strokes_ogs.tif
176
     1
290
     0
176
     1
 40
1.0
176
     1
 40
1.0
176
     1
  0
VISUALSTYLE
  5
3A
102
{ACAD_REACTORS
330
29
102
}
330
29
100
AcDbVisualStyle
  2
Shades of Gray
 70
    23
177
     3
291
     0
 70
    58
 90
        2
176
     1
 90
        2
176
     1
 90
        3
176
     1
 90
        0
176
     1
 40
0.6
176
     1
 40
30.0
176
     1
 62
     7
420
 16777215
176
     1
 90
        2
176
     1
 90
        2
176
     1
 62
     7
176
     1
 62
     7
176
     1
 90
        1
176
     1
 90
        1
176
     1
 40
40.0
176
     1
 90
        8
176
     1
 62
     7
176
     1
 40
1.0
176
     1
 90
        1
176
     1
 90
        6
176
     1
 90
        2
176
     1
 62
     7
176
     1
 90
        3
176
     1
 90
        0
176
     1
 90
        0
176
     1
290
     0
176
     1
 90
        1
176
     1
 40
0.0
176
     1
 90
        0
176
     1
290
     0
176
     1
290
     1
176
     1
290
     1
176
     1
290
     0
176
     1
290
     0
176
     1
290
     0
176
     1
290
     0
176
     1
290
     0
176
     1
290
     0
176
     1
 90
       50
176
     1
 40
0.0
176
     1
 40
1.0
176
     1
 90
        0
176
     1
 62
    18
420
        0
176
     1
 90
       50
176
     1
 90
        3
176
     1
 62
     5
420
      255
176
     1
290
     0
176
     1
 90
       50
176
     1
 90
       50
176
     1
 90
       50
176
     1
290
     0
176
     1
 90
       50
176
     1
 62
   256
176
     0
 40
1.0
176
     0
 90
        2
176
     1
  1
strokes_ogs.tif
176
     1
290
     0
176
     1
 40
1.0
176
     1
 40
1.0
176
     1
  0
VISUALSTYLE
  5
3B
102
{ACAD_REACTORS
330
29
102
}
330
29
100
AcDbVisualStyle
  2
Sketchy
 70
    24
177
     3
291
     0
 70
    58
 90
        1
176
     1
 90
        2
176
     1
 90
        2
176
     1
 90
        0
176
     1
 40
0.6
176
     1
 40
30.0
176
     1
 62
     7
420
 16777215
176
     1
 90
        2
176
     1
 90
        2
176
     1
 62
     7
176
     1
 62
     7
176
     1
 90
        1
176
     1
 90
        1
176
     1
 40
40.0
176
     1
 90
       11
176
     1
 62
     7
176
     1
 40
1.0
176
     1
 90
        1
176
     1
 90
        6
176
     1
 90
        2
176
     1
 62
     7
176
     1
 90
        6
176
     1
 90
        0
176
     1
 90
        0
176
     1
290
     0
176
     1
 90
        1
176
     1
 40
0.0
176
     1
 90
        0
176
     1
290
     0
176
     1
290
     1
176
     1
290
     1
176
     1
290
     0
176
     1
290
     0
176
     1
290
     0
176
     1
290
     0
176
     1
290
     0
176
     1
290
     0
176
     1
 90
       50
176
     1
 40
0.0
176
     1
 40
1.0
176
     1
 90
        0
176
     1
 62
    18
420
        0
176
     1
 90
       50
176
     1
 90
        3
176
     1
 62
     5
420
      255
176
     1
290
     0
176
     1
 90
       50
176
     1
 90
       50
176
     1
 90
       50
176
     1
290
     0
176
     1
 90
       50
176
     1
 62
   256
176
     0
 40
1.0
176
     0
 90
        2
176
     1
  1
strokes_ogs.tif
176
     1
290
     0
176
     1
 40
1.0
176
     1
 40
1.0
176
     1
  0
VISUALSTYLE
  5
36
102
{ACAD_REACTORS
330
29
102
}
330
29
100
AcDbVisualStyle
  2
Thicken
 70
    13
177
     3
291
     1
 70
    58
 90
        2
176
     1
 90
        2
176
     1
 90
        0
176
     1
 90
        0
176
     1
 40
0.6
176
     1
 40
30.0
176
     1
 62
     7
420
 16777215
176
     1
 90
        1
176
     1
 90
        4
176
     1
 62
     7
176
     1
 62
   257
176
     1
 90
        1
176
     1
 90
        1
176
     1
 40
1.0
176
     1
 90
       12
176
     1
 62
     7
176
     1
 40
1.0
176
     1
 90
        1
176
     1
 90
        6
176
     1
 90
        2
176
     1
 62
     7
176
     1
 90
        5
176
     1
 90
        0
176
     1
 90
        0
176
     1
290
     0
176
     1
 90
        1
176
     1
 40
0.0
176
     1
 90
        0
176
     1
290
     0
176
     1
290
     1
176
     1
290
     1
176
     1
290
     0
176
     1
290
     0
176
     1
290
     0
176
     1
290
     0
176
     1
290
     0
176
     1
290
     0
176
     1
 90
       50
176
     1
 40
0.0
176
     1
 40
1.0
176
     1
 90
        0
176
     1
 62
    18
420
        0
176
     1
 90
       50
176
     1
 90
        3
176
     1
 62
     5
420
      255
176
     1
290
     0
176
     1
 90
       50
176
     1
 90
       50
176
     1
 90
       50
176
     1
290
     0
176
     1
 90
       50
176
     1
 62
   256
176
     0
 40
1.0
176
     0
 90
        2
176
     1
  1
strokes_ogs.tif
176
     1
290
     0
176
     1
 40
1.0
176
     1
 40
1.0
176
     1
  0
VISUALSTYLE
  5
30
102
{ACAD_REACTORS
330
29
102
}
330
29
100
AcDbVisualStyle
  2
Wireframe
 70
     5
177
     3
291
     0
 70
    58
 90
        0
176
     1
 90
        2
176
     1
 90
        0
176
     1
 90
        0
176
     1
 40
0.6
176
     1
 40
30.0
176
     1
 62
     7
420
 16777215
176
     1
 90
        1
176
     1
 90
        4
176
     1
 62
     7
176
     1
 62
   257
176
     1
 90
        1
176
     1
 90
        1
176
     1
 40
1.0
176
     1
 90
        0
176
     1
 62
   257
176
     1
 40
1.0
176
     1
 90
        1
176
     1
 90
        6
176
     1
 90
        2
176
     1
 62
     7
176
     1
 90
        3
176
     1
 90
        0
176
     1
 90
        0
176
     1
290
     0
176
     1
 90
        1
176
     1
 40
0.0
176
     1
 90
        0
176
     1
290
     0
176
     1
290
     1
176
     1
290
     1
176
     1
290
     0
176
     1
290
     0
176
     1
290
     0
176
     1
290
     0
176
     1
290
     0
176
     1
290
     0
176
     1
 90
       50
176
     1
 40
0.0
176
     1
 40
1.0
176
     1
 90
        0
176
     1
 62
    18
420
        0
176
     1
 90
       50
176
     1
 90
        3
176
     1
 62
     5
420
      255
176
     1
290
     0
176
     1
 90
       50
176
     1
 90
       50
176
     1
 90
       50
176
     1
290
     0
176
     1
 90
       50
176
     1
 62
   256
176
     0
 40
1.0
176
     0
 90
        2
176
     1
  1
strokes_ogs.tif
176
     1
290
     0
176
     1
 40
1.0
176
     1
 40
1.0
176
     1
  0
VISUALSTYLE
  5
3C
102
{ACAD_REACTORS
330
29
102
}
330
29
100
AcDbVisualStyle
  2
X-Ray
 70
    25
177
     3
291
     0
 70
    58
 90
        2
176
     1
 90
        2
176
     1
 90
        1
176
     1
 90
        1
176
     1
 40
0.5
176
     1
 40
30.0
176
     1
 62
     7
420
 16777215
176
     1
 90
        1
176
     1
 90
        0
176
     1
 62
     7
176
     1
 62
   257
176
     1
 90
        1
176
     1
 90
        1
176
     1
 40
1.0
176
     1
 90
        8
176
     1
 62
     7
176
     1
 40
1.0
176
     1
 90
        1
176
     1
 90
        6
176
     1
 90
        2
176
     1
 62
     7
176
     1
 90
        3
176
     1
 90
        0
176
     1
 90
        0
176
     1
290
     0
176
     1
 90
       13
176
     1
 40
0.0
176
     1
 90
        0
176
     1
290
     0
176
     1
290
     1
176
     1
290
     1
176
     1
290
     0
176
     1
290
     0
176
     1
290
     0
176
     1
290
     0
176
     1
290
     0
176
     1
290
     0
176
     1
 90
       50
176
     1
 40
0.0
176
     1
 40
1.0
176
     1
 90
        0
176
     1
 62
    18
420
        0
176
     1
 90
       50
176
     1
 90
        3
176
     1
 62
     5
420
      255
176
     1
290
     0
176
     1
 90
       50
176
     1
 90
       50
176
     1
 90
       50
176
     1
290
     0
176
     1
 90
       50
176
     1
 62
   256
176
     0
 40
1.0
176
     0
 90
        2
176
     1
  1
strokes_ogs.tif
176
     1
290
     0
176
     1
 40
1.0
176
     1
 40
1.0
176
     1
  0
DICTIONARYVAR
  5
9B
102
{ACAD_REACTORS
330
96
102
}
330
96
100
DictionaryVariables
280
     0
  1
1:1
  0
DICTIONARYVAR
  5
98
102
{ACAD_REACTORS
330
96
102
}
330
96
100
DictionaryVariables
280
     0
  1
STANDARD
  0
DICTIONARYVAR
  5
97
102
{ACAD_REACTORS
330
96
102
}
330
96
100
DictionaryVariables
280
     0
  1
STANDARD
  0
DICTIONARYVAR
  5
99
102
{ACAD_REACTORS
330
96
102
}
330
96
100
DictionaryVariables
280
     0
  1
Imperial24
  0
DICTIONARYVAR
  5
9A
102
{ACAD_REACTORS
330
96
102
}
330
96
100
DictionaryVariables
280
     0
  1
Imperial24
  0
DICTIONARY
  5
1A
330
19
100
AcDbDictionary
280
     1
281
     1
  3
BUMPTILE
360
1C
  3
DIFFUSETILE
360
1B
  3
OPACITYTILE
360
1F
  3
REFLECTIONTILE
360
1E
  3
REFRACTIONTILE
360
20
  3
SPECULARTILE
360
1D
  0
DICTIONARY
  5
12
330
11
100
AcDbDictionary
280
     1
281
     1
  3
BUMPTILE
360
14
  3
DIFFUSETILE
360
13
  3
OPACITYTILE
360
17
  3
REFLECTIONTILE
360
16
  3
REFRACTIONTILE
360
18
  3
SPECULARTILE
360
15
  0
DICTIONARY
  5
22
330
21
100
AcDbDictionary
280
     1
281
     1
  3
BUMPTILE
360
24
  3
DIFFUSETILE
360
23
  3
OPACITYTILE
360
27
  3
REFLECTIONTILE
360
26
  3
REFRACTIONTILE
360
28
  3
SPECULARTILE
360
25
  0
DICTIONARY
  5
9C
330
65
100
AcDbDictionary
280
     1
281
     1
  3
ACAD_ROUNDTRIP_2008_TABLESTYLE_CELLSTYLEMAP
360
9D
  0
XRECORD
  5
1C
102
{ACAD_REACTORS
330
1A
102
}
330
1A
100
AcDbXrecord
280
     1
270
     1
271
     1
  0
XRECORD
  5
1B
102
{ACAD_REACTORS
330
1A
102
}
330
1A
100
AcDbXrecord
280
     1
270
     1
271
     1
  0
XRECORD
  5
1F
102
{ACAD_REACTORS
330
1A
102
}
330
1A
100
AcDbXrecord
280
     1
270
     1
271
     1
  0
XRECORD
  5
1E
102
{ACAD_REACTORS
330
1A
102
}
330
1A
100
AcDbXrecord
280
     1
270
     1
271
     1
  0
XRECORD
  5
20
102
{ACAD_REACTORS
330
1A
102
}
330
1A
100
AcDbXrecord
280
     1
270
     1
271
     1
  0
XRECORD
  5
1D
102
{ACAD_REACTORS
330
1A
102
}
330
1A
100
AcDbXrecord
280
     1
270
     1
271
     1
  0
XRECORD
  5
14
102
{ACAD_REACTORS
330
12
102
}
330
12
100
AcDbXrecord
280
     1
270
     1
271
     1
  0
XRECORD
  5
13
102
{ACAD_REACTORS
330
12
102
}
330
12
100
AcDbXrecord
280
     1
270
     1
271
     1
  0
XRECORD
  5
17
102
{ACAD_REACTORS
330
12
102
}
330
12
100
AcDbXrecord
280
     1
270
     1
271
     1
  0
XRECORD
  5
16
102
{ACAD_REACTORS
330
12
102
}
330
12
100
AcDbXrecord
280
     1
270
     1
271
     1
  0
XRECORD
  5
18
102
{ACAD_REACTORS
330
12
102
}
330
12
100
AcDbXrecord
280
     1
270
     1
271
     1
  0
XRECORD
  5
15
102
{ACAD_REACTORS
330
12
102
}
330
12
100
AcDbXrecord
280
     1
270
     1
271
     1
  0
XRECORD
  5
24
102
{ACAD_REACTORS
330
22
102
}
330
22
100
AcDbXrecord
280
     1
270
     1
271
     1
  0
XRECORD
  5
23
102
{ACAD_REACTORS
330
22
102
}
330
22
100
AcDbXrecord
280
     1
270
     1
271
     1
  0
XRECORD
  5
27
102
{ACAD_REACTORS
330
22
102
}
330
22
100
AcDbXrecord
280
     1
270
     1
271
     1
  0
XRECORD
  5
26
102
{ACAD_REACTORS
330
22
102
}
330
22
100
AcDbXrecord
280
     1
270
     1
271
     1
  0
XRECORD
  5
28
102
{ACAD_REACTORS
330
22
102
}
330
22
100
AcDbXrecord
280
     1
270
     1
271
     1
  0
XRECORD
  5
25
102
{ACAD_REACTORS
330
22
102
}
330
22
100
AcDbXrecord
280
     1
270
     1
271
     1
  0
CELLSTYLEMAP
  5
9D
102
{ACAD_REACTORS
330
9C
102
}
330
9C
100
AcDbCellStyleMap
 90
        3
300
CELLSTYLE
  1
TABLEFORMAT_BEGIN
 90
        5
170
     1
 91
        0
 92
    32768
 62
   257
 93
        1
300
CONTENTFORMAT
  1
CONTENTFORMAT_BEGIN
 90
        0
 91
        0
 92
      512
 93
        0
300

 40
0.0
140
1.0
 94
        5
 62
     0
340
55
144
0.25
309
CONTENTFORMAT_END
171
     0
 94
        0
309
TABLEFORMAT_END
  1
CELLSTYLE_BEGIN
 90
        1
 91
        1
300
_TITLE
309
CELLSTYLE_END
300
CELLSTYLE
  1
TABLEFORMAT_BEGIN
 90
        5
170
     1
 91
        0
 92
        0
 62
   257
 93
        1
300
CONTENTFORMAT
  1
CONTENTFORMAT_BEGIN
 90
        0
 91
        0
 92
      512
 93
        0
300

 40
0.0
140
1.0
 94
        5
 62
     0
340
55
144
0.18
309
CONTENTFORMAT_END
171
     0
 94
        0
309
TABLEFORMAT_END
  1
CELLSTYLE_BEGIN
 90
        2
 91
        1
300
_HEADER
309
CELLSTYLE_END
300
CELLSTYLE
  1
TABLEFORMAT_BEGIN
 90
        5
170
     1
 91
        0
 92
        0
 62
   257
 93
        1
300
CONTENTFORMAT
  1
CONTENTFORMAT_BEGIN
 90
        0
 91
        0
 92
      512
 93
        0
300

 40
0.0
140
1.0
 94
        2
 62
     0
340
55
144
0.18
309
CONTENTFORMAT_END
171
     0
 94
        0
309
TABLEFORMAT_END
  1
CELLSTYLE_BEGIN
 90
        3
 91
        2
300
_DATA
309
CELLSTYLE_END
  0
ENDSEC
  0
EOF
