%TF.GenerationSoftware,KiCad,Pcbnew,(6.0.11)*%
%TF.CreationDate,2023-07-16T00:11:03+02:00*%
%TF.ProjectId,alpha-curISO_routingv6,616c7068-612d-4637-9572-49534f5f726f,rev?*%
%TF.SameCoordinates,Original*%
%TF.FileFunction,Legend,Bot*%
%TF.FilePolarity,Positive*%
%FSLAX46Y46*%
G04 Gerber Fmt 4.6, Leading zero omitted, Abs format (unit mm)*
G04 Created by KiCad (PCBNEW (6.0.11)) date 2023-07-16 00:11:03*
%MOMM*%
%LPD*%
G01*
G04 APERTURE LIST*
G04 Aperture macros list*
%AMRoundRect*
0 Rectangle with rounded corners*
0 $1 Rounding radius*
0 $2 $3 $4 $5 $6 $7 $8 $9 X,Y pos of 4 corners*
0 Add a 4 corners polygon primitive as box body*
4,1,4,$2,$3,$4,$5,$6,$7,$8,$9,$2,$3,0*
0 Add four circle primitives for the rounded corners*
1,1,$1+$1,$2,$3*
1,1,$1+$1,$4,$5*
1,1,$1+$1,$6,$7*
1,1,$1+$1,$8,$9*
0 Add four rect primitives between the rounded corners*
20,1,$1+$1,$2,$3,$4,$5,0*
20,1,$1+$1,$4,$5,$6,$7,0*
20,1,$1+$1,$6,$7,$8,$9,0*
20,1,$1+$1,$8,$9,$2,$3,0*%
G04 Aperture macros list end*
%ADD10C,0.150000*%
%ADD11C,0.120000*%
%ADD12C,0.100000*%
%ADD13R,1.200000X0.900000*%
%ADD14C,1.750000*%
%ADD15C,3.987800*%
%ADD16C,2.250000*%
%ADD17O,2.000000X3.200000*%
%ADD18R,2.000000X2.000000*%
%ADD19C,2.000000*%
%ADD20C,3.048000*%
%ADD21O,3.200000X2.000000*%
%ADD22C,4.000000*%
%ADD23C,2.200000*%
%ADD24C,1.397000*%
%ADD25R,1.700000X1.700000*%
%ADD26O,1.700000X1.700000*%
%ADD27R,1.100000X1.100000*%
%ADD28R,1.700000X1.000000*%
%ADD29R,1.700000X0.820000*%
%ADD30RoundRect,0.205000X0.645000X0.205000X-0.645000X0.205000X-0.645000X-0.205000X0.645000X-0.205000X0*%
%ADD31RoundRect,0.135000X0.185000X-0.135000X0.185000X0.135000X-0.185000X0.135000X-0.185000X-0.135000X0*%
%ADD32R,0.700000X0.700000*%
%ADD33RoundRect,0.140000X0.170000X-0.140000X0.170000X0.140000X-0.170000X0.140000X-0.170000X-0.140000X0*%
%ADD34RoundRect,0.140000X-0.170000X0.140000X-0.170000X-0.140000X0.170000X-0.140000X0.170000X0.140000X0*%
%ADD35RoundRect,0.250000X-0.350000X-0.450000X0.350000X-0.450000X0.350000X0.450000X-0.350000X0.450000X0*%
%ADD36RoundRect,0.140000X0.140000X0.170000X-0.140000X0.170000X-0.140000X-0.170000X0.140000X-0.170000X0*%
%ADD37RoundRect,0.250000X0.337500X0.475000X-0.337500X0.475000X-0.337500X-0.475000X0.337500X-0.475000X0*%
%ADD38RoundRect,0.150000X0.512500X0.150000X-0.512500X0.150000X-0.512500X-0.150000X0.512500X-0.150000X0*%
%ADD39R,1.200000X1.400000*%
%ADD40RoundRect,0.150000X0.150000X-0.587500X0.150000X0.587500X-0.150000X0.587500X-0.150000X-0.587500X0*%
%ADD41RoundRect,0.140000X-0.140000X-0.170000X0.140000X-0.170000X0.140000X0.170000X-0.140000X0.170000X0*%
%ADD42RoundRect,0.135000X-0.185000X0.135000X-0.185000X-0.135000X0.185000X-0.135000X0.185000X0.135000X0*%
%ADD43RoundRect,0.200000X-0.275000X0.200000X-0.275000X-0.200000X0.275000X-0.200000X0.275000X0.200000X0*%
%ADD44RoundRect,0.135000X0.135000X0.185000X-0.135000X0.185000X-0.135000X-0.185000X0.135000X-0.185000X0*%
%ADD45RoundRect,0.150000X0.650000X0.150000X-0.650000X0.150000X-0.650000X-0.150000X0.650000X-0.150000X0*%
%ADD46RoundRect,0.150000X0.150000X-0.512500X0.150000X0.512500X-0.150000X0.512500X-0.150000X-0.512500X0*%
%ADD47RoundRect,0.250000X-0.625000X0.375000X-0.625000X-0.375000X0.625000X-0.375000X0.625000X0.375000X0*%
%ADD48C,0.650000*%
%ADD49R,0.600000X2.450000*%
%ADD50R,0.300000X2.450000*%
%ADD51R,2.300000X2.300000*%
%ADD52RoundRect,0.050000X0.387500X0.050000X-0.387500X0.050000X-0.387500X-0.050000X0.387500X-0.050000X0*%
%ADD53RoundRect,0.050000X0.050000X0.387500X-0.050000X0.387500X-0.050000X-0.387500X0.050000X-0.387500X0*%
%ADD54RoundRect,0.144000X1.456000X1.456000X-1.456000X1.456000X-1.456000X-1.456000X1.456000X-1.456000X0*%
%ADD55RoundRect,0.250000X0.350000X0.450000X-0.350000X0.450000X-0.350000X-0.450000X0.350000X-0.450000X0*%
G04 APERTURE END LIST*
D10*
X52720833Y-99464880D02*
X52101785Y-99464880D01*
X52435119Y-99845833D01*
X52292261Y-99845833D01*
X52197023Y-99893452D01*
X52149404Y-99941071D01*
X52101785Y-100036309D01*
X52101785Y-100274404D01*
X52149404Y-100369642D01*
X52197023Y-100417261D01*
X52292261Y-100464880D01*
X52577976Y-100464880D01*
X52673214Y-100417261D01*
X52720833Y-100369642D01*
X119348214Y-99560119D02*
X119300595Y-99512500D01*
X119205357Y-99464880D01*
X118967261Y-99464880D01*
X118872023Y-99512500D01*
X118824404Y-99560119D01*
X118776785Y-99655357D01*
X118776785Y-99750595D01*
X118824404Y-99893452D01*
X119395833Y-100464880D01*
X118776785Y-100464880D01*
X257460714Y-99560119D02*
X257413095Y-99512500D01*
X257317857Y-99464880D01*
X257079761Y-99464880D01*
X256984523Y-99512500D01*
X256936904Y-99560119D01*
X256889285Y-99655357D01*
X256889285Y-99750595D01*
X256936904Y-99893452D01*
X257508333Y-100464880D01*
X256889285Y-100464880D01*
X94964285Y-100464880D02*
X95535714Y-100464880D01*
X95250000Y-100464880D02*
X95250000Y-99464880D01*
X95345238Y-99607738D01*
X95440476Y-99702976D01*
X95535714Y-99750595D01*
X35401285Y-100401380D02*
X35972714Y-100401380D01*
X35687000Y-100401380D02*
X35687000Y-99401380D01*
X35782238Y-99544238D01*
X35877476Y-99639476D01*
X35972714Y-99687095D01*
X56864285Y-100464880D02*
X57435714Y-100464880D01*
X57150000Y-100464880D02*
X57150000Y-99464880D01*
X57245238Y-99607738D01*
X57340476Y-99702976D01*
X57435714Y-99750595D01*
X82081547Y-73588571D02*
X81938690Y-73636190D01*
X81891071Y-73683809D01*
X81843452Y-73779047D01*
X81843452Y-73921904D01*
X81891071Y-74017142D01*
X81938690Y-74064761D01*
X82033928Y-74112380D01*
X82414880Y-74112380D01*
X82414880Y-73112380D01*
X82081547Y-73112380D01*
X81986309Y-73160000D01*
X81938690Y-73207619D01*
X81891071Y-73302857D01*
X81891071Y-73398095D01*
X81938690Y-73493333D01*
X81986309Y-73540952D01*
X82081547Y-73588571D01*
X82414880Y-73588571D01*
X81272023Y-74112380D02*
X81367261Y-74064761D01*
X81414880Y-74017142D01*
X81462500Y-73921904D01*
X81462500Y-73636190D01*
X81414880Y-73540952D01*
X81367261Y-73493333D01*
X81272023Y-73445714D01*
X81129166Y-73445714D01*
X81033928Y-73493333D01*
X80986309Y-73540952D01*
X80938690Y-73636190D01*
X80938690Y-73921904D01*
X80986309Y-74017142D01*
X81033928Y-74064761D01*
X81129166Y-74112380D01*
X81272023Y-74112380D01*
X80367261Y-74112380D02*
X80462500Y-74064761D01*
X80510119Y-74017142D01*
X80557738Y-73921904D01*
X80557738Y-73636190D01*
X80510119Y-73540952D01*
X80462500Y-73493333D01*
X80367261Y-73445714D01*
X80224404Y-73445714D01*
X80129166Y-73493333D01*
X80081547Y-73540952D01*
X80033928Y-73636190D01*
X80033928Y-73921904D01*
X80081547Y-74017142D01*
X80129166Y-74064761D01*
X80224404Y-74112380D01*
X80367261Y-74112380D01*
X79748214Y-73445714D02*
X79367261Y-73445714D01*
X79605357Y-73112380D02*
X79605357Y-73969523D01*
X79557738Y-74064761D01*
X79462500Y-74112380D01*
X79367261Y-74112380D01*
X128920833Y-99464880D02*
X128301785Y-99464880D01*
X128635119Y-99845833D01*
X128492261Y-99845833D01*
X128397023Y-99893452D01*
X128349404Y-99941071D01*
X128301785Y-100036309D01*
X128301785Y-100274404D01*
X128349404Y-100369642D01*
X128397023Y-100417261D01*
X128492261Y-100464880D01*
X128777976Y-100464880D01*
X128873214Y-100417261D01*
X128920833Y-100369642D01*
X35702571Y-62364880D02*
X36035904Y-61888690D01*
X36274000Y-62364880D02*
X36274000Y-61364880D01*
X35893047Y-61364880D01*
X35797809Y-61412500D01*
X35750190Y-61460119D01*
X35702571Y-61555357D01*
X35702571Y-61698214D01*
X35750190Y-61793452D01*
X35797809Y-61841071D01*
X35893047Y-61888690D01*
X36274000Y-61888690D01*
X35131142Y-62364880D02*
X35226380Y-62317261D01*
X35274000Y-62269642D01*
X35321619Y-62174404D01*
X35321619Y-61888690D01*
X35274000Y-61793452D01*
X35226380Y-61745833D01*
X35131142Y-61698214D01*
X34988285Y-61698214D01*
X34893047Y-61745833D01*
X34845428Y-61793452D01*
X34797809Y-61888690D01*
X34797809Y-62174404D01*
X34845428Y-62269642D01*
X34893047Y-62317261D01*
X34988285Y-62364880D01*
X35131142Y-62364880D01*
X34512095Y-61698214D02*
X34131142Y-61698214D01*
X34369238Y-61364880D02*
X34369238Y-62222023D01*
X34321619Y-62317261D01*
X34226380Y-62364880D01*
X34131142Y-62364880D01*
X33369238Y-62364880D02*
X33369238Y-61841071D01*
X33416857Y-61745833D01*
X33512095Y-61698214D01*
X33702571Y-61698214D01*
X33797809Y-61745833D01*
X33369238Y-62317261D02*
X33464476Y-62364880D01*
X33702571Y-62364880D01*
X33797809Y-62317261D01*
X33845428Y-62222023D01*
X33845428Y-62126785D01*
X33797809Y-62031547D01*
X33702571Y-61983928D01*
X33464476Y-61983928D01*
X33369238Y-61936309D01*
X32893047Y-62364880D02*
X32893047Y-61698214D01*
X32893047Y-61888690D02*
X32845428Y-61793452D01*
X32797809Y-61745833D01*
X32702571Y-61698214D01*
X32607333Y-61698214D01*
X32369238Y-61698214D02*
X32131142Y-62364880D01*
X31893047Y-61698214D02*
X32131142Y-62364880D01*
X32226380Y-62602976D01*
X32274000Y-62650595D01*
X32369238Y-62698214D01*
X30226380Y-62364880D02*
X30797809Y-62364880D01*
X30512095Y-62364880D02*
X30512095Y-61364880D01*
X30607333Y-61507738D01*
X30702571Y-61602976D01*
X30797809Y-61650595D01*
X158011714Y-76414380D02*
X157440285Y-76414380D01*
X157726000Y-77414380D02*
X157726000Y-76414380D01*
X157106952Y-77414380D02*
X157106952Y-76414380D01*
X156726000Y-76414380D01*
X156630761Y-76462000D01*
X156583142Y-76509619D01*
X156535523Y-76604857D01*
X156535523Y-76747714D01*
X156583142Y-76842952D01*
X156630761Y-76890571D01*
X156726000Y-76938190D01*
X157106952Y-76938190D01*
X81248214Y-99560119D02*
X81200595Y-99512500D01*
X81105357Y-99464880D01*
X80867261Y-99464880D01*
X80772023Y-99512500D01*
X80724404Y-99560119D01*
X80676785Y-99655357D01*
X80676785Y-99750595D01*
X80724404Y-99893452D01*
X81295833Y-100464880D01*
X80676785Y-100464880D01*
X150066071Y-81414880D02*
X150399404Y-80938690D01*
X150637500Y-81414880D02*
X150637500Y-80414880D01*
X150256547Y-80414880D01*
X150161309Y-80462500D01*
X150113690Y-80510119D01*
X150066071Y-80605357D01*
X150066071Y-80748214D01*
X150113690Y-80843452D01*
X150161309Y-80891071D01*
X150256547Y-80938690D01*
X150637500Y-80938690D01*
X149494642Y-81414880D02*
X149589880Y-81367261D01*
X149637500Y-81319642D01*
X149685119Y-81224404D01*
X149685119Y-80938690D01*
X149637500Y-80843452D01*
X149589880Y-80795833D01*
X149494642Y-80748214D01*
X149351785Y-80748214D01*
X149256547Y-80795833D01*
X149208928Y-80843452D01*
X149161309Y-80938690D01*
X149161309Y-81224404D01*
X149208928Y-81319642D01*
X149256547Y-81367261D01*
X149351785Y-81414880D01*
X149494642Y-81414880D01*
X148875595Y-80748214D02*
X148494642Y-80748214D01*
X148732738Y-80414880D02*
X148732738Y-81272023D01*
X148685119Y-81367261D01*
X148589880Y-81414880D01*
X148494642Y-81414880D01*
X147732738Y-81414880D02*
X147732738Y-80891071D01*
X147780357Y-80795833D01*
X147875595Y-80748214D01*
X148066071Y-80748214D01*
X148161309Y-80795833D01*
X147732738Y-81367261D02*
X147827976Y-81414880D01*
X148066071Y-81414880D01*
X148161309Y-81367261D01*
X148208928Y-81272023D01*
X148208928Y-81176785D01*
X148161309Y-81081547D01*
X148066071Y-81033928D01*
X147827976Y-81033928D01*
X147732738Y-80986309D01*
X147256547Y-81414880D02*
X147256547Y-80748214D01*
X147256547Y-80938690D02*
X147208928Y-80843452D01*
X147161309Y-80795833D01*
X147066071Y-80748214D01*
X146970833Y-80748214D01*
X146732738Y-80748214D02*
X146494642Y-81414880D01*
X146256547Y-80748214D02*
X146494642Y-81414880D01*
X146589880Y-81652976D01*
X146637500Y-81700595D01*
X146732738Y-81748214D01*
X144685119Y-80748214D02*
X144685119Y-81414880D01*
X144923214Y-80367261D02*
X145161309Y-81081547D01*
X144542261Y-81081547D01*
X233648214Y-99560119D02*
X233600595Y-99512500D01*
X233505357Y-99464880D01*
X233267261Y-99464880D01*
X233172023Y-99512500D01*
X233124404Y-99560119D01*
X233076785Y-99655357D01*
X233076785Y-99750595D01*
X233124404Y-99893452D01*
X233695833Y-100464880D01*
X233076785Y-100464880D01*
X199739285Y-100464880D02*
X200310714Y-100464880D01*
X200025000Y-100464880D02*
X200025000Y-99464880D01*
X200120238Y-99607738D01*
X200215476Y-99702976D01*
X200310714Y-99750595D01*
X109870833Y-99464880D02*
X109251785Y-99464880D01*
X109585119Y-99845833D01*
X109442261Y-99845833D01*
X109347023Y-99893452D01*
X109299404Y-99941071D01*
X109251785Y-100036309D01*
X109251785Y-100274404D01*
X109299404Y-100369642D01*
X109347023Y-100417261D01*
X109442261Y-100464880D01*
X109727976Y-100464880D01*
X109823214Y-100417261D01*
X109870833Y-100369642D01*
X147970833Y-99464880D02*
X147351785Y-99464880D01*
X147685119Y-99845833D01*
X147542261Y-99845833D01*
X147447023Y-99893452D01*
X147399404Y-99941071D01*
X147351785Y-100036309D01*
X147351785Y-100274404D01*
X147399404Y-100369642D01*
X147447023Y-100417261D01*
X147542261Y-100464880D01*
X147827976Y-100464880D01*
X147923214Y-100417261D01*
X147970833Y-100369642D01*
X133064285Y-100464880D02*
X133635714Y-100464880D01*
X133350000Y-100464880D02*
X133350000Y-99464880D01*
X133445238Y-99607738D01*
X133540476Y-99702976D01*
X133635714Y-99750595D01*
X262270833Y-99464880D02*
X261651785Y-99464880D01*
X261985119Y-99845833D01*
X261842261Y-99845833D01*
X261747023Y-99893452D01*
X261699404Y-99941071D01*
X261651785Y-100036309D01*
X261651785Y-100274404D01*
X261699404Y-100369642D01*
X261747023Y-100417261D01*
X261842261Y-100464880D01*
X262127976Y-100464880D01*
X262223214Y-100417261D01*
X262270833Y-100369642D01*
X176498214Y-99560119D02*
X176450595Y-99512500D01*
X176355357Y-99464880D01*
X176117261Y-99464880D01*
X176022023Y-99512500D01*
X175974404Y-99560119D01*
X175926785Y-99655357D01*
X175926785Y-99750595D01*
X175974404Y-99893452D01*
X176545833Y-100464880D01*
X175926785Y-100464880D01*
X38385714Y-99560119D02*
X38338095Y-99512500D01*
X38242857Y-99464880D01*
X38004761Y-99464880D01*
X37909523Y-99512500D01*
X37861904Y-99560119D01*
X37814285Y-99655357D01*
X37814285Y-99750595D01*
X37861904Y-99893452D01*
X38433333Y-100464880D01*
X37814285Y-100464880D01*
X161639285Y-100464880D02*
X162210714Y-100464880D01*
X161925000Y-100464880D02*
X161925000Y-99464880D01*
X162020238Y-99607738D01*
X162115476Y-99702976D01*
X162210714Y-99750595D01*
X100298214Y-99560119D02*
X100250595Y-99512500D01*
X100155357Y-99464880D01*
X99917261Y-99464880D01*
X99822023Y-99512500D01*
X99774404Y-99560119D01*
X99726785Y-99655357D01*
X99726785Y-99750595D01*
X99774404Y-99893452D01*
X100345833Y-100464880D01*
X99726785Y-100464880D01*
X33670833Y-99464880D02*
X33051785Y-99464880D01*
X33385119Y-99845833D01*
X33242261Y-99845833D01*
X33147023Y-99893452D01*
X33099404Y-99941071D01*
X33051785Y-100036309D01*
X33051785Y-100274404D01*
X33099404Y-100369642D01*
X33147023Y-100417261D01*
X33242261Y-100464880D01*
X33527976Y-100464880D01*
X33623214Y-100417261D01*
X33670833Y-100369642D01*
X259302285Y-100464880D02*
X259873714Y-100464880D01*
X259588000Y-100464880D02*
X259588000Y-99464880D01*
X259683238Y-99607738D01*
X259778476Y-99702976D01*
X259873714Y-99750595D01*
X180689285Y-100464880D02*
X181260714Y-100464880D01*
X180975000Y-100464880D02*
X180975000Y-99464880D01*
X181070238Y-99607738D01*
X181165476Y-99702976D01*
X181260714Y-99750595D01*
X101314095Y-74239380D02*
X101647428Y-73763190D01*
X101885523Y-74239380D02*
X101885523Y-73239380D01*
X101504571Y-73239380D01*
X101409333Y-73287000D01*
X101361714Y-73334619D01*
X101314095Y-73429857D01*
X101314095Y-73572714D01*
X101361714Y-73667952D01*
X101409333Y-73715571D01*
X101504571Y-73763190D01*
X101885523Y-73763190D01*
X100504571Y-74191761D02*
X100599809Y-74239380D01*
X100790285Y-74239380D01*
X100885523Y-74191761D01*
X100933142Y-74096523D01*
X100933142Y-73715571D01*
X100885523Y-73620333D01*
X100790285Y-73572714D01*
X100599809Y-73572714D01*
X100504571Y-73620333D01*
X100456952Y-73715571D01*
X100456952Y-73810809D01*
X100933142Y-73906047D01*
X100076000Y-74191761D02*
X99980761Y-74239380D01*
X99790285Y-74239380D01*
X99695047Y-74191761D01*
X99647428Y-74096523D01*
X99647428Y-74048904D01*
X99695047Y-73953666D01*
X99790285Y-73906047D01*
X99933142Y-73906047D01*
X100028380Y-73858428D01*
X100076000Y-73763190D01*
X100076000Y-73715571D01*
X100028380Y-73620333D01*
X99933142Y-73572714D01*
X99790285Y-73572714D01*
X99695047Y-73620333D01*
X98837904Y-74191761D02*
X98933142Y-74239380D01*
X99123619Y-74239380D01*
X99218857Y-74191761D01*
X99266476Y-74096523D01*
X99266476Y-73715571D01*
X99218857Y-73620333D01*
X99123619Y-73572714D01*
X98933142Y-73572714D01*
X98837904Y-73620333D01*
X98790285Y-73715571D01*
X98790285Y-73810809D01*
X99266476Y-73906047D01*
X98504571Y-73572714D02*
X98123619Y-73572714D01*
X98361714Y-73239380D02*
X98361714Y-74096523D01*
X98314095Y-74191761D01*
X98218857Y-74239380D01*
X98123619Y-74239380D01*
X167020833Y-99464880D02*
X166401785Y-99464880D01*
X166735119Y-99845833D01*
X166592261Y-99845833D01*
X166497023Y-99893452D01*
X166449404Y-99941071D01*
X166401785Y-100036309D01*
X166401785Y-100274404D01*
X166449404Y-100369642D01*
X166497023Y-100417261D01*
X166592261Y-100464880D01*
X166877976Y-100464880D01*
X166973214Y-100417261D01*
X167020833Y-100369642D01*
X102377571Y-124277380D02*
X102710904Y-123801190D01*
X102949000Y-124277380D02*
X102949000Y-123277380D01*
X102568047Y-123277380D01*
X102472809Y-123325000D01*
X102425190Y-123372619D01*
X102377571Y-123467857D01*
X102377571Y-123610714D01*
X102425190Y-123705952D01*
X102472809Y-123753571D01*
X102568047Y-123801190D01*
X102949000Y-123801190D01*
X101806142Y-124277380D02*
X101901380Y-124229761D01*
X101949000Y-124182142D01*
X101996619Y-124086904D01*
X101996619Y-123801190D01*
X101949000Y-123705952D01*
X101901380Y-123658333D01*
X101806142Y-123610714D01*
X101663285Y-123610714D01*
X101568047Y-123658333D01*
X101520428Y-123705952D01*
X101472809Y-123801190D01*
X101472809Y-124086904D01*
X101520428Y-124182142D01*
X101568047Y-124229761D01*
X101663285Y-124277380D01*
X101806142Y-124277380D01*
X101187095Y-123610714D02*
X100806142Y-123610714D01*
X101044238Y-123277380D02*
X101044238Y-124134523D01*
X100996619Y-124229761D01*
X100901380Y-124277380D01*
X100806142Y-124277380D01*
X100044238Y-124277380D02*
X100044238Y-123753571D01*
X100091857Y-123658333D01*
X100187095Y-123610714D01*
X100377571Y-123610714D01*
X100472809Y-123658333D01*
X100044238Y-124229761D02*
X100139476Y-124277380D01*
X100377571Y-124277380D01*
X100472809Y-124229761D01*
X100520428Y-124134523D01*
X100520428Y-124039285D01*
X100472809Y-123944047D01*
X100377571Y-123896428D01*
X100139476Y-123896428D01*
X100044238Y-123848809D01*
X99568047Y-124277380D02*
X99568047Y-123610714D01*
X99568047Y-123801190D02*
X99520428Y-123705952D01*
X99472809Y-123658333D01*
X99377571Y-123610714D01*
X99282333Y-123610714D01*
X99044238Y-123610714D02*
X98806142Y-124277380D01*
X98568047Y-123610714D02*
X98806142Y-124277380D01*
X98901380Y-124515476D01*
X98949000Y-124563095D01*
X99044238Y-124610714D01*
X96901380Y-124277380D02*
X97472809Y-124277380D01*
X97187095Y-124277380D02*
X97187095Y-123277380D01*
X97282333Y-123420238D01*
X97377571Y-123515476D01*
X97472809Y-123563095D01*
X38306952Y-49490380D02*
X38306952Y-50204666D01*
X38259333Y-50347523D01*
X38164095Y-50442761D01*
X38021238Y-50490380D01*
X37926000Y-50490380D01*
X39259333Y-50490380D02*
X38783142Y-50490380D01*
X38783142Y-49490380D01*
X40164095Y-50395142D02*
X40116476Y-50442761D01*
X39973619Y-50490380D01*
X39878380Y-50490380D01*
X39735523Y-50442761D01*
X39640285Y-50347523D01*
X39592666Y-50252285D01*
X39545047Y-50061809D01*
X39545047Y-49918952D01*
X39592666Y-49728476D01*
X39640285Y-49633238D01*
X39735523Y-49538000D01*
X39878380Y-49490380D01*
X39973619Y-49490380D01*
X40116476Y-49538000D01*
X40164095Y-49585619D01*
X40878380Y-49490380D02*
X40878380Y-50204666D01*
X40830761Y-50347523D01*
X40735523Y-50442761D01*
X40592666Y-50490380D01*
X40497428Y-50490380D01*
X41830761Y-50490380D02*
X41354571Y-50490380D01*
X41354571Y-49490380D01*
X42735523Y-50395142D02*
X42687904Y-50442761D01*
X42545047Y-50490380D01*
X42449809Y-50490380D01*
X42306952Y-50442761D01*
X42211714Y-50347523D01*
X42164095Y-50252285D01*
X42116476Y-50061809D01*
X42116476Y-49918952D01*
X42164095Y-49728476D01*
X42211714Y-49633238D01*
X42306952Y-49538000D01*
X42449809Y-49490380D01*
X42545047Y-49490380D01*
X42687904Y-49538000D01*
X42735523Y-49585619D01*
X43449809Y-49490380D02*
X43449809Y-50204666D01*
X43402190Y-50347523D01*
X43306952Y-50442761D01*
X43164095Y-50490380D01*
X43068857Y-50490380D01*
X44402190Y-50490380D02*
X43926000Y-50490380D01*
X43926000Y-49490380D01*
X45306952Y-50395142D02*
X45259333Y-50442761D01*
X45116476Y-50490380D01*
X45021238Y-50490380D01*
X44878380Y-50442761D01*
X44783142Y-50347523D01*
X44735523Y-50252285D01*
X44687904Y-50061809D01*
X44687904Y-49918952D01*
X44735523Y-49728476D01*
X44783142Y-49633238D01*
X44878380Y-49538000D01*
X45021238Y-49490380D01*
X45116476Y-49490380D01*
X45259333Y-49538000D01*
X45306952Y-49585619D01*
X46021238Y-49490380D02*
X46021238Y-50204666D01*
X45973619Y-50347523D01*
X45878380Y-50442761D01*
X45735523Y-50490380D01*
X45640285Y-50490380D01*
X46973619Y-50490380D02*
X46497428Y-50490380D01*
X46497428Y-49490380D01*
X47878380Y-50395142D02*
X47830761Y-50442761D01*
X47687904Y-50490380D01*
X47592666Y-50490380D01*
X47449809Y-50442761D01*
X47354571Y-50347523D01*
X47306952Y-50252285D01*
X47259333Y-50061809D01*
X47259333Y-49918952D01*
X47306952Y-49728476D01*
X47354571Y-49633238D01*
X47449809Y-49538000D01*
X47592666Y-49490380D01*
X47687904Y-49490380D01*
X47830761Y-49538000D01*
X47878380Y-49585619D01*
X90820833Y-99464880D02*
X90201785Y-99464880D01*
X90535119Y-99845833D01*
X90392261Y-99845833D01*
X90297023Y-99893452D01*
X90249404Y-99941071D01*
X90201785Y-100036309D01*
X90201785Y-100274404D01*
X90249404Y-100369642D01*
X90297023Y-100417261D01*
X90392261Y-100464880D01*
X90677976Y-100464880D01*
X90773214Y-100417261D01*
X90820833Y-100369642D01*
X214598214Y-99560119D02*
X214550595Y-99512500D01*
X214455357Y-99464880D01*
X214217261Y-99464880D01*
X214122023Y-99512500D01*
X214074404Y-99560119D01*
X214026785Y-99655357D01*
X214026785Y-99750595D01*
X214074404Y-99893452D01*
X214645833Y-100464880D01*
X214026785Y-100464880D01*
X150066071Y-62364880D02*
X150399404Y-61888690D01*
X150637500Y-62364880D02*
X150637500Y-61364880D01*
X150256547Y-61364880D01*
X150161309Y-61412500D01*
X150113690Y-61460119D01*
X150066071Y-61555357D01*
X150066071Y-61698214D01*
X150113690Y-61793452D01*
X150161309Y-61841071D01*
X150256547Y-61888690D01*
X150637500Y-61888690D01*
X149494642Y-62364880D02*
X149589880Y-62317261D01*
X149637500Y-62269642D01*
X149685119Y-62174404D01*
X149685119Y-61888690D01*
X149637500Y-61793452D01*
X149589880Y-61745833D01*
X149494642Y-61698214D01*
X149351785Y-61698214D01*
X149256547Y-61745833D01*
X149208928Y-61793452D01*
X149161309Y-61888690D01*
X149161309Y-62174404D01*
X149208928Y-62269642D01*
X149256547Y-62317261D01*
X149351785Y-62364880D01*
X149494642Y-62364880D01*
X148875595Y-61698214D02*
X148494642Y-61698214D01*
X148732738Y-61364880D02*
X148732738Y-62222023D01*
X148685119Y-62317261D01*
X148589880Y-62364880D01*
X148494642Y-62364880D01*
X147732738Y-62364880D02*
X147732738Y-61841071D01*
X147780357Y-61745833D01*
X147875595Y-61698214D01*
X148066071Y-61698214D01*
X148161309Y-61745833D01*
X147732738Y-62317261D02*
X147827976Y-62364880D01*
X148066071Y-62364880D01*
X148161309Y-62317261D01*
X148208928Y-62222023D01*
X148208928Y-62126785D01*
X148161309Y-62031547D01*
X148066071Y-61983928D01*
X147827976Y-61983928D01*
X147732738Y-61936309D01*
X147256547Y-62364880D02*
X147256547Y-61698214D01*
X147256547Y-61888690D02*
X147208928Y-61793452D01*
X147161309Y-61745833D01*
X147066071Y-61698214D01*
X146970833Y-61698214D01*
X146732738Y-61698214D02*
X146494642Y-62364880D01*
X146256547Y-61698214D02*
X146494642Y-62364880D01*
X146589880Y-62602976D01*
X146637500Y-62650595D01*
X146732738Y-62698214D01*
X145208928Y-61364880D02*
X144589880Y-61364880D01*
X144923214Y-61745833D01*
X144780357Y-61745833D01*
X144685119Y-61793452D01*
X144637500Y-61841071D01*
X144589880Y-61936309D01*
X144589880Y-62174404D01*
X144637500Y-62269642D01*
X144685119Y-62317261D01*
X144780357Y-62364880D01*
X145066071Y-62364880D01*
X145161309Y-62317261D01*
X145208928Y-62269642D01*
X218789285Y-100464880D02*
X219360714Y-100464880D01*
X219075000Y-100464880D02*
X219075000Y-99464880D01*
X219170238Y-99607738D01*
X219265476Y-99702976D01*
X219360714Y-99750595D01*
X138398214Y-99560119D02*
X138350595Y-99512500D01*
X138255357Y-99464880D01*
X138017261Y-99464880D01*
X137922023Y-99512500D01*
X137874404Y-99560119D01*
X137826785Y-99655357D01*
X137826785Y-99750595D01*
X137874404Y-99893452D01*
X138445833Y-100464880D01*
X137826785Y-100464880D01*
X139350595Y-77287380D02*
X139683928Y-76811190D01*
X139922023Y-77287380D02*
X139922023Y-76287380D01*
X139541071Y-76287380D01*
X139445833Y-76335000D01*
X139398214Y-76382619D01*
X139350595Y-76477857D01*
X139350595Y-76620714D01*
X139398214Y-76715952D01*
X139445833Y-76763571D01*
X139541071Y-76811190D01*
X139922023Y-76811190D01*
X138541071Y-77239761D02*
X138636309Y-77287380D01*
X138826785Y-77287380D01*
X138922023Y-77239761D01*
X138969642Y-77144523D01*
X138969642Y-76763571D01*
X138922023Y-76668333D01*
X138826785Y-76620714D01*
X138636309Y-76620714D01*
X138541071Y-76668333D01*
X138493452Y-76763571D01*
X138493452Y-76858809D01*
X138969642Y-76954047D01*
X138112500Y-77239761D02*
X138017261Y-77287380D01*
X137826785Y-77287380D01*
X137731547Y-77239761D01*
X137683928Y-77144523D01*
X137683928Y-77096904D01*
X137731547Y-77001666D01*
X137826785Y-76954047D01*
X137969642Y-76954047D01*
X138064880Y-76906428D01*
X138112500Y-76811190D01*
X138112500Y-76763571D01*
X138064880Y-76668333D01*
X137969642Y-76620714D01*
X137826785Y-76620714D01*
X137731547Y-76668333D01*
X136874404Y-77239761D02*
X136969642Y-77287380D01*
X137160119Y-77287380D01*
X137255357Y-77239761D01*
X137302976Y-77144523D01*
X137302976Y-76763571D01*
X137255357Y-76668333D01*
X137160119Y-76620714D01*
X136969642Y-76620714D01*
X136874404Y-76668333D01*
X136826785Y-76763571D01*
X136826785Y-76858809D01*
X137302976Y-76954047D01*
X136541071Y-76620714D02*
X136160119Y-76620714D01*
X136398214Y-76287380D02*
X136398214Y-77144523D01*
X136350595Y-77239761D01*
X136255357Y-77287380D01*
X136160119Y-77287380D01*
X197627571Y-124277380D02*
X197960904Y-123801190D01*
X198199000Y-124277380D02*
X198199000Y-123277380D01*
X197818047Y-123277380D01*
X197722809Y-123325000D01*
X197675190Y-123372619D01*
X197627571Y-123467857D01*
X197627571Y-123610714D01*
X197675190Y-123705952D01*
X197722809Y-123753571D01*
X197818047Y-123801190D01*
X198199000Y-123801190D01*
X197056142Y-124277380D02*
X197151380Y-124229761D01*
X197199000Y-124182142D01*
X197246619Y-124086904D01*
X197246619Y-123801190D01*
X197199000Y-123705952D01*
X197151380Y-123658333D01*
X197056142Y-123610714D01*
X196913285Y-123610714D01*
X196818047Y-123658333D01*
X196770428Y-123705952D01*
X196722809Y-123801190D01*
X196722809Y-124086904D01*
X196770428Y-124182142D01*
X196818047Y-124229761D01*
X196913285Y-124277380D01*
X197056142Y-124277380D01*
X196437095Y-123610714D02*
X196056142Y-123610714D01*
X196294238Y-123277380D02*
X196294238Y-124134523D01*
X196246619Y-124229761D01*
X196151380Y-124277380D01*
X196056142Y-124277380D01*
X195294238Y-124277380D02*
X195294238Y-123753571D01*
X195341857Y-123658333D01*
X195437095Y-123610714D01*
X195627571Y-123610714D01*
X195722809Y-123658333D01*
X195294238Y-124229761D02*
X195389476Y-124277380D01*
X195627571Y-124277380D01*
X195722809Y-124229761D01*
X195770428Y-124134523D01*
X195770428Y-124039285D01*
X195722809Y-123944047D01*
X195627571Y-123896428D01*
X195389476Y-123896428D01*
X195294238Y-123848809D01*
X194818047Y-124277380D02*
X194818047Y-123610714D01*
X194818047Y-123801190D02*
X194770428Y-123705952D01*
X194722809Y-123658333D01*
X194627571Y-123610714D01*
X194532333Y-123610714D01*
X194294238Y-123610714D02*
X194056142Y-124277380D01*
X193818047Y-123610714D02*
X194056142Y-124277380D01*
X194151380Y-124515476D01*
X194199000Y-124563095D01*
X194294238Y-124610714D01*
X192722809Y-123372619D02*
X192675190Y-123325000D01*
X192579952Y-123277380D01*
X192341857Y-123277380D01*
X192246619Y-123325000D01*
X192199000Y-123372619D01*
X192151380Y-123467857D01*
X192151380Y-123563095D01*
X192199000Y-123705952D01*
X192770428Y-124277380D01*
X192151380Y-124277380D01*
X243220833Y-99464880D02*
X242601785Y-99464880D01*
X242935119Y-99845833D01*
X242792261Y-99845833D01*
X242697023Y-99893452D01*
X242649404Y-99941071D01*
X242601785Y-100036309D01*
X242601785Y-100274404D01*
X242649404Y-100369642D01*
X242697023Y-100417261D01*
X242792261Y-100464880D01*
X243077976Y-100464880D01*
X243173214Y-100417261D01*
X243220833Y-100369642D01*
X264302571Y-62364880D02*
X264635904Y-61888690D01*
X264874000Y-62364880D02*
X264874000Y-61364880D01*
X264493047Y-61364880D01*
X264397809Y-61412500D01*
X264350190Y-61460119D01*
X264302571Y-61555357D01*
X264302571Y-61698214D01*
X264350190Y-61793452D01*
X264397809Y-61841071D01*
X264493047Y-61888690D01*
X264874000Y-61888690D01*
X263731142Y-62364880D02*
X263826380Y-62317261D01*
X263874000Y-62269642D01*
X263921619Y-62174404D01*
X263921619Y-61888690D01*
X263874000Y-61793452D01*
X263826380Y-61745833D01*
X263731142Y-61698214D01*
X263588285Y-61698214D01*
X263493047Y-61745833D01*
X263445428Y-61793452D01*
X263397809Y-61888690D01*
X263397809Y-62174404D01*
X263445428Y-62269642D01*
X263493047Y-62317261D01*
X263588285Y-62364880D01*
X263731142Y-62364880D01*
X263112095Y-61698214D02*
X262731142Y-61698214D01*
X262969238Y-61364880D02*
X262969238Y-62222023D01*
X262921619Y-62317261D01*
X262826380Y-62364880D01*
X262731142Y-62364880D01*
X261969238Y-62364880D02*
X261969238Y-61841071D01*
X262016857Y-61745833D01*
X262112095Y-61698214D01*
X262302571Y-61698214D01*
X262397809Y-61745833D01*
X261969238Y-62317261D02*
X262064476Y-62364880D01*
X262302571Y-62364880D01*
X262397809Y-62317261D01*
X262445428Y-62222023D01*
X262445428Y-62126785D01*
X262397809Y-62031547D01*
X262302571Y-61983928D01*
X262064476Y-61983928D01*
X261969238Y-61936309D01*
X261493047Y-62364880D02*
X261493047Y-61698214D01*
X261493047Y-61888690D02*
X261445428Y-61793452D01*
X261397809Y-61745833D01*
X261302571Y-61698214D01*
X261207333Y-61698214D01*
X260969238Y-61698214D02*
X260731142Y-62364880D01*
X260493047Y-61698214D02*
X260731142Y-62364880D01*
X260826380Y-62602976D01*
X260874000Y-62650595D01*
X260969238Y-62698214D01*
X259397809Y-61460119D02*
X259350190Y-61412500D01*
X259254952Y-61364880D01*
X259016857Y-61364880D01*
X258921619Y-61412500D01*
X258874000Y-61460119D01*
X258826380Y-61555357D01*
X258826380Y-61650595D01*
X258874000Y-61793452D01*
X259445428Y-62364880D01*
X258826380Y-62364880D01*
X207247952Y-110815380D02*
X207247952Y-110291571D01*
X207295571Y-110196333D01*
X207390809Y-110148714D01*
X207581285Y-110148714D01*
X207676523Y-110196333D01*
X207247952Y-110767761D02*
X207343190Y-110815380D01*
X207581285Y-110815380D01*
X207676523Y-110767761D01*
X207724142Y-110672523D01*
X207724142Y-110577285D01*
X207676523Y-110482047D01*
X207581285Y-110434428D01*
X207343190Y-110434428D01*
X207247952Y-110386809D01*
X206343190Y-110148714D02*
X206343190Y-110815380D01*
X206771761Y-110148714D02*
X206771761Y-110672523D01*
X206724142Y-110767761D01*
X206628904Y-110815380D01*
X206486047Y-110815380D01*
X206390809Y-110767761D01*
X206343190Y-110720142D01*
X205438428Y-110815380D02*
X205438428Y-109815380D01*
X205438428Y-110767761D02*
X205533666Y-110815380D01*
X205724142Y-110815380D01*
X205819380Y-110767761D01*
X205867000Y-110720142D01*
X205914619Y-110624904D01*
X205914619Y-110339190D01*
X205867000Y-110243952D01*
X205819380Y-110196333D01*
X205724142Y-110148714D01*
X205533666Y-110148714D01*
X205438428Y-110196333D01*
X204962238Y-110815380D02*
X204962238Y-110148714D01*
X204962238Y-109815380D02*
X205009857Y-109863000D01*
X204962238Y-109910619D01*
X204914619Y-109863000D01*
X204962238Y-109815380D01*
X204962238Y-109910619D01*
X204343190Y-110815380D02*
X204438428Y-110767761D01*
X204486047Y-110720142D01*
X204533666Y-110624904D01*
X204533666Y-110339190D01*
X204486047Y-110243952D01*
X204438428Y-110196333D01*
X204343190Y-110148714D01*
X204200333Y-110148714D01*
X204105095Y-110196333D01*
X204057476Y-110243952D01*
X204009857Y-110339190D01*
X204009857Y-110624904D01*
X204057476Y-110720142D01*
X204105095Y-110767761D01*
X204200333Y-110815380D01*
X204343190Y-110815380D01*
X157448214Y-99560119D02*
X157400595Y-99512500D01*
X157305357Y-99464880D01*
X157067261Y-99464880D01*
X156972023Y-99512500D01*
X156924404Y-99560119D01*
X156876785Y-99655357D01*
X156876785Y-99750595D01*
X156924404Y-99893452D01*
X157495833Y-100464880D01*
X156876785Y-100464880D01*
X150129571Y-102052380D02*
X150462904Y-101576190D01*
X150701000Y-102052380D02*
X150701000Y-101052380D01*
X150320047Y-101052380D01*
X150224809Y-101100000D01*
X150177190Y-101147619D01*
X150129571Y-101242857D01*
X150129571Y-101385714D01*
X150177190Y-101480952D01*
X150224809Y-101528571D01*
X150320047Y-101576190D01*
X150701000Y-101576190D01*
X149558142Y-102052380D02*
X149653380Y-102004761D01*
X149701000Y-101957142D01*
X149748619Y-101861904D01*
X149748619Y-101576190D01*
X149701000Y-101480952D01*
X149653380Y-101433333D01*
X149558142Y-101385714D01*
X149415285Y-101385714D01*
X149320047Y-101433333D01*
X149272428Y-101480952D01*
X149224809Y-101576190D01*
X149224809Y-101861904D01*
X149272428Y-101957142D01*
X149320047Y-102004761D01*
X149415285Y-102052380D01*
X149558142Y-102052380D01*
X148939095Y-101385714D02*
X148558142Y-101385714D01*
X148796238Y-101052380D02*
X148796238Y-101909523D01*
X148748619Y-102004761D01*
X148653380Y-102052380D01*
X148558142Y-102052380D01*
X147796238Y-102052380D02*
X147796238Y-101528571D01*
X147843857Y-101433333D01*
X147939095Y-101385714D01*
X148129571Y-101385714D01*
X148224809Y-101433333D01*
X147796238Y-102004761D02*
X147891476Y-102052380D01*
X148129571Y-102052380D01*
X148224809Y-102004761D01*
X148272428Y-101909523D01*
X148272428Y-101814285D01*
X148224809Y-101719047D01*
X148129571Y-101671428D01*
X147891476Y-101671428D01*
X147796238Y-101623809D01*
X147320047Y-102052380D02*
X147320047Y-101385714D01*
X147320047Y-101576190D02*
X147272428Y-101480952D01*
X147224809Y-101433333D01*
X147129571Y-101385714D01*
X147034333Y-101385714D01*
X146796238Y-101385714D02*
X146558142Y-102052380D01*
X146320047Y-101385714D02*
X146558142Y-102052380D01*
X146653380Y-102290476D01*
X146701000Y-102338095D01*
X146796238Y-102385714D01*
X144701000Y-101052380D02*
X145177190Y-101052380D01*
X145224809Y-101528571D01*
X145177190Y-101480952D01*
X145081952Y-101433333D01*
X144843857Y-101433333D01*
X144748619Y-101480952D01*
X144701000Y-101528571D01*
X144653380Y-101623809D01*
X144653380Y-101861904D01*
X144701000Y-101957142D01*
X144748619Y-102004761D01*
X144843857Y-102052380D01*
X145081952Y-102052380D01*
X145177190Y-102004761D01*
X145224809Y-101957142D01*
X114014285Y-100464880D02*
X114585714Y-100464880D01*
X114300000Y-100464880D02*
X114300000Y-99464880D01*
X114395238Y-99607738D01*
X114490476Y-99702976D01*
X114585714Y-99750595D01*
X186070833Y-99464880D02*
X185451785Y-99464880D01*
X185785119Y-99845833D01*
X185642261Y-99845833D01*
X185547023Y-99893452D01*
X185499404Y-99941071D01*
X185451785Y-100036309D01*
X185451785Y-100274404D01*
X185499404Y-100369642D01*
X185547023Y-100417261D01*
X185642261Y-100464880D01*
X185927976Y-100464880D01*
X186023214Y-100417261D01*
X186070833Y-100369642D01*
X71770833Y-99464880D02*
X71151785Y-99464880D01*
X71485119Y-99845833D01*
X71342261Y-99845833D01*
X71247023Y-99893452D01*
X71199404Y-99941071D01*
X71151785Y-100036309D01*
X71151785Y-100274404D01*
X71199404Y-100369642D01*
X71247023Y-100417261D01*
X71342261Y-100464880D01*
X71627976Y-100464880D01*
X71723214Y-100417261D01*
X71770833Y-100369642D01*
X237839285Y-100464880D02*
X238410714Y-100464880D01*
X238125000Y-100464880D02*
X238125000Y-99464880D01*
X238220238Y-99607738D01*
X238315476Y-99702976D01*
X238410714Y-99750595D01*
X195548214Y-99560119D02*
X195500595Y-99512500D01*
X195405357Y-99464880D01*
X195167261Y-99464880D01*
X195072023Y-99512500D01*
X195024404Y-99560119D01*
X194976785Y-99655357D01*
X194976785Y-99750595D01*
X195024404Y-99893452D01*
X195595833Y-100464880D01*
X194976785Y-100464880D01*
X62198214Y-99560119D02*
X62150595Y-99512500D01*
X62055357Y-99464880D01*
X61817261Y-99464880D01*
X61722023Y-99512500D01*
X61674404Y-99560119D01*
X61626785Y-99655357D01*
X61626785Y-99750595D01*
X61674404Y-99893452D01*
X62245833Y-100464880D01*
X61626785Y-100464880D01*
X75914285Y-100464880D02*
X76485714Y-100464880D01*
X76200000Y-100464880D02*
X76200000Y-99464880D01*
X76295238Y-99607738D01*
X76390476Y-99702976D01*
X76485714Y-99750595D01*
X205120833Y-99464880D02*
X204501785Y-99464880D01*
X204835119Y-99845833D01*
X204692261Y-99845833D01*
X204597023Y-99893452D01*
X204549404Y-99941071D01*
X204501785Y-100036309D01*
X204501785Y-100274404D01*
X204549404Y-100369642D01*
X204597023Y-100417261D01*
X204692261Y-100464880D01*
X204977976Y-100464880D01*
X205073214Y-100417261D01*
X205120833Y-100369642D01*
X224170833Y-99464880D02*
X223551785Y-99464880D01*
X223885119Y-99845833D01*
X223742261Y-99845833D01*
X223647023Y-99893452D01*
X223599404Y-99941071D01*
X223551785Y-100036309D01*
X223551785Y-100274404D01*
X223599404Y-100369642D01*
X223647023Y-100417261D01*
X223742261Y-100464880D01*
X224027976Y-100464880D01*
X224123214Y-100417261D01*
X224170833Y-100369642D01*
%TO.C,D_PWR1*%
X44489880Y-60809523D02*
X43489880Y-60809523D01*
X43489880Y-61047619D01*
X43537500Y-61190476D01*
X43632738Y-61285714D01*
X43727976Y-61333333D01*
X43918452Y-61380952D01*
X44061309Y-61380952D01*
X44251785Y-61333333D01*
X44347023Y-61285714D01*
X44442261Y-61190476D01*
X44489880Y-61047619D01*
X44489880Y-60809523D01*
X44585119Y-61571428D02*
X44585119Y-62333333D01*
X44489880Y-62571428D02*
X43489880Y-62571428D01*
X43489880Y-62952380D01*
X43537500Y-63047619D01*
X43585119Y-63095238D01*
X43680357Y-63142857D01*
X43823214Y-63142857D01*
X43918452Y-63095238D01*
X43966071Y-63047619D01*
X44013690Y-62952380D01*
X44013690Y-62571428D01*
X43489880Y-63476190D02*
X44489880Y-63714285D01*
X43775595Y-63904761D01*
X44489880Y-64095238D01*
X43489880Y-64333333D01*
X44489880Y-65285714D02*
X44013690Y-64952380D01*
X44489880Y-64714285D02*
X43489880Y-64714285D01*
X43489880Y-65095238D01*
X43537500Y-65190476D01*
X43585119Y-65238095D01*
X43680357Y-65285714D01*
X43823214Y-65285714D01*
X43918452Y-65238095D01*
X43966071Y-65190476D01*
X44013690Y-65095238D01*
X44013690Y-64714285D01*
X44489880Y-66238095D02*
X44489880Y-65666666D01*
X44489880Y-65952380D02*
X43489880Y-65952380D01*
X43632738Y-65857142D01*
X43727976Y-65761904D01*
X43775595Y-65666666D01*
%TO.C,OL1*%
X148944642Y-88534142D02*
X148773214Y-88534142D01*
X148687500Y-88577000D01*
X148601785Y-88662714D01*
X148558928Y-88834142D01*
X148558928Y-89134142D01*
X148601785Y-89305571D01*
X148687500Y-89391285D01*
X148773214Y-89434142D01*
X148944642Y-89434142D01*
X149030357Y-89391285D01*
X149116071Y-89305571D01*
X149158928Y-89134142D01*
X149158928Y-88834142D01*
X149116071Y-88662714D01*
X149030357Y-88577000D01*
X148944642Y-88534142D01*
X147744642Y-89434142D02*
X148173214Y-89434142D01*
X148173214Y-88534142D01*
X147444642Y-88962714D02*
X147144642Y-88962714D01*
X147016071Y-89434142D02*
X147444642Y-89434142D01*
X147444642Y-88534142D01*
X147016071Y-88534142D01*
X146630357Y-89434142D02*
X146630357Y-88534142D01*
X146416071Y-88534142D01*
X146287500Y-88577000D01*
X146201785Y-88662714D01*
X146158928Y-88748428D01*
X146116071Y-88919857D01*
X146116071Y-89048428D01*
X146158928Y-89219857D01*
X146201785Y-89305571D01*
X146287500Y-89391285D01*
X146416071Y-89434142D01*
X146630357Y-89434142D01*
D11*
%TO.C,D_PWR1*%
X47037500Y-61250000D02*
X47037500Y-65150000D01*
X45037500Y-61250000D02*
X47037500Y-61250000D01*
X45037500Y-61250000D02*
X45037500Y-65150000D01*
%TO.C,J2*%
X158492500Y-65405000D02*
X158492500Y-75625000D01*
X158492500Y-62805000D02*
X158492500Y-64135000D01*
X155832500Y-65405000D02*
X155832500Y-75625000D01*
X155832500Y-75625000D02*
X158492500Y-75625000D01*
X157162500Y-62805000D02*
X158492500Y-62805000D01*
X155832500Y-65405000D02*
X158492500Y-65405000D01*
%TO.C,D32*%
X187912500Y-79987500D02*
X187912500Y-76137500D01*
X189912500Y-79987500D02*
X187912500Y-79987500D01*
X189912500Y-79987500D02*
X189912500Y-76137500D01*
%TO.C,SW27*%
X78760000Y-72600000D02*
X81260000Y-72600000D01*
X78760000Y-67100000D02*
X81260000Y-67100000D01*
X82760000Y-70850000D02*
X82760000Y-68850000D01*
X81710000Y-67550000D02*
X81260000Y-67100000D01*
X78310000Y-72150000D02*
X78760000Y-72600000D01*
X77260000Y-70850000D02*
X77260000Y-68850000D01*
X78310000Y-67550000D02*
X78760000Y-67100000D01*
X81710000Y-72150000D02*
X81260000Y-72600000D01*
%TO.C,LED2*%
G36*
X145437500Y-106550000D02*
G01*
X144837500Y-106550000D01*
X145437500Y-105950000D01*
X145437500Y-106550000D01*
G37*
D12*
X145437500Y-106550000D02*
X144837500Y-106550000D01*
X145437500Y-105950000D01*
X145437500Y-106550000D01*
D11*
%TO.C,D2*%
X37512500Y-78781000D02*
X35512500Y-78781000D01*
X35512500Y-78781000D02*
X35512500Y-74931000D01*
X37512500Y-78781000D02*
X37512500Y-74931000D01*
%TO.C,R7*%
X42850800Y-90323641D02*
X42850800Y-90016359D01*
X43610800Y-90323641D02*
X43610800Y-90016359D01*
%TO.C,LED8*%
G36*
X245364000Y-67675000D02*
G01*
X244864000Y-67675000D01*
X244864000Y-65675000D01*
X245364000Y-65675000D01*
X245364000Y-67675000D01*
G37*
%TO.C,C22*%
X85577000Y-66782836D02*
X85577000Y-66567164D01*
X84857000Y-66782836D02*
X84857000Y-66567164D01*
%TO.C,D11*%
X85137500Y-102212500D02*
X83137500Y-102212500D01*
X83137500Y-102212500D02*
X83137500Y-98362500D01*
X85137500Y-102212500D02*
X85137500Y-98362500D01*
%TO.C,C2*%
X48264400Y-90011364D02*
X48264400Y-90227036D01*
X47544400Y-90011364D02*
X47544400Y-90227036D01*
%TO.C,D9*%
X73612500Y-60937500D02*
X73612500Y-57087500D01*
X75612500Y-60937500D02*
X73612500Y-60937500D01*
X75612500Y-60937500D02*
X75612500Y-57087500D01*
%TO.C,D50*%
X155686000Y-102149000D02*
X155686000Y-98299000D01*
X153686000Y-102149000D02*
X153686000Y-98299000D01*
X155686000Y-102149000D02*
X153686000Y-102149000D01*
%TO.C,D7*%
X66087500Y-102212500D02*
X64087500Y-102212500D01*
X66087500Y-102212500D02*
X66087500Y-98362500D01*
X64087500Y-102212500D02*
X64087500Y-98362500D01*
%TO.C,LED15*%
G36*
X87806288Y-107362500D02*
G01*
X87306288Y-107362500D01*
X87306288Y-105362500D01*
X87806288Y-105362500D01*
X87806288Y-107362500D01*
G37*
%TO.C,SW38*%
X101712500Y-72150000D02*
X101262500Y-72600000D01*
X102762500Y-68850000D02*
X102762500Y-70850000D01*
X101712500Y-67550000D02*
X101262500Y-67100000D01*
X101262500Y-72600000D02*
X98762500Y-72600000D01*
X97262500Y-68850000D02*
X97262500Y-70850000D01*
X98312500Y-67550000D02*
X98762500Y-67100000D01*
X98312500Y-72150000D02*
X98762500Y-72600000D01*
X101262500Y-67100000D02*
X98762500Y-67100000D01*
%TO.C,C10*%
X40432400Y-77958836D02*
X40432400Y-77743164D01*
X41152400Y-77958836D02*
X41152400Y-77743164D01*
%TO.C,C14*%
X42524000Y-93646164D02*
X42524000Y-93861836D01*
X41804000Y-93646164D02*
X41804000Y-93861836D01*
%TO.C,D24*%
X151812500Y-124437500D02*
X151812500Y-120587500D01*
X151812500Y-124437500D02*
X149812500Y-124437500D01*
X149812500Y-124437500D02*
X149812500Y-120587500D01*
%TO.C,UR1*%
X160110436Y-67251250D02*
X160564564Y-67251250D01*
X160110436Y-65781250D02*
X160564564Y-65781250D01*
%TO.C,D42*%
X240712500Y-62525000D02*
X238712500Y-62525000D01*
X238712500Y-62525000D02*
X238712500Y-58675000D01*
X240712500Y-62525000D02*
X240712500Y-58675000D01*
%TO.C,D44*%
X247062500Y-102212500D02*
X245062500Y-102212500D01*
X245062500Y-102212500D02*
X245062500Y-98362500D01*
X247062500Y-102212500D02*
X247062500Y-98362500D01*
%TO.C,C20*%
X49805000Y-106254664D02*
X49805000Y-106470336D01*
X50525000Y-106254664D02*
X50525000Y-106470336D01*
%TO.C,C21*%
X49805000Y-66782836D02*
X49805000Y-66567164D01*
X50525000Y-66782836D02*
X50525000Y-66567164D01*
%TO.C,D5*%
X59325000Y-60937500D02*
X59325000Y-57087500D01*
X61325000Y-60937500D02*
X61325000Y-57087500D01*
X61325000Y-60937500D02*
X59325000Y-60937500D01*
%TO.C,D23*%
X137112500Y-124437500D02*
X137112500Y-120587500D01*
X139112500Y-124437500D02*
X139112500Y-120587500D01*
X139112500Y-124437500D02*
X137112500Y-124437500D01*
%TO.C,D49*%
X261350000Y-118087500D02*
X259350000Y-118087500D01*
X261350000Y-118087500D02*
X261350000Y-114237500D01*
X259350000Y-118087500D02*
X259350000Y-114237500D01*
%TO.C,C1*%
X45630921Y-94636000D02*
X45415249Y-94636000D01*
X45630921Y-95356000D02*
X45415249Y-95356000D01*
%TO.C,D25*%
X149812500Y-60937500D02*
X149812500Y-57087500D01*
X151812500Y-60937500D02*
X149812500Y-60937500D01*
X151812500Y-60937500D02*
X151812500Y-57087500D01*
%TO.C,C5*%
X35930251Y-69546697D02*
X35930251Y-69331025D01*
X36650251Y-69546697D02*
X36650251Y-69331025D01*
%TO.C,D13*%
X94662500Y-60937500D02*
X92662500Y-60937500D01*
X92662500Y-60937500D02*
X92662500Y-57087500D01*
X94662500Y-60937500D02*
X94662500Y-57087500D01*
%TO.C,D39*%
X232775000Y-79987500D02*
X230775000Y-79987500D01*
X232775000Y-79987500D02*
X232775000Y-76137500D01*
X230775000Y-79987500D02*
X230775000Y-76137500D01*
%TO.C,C18*%
X160598752Y-69632500D02*
X160076248Y-69632500D01*
X160598752Y-68162500D02*
X160076248Y-68162500D01*
%TO.C,C19*%
X29366800Y-91039836D02*
X29366800Y-90824164D01*
X28646800Y-91039836D02*
X28646800Y-90824164D01*
%TO.C,D19*%
X110918750Y-124437500D02*
X110918750Y-120587500D01*
X112918750Y-124437500D02*
X110918750Y-124437500D01*
X112918750Y-124437500D02*
X112918750Y-120587500D01*
%TO.C,LED4*%
G36*
X87306288Y-67675000D02*
G01*
X86806288Y-67675000D01*
X86806288Y-65675000D01*
X87306288Y-65675000D01*
X87306288Y-67675000D01*
G37*
%TO.C,U5*%
X31953200Y-92492000D02*
X32753200Y-92492000D01*
X31953200Y-89372000D02*
X31153200Y-89372000D01*
X31953200Y-92492000D02*
X31153200Y-92492000D01*
X31953200Y-89372000D02*
X33753200Y-89372000D01*
%TO.C,Y1*%
X47129600Y-94339736D02*
X43829600Y-94339736D01*
X43829600Y-94339736D02*
X43829600Y-90339736D01*
%TO.C,U3*%
X41247500Y-69056250D02*
X41247500Y-68406250D01*
X38127500Y-69056250D02*
X38127500Y-69706250D01*
X38127500Y-69056250D02*
X38127500Y-68406250D01*
X41247500Y-69056250D02*
X41247500Y-70731250D01*
%TO.C,C16*%
X37600836Y-79815193D02*
X37385164Y-79815193D01*
X37600836Y-80535193D02*
X37385164Y-80535193D01*
%TO.C,D46*%
X266112500Y-60937500D02*
X264112500Y-60937500D01*
X266112500Y-60937500D02*
X266112500Y-57087500D01*
X264112500Y-60937500D02*
X264112500Y-57087500D01*
%TO.C,D21*%
X130762500Y-79987500D02*
X130762500Y-76137500D01*
X132762500Y-79987500D02*
X130762500Y-79987500D01*
X132762500Y-79987500D02*
X132762500Y-76137500D01*
%TO.C,C13*%
X49422164Y-84857000D02*
X49637836Y-84857000D01*
X49422164Y-85577000D02*
X49637836Y-85577000D01*
%TO.C,C29*%
X174900000Y-106254664D02*
X174900000Y-106470336D01*
X175620000Y-106254664D02*
X175620000Y-106470336D01*
%TO.C,D48*%
X265033000Y-102530000D02*
X265033000Y-98680000D01*
X265033000Y-102530000D02*
X263033000Y-102530000D01*
X263033000Y-102530000D02*
X263033000Y-98680000D01*
%TO.C,D40*%
X228012500Y-102212500D02*
X228012500Y-98362500D01*
X228012500Y-102212500D02*
X226012500Y-102212500D01*
X226012500Y-102212500D02*
X226012500Y-98362500D01*
%TO.C,D35*%
X208962500Y-60937500D02*
X206962500Y-60937500D01*
X206962500Y-60937500D02*
X206962500Y-57087500D01*
X208962500Y-60937500D02*
X208962500Y-57087500D01*
%TO.C,LED13*%
G36*
X173537500Y-107362500D02*
G01*
X173037500Y-107362500D01*
X173037500Y-105362500D01*
X173537500Y-105362500D01*
X173537500Y-107362500D01*
G37*
%TO.C,LED6*%
G36*
X173037500Y-67675000D02*
G01*
X172537500Y-67675000D01*
X172537500Y-65675000D01*
X173037500Y-65675000D01*
X173037500Y-67675000D01*
G37*
%TO.C,D26*%
X149812500Y-79987500D02*
X149812500Y-76137500D01*
X151812500Y-79987500D02*
X149812500Y-79987500D01*
X151812500Y-79987500D02*
X151812500Y-76137500D01*
%TO.C,R3*%
X135070520Y-72871359D02*
X135070520Y-73178641D01*
X135830520Y-72871359D02*
X135830520Y-73178641D01*
%TO.C,D22*%
X141462000Y-102212500D02*
X141462000Y-98362500D01*
X141462000Y-102212500D02*
X139462000Y-102212500D01*
X139462000Y-102212500D02*
X139462000Y-98362500D01*
%TO.C,D14*%
X94662500Y-79987500D02*
X92662500Y-79987500D01*
X94662500Y-79987500D02*
X94662500Y-76137500D01*
X92662500Y-79987500D02*
X92662500Y-76137500D01*
%TO.C,LED3*%
G36*
X178775000Y-106550000D02*
G01*
X178175000Y-106550000D01*
X178775000Y-105950000D01*
X178775000Y-106550000D01*
G37*
D12*
X178775000Y-106550000D02*
X178175000Y-106550000D01*
X178775000Y-105950000D01*
X178775000Y-106550000D01*
D11*
%TO.C,UR2*%
X160110436Y-64870000D02*
X160564564Y-64870000D01*
X160110436Y-63400000D02*
X160564564Y-63400000D01*
%TO.C,C7*%
X39858836Y-79015000D02*
X39643164Y-79015000D01*
X39858836Y-79735000D02*
X39643164Y-79735000D01*
%TO.C,C15*%
X42977467Y-76844479D02*
X42977467Y-76628807D01*
X42257467Y-76844479D02*
X42257467Y-76628807D01*
%TO.C,R2*%
X40337163Y-73051580D02*
X40337163Y-73526096D01*
X41382163Y-73051580D02*
X41382163Y-73526096D01*
%TO.C,R6*%
X74799140Y-68332227D02*
X74491858Y-68332227D01*
X74799140Y-67572227D02*
X74491858Y-67572227D01*
%TO.C,D36*%
X206962500Y-79987500D02*
X206962500Y-76137500D01*
X208962500Y-79987500D02*
X206962500Y-79987500D01*
X208962500Y-79987500D02*
X208962500Y-76137500D01*
%TO.C,D6*%
X56562500Y-79987500D02*
X54562500Y-79987500D01*
X54562500Y-79987500D02*
X54562500Y-76137500D01*
X56562500Y-79987500D02*
X56562500Y-76137500D01*
%TO.C,U2*%
X65082000Y-67125000D02*
X65082000Y-67385000D01*
X62357000Y-72575000D02*
X59632000Y-72575000D01*
X62357000Y-72575000D02*
X65082000Y-72575000D01*
X65082000Y-67385000D02*
X66757000Y-67385000D01*
X65082000Y-72575000D02*
X65082000Y-72315000D01*
X59632000Y-67125000D02*
X59632000Y-67385000D01*
X62357000Y-67125000D02*
X59632000Y-67125000D01*
X62357000Y-67125000D02*
X65082000Y-67125000D01*
X59632000Y-72575000D02*
X59632000Y-72315000D01*
%TO.C,C3*%
X55986000Y-67608336D02*
X55986000Y-67392664D01*
X55266000Y-67608336D02*
X55266000Y-67392664D01*
%TO.C,C8*%
X37600836Y-80754807D02*
X37385164Y-80754807D01*
X37600836Y-81474807D02*
X37385164Y-81474807D01*
%TO.C,D37*%
X208962500Y-102212500D02*
X206962500Y-102212500D01*
X208962500Y-102212500D02*
X208962500Y-98362500D01*
X206962500Y-102212500D02*
X206962500Y-98362500D01*
%TO.C,D38*%
X226012500Y-60937500D02*
X226012500Y-57087500D01*
X228012500Y-60937500D02*
X226012500Y-60937500D01*
X228012500Y-60937500D02*
X228012500Y-57087500D01*
%TO.C,R1*%
X42969663Y-73051580D02*
X42969663Y-73526096D01*
X41924663Y-73051580D02*
X41924663Y-73526096D01*
%TO.C,D31*%
X189912500Y-60937500D02*
X189912500Y-57087500D01*
X187912500Y-60937500D02*
X187912500Y-57087500D01*
X189912500Y-60937500D02*
X187912500Y-60937500D01*
%TO.C,C27*%
X247125799Y-106191164D02*
X247125799Y-106406836D01*
X247845799Y-106191164D02*
X247845799Y-106406836D01*
%TO.C,D47*%
X266112500Y-81575000D02*
X266112500Y-77725000D01*
X266112500Y-81575000D02*
X264112500Y-81575000D01*
X264112500Y-81575000D02*
X264112500Y-77725000D01*
%TO.C,C9*%
X43540000Y-93646164D02*
X43540000Y-93861836D01*
X42820000Y-93646164D02*
X42820000Y-93861836D01*
%TO.C,D20*%
X132762500Y-60937500D02*
X130762500Y-60937500D01*
X132762500Y-60937500D02*
X132762500Y-57087500D01*
X130762500Y-60937500D02*
X130762500Y-57087500D01*
%TO.C,U4*%
X44422500Y-63500000D02*
X44422500Y-65300000D01*
X41302500Y-63500000D02*
X41302500Y-62700000D01*
X41302500Y-63500000D02*
X41302500Y-64300000D01*
X44422500Y-63500000D02*
X44422500Y-62700000D01*
%TO.C,F1*%
X38333000Y-62770936D02*
X38333000Y-63975064D01*
X40153000Y-62770936D02*
X40153000Y-63975064D01*
%TO.C,C6*%
X37666250Y-69546697D02*
X37666250Y-69331025D01*
X36946250Y-69546697D02*
X36946250Y-69331025D01*
%TO.C,D17*%
X113712500Y-79987500D02*
X113712500Y-76137500D01*
X111712500Y-79987500D02*
X111712500Y-76137500D01*
X113712500Y-79987500D02*
X111712500Y-79987500D01*
%TO.C,C4*%
X40214664Y-65927306D02*
X40430336Y-65927306D01*
X40214664Y-66647306D02*
X40430336Y-66647306D01*
%TO.C,LED5*%
G36*
X122235676Y-67675000D02*
G01*
X121735676Y-67675000D01*
X121735676Y-65675000D01*
X122235676Y-65675000D01*
X122235676Y-67675000D01*
G37*
%TO.C,C24*%
X171302000Y-66782836D02*
X171302000Y-66567164D01*
X170582000Y-66782836D02*
X170582000Y-66567164D01*
%TO.C,D29*%
X170862500Y-102212500D02*
X168862500Y-102212500D01*
X170862500Y-102212500D02*
X170862500Y-98362500D01*
X168862500Y-102212500D02*
X168862500Y-98362500D01*
%TO.C,LED14*%
G36*
X122744832Y-107362500D02*
G01*
X122244832Y-107362500D01*
X122244832Y-105362500D01*
X122744832Y-105362500D01*
X122744832Y-107362500D01*
G37*
%TO.C,D8*%
X59325000Y-118087500D02*
X59325000Y-114237500D01*
X61325000Y-118087500D02*
X61325000Y-114237500D01*
X61325000Y-118087500D02*
X59325000Y-118087500D01*
%TO.C,C23*%
X119655000Y-66782836D02*
X119655000Y-66567164D01*
X120375000Y-66782836D02*
X120375000Y-66567164D01*
%TO.C,LED9*%
G36*
X245768750Y-107362500D02*
G01*
X245268750Y-107362500D01*
X245268750Y-105362500D01*
X245768750Y-105362500D01*
X245768750Y-107362500D01*
G37*
%TO.C,C26*%
X243438000Y-66567164D02*
X243438000Y-66782836D01*
X242718000Y-66567164D02*
X242718000Y-66782836D01*
%TO.C,R4*%
X41782000Y-58774359D02*
X41782000Y-59081641D01*
X41022000Y-58774359D02*
X41022000Y-59081641D01*
%TO.C,D41*%
X228012500Y-118087500D02*
X228012500Y-114237500D01*
X226012500Y-118087500D02*
X226012500Y-114237500D01*
X228012500Y-118087500D02*
X226012500Y-118087500D01*
%TO.C,D3*%
X40910000Y-102149000D02*
X40910000Y-98299000D01*
X42910000Y-102149000D02*
X40910000Y-102149000D01*
X42910000Y-102149000D02*
X42910000Y-98299000D01*
%TO.C,R5*%
X44705000Y-58774359D02*
X44705000Y-59081641D01*
X45465000Y-58774359D02*
X45465000Y-59081641D01*
%TO.C,C30*%
X124827332Y-106479769D02*
X124827332Y-106264097D01*
X124107332Y-106479769D02*
X124107332Y-106264097D01*
%TO.C,LED10*%
G36*
X52887500Y-107362500D02*
G01*
X52387500Y-107362500D01*
X52387500Y-105362500D01*
X52887500Y-105362500D01*
X52887500Y-107362500D01*
G37*
%TO.C,LED1*%
G36*
X112100000Y-106550000D02*
G01*
X111500000Y-106550000D01*
X112100000Y-105950000D01*
X112100000Y-106550000D01*
G37*
D12*
X112100000Y-106550000D02*
X111500000Y-106550000D01*
X112100000Y-105950000D01*
X112100000Y-106550000D01*
D11*
%TO.C,C28*%
X215222500Y-106232664D02*
X215222500Y-106448336D01*
X215942500Y-106232664D02*
X215942500Y-106448336D01*
%TO.C,LS1*%
X211477000Y-114973000D02*
X211477000Y-105753000D01*
X200257000Y-114973000D02*
X211477000Y-114973000D01*
X200257000Y-105753000D02*
X200257000Y-114973000D01*
X211477000Y-105753000D02*
X200257000Y-105753000D01*
%TO.C,D4*%
X45037500Y-118087500D02*
X45037500Y-114237500D01*
X47037500Y-118087500D02*
X45037500Y-118087500D01*
X47037500Y-118087500D02*
X47037500Y-114237500D01*
%TO.C,LED12*%
G36*
X213860000Y-107362500D02*
G01*
X213360000Y-107362500D01*
X213360000Y-105362500D01*
X213860000Y-105362500D01*
X213860000Y-107362500D01*
G37*
%TO.C,C31*%
X89888788Y-106232664D02*
X89888788Y-106448336D01*
X89168788Y-106232664D02*
X89168788Y-106448336D01*
%TO.C,C32*%
X120248000Y-110636164D02*
X120248000Y-110851836D01*
X119528000Y-110636164D02*
X119528000Y-110851836D01*
%TO.C,D1*%
X35512500Y-60937500D02*
X35512500Y-57087500D01*
X37512500Y-60937500D02*
X37512500Y-57087500D01*
X37512500Y-60937500D02*
X35512500Y-60937500D01*
%TO.C,LED7*%
G36*
X207956288Y-67675000D02*
G01*
X207456288Y-67675000D01*
X207456288Y-65675000D01*
X207956288Y-65675000D01*
X207956288Y-67675000D01*
G37*
%TO.C,D34*%
X182388000Y-124437500D02*
X182388000Y-120587500D01*
X184388000Y-124437500D02*
X184388000Y-120587500D01*
X184388000Y-124437500D02*
X182388000Y-124437500D01*
%TO.C,C11*%
X36937836Y-85510164D02*
X36722164Y-85510164D01*
X36937836Y-84790164D02*
X36722164Y-84790164D01*
%TO.C,D30*%
X180387500Y-124437500D02*
X178387500Y-124437500D01*
X180387500Y-124437500D02*
X180387500Y-120587500D01*
X178387500Y-124437500D02*
X178387500Y-120587500D01*
%TO.C,C12*%
X43993467Y-76844479D02*
X43993467Y-76628807D01*
X43273467Y-76844479D02*
X43273467Y-76628807D01*
%TO.C,D18*%
X121237500Y-102212500D02*
X121237500Y-98362500D01*
X123237500Y-102212500D02*
X123237500Y-98362500D01*
X123237500Y-102212500D02*
X121237500Y-102212500D01*
%TO.C,C34*%
X184552000Y-110636164D02*
X184552000Y-110851836D01*
X185272000Y-110636164D02*
X185272000Y-110851836D01*
%TO.C,D45*%
X240300000Y-118087500D02*
X240300000Y-114237500D01*
X242300000Y-118087500D02*
X240300000Y-118087500D01*
X242300000Y-118087500D02*
X242300000Y-114237500D01*
%TO.C,D33*%
X189912500Y-102212500D02*
X189912500Y-98362500D01*
X187912500Y-102212500D02*
X187912500Y-98362500D01*
X189912500Y-102212500D02*
X187912500Y-102212500D01*
%TO.C,D10*%
X73612500Y-79987500D02*
X73612500Y-76137500D01*
X75612500Y-79987500D02*
X75612500Y-76137500D01*
X75612500Y-79987500D02*
X73612500Y-79987500D01*
%TO.C,D27*%
X168862500Y-60937500D02*
X168862500Y-57087500D01*
X170862500Y-60937500D02*
X170862500Y-57087500D01*
X170862500Y-60937500D02*
X168862500Y-60937500D01*
%TO.C,C33*%
X151786000Y-110636164D02*
X151786000Y-110851836D01*
X152506000Y-110636164D02*
X152506000Y-110851836D01*
%TO.C,D12*%
X80375000Y-118087500D02*
X78375000Y-118087500D01*
X78375000Y-118087500D02*
X78375000Y-114237500D01*
X80375000Y-118087500D02*
X80375000Y-114237500D01*
%TO.C,D15*%
X104187500Y-102212500D02*
X102187500Y-102212500D01*
X102187500Y-102212500D02*
X102187500Y-98362500D01*
X104187500Y-102212500D02*
X104187500Y-98362500D01*
%TO.C,U1*%
X39902500Y-87748914D02*
X39252500Y-87748914D01*
X39252500Y-87748914D02*
X39252500Y-87098914D01*
X46472500Y-87748914D02*
X46472500Y-87098914D01*
X39902500Y-80528914D02*
X39252500Y-80528914D01*
X45822500Y-80528914D02*
X46472500Y-80528914D01*
X39252500Y-80528914D02*
X39252500Y-81178914D01*
X45822500Y-87748914D02*
X46472500Y-87748914D01*
%TO.C,D16*%
X113712500Y-60937500D02*
X113712500Y-57087500D01*
X111712500Y-60937500D02*
X111712500Y-57087500D01*
X113712500Y-60937500D02*
X111712500Y-60937500D01*
%TO.C,J1*%
X139404000Y-75595000D02*
X139404000Y-74265000D01*
X138074000Y-75595000D02*
X139404000Y-75595000D01*
X136744000Y-62775000D02*
X139404000Y-62775000D01*
X136744000Y-72995000D02*
X136744000Y-62775000D01*
X136744000Y-72995000D02*
X139404000Y-72995000D01*
X139404000Y-72995000D02*
X139404000Y-62775000D01*
%TO.C,D28*%
X170862500Y-79987500D02*
X168862500Y-79987500D01*
X168862500Y-79987500D02*
X168862500Y-76137500D01*
X170862500Y-79987500D02*
X170862500Y-76137500D01*
%TO.C,D43*%
X240712500Y-81575000D02*
X240712500Y-77725000D01*
X238712500Y-81575000D02*
X238712500Y-77725000D01*
X240712500Y-81575000D02*
X238712500Y-81575000D01*
%TO.C,UR3*%
X160564564Y-72013750D02*
X160110436Y-72013750D01*
X160564564Y-70543750D02*
X160110436Y-70543750D01*
%TO.C,LED11*%
G36*
X52387500Y-67675000D02*
G01*
X51887500Y-67675000D01*
X51887500Y-65675000D01*
X52387500Y-65675000D01*
X52387500Y-67675000D01*
G37*
%TO.C,C17*%
X47265000Y-80343836D02*
X47265000Y-80128164D01*
X47985000Y-80343836D02*
X47985000Y-80128164D01*
%TO.C,C25*%
X206100000Y-66567164D02*
X206100000Y-66782836D01*
X205380000Y-66567164D02*
X205380000Y-66782836D01*
%TD*%
%LPC*%
D13*
%TO.C,D_PWR1*%
X46037500Y-65150000D03*
X46037500Y-61850000D03*
%TD*%
D14*
%TO.C,SW30(ortho)1*%
X95567500Y-96820487D03*
D15*
X90487500Y-96820487D03*
D14*
X85407500Y-96820487D03*
D16*
X86677500Y-94280487D03*
X93027500Y-91740487D03*
%TD*%
D14*
%TO.C,SW12*%
X247967500Y-58737500D03*
D15*
X242887500Y-58737500D03*
D14*
X237807500Y-58737500D03*
D16*
X239077500Y-56197500D03*
X245427500Y-53657500D03*
%TD*%
D15*
%TO.C,SW31(ortho)1*%
X109537500Y-96820487D03*
D14*
X114617500Y-96820487D03*
X104457500Y-96820487D03*
D16*
X105727500Y-94280487D03*
X112077500Y-91740487D03*
%TD*%
D14*
%TO.C,SW43(1.75)1*%
X136062566Y-120635521D03*
X125902566Y-120635521D03*
D15*
X130982566Y-120635521D03*
D16*
X127172566Y-118095521D03*
X133522566Y-115555521D03*
%TD*%
D14*
%TO.C,SW48*%
X243205000Y-115887500D03*
X233045000Y-115887500D03*
D15*
X238125000Y-115887500D03*
D16*
X234315000Y-113347500D03*
X240665000Y-110807500D03*
%TD*%
D14*
%TO.C,SW33(1.5stagger)1*%
X152082500Y-96820487D03*
D15*
X157162500Y-96820487D03*
D14*
X162242500Y-96820487D03*
D16*
X153352500Y-94280487D03*
X159702500Y-91740487D03*
%TD*%
D17*
%TO.C,SW_rotary3*%
X153237500Y-58737500D03*
X142037500Y-58737500D03*
D18*
X145137500Y-66237500D03*
D19*
X150137500Y-66237500D03*
X147637500Y-66237500D03*
X150137500Y-51737500D03*
X145137500Y-51737500D03*
%TD*%
D14*
%TO.C,SW42(3)1*%
X124142500Y-120650000D03*
X113982500Y-120650000D03*
D15*
X119062500Y-120650000D03*
D20*
X138112500Y-127635000D03*
D15*
X100012500Y-112395000D03*
X138112500Y-112395000D03*
D20*
X100012500Y-127635000D03*
D16*
X115252500Y-118110000D03*
X121602500Y-115570000D03*
%TD*%
D14*
%TO.C,SW32(ortho)1*%
X133667500Y-96820487D03*
X123507500Y-96820487D03*
D15*
X128587500Y-96820487D03*
D16*
X124777500Y-94280487D03*
X131127500Y-91740487D03*
%TD*%
D15*
%TO.C,SW42(1)1*%
X100012500Y-120650000D03*
D14*
X105092500Y-120650000D03*
X94932500Y-120650000D03*
D16*
X96202500Y-118110000D03*
X102552500Y-115570000D03*
%TD*%
D14*
%TO.C,SW34(1.5stagger)1*%
X171132500Y-96820487D03*
D15*
X176212500Y-96820487D03*
D14*
X181292500Y-96820487D03*
D16*
X172402500Y-94280487D03*
X178752500Y-91740487D03*
%TD*%
D14*
%TO.C,SW21*%
X171767500Y-77787500D03*
D15*
X166687500Y-77787500D03*
D14*
X161607500Y-77787500D03*
D16*
X162877500Y-75247500D03*
X169227500Y-72707500D03*
%TD*%
D15*
%TO.C,SW28*%
X57150000Y-96820487D03*
D14*
X52070000Y-96820487D03*
X62230000Y-96820487D03*
D16*
X53340000Y-94280487D03*
X59690000Y-91740487D03*
%TD*%
D15*
%TO.C,SW8*%
X166687500Y-58737500D03*
D14*
X161607500Y-58737500D03*
X171767500Y-58737500D03*
D16*
X162877500Y-56197500D03*
X169227500Y-53657500D03*
%TD*%
D14*
%TO.C,SW28(1.5stagger)1*%
X66992500Y-96820487D03*
D15*
X61912500Y-96820487D03*
D14*
X56832500Y-96820487D03*
D16*
X58102500Y-94280487D03*
X64452500Y-91740487D03*
%TD*%
D14*
%TO.C,SW46(1.5)1*%
X195580000Y-120650000D03*
D15*
X190500000Y-120650000D03*
D14*
X185420000Y-120650000D03*
D16*
X186690000Y-118110000D03*
X193040000Y-115570000D03*
%TD*%
D14*
%TO.C,SW23*%
X209867500Y-77787500D03*
X199707500Y-77787500D03*
D15*
X204787500Y-77787500D03*
D16*
X200977500Y-75247500D03*
X207327500Y-72707500D03*
%TD*%
D14*
%TO.C,SW36*%
X224155000Y-96820487D03*
D15*
X219075000Y-96820487D03*
D14*
X213995000Y-96820487D03*
D16*
X215265000Y-94280487D03*
X221615000Y-91740487D03*
%TD*%
D15*
%TO.C,SW12(2)1*%
X240506250Y-66992500D03*
X252412500Y-58737500D03*
X264318750Y-66992500D03*
D14*
X247332500Y-58737500D03*
D20*
X240506250Y-51752500D03*
D14*
X257492500Y-58737500D03*
D20*
X264318750Y-51752500D03*
D16*
X248602500Y-56197500D03*
X254952500Y-53657500D03*
%TD*%
D15*
%TO.C,SW15*%
X52387500Y-77787500D03*
D14*
X57467500Y-77787500D03*
X47307500Y-77787500D03*
D16*
X48577500Y-75247500D03*
X54927500Y-72707500D03*
%TD*%
D14*
%TO.C,SW50(ortho)1*%
X152717500Y-96820487D03*
D15*
X147637500Y-96820487D03*
D14*
X142557500Y-96820487D03*
D16*
X143827500Y-94280487D03*
X150177500Y-91740487D03*
%TD*%
D15*
%TO.C,SW39(1.5)1*%
X42862500Y-115887500D03*
D14*
X37782500Y-115887500D03*
X47942500Y-115887500D03*
D16*
X39052500Y-113347500D03*
X45402500Y-110807500D03*
%TD*%
D15*
%TO.C,SW6*%
X128587500Y-58737500D03*
D14*
X133667500Y-58737500D03*
X123507500Y-58737500D03*
D16*
X124777500Y-56197500D03*
X131127500Y-53657500D03*
%TD*%
D14*
%TO.C,SW31*%
X109220000Y-96820487D03*
D15*
X114300000Y-96820487D03*
D14*
X119380000Y-96820487D03*
D16*
X110490000Y-94280487D03*
X116840000Y-91740487D03*
%TD*%
D14*
%TO.C,SW37(1.5stagger)1*%
X238442500Y-96820487D03*
D15*
X233362500Y-96820487D03*
D14*
X228282500Y-96820487D03*
D16*
X229552500Y-94280487D03*
X235902500Y-91740487D03*
%TD*%
D14*
%TO.C,SW38(1.25)1*%
X254475000Y-96820487D03*
X264635000Y-96820487D03*
D15*
X259555000Y-96820487D03*
D16*
X255745000Y-94280487D03*
X262095000Y-91740487D03*
%TD*%
D14*
%TO.C,SW47*%
X213995000Y-115887500D03*
X224155000Y-115887500D03*
D15*
X219075000Y-115887500D03*
D16*
X215265000Y-113347500D03*
X221615000Y-110807500D03*
%TD*%
D14*
%TO.C,SW26(1.5)1*%
X252095000Y-77787500D03*
D15*
X257175000Y-77787500D03*
D14*
X262255000Y-77787500D03*
D16*
X253365000Y-75247500D03*
X259715000Y-72707500D03*
%TD*%
D14*
%TO.C,SW46(1)1*%
X200342500Y-120650000D03*
X190182500Y-120650000D03*
D15*
X195262500Y-120650000D03*
D16*
X191452500Y-118110000D03*
X197802500Y-115570000D03*
%TD*%
D15*
%TO.C,SW1*%
X33337500Y-58737500D03*
D14*
X38417500Y-58737500D03*
X28257500Y-58737500D03*
D16*
X29527500Y-56197500D03*
X35877500Y-53657500D03*
%TD*%
D15*
%TO.C,SW26(ISO)1*%
X259556250Y-87312500D03*
X251301250Y-99250500D03*
X251301250Y-75374500D03*
D14*
X254476250Y-87312500D03*
X264636250Y-87312500D03*
D20*
X266541250Y-75374500D03*
X266541250Y-99250500D03*
D16*
X255746250Y-84772500D03*
X262096250Y-82232500D03*
%TD*%
D14*
%TO.C,SW37(ortho)1*%
X247967500Y-96820487D03*
X237807500Y-96820487D03*
D15*
X242887500Y-96820487D03*
D16*
X239077500Y-94280487D03*
X245427500Y-91740487D03*
%TD*%
D14*
%TO.C,SW41(1.5)1*%
X76517500Y-115887500D03*
X66357500Y-115887500D03*
D15*
X71437500Y-115887500D03*
D16*
X67627500Y-113347500D03*
X73977500Y-110807500D03*
%TD*%
D15*
%TO.C,SW27(ortho)1*%
X33337500Y-96820487D03*
D14*
X38417500Y-96820487D03*
X28257500Y-96820487D03*
D16*
X29527500Y-94280487D03*
X35877500Y-91740487D03*
%TD*%
D15*
%TO.C,SW38(1.5)1*%
X257175000Y-96820487D03*
D14*
X262255000Y-96820487D03*
X252095000Y-96820487D03*
D16*
X253365000Y-94280487D03*
X259715000Y-91740487D03*
%TD*%
D21*
%TO.C,SW_rotary2*%
X261937500Y-53137500D03*
X261937500Y-64337500D03*
D18*
X269437500Y-61237500D03*
D19*
X269437500Y-56237500D03*
X269437500Y-58737500D03*
X254937500Y-56237500D03*
X254937500Y-61237500D03*
%TD*%
D21*
%TO.C,SW_rotary6*%
X195262500Y-126250000D03*
D18*
X202762500Y-123150000D03*
D19*
X202762500Y-118150000D03*
X202762500Y-120650000D03*
X188262500Y-118150000D03*
X188262500Y-123150000D03*
%TD*%
D14*
%TO.C,SW9*%
X180657500Y-58737500D03*
X190817500Y-58737500D03*
D15*
X185737500Y-58737500D03*
D16*
X181927500Y-56197500D03*
X188277500Y-53657500D03*
%TD*%
D15*
%TO.C,SW33*%
X161925000Y-96820487D03*
D14*
X156845000Y-96820487D03*
X167005000Y-96820487D03*
D16*
X158115000Y-94280487D03*
X164465000Y-91740487D03*
%TD*%
D14*
%TO.C,SW43(2)1*%
X133667500Y-120650000D03*
D20*
X116681250Y-127635000D03*
D14*
X123507500Y-120650000D03*
D15*
X116681250Y-112395000D03*
X128587500Y-120650000D03*
D20*
X140493750Y-127635000D03*
D15*
X140493750Y-112395000D03*
D16*
X124777500Y-118110000D03*
X131127500Y-115570000D03*
%TD*%
D22*
%TO.C,SW44(4)1*%
X147637500Y-120650000D03*
D15*
X178625500Y-112420400D03*
D20*
X116649500Y-127635000D03*
X178625500Y-127660400D03*
D15*
X116649500Y-112395000D03*
D23*
X143827500Y-118110000D03*
X150177500Y-115570000D03*
%TD*%
D14*
%TO.C,SW33(ortho)1*%
X171767500Y-96820487D03*
X161607500Y-96820487D03*
D15*
X166687500Y-96820487D03*
D16*
X162877500Y-94280487D03*
X169227500Y-91740487D03*
%TD*%
D15*
%TO.C,SW10*%
X204787500Y-58737500D03*
D14*
X199707500Y-58737500D03*
X209867500Y-58737500D03*
D16*
X200977500Y-56197500D03*
X207327500Y-53657500D03*
%TD*%
D15*
%TO.C,SW18*%
X109537500Y-77787500D03*
D14*
X114617500Y-77787500D03*
X104457500Y-77787500D03*
D16*
X105727500Y-75247500D03*
X112077500Y-72707500D03*
%TD*%
D14*
%TO.C,SW34(ortho)1*%
X180657500Y-96820487D03*
D15*
X185737500Y-96820487D03*
D14*
X190817500Y-96820487D03*
D16*
X181927500Y-94280487D03*
X188277500Y-91740487D03*
%TD*%
D15*
%TO.C,SW36(ortho)1*%
X223837500Y-96820487D03*
D14*
X218757500Y-96820487D03*
X228917500Y-96820487D03*
D16*
X220027500Y-94280487D03*
X226377500Y-91740487D03*
%TD*%
D21*
%TO.C,SW_rotary5*%
X100012500Y-126250000D03*
X100012500Y-115050000D03*
D18*
X92512500Y-118150000D03*
D19*
X92512500Y-123150000D03*
X92512500Y-120650000D03*
X107012500Y-123150000D03*
X107012500Y-118150000D03*
%TD*%
D14*
%TO.C,SW2*%
X47307500Y-58737500D03*
X57467500Y-58737500D03*
D15*
X52387500Y-58737500D03*
D16*
X48577500Y-56197500D03*
X54927500Y-53657500D03*
%TD*%
D15*
%TO.C,SW38(ortho)1*%
X261937500Y-96820487D03*
D14*
X256857500Y-96820487D03*
X267017500Y-96820487D03*
D16*
X258127500Y-94280487D03*
X264477500Y-91740487D03*
%TD*%
D15*
%TO.C,SW49(1.5)1*%
X252412500Y-115887500D03*
D14*
X257492500Y-115887500D03*
X247332500Y-115887500D03*
D16*
X248602500Y-113347500D03*
X254952500Y-110807500D03*
%TD*%
D14*
%TO.C,SW34*%
X175895000Y-96820487D03*
X186055000Y-96820487D03*
D15*
X180975000Y-96820487D03*
D16*
X177165000Y-94280487D03*
X183515000Y-91740487D03*
%TD*%
D14*
%TO.C,SW4*%
X85407500Y-58737500D03*
X95567500Y-58737500D03*
D15*
X90487500Y-58737500D03*
D16*
X86677500Y-56197500D03*
X93027500Y-53657500D03*
%TD*%
D14*
%TO.C,SW13*%
X267017500Y-58737500D03*
D15*
X261937500Y-58737500D03*
D14*
X256857500Y-58737500D03*
D16*
X258127500Y-56197500D03*
X264477500Y-53657500D03*
%TD*%
D14*
%TO.C,SW35(ortho)1*%
X199707500Y-96820487D03*
D15*
X204787500Y-96820487D03*
D14*
X209867500Y-96820487D03*
D16*
X200977500Y-94280487D03*
X207327500Y-91740487D03*
%TD*%
D14*
%TO.C,SW32*%
X138430000Y-96820487D03*
D15*
X133350000Y-96820487D03*
D14*
X128270000Y-96820487D03*
D16*
X129540000Y-94280487D03*
X135890000Y-91740487D03*
%TD*%
D15*
%TO.C,SW29(ortho)1*%
X71437500Y-96820487D03*
D14*
X76517500Y-96820487D03*
X66357500Y-96820487D03*
D16*
X67627500Y-94280487D03*
X73977500Y-91740487D03*
%TD*%
D15*
%TO.C,SW30(1.5stagger)1*%
X100012500Y-96820487D03*
D14*
X105092500Y-96820487D03*
X94932500Y-96820487D03*
D16*
X96202500Y-94280487D03*
X102552500Y-91740487D03*
%TD*%
D14*
%TO.C,SW29(1.5stagger)1*%
X86042500Y-96820487D03*
X75882500Y-96820487D03*
D15*
X80962500Y-96820487D03*
D16*
X77152500Y-94280487D03*
X83502500Y-91740487D03*
%TD*%
D14*
%TO.C,SW45(2)1*%
X161607500Y-120650000D03*
D20*
X154781250Y-127635000D03*
X178593750Y-127635000D03*
D15*
X166687500Y-120650000D03*
X178593750Y-112395000D03*
X154781250Y-112395000D03*
D14*
X171767500Y-120650000D03*
D16*
X162877500Y-118110000D03*
X169227500Y-115570000D03*
%TD*%
D15*
%TO.C,SW46(1.25)1*%
X192895066Y-120635521D03*
D14*
X197975066Y-120635521D03*
X187815066Y-120635521D03*
D16*
X189085066Y-118095521D03*
X195435066Y-115555521D03*
%TD*%
D24*
%TO.C,OL1*%
X143827500Y-87312500D03*
X146367500Y-87312500D03*
X148907500Y-87312500D03*
X151447500Y-87312500D03*
%TD*%
D14*
%TO.C,SW16*%
X66357500Y-77787500D03*
X76517500Y-77787500D03*
D15*
X71437500Y-77787500D03*
D16*
X67627500Y-75247500D03*
X73977500Y-72707500D03*
%TD*%
D14*
%TO.C,SW25*%
X247967500Y-77787500D03*
D15*
X242887500Y-77787500D03*
D14*
X237807500Y-77787500D03*
D16*
X239077500Y-75247500D03*
X245427500Y-72707500D03*
%TD*%
D15*
%TO.C,SW46(3)1*%
X157162500Y-112395000D03*
X195262500Y-112395000D03*
D20*
X195262500Y-127635000D03*
D14*
X171132500Y-120650000D03*
D20*
X157162500Y-127635000D03*
D14*
X181292500Y-120650000D03*
D15*
X176212500Y-120650000D03*
D16*
X172402500Y-118110000D03*
X178752500Y-115570000D03*
%TD*%
D14*
%TO.C,SW39*%
X33020000Y-115887500D03*
D15*
X38100000Y-115887500D03*
D14*
X43180000Y-115887500D03*
D16*
X34290000Y-113347500D03*
X40640000Y-110807500D03*
%TD*%
D14*
%TO.C,SW19*%
X123507500Y-77787500D03*
D15*
X128587500Y-77787500D03*
D14*
X133667500Y-77787500D03*
D16*
X124777500Y-75247500D03*
X131127500Y-72707500D03*
%TD*%
D25*
%TO.C,J2*%
X157162500Y-64135000D03*
D26*
X157162500Y-66675000D03*
X157162500Y-69215000D03*
X157162500Y-71755000D03*
X157162500Y-74295000D03*
%TD*%
D15*
%TO.C,SW44(6)1*%
X195262500Y-112395000D03*
X147637500Y-120650000D03*
X100012500Y-112395000D03*
D20*
X100012500Y-127635000D03*
D14*
X152717500Y-120650000D03*
X142557500Y-120650000D03*
D20*
X195262500Y-127635000D03*
D16*
X143827500Y-118110000D03*
X150177500Y-115570000D03*
%TD*%
D14*
%TO.C,SW35*%
X194945000Y-96820487D03*
D15*
X200025000Y-96820487D03*
D14*
X205105000Y-96820487D03*
D16*
X196215000Y-94280487D03*
X202565000Y-91740487D03*
%TD*%
D15*
%TO.C,SW37*%
X238125000Y-96820487D03*
D14*
X243205000Y-96820487D03*
X233045000Y-96820487D03*
D16*
X234315000Y-94280487D03*
X240665000Y-91740487D03*
%TD*%
D15*
%TO.C,SW20*%
X147637500Y-77787500D03*
D14*
X152717500Y-77787500D03*
X142557500Y-77787500D03*
D16*
X143827500Y-75247500D03*
X150177500Y-72707500D03*
%TD*%
D15*
%TO.C,SW11*%
X223837500Y-58737500D03*
D14*
X218757500Y-58737500D03*
X228917500Y-58737500D03*
D16*
X220027500Y-56197500D03*
X226377500Y-53657500D03*
%TD*%
D14*
%TO.C,SW24(1.5)1*%
X233680000Y-77787500D03*
D15*
X228600000Y-77787500D03*
D14*
X223520000Y-77787500D03*
D16*
X224790000Y-75247500D03*
X231140000Y-72707500D03*
%TD*%
D15*
%TO.C,SW7*%
X147637500Y-58737500D03*
D14*
X142557500Y-58737500D03*
X152717500Y-58737500D03*
D16*
X143827500Y-56197500D03*
X150177500Y-53657500D03*
%TD*%
D15*
%TO.C,SW40*%
X57150000Y-115887500D03*
D14*
X52070000Y-115887500D03*
X62230000Y-115887500D03*
D16*
X53340000Y-113347500D03*
X59690000Y-110807500D03*
%TD*%
D20*
%TO.C,SW26(2)1*%
X264318750Y-70802500D03*
D14*
X257492500Y-77787500D03*
X247332500Y-77787500D03*
D15*
X240506250Y-86042500D03*
D20*
X240506250Y-70802500D03*
D15*
X264318750Y-86042500D03*
X252412500Y-77787500D03*
D16*
X248602500Y-75247500D03*
X254952500Y-72707500D03*
%TD*%
D14*
%TO.C,SW48(3)1*%
X243205000Y-115887500D03*
X233045000Y-115887500D03*
D20*
X257175000Y-122872500D03*
D15*
X219075000Y-107632500D03*
X257175000Y-107632500D03*
D20*
X219075000Y-122872500D03*
D15*
X238125000Y-115887500D03*
D16*
X234315000Y-113347500D03*
X240665000Y-110807500D03*
%TD*%
D17*
%TO.C,SW_rotary1*%
X27737500Y-58737500D03*
X38937500Y-58737500D03*
D18*
X30837500Y-66237500D03*
D19*
X35837500Y-66237500D03*
X33337500Y-66237500D03*
X35837500Y-51737500D03*
X30837500Y-51737500D03*
%TD*%
D17*
%TO.C,SW_rotary4*%
X153237500Y-77787500D03*
X142037500Y-77787500D03*
D18*
X145137500Y-85287500D03*
D19*
X150137500Y-85287500D03*
X147637500Y-85287500D03*
X150137500Y-70787500D03*
X145137500Y-70787500D03*
%TD*%
D14*
%TO.C,SW36(1.5stagger)1*%
X209232500Y-96820487D03*
D15*
X214312500Y-96820487D03*
D14*
X219392500Y-96820487D03*
D16*
X210502500Y-94280487D03*
X216852500Y-91740487D03*
%TD*%
D14*
%TO.C,SW5*%
X104457500Y-58737500D03*
X114617500Y-58737500D03*
D15*
X109537500Y-58737500D03*
D16*
X105727500Y-56197500D03*
X112077500Y-53657500D03*
%TD*%
D20*
%TO.C,SW44(3)1*%
X166687500Y-127635000D03*
D15*
X147637500Y-120650000D03*
X128587500Y-112395000D03*
D20*
X128587500Y-127635000D03*
D14*
X142557500Y-120650000D03*
D15*
X166687500Y-112395000D03*
D14*
X152717500Y-120650000D03*
D16*
X143827500Y-118110000D03*
X150177500Y-115570000D03*
%TD*%
D17*
%TO.C,SW_rotary7*%
X153237500Y-96820487D03*
X142037500Y-96820487D03*
D18*
X145137500Y-104320487D03*
D19*
X150137500Y-104320487D03*
X147637500Y-104320487D03*
X150137500Y-89820487D03*
X145137500Y-89820487D03*
%TD*%
D14*
%TO.C,SW22*%
X190817500Y-77787500D03*
X180657500Y-77787500D03*
D15*
X185737500Y-77787500D03*
D16*
X181927500Y-75247500D03*
X188277500Y-72707500D03*
%TD*%
D14*
%TO.C,SW27(1.5)1*%
X33020000Y-96820487D03*
D15*
X38100000Y-96820487D03*
D14*
X43180000Y-96820487D03*
D16*
X34290000Y-94280487D03*
X40640000Y-91740487D03*
%TD*%
D14*
%TO.C,SW42(1.25)1*%
X97327566Y-120635521D03*
X107487566Y-120635521D03*
D15*
X102407566Y-120635521D03*
D16*
X98597566Y-118095521D03*
X104947566Y-115555521D03*
%TD*%
D14*
%TO.C,SW42(1.5)1*%
X109855000Y-120650000D03*
X99695000Y-120650000D03*
D15*
X104775000Y-120650000D03*
D16*
X100965000Y-118110000D03*
X107315000Y-115570000D03*
%TD*%
D14*
%TO.C,SW27(1.25)1*%
X30640000Y-96820487D03*
X40800000Y-96820487D03*
D15*
X35720000Y-96820487D03*
D16*
X31910000Y-94280487D03*
X38260000Y-91740487D03*
%TD*%
D15*
%TO.C,SW49*%
X257175000Y-115887500D03*
D14*
X252095000Y-115887500D03*
X262255000Y-115887500D03*
D16*
X253365000Y-113347500D03*
X259715000Y-110807500D03*
%TD*%
D15*
%TO.C,SW26*%
X261937500Y-77787500D03*
D14*
X256857500Y-77787500D03*
X267017500Y-77787500D03*
D16*
X258127500Y-75247500D03*
X264477500Y-72707500D03*
%TD*%
D15*
%TO.C,SW28(ortho)1*%
X52387500Y-96820487D03*
D14*
X47307500Y-96820487D03*
X57467500Y-96820487D03*
D16*
X48577500Y-94280487D03*
X54927500Y-91740487D03*
%TD*%
D14*
%TO.C,SW24*%
X218757500Y-77787500D03*
X228917500Y-77787500D03*
D15*
X223837500Y-77787500D03*
D16*
X220027500Y-75247500D03*
X226377500Y-72707500D03*
%TD*%
D14*
%TO.C,SW17*%
X95567500Y-77787500D03*
X85407500Y-77787500D03*
D15*
X90487500Y-77787500D03*
D16*
X86677500Y-75247500D03*
X93027500Y-72707500D03*
%TD*%
D15*
%TO.C,SW40(3)1*%
X76200000Y-107632500D03*
D14*
X62230000Y-115887500D03*
D20*
X76200000Y-122872500D03*
X38100000Y-122872500D03*
D15*
X57150000Y-115887500D03*
X38100000Y-107632500D03*
D14*
X52070000Y-115887500D03*
D16*
X53340000Y-113347500D03*
X59690000Y-110807500D03*
%TD*%
D14*
%TO.C,SW3*%
X76517500Y-58737500D03*
D15*
X71437500Y-58737500D03*
D14*
X66357500Y-58737500D03*
D16*
X67627500Y-56197500D03*
X73977500Y-53657500D03*
%TD*%
D14*
%TO.C,SW45(1.75)1*%
X169400066Y-120635521D03*
X159240066Y-120635521D03*
D15*
X164320066Y-120635521D03*
D16*
X160510066Y-118095521D03*
X166860066Y-115555521D03*
%TD*%
D15*
%TO.C,SW14*%
X33337500Y-77787500D03*
D14*
X38417500Y-77787500D03*
X28257500Y-77787500D03*
D16*
X29527500Y-75247500D03*
X35877500Y-72707500D03*
%TD*%
D14*
%TO.C,SW41*%
X81280000Y-115887500D03*
D15*
X76200000Y-115887500D03*
D14*
X71120000Y-115887500D03*
D16*
X72390000Y-113347500D03*
X78740000Y-110807500D03*
%TD*%
D14*
%TO.C,SW47(1.5)1*%
X228917500Y-115887500D03*
D15*
X223837500Y-115887500D03*
D14*
X218757500Y-115887500D03*
D16*
X220027500Y-113347500D03*
X226377500Y-110807500D03*
%TD*%
D14*
%TO.C,SW35(1.5stagger)1*%
X190182500Y-96820487D03*
D15*
X195262500Y-96820487D03*
D14*
X200342500Y-96820487D03*
D16*
X191452500Y-94280487D03*
X197802500Y-91740487D03*
%TD*%
D15*
%TO.C,SW30*%
X95250000Y-96820487D03*
D14*
X100330000Y-96820487D03*
X90170000Y-96820487D03*
D16*
X91440000Y-94280487D03*
X97790000Y-91740487D03*
%TD*%
D14*
%TO.C,SW32(1.5stagger)1*%
X143192500Y-96820487D03*
X133032500Y-96820487D03*
D15*
X138112500Y-96820487D03*
D16*
X134302500Y-94280487D03*
X140652500Y-91740487D03*
%TD*%
D14*
%TO.C,SW31(1.5stagger)1*%
X113982500Y-96820487D03*
X124142500Y-96820487D03*
D15*
X119062500Y-96820487D03*
D16*
X115252500Y-94280487D03*
X121602500Y-91740487D03*
%TD*%
D14*
%TO.C,SW29*%
X81280000Y-96820487D03*
X71120000Y-96820487D03*
D15*
X76200000Y-96820487D03*
D16*
X72390000Y-94280487D03*
X78740000Y-91740487D03*
%TD*%
D27*
%TO.C,D32*%
X188912500Y-79187500D03*
X188912500Y-76387500D03*
%TD*%
D28*
%TO.C,SW27*%
X83160000Y-71750000D03*
X76860000Y-71750000D03*
X83160000Y-67950000D03*
X76860000Y-67950000D03*
%TD*%
D29*
%TO.C,LED2*%
X150187500Y-108700000D03*
X150187500Y-107200000D03*
D30*
X145087500Y-107200000D03*
D29*
X145087500Y-108700000D03*
%TD*%
D27*
%TO.C,D2*%
X36512500Y-77981000D03*
X36512500Y-75181000D03*
%TD*%
D31*
%TO.C,R7*%
X43230800Y-90680000D03*
X43230800Y-89660000D03*
%TD*%
D32*
%TO.C,LED8*%
X244449000Y-67225000D03*
X244449000Y-66125000D03*
X246279000Y-66125000D03*
X246279000Y-67225000D03*
%TD*%
D33*
%TO.C,C22*%
X85217000Y-67155000D03*
X85217000Y-66195000D03*
%TD*%
D27*
%TO.C,D11*%
X84137500Y-101412500D03*
X84137500Y-98612500D03*
%TD*%
D34*
%TO.C,C2*%
X47904400Y-89639200D03*
X47904400Y-90599200D03*
%TD*%
D27*
%TO.C,D9*%
X74612500Y-60137500D03*
X74612500Y-57337500D03*
%TD*%
%TO.C,D50*%
X154686000Y-101349000D03*
X154686000Y-98549000D03*
%TD*%
%TO.C,D7*%
X65087500Y-101412500D03*
X65087500Y-98612500D03*
%TD*%
D32*
%TO.C,LED15*%
X88221288Y-105812500D03*
X88221288Y-106912500D03*
X86391288Y-106912500D03*
X86391288Y-105812500D03*
%TD*%
D28*
%TO.C,SW38*%
X96862500Y-67950000D03*
X103162500Y-67950000D03*
X103162500Y-71750000D03*
X96862500Y-71750000D03*
%TD*%
D33*
%TO.C,C10*%
X40792400Y-78331000D03*
X40792400Y-77371000D03*
%TD*%
D34*
%TO.C,C14*%
X42164000Y-93274000D03*
X42164000Y-94234000D03*
%TD*%
D27*
%TO.C,D24*%
X150812500Y-123637500D03*
X150812500Y-120837500D03*
%TD*%
D35*
%TO.C,UR1*%
X159337500Y-66516250D03*
X161337500Y-66516250D03*
%TD*%
D27*
%TO.C,D42*%
X239712500Y-61725000D03*
X239712500Y-58925000D03*
%TD*%
%TO.C,D44*%
X246062500Y-101412500D03*
X246062500Y-98612500D03*
%TD*%
D34*
%TO.C,C20*%
X50165000Y-105882500D03*
X50165000Y-106842500D03*
%TD*%
D33*
%TO.C,C21*%
X50165000Y-67155000D03*
X50165000Y-66195000D03*
%TD*%
D27*
%TO.C,D5*%
X60325000Y-60137500D03*
X60325000Y-57337500D03*
%TD*%
%TO.C,D23*%
X138112500Y-123637500D03*
X138112500Y-120837500D03*
%TD*%
%TO.C,D49*%
X260350000Y-117287500D03*
X260350000Y-114487500D03*
%TD*%
D36*
%TO.C,C1*%
X46003085Y-94996000D03*
X45043085Y-94996000D03*
%TD*%
D27*
%TO.C,D25*%
X150812500Y-60137500D03*
X150812500Y-57337500D03*
%TD*%
D33*
%TO.C,C5*%
X36290251Y-69918861D03*
X36290251Y-68958861D03*
%TD*%
D27*
%TO.C,D13*%
X93662500Y-60137500D03*
X93662500Y-57337500D03*
%TD*%
%TO.C,D39*%
X231775000Y-79187500D03*
X231775000Y-76387500D03*
%TD*%
D37*
%TO.C,C18*%
X161375000Y-68897500D03*
X159300000Y-68897500D03*
%TD*%
D33*
%TO.C,C19*%
X29006800Y-91412000D03*
X29006800Y-90452000D03*
%TD*%
D27*
%TO.C,D19*%
X111918750Y-123637500D03*
X111918750Y-120837500D03*
%TD*%
D32*
%TO.C,LED4*%
X86391288Y-67225000D03*
X86391288Y-66125000D03*
X88221288Y-66125000D03*
X88221288Y-67225000D03*
%TD*%
D38*
%TO.C,U5*%
X33090700Y-89982000D03*
X33090700Y-90932000D03*
X33090700Y-91882000D03*
X30815700Y-91882000D03*
X30815700Y-89982000D03*
%TD*%
D39*
%TO.C,Y1*%
X44629600Y-93439736D03*
X44629600Y-91239736D03*
X46329600Y-91239736D03*
X46329600Y-93439736D03*
%TD*%
D40*
%TO.C,U3*%
X40637500Y-69993750D03*
X38737500Y-69993750D03*
X39687500Y-68118750D03*
%TD*%
D36*
%TO.C,C16*%
X37973000Y-80175193D03*
X37013000Y-80175193D03*
%TD*%
D27*
%TO.C,D46*%
X265112500Y-60137500D03*
X265112500Y-57337500D03*
%TD*%
%TO.C,D21*%
X131762500Y-79187500D03*
X131762500Y-76387500D03*
%TD*%
D41*
%TO.C,C13*%
X49050000Y-85217000D03*
X50010000Y-85217000D03*
%TD*%
D34*
%TO.C,C29*%
X175260000Y-105882500D03*
X175260000Y-106842500D03*
%TD*%
D27*
%TO.C,D48*%
X264033000Y-101730000D03*
X264033000Y-98930000D03*
%TD*%
%TO.C,D40*%
X227012500Y-101412500D03*
X227012500Y-98612500D03*
%TD*%
%TO.C,D35*%
X207962500Y-60137500D03*
X207962500Y-57337500D03*
%TD*%
D32*
%TO.C,LED13*%
X173952500Y-105812500D03*
X173952500Y-106912500D03*
X172122500Y-106912500D03*
X172122500Y-105812500D03*
%TD*%
%TO.C,LED6*%
X172122500Y-67225000D03*
X172122500Y-66125000D03*
X173952500Y-66125000D03*
X173952500Y-67225000D03*
%TD*%
D27*
%TO.C,D26*%
X150812500Y-79187500D03*
X150812500Y-76387500D03*
%TD*%
D42*
%TO.C,R3*%
X135450520Y-72515000D03*
X135450520Y-73535000D03*
%TD*%
D27*
%TO.C,D22*%
X140462000Y-101412500D03*
X140462000Y-98612500D03*
%TD*%
%TO.C,D14*%
X93662500Y-79187500D03*
X93662500Y-76387500D03*
%TD*%
D29*
%TO.C,LED3*%
X183525000Y-108700000D03*
X183525000Y-107200000D03*
D30*
X178425000Y-107200000D03*
D29*
X178425000Y-108700000D03*
%TD*%
D35*
%TO.C,UR2*%
X159337500Y-64135000D03*
X161337500Y-64135000D03*
%TD*%
D36*
%TO.C,C7*%
X40231000Y-79375000D03*
X39271000Y-79375000D03*
%TD*%
D33*
%TO.C,C15*%
X42617467Y-77216643D03*
X42617467Y-76256643D03*
%TD*%
D43*
%TO.C,R2*%
X40859663Y-72463838D03*
X40859663Y-74113838D03*
%TD*%
D44*
%TO.C,R6*%
X75155499Y-67952227D03*
X74135499Y-67952227D03*
%TD*%
D27*
%TO.C,D36*%
X207962500Y-79187500D03*
X207962500Y-76387500D03*
%TD*%
%TO.C,D6*%
X55562500Y-79187500D03*
X55562500Y-76387500D03*
%TD*%
D45*
%TO.C,U2*%
X65957000Y-67945000D03*
X65957000Y-69215000D03*
X65957000Y-70485000D03*
X65957000Y-71755000D03*
X58757000Y-71755000D03*
X58757000Y-70485000D03*
X58757000Y-69215000D03*
X58757000Y-67945000D03*
%TD*%
D33*
%TO.C,C3*%
X55626000Y-67980500D03*
X55626000Y-67020500D03*
%TD*%
D36*
%TO.C,C8*%
X37973000Y-81114807D03*
X37013000Y-81114807D03*
%TD*%
D27*
%TO.C,D37*%
X207962500Y-101412500D03*
X207962500Y-98612500D03*
%TD*%
%TO.C,D38*%
X227012500Y-60137500D03*
X227012500Y-57337500D03*
%TD*%
D43*
%TO.C,R1*%
X42447163Y-72463838D03*
X42447163Y-74113838D03*
%TD*%
D27*
%TO.C,D31*%
X188912500Y-60137500D03*
X188912500Y-57337500D03*
%TD*%
D34*
%TO.C,C27*%
X247485799Y-105819000D03*
X247485799Y-106779000D03*
%TD*%
D27*
%TO.C,D47*%
X265112500Y-80775000D03*
X265112500Y-77975000D03*
%TD*%
D34*
%TO.C,C9*%
X43180000Y-93274000D03*
X43180000Y-94234000D03*
%TD*%
D27*
%TO.C,D20*%
X131762500Y-60137500D03*
X131762500Y-57337500D03*
%TD*%
D46*
%TO.C,U4*%
X43812500Y-64637500D03*
X42862500Y-64637500D03*
X41912500Y-64637500D03*
X41912500Y-62362500D03*
X42862500Y-62362500D03*
X43812500Y-62362500D03*
%TD*%
D47*
%TO.C,F1*%
X39243000Y-61973000D03*
X39243000Y-64773000D03*
%TD*%
D33*
%TO.C,C6*%
X37306250Y-69918861D03*
X37306250Y-68958861D03*
%TD*%
D27*
%TO.C,D17*%
X112712500Y-79187500D03*
X112712500Y-76387500D03*
%TD*%
D41*
%TO.C,C4*%
X39842500Y-66287306D03*
X40802500Y-66287306D03*
%TD*%
D32*
%TO.C,LED5*%
X121320676Y-67225000D03*
X121320676Y-66125000D03*
X123150676Y-66125000D03*
X123150676Y-67225000D03*
%TD*%
D33*
%TO.C,C24*%
X170942000Y-67155000D03*
X170942000Y-66195000D03*
%TD*%
D27*
%TO.C,D29*%
X169862500Y-101412500D03*
X169862500Y-98612500D03*
%TD*%
D32*
%TO.C,LED14*%
X123159832Y-105812500D03*
X123159832Y-106912500D03*
X121329832Y-106912500D03*
X121329832Y-105812500D03*
%TD*%
D27*
%TO.C,D8*%
X60325000Y-117287500D03*
X60325000Y-114487500D03*
%TD*%
D33*
%TO.C,C23*%
X120015000Y-67155000D03*
X120015000Y-66195000D03*
%TD*%
D32*
%TO.C,LED9*%
X246183750Y-105812500D03*
X246183750Y-106912500D03*
X244353750Y-106912500D03*
X244353750Y-105812500D03*
%TD*%
D34*
%TO.C,C26*%
X243078000Y-66195000D03*
X243078000Y-67155000D03*
%TD*%
D42*
%TO.C,R4*%
X41402000Y-58418000D03*
X41402000Y-59438000D03*
%TD*%
D48*
%TO.C,USB1*%
X39972500Y-53686838D03*
X45752500Y-53686838D03*
D49*
X39637500Y-55631838D03*
X40412500Y-55631838D03*
D50*
X41112500Y-55631838D03*
X41612500Y-55631838D03*
X42112500Y-55631838D03*
X42612500Y-55631838D03*
X43112500Y-55631838D03*
X43612500Y-55631838D03*
X44112500Y-55631838D03*
X44612500Y-55631838D03*
D49*
X45312500Y-55631838D03*
X46087500Y-55631838D03*
%TD*%
D27*
%TO.C,D41*%
X227012500Y-117287500D03*
X227012500Y-114487500D03*
%TD*%
%TO.C,D3*%
X41910000Y-101349000D03*
X41910000Y-98549000D03*
%TD*%
D42*
%TO.C,R5*%
X45085000Y-58418000D03*
X45085000Y-59438000D03*
%TD*%
D33*
%TO.C,C30*%
X124467332Y-106851933D03*
X124467332Y-105891933D03*
%TD*%
D32*
%TO.C,LED10*%
X53302500Y-105812500D03*
X53302500Y-106912500D03*
X51472500Y-106912500D03*
X51472500Y-105812500D03*
%TD*%
D29*
%TO.C,LED1*%
X116850000Y-108700000D03*
X116850000Y-107200000D03*
D30*
X111750000Y-107200000D03*
D29*
X111750000Y-108700000D03*
%TD*%
D34*
%TO.C,C28*%
X215582500Y-105860500D03*
X215582500Y-106820500D03*
%TD*%
D51*
%TO.C,LS1*%
X212367000Y-110363000D03*
X199367000Y-110363000D03*
%TD*%
D27*
%TO.C,D4*%
X46037500Y-117287500D03*
X46037500Y-114487500D03*
%TD*%
D32*
%TO.C,LED12*%
X214275000Y-105812500D03*
X214275000Y-106912500D03*
X212445000Y-106912500D03*
X212445000Y-105812500D03*
%TD*%
D34*
%TO.C,C31*%
X89528788Y-105860500D03*
X89528788Y-106820500D03*
%TD*%
%TO.C,C32*%
X119888000Y-110264000D03*
X119888000Y-111224000D03*
%TD*%
D27*
%TO.C,D1*%
X36512500Y-60137500D03*
X36512500Y-57337500D03*
%TD*%
D32*
%TO.C,LED7*%
X207041288Y-67225000D03*
X207041288Y-66125000D03*
X208871288Y-66125000D03*
X208871288Y-67225000D03*
%TD*%
D27*
%TO.C,D34*%
X183388000Y-123637500D03*
X183388000Y-120837500D03*
%TD*%
D36*
%TO.C,C11*%
X37310000Y-85150164D03*
X36350000Y-85150164D03*
%TD*%
D27*
%TO.C,D30*%
X179387500Y-123637500D03*
X179387500Y-120837500D03*
%TD*%
D33*
%TO.C,C12*%
X43633467Y-77216643D03*
X43633467Y-76256643D03*
%TD*%
D27*
%TO.C,D18*%
X122237500Y-101412500D03*
X122237500Y-98612500D03*
%TD*%
D34*
%TO.C,C34*%
X184912000Y-110264000D03*
X184912000Y-111224000D03*
%TD*%
D27*
%TO.C,D45*%
X241300000Y-117287500D03*
X241300000Y-114487500D03*
%TD*%
%TO.C,D33*%
X188912500Y-101412500D03*
X188912500Y-98612500D03*
%TD*%
%TO.C,D10*%
X74612500Y-79187500D03*
X74612500Y-76387500D03*
%TD*%
%TO.C,D27*%
X169862500Y-60137500D03*
X169862500Y-57337500D03*
%TD*%
D34*
%TO.C,C33*%
X152146000Y-110264000D03*
X152146000Y-111224000D03*
%TD*%
D27*
%TO.C,D12*%
X79375000Y-117287500D03*
X79375000Y-114487500D03*
%TD*%
%TO.C,D15*%
X103187500Y-101412500D03*
X103187500Y-98612500D03*
%TD*%
D52*
%TO.C,U1*%
X46300000Y-81538914D03*
X46300000Y-81938914D03*
X46300000Y-82338914D03*
X46300000Y-82738914D03*
X46300000Y-83138914D03*
X46300000Y-83538914D03*
X46300000Y-83938914D03*
X46300000Y-84338914D03*
X46300000Y-84738914D03*
X46300000Y-85138914D03*
X46300000Y-85538914D03*
X46300000Y-85938914D03*
X46300000Y-86338914D03*
X46300000Y-86738914D03*
D53*
X45462500Y-87576414D03*
X45062500Y-87576414D03*
X44662500Y-87576414D03*
X44262500Y-87576414D03*
X43862500Y-87576414D03*
X43462500Y-87576414D03*
X43062500Y-87576414D03*
X42662500Y-87576414D03*
X42262500Y-87576414D03*
X41862500Y-87576414D03*
X41462500Y-87576414D03*
X41062500Y-87576414D03*
X40662500Y-87576414D03*
X40262500Y-87576414D03*
D52*
X39425000Y-86738914D03*
X39425000Y-86338914D03*
X39425000Y-85938914D03*
X39425000Y-85538914D03*
X39425000Y-85138914D03*
X39425000Y-84738914D03*
X39425000Y-84338914D03*
X39425000Y-83938914D03*
X39425000Y-83538914D03*
X39425000Y-83138914D03*
X39425000Y-82738914D03*
X39425000Y-82338914D03*
X39425000Y-81938914D03*
X39425000Y-81538914D03*
D53*
X40262500Y-80701414D03*
X40662500Y-80701414D03*
X41062500Y-80701414D03*
X41462500Y-80701414D03*
X41862500Y-80701414D03*
X42262500Y-80701414D03*
X42662500Y-80701414D03*
X43062500Y-80701414D03*
X43462500Y-80701414D03*
X43862500Y-80701414D03*
X44262500Y-80701414D03*
X44662500Y-80701414D03*
X45062500Y-80701414D03*
X45462500Y-80701414D03*
D54*
X42862500Y-84138914D03*
%TD*%
D27*
%TO.C,D16*%
X112712500Y-60137500D03*
X112712500Y-57337500D03*
%TD*%
D25*
%TO.C,J1*%
X138074000Y-74265000D03*
D26*
X138074000Y-71725000D03*
X138074000Y-69185000D03*
X138074000Y-66645000D03*
X138074000Y-64105000D03*
%TD*%
D27*
%TO.C,D28*%
X169862500Y-79187500D03*
X169862500Y-76387500D03*
%TD*%
%TO.C,D43*%
X239712500Y-80775000D03*
X239712500Y-77975000D03*
%TD*%
D55*
%TO.C,UR3*%
X161337500Y-71278750D03*
X159337500Y-71278750D03*
%TD*%
D32*
%TO.C,LED11*%
X51472500Y-67225000D03*
X51472500Y-66125000D03*
X53302500Y-66125000D03*
X53302500Y-67225000D03*
%TD*%
D33*
%TO.C,C17*%
X47625000Y-80716000D03*
X47625000Y-79756000D03*
%TD*%
D34*
%TO.C,C25*%
X205740000Y-66195000D03*
X205740000Y-67155000D03*
%TD*%
M02*
