%TF.GenerationSoftware,KiCad,Pcbnew,(6.0.11)*%
%TF.CreationDate,2023-05-22T00:45:06+02:00*%
%TF.ProjectId,alpha-curISO_routingv6,616c7068-612d-4637-9572-49534f5f726f,rev?*%
%TF.SameCoordinates,Original*%
%TF.FileFunction,Soldermask,Bot*%
%TF.FilePolarity,Negative*%
%FSLAX46Y46*%
G04 Gerber Fmt 4.6, Leading zero omitted, Abs format (unit mm)*
G04 Created by KiCad (PCBNEW (6.0.11)) date 2023-05-22 00:45:06*
%MOMM*%
%LPD*%
G01*
G04 APERTURE LIST*
G04 Aperture macros list*
%AMRoundRect*
0 Rectangle with rounded corners*
0 $1 Rounding radius*
0 $2 $3 $4 $5 $6 $7 $8 $9 X,Y pos of 4 corners*
0 Add a 4 corners polygon primitive as box body*
4,1,4,$2,$3,$4,$5,$6,$7,$8,$9,$2,$3,0*
0 Add four circle primitives for the rounded corners*
1,1,$1+$1,$2,$3*
1,1,$1+$1,$4,$5*
1,1,$1+$1,$6,$7*
1,1,$1+$1,$8,$9*
0 Add four rect primitives between the rounded corners*
20,1,$1+$1,$2,$3,$4,$5,0*
20,1,$1+$1,$4,$5,$6,$7,0*
20,1,$1+$1,$6,$7,$8,$9,0*
20,1,$1+$1,$8,$9,$2,$3,0*%
G04 Aperture macros list end*
%ADD10C,1.750000*%
%ADD11C,3.987800*%
%ADD12C,2.250000*%
%ADD13O,2.000000X3.200000*%
%ADD14R,2.000000X2.000000*%
%ADD15C,2.000000*%
%ADD16C,3.048000*%
%ADD17O,3.200000X2.000000*%
%ADD18C,4.000000*%
%ADD19C,2.200000*%
%ADD20C,1.397000*%
%ADD21R,1.700000X1.700000*%
%ADD22O,1.700000X1.700000*%
%ADD23R,1.100000X1.100000*%
%ADD24R,1.700000X1.000000*%
%ADD25R,1.700000X0.820000*%
%ADD26RoundRect,0.205000X0.645000X0.205000X-0.645000X0.205000X-0.645000X-0.205000X0.645000X-0.205000X0*%
%ADD27RoundRect,0.135000X0.185000X-0.135000X0.185000X0.135000X-0.185000X0.135000X-0.185000X-0.135000X0*%
%ADD28R,0.700000X0.700000*%
%ADD29RoundRect,0.140000X0.170000X-0.140000X0.170000X0.140000X-0.170000X0.140000X-0.170000X-0.140000X0*%
%ADD30RoundRect,0.140000X-0.170000X0.140000X-0.170000X-0.140000X0.170000X-0.140000X0.170000X0.140000X0*%
%ADD31RoundRect,0.250000X-0.350000X-0.450000X0.350000X-0.450000X0.350000X0.450000X-0.350000X0.450000X0*%
%ADD32RoundRect,0.140000X0.140000X0.170000X-0.140000X0.170000X-0.140000X-0.170000X0.140000X-0.170000X0*%
%ADD33RoundRect,0.250000X0.337500X0.475000X-0.337500X0.475000X-0.337500X-0.475000X0.337500X-0.475000X0*%
%ADD34RoundRect,0.150000X0.512500X0.150000X-0.512500X0.150000X-0.512500X-0.150000X0.512500X-0.150000X0*%
%ADD35R,1.200000X1.400000*%
%ADD36RoundRect,0.150000X0.150000X-0.587500X0.150000X0.587500X-0.150000X0.587500X-0.150000X-0.587500X0*%
%ADD37RoundRect,0.140000X-0.140000X-0.170000X0.140000X-0.170000X0.140000X0.170000X-0.140000X0.170000X0*%
%ADD38RoundRect,0.135000X-0.185000X0.135000X-0.185000X-0.135000X0.185000X-0.135000X0.185000X0.135000X0*%
%ADD39RoundRect,0.200000X-0.275000X0.200000X-0.275000X-0.200000X0.275000X-0.200000X0.275000X0.200000X0*%
%ADD40RoundRect,0.135000X0.135000X0.185000X-0.135000X0.185000X-0.135000X-0.185000X0.135000X-0.185000X0*%
%ADD41RoundRect,0.150000X0.650000X0.150000X-0.650000X0.150000X-0.650000X-0.150000X0.650000X-0.150000X0*%
%ADD42RoundRect,0.150000X0.150000X-0.512500X0.150000X0.512500X-0.150000X0.512500X-0.150000X-0.512500X0*%
%ADD43RoundRect,0.250000X-0.625000X0.375000X-0.625000X-0.375000X0.625000X-0.375000X0.625000X0.375000X0*%
%ADD44C,0.650000*%
%ADD45R,0.600000X2.450000*%
%ADD46R,0.300000X2.450000*%
%ADD47R,2.300000X2.300000*%
%ADD48RoundRect,0.050000X0.387500X0.050000X-0.387500X0.050000X-0.387500X-0.050000X0.387500X-0.050000X0*%
%ADD49RoundRect,0.050000X0.050000X0.387500X-0.050000X0.387500X-0.050000X-0.387500X0.050000X-0.387500X0*%
%ADD50RoundRect,0.144000X1.456000X1.456000X-1.456000X1.456000X-1.456000X-1.456000X1.456000X-1.456000X0*%
%ADD51RoundRect,0.250000X0.350000X0.450000X-0.350000X0.450000X-0.350000X-0.450000X0.350000X-0.450000X0*%
G04 APERTURE END LIST*
D10*
%TO.C,SW30(ortho)1*%
X95567500Y-96820487D03*
D11*
X90487500Y-96820487D03*
D10*
X85407500Y-96820487D03*
D12*
X86677500Y-94280487D03*
X93027500Y-91740487D03*
%TD*%
D10*
%TO.C,SW12*%
X247967500Y-58737500D03*
D11*
X242887500Y-58737500D03*
D10*
X237807500Y-58737500D03*
D12*
X239077500Y-56197500D03*
X245427500Y-53657500D03*
%TD*%
D11*
%TO.C,SW31(ortho)1*%
X109537500Y-96820487D03*
D10*
X114617500Y-96820487D03*
X104457500Y-96820487D03*
D12*
X105727500Y-94280487D03*
X112077500Y-91740487D03*
%TD*%
D10*
%TO.C,SW43(1.75)1*%
X136062566Y-120635521D03*
X125902566Y-120635521D03*
D11*
X130982566Y-120635521D03*
D12*
X127172566Y-118095521D03*
X133522566Y-115555521D03*
%TD*%
D10*
%TO.C,SW48*%
X243205000Y-115887500D03*
X233045000Y-115887500D03*
D11*
X238125000Y-115887500D03*
D12*
X234315000Y-113347500D03*
X240665000Y-110807500D03*
%TD*%
D10*
%TO.C,SW33(1.5stagger)1*%
X152082500Y-96820487D03*
D11*
X157162500Y-96820487D03*
D10*
X162242500Y-96820487D03*
D12*
X153352500Y-94280487D03*
X159702500Y-91740487D03*
%TD*%
D13*
%TO.C,SW_rotary3*%
X153237500Y-58737500D03*
X142037500Y-58737500D03*
D14*
X145137500Y-66237500D03*
D15*
X150137500Y-66237500D03*
X147637500Y-66237500D03*
X150137500Y-51737500D03*
X145137500Y-51737500D03*
%TD*%
D10*
%TO.C,SW42(3)1*%
X124142500Y-120650000D03*
X113982500Y-120650000D03*
D11*
X119062500Y-120650000D03*
D16*
X138112500Y-127635000D03*
D11*
X100012500Y-112395000D03*
X138112500Y-112395000D03*
D16*
X100012500Y-127635000D03*
D12*
X115252500Y-118110000D03*
X121602500Y-115570000D03*
%TD*%
D10*
%TO.C,SW32(ortho)1*%
X133667500Y-96820487D03*
X123507500Y-96820487D03*
D11*
X128587500Y-96820487D03*
D12*
X124777500Y-94280487D03*
X131127500Y-91740487D03*
%TD*%
D11*
%TO.C,SW42(1)1*%
X100012500Y-120650000D03*
D10*
X105092500Y-120650000D03*
X94932500Y-120650000D03*
D12*
X96202500Y-118110000D03*
X102552500Y-115570000D03*
%TD*%
D10*
%TO.C,SW34(1.5stagger)1*%
X171132500Y-96820487D03*
D11*
X176212500Y-96820487D03*
D10*
X181292500Y-96820487D03*
D12*
X172402500Y-94280487D03*
X178752500Y-91740487D03*
%TD*%
D10*
%TO.C,SW21*%
X171767500Y-77787500D03*
D11*
X166687500Y-77787500D03*
D10*
X161607500Y-77787500D03*
D12*
X162877500Y-75247500D03*
X169227500Y-72707500D03*
%TD*%
D11*
%TO.C,SW28*%
X57150000Y-96820487D03*
D10*
X52070000Y-96820487D03*
X62230000Y-96820487D03*
D12*
X53340000Y-94280487D03*
X59690000Y-91740487D03*
%TD*%
D11*
%TO.C,SW8*%
X166687500Y-58737500D03*
D10*
X161607500Y-58737500D03*
X171767500Y-58737500D03*
D12*
X162877500Y-56197500D03*
X169227500Y-53657500D03*
%TD*%
D10*
%TO.C,SW28(1.5stagger)1*%
X66992500Y-96820487D03*
D11*
X61912500Y-96820487D03*
D10*
X56832500Y-96820487D03*
D12*
X58102500Y-94280487D03*
X64452500Y-91740487D03*
%TD*%
D10*
%TO.C,SW46(1.5)1*%
X195580000Y-120650000D03*
D11*
X190500000Y-120650000D03*
D10*
X185420000Y-120650000D03*
D12*
X186690000Y-118110000D03*
X193040000Y-115570000D03*
%TD*%
D10*
%TO.C,SW23*%
X209867500Y-77787500D03*
X199707500Y-77787500D03*
D11*
X204787500Y-77787500D03*
D12*
X200977500Y-75247500D03*
X207327500Y-72707500D03*
%TD*%
D10*
%TO.C,SW36*%
X224155000Y-96820487D03*
D11*
X219075000Y-96820487D03*
D10*
X213995000Y-96820487D03*
D12*
X215265000Y-94280487D03*
X221615000Y-91740487D03*
%TD*%
D11*
%TO.C,SW12(2)1*%
X240506250Y-66992500D03*
X252412500Y-58737500D03*
X264318750Y-66992500D03*
D10*
X247332500Y-58737500D03*
D16*
X240506250Y-51752500D03*
D10*
X257492500Y-58737500D03*
D16*
X264318750Y-51752500D03*
D12*
X248602500Y-56197500D03*
X254952500Y-53657500D03*
%TD*%
D11*
%TO.C,SW15*%
X52387500Y-77787500D03*
D10*
X57467500Y-77787500D03*
X47307500Y-77787500D03*
D12*
X48577500Y-75247500D03*
X54927500Y-72707500D03*
%TD*%
D10*
%TO.C,SW50(ortho)1*%
X152717500Y-96820487D03*
D11*
X147637500Y-96820487D03*
D10*
X142557500Y-96820487D03*
D12*
X143827500Y-94280487D03*
X150177500Y-91740487D03*
%TD*%
D11*
%TO.C,SW39(1.5)1*%
X42862500Y-115887500D03*
D10*
X37782500Y-115887500D03*
X47942500Y-115887500D03*
D12*
X39052500Y-113347500D03*
X45402500Y-110807500D03*
%TD*%
D11*
%TO.C,SW6*%
X128587500Y-58737500D03*
D10*
X133667500Y-58737500D03*
X123507500Y-58737500D03*
D12*
X124777500Y-56197500D03*
X131127500Y-53657500D03*
%TD*%
D10*
%TO.C,SW31*%
X109220000Y-96820487D03*
D11*
X114300000Y-96820487D03*
D10*
X119380000Y-96820487D03*
D12*
X110490000Y-94280487D03*
X116840000Y-91740487D03*
%TD*%
D10*
%TO.C,SW37(1.5stagger)1*%
X238442500Y-96820487D03*
D11*
X233362500Y-96820487D03*
D10*
X228282500Y-96820487D03*
D12*
X229552500Y-94280487D03*
X235902500Y-91740487D03*
%TD*%
D10*
%TO.C,SW38(1.25)1*%
X254475000Y-96820487D03*
X264635000Y-96820487D03*
D11*
X259555000Y-96820487D03*
D12*
X255745000Y-94280487D03*
X262095000Y-91740487D03*
%TD*%
D10*
%TO.C,SW47*%
X213995000Y-115887500D03*
X224155000Y-115887500D03*
D11*
X219075000Y-115887500D03*
D12*
X215265000Y-113347500D03*
X221615000Y-110807500D03*
%TD*%
D10*
%TO.C,SW26(1.5)1*%
X252095000Y-77787500D03*
D11*
X257175000Y-77787500D03*
D10*
X262255000Y-77787500D03*
D12*
X253365000Y-75247500D03*
X259715000Y-72707500D03*
%TD*%
D10*
%TO.C,SW46(1)1*%
X200342500Y-120650000D03*
X190182500Y-120650000D03*
D11*
X195262500Y-120650000D03*
D12*
X191452500Y-118110000D03*
X197802500Y-115570000D03*
%TD*%
D11*
%TO.C,SW1*%
X33337500Y-58737500D03*
D10*
X38417500Y-58737500D03*
X28257500Y-58737500D03*
D12*
X29527500Y-56197500D03*
X35877500Y-53657500D03*
%TD*%
D11*
%TO.C,SW26(ISO)1*%
X259556250Y-87312500D03*
X251301250Y-99250500D03*
X251301250Y-75374500D03*
D10*
X254476250Y-87312500D03*
X264636250Y-87312500D03*
D16*
X266541250Y-75374500D03*
X266541250Y-99250500D03*
D12*
X255746250Y-84772500D03*
X262096250Y-82232500D03*
%TD*%
D10*
%TO.C,SW37(ortho)1*%
X247967500Y-96820487D03*
X237807500Y-96820487D03*
D11*
X242887500Y-96820487D03*
D12*
X239077500Y-94280487D03*
X245427500Y-91740487D03*
%TD*%
D10*
%TO.C,SW41(1.5)1*%
X76517500Y-115887500D03*
X66357500Y-115887500D03*
D11*
X71437500Y-115887500D03*
D12*
X67627500Y-113347500D03*
X73977500Y-110807500D03*
%TD*%
D11*
%TO.C,SW27(ortho)1*%
X33337500Y-96820487D03*
D10*
X38417500Y-96820487D03*
X28257500Y-96820487D03*
D12*
X29527500Y-94280487D03*
X35877500Y-91740487D03*
%TD*%
D11*
%TO.C,SW38(1.5)1*%
X257175000Y-96820487D03*
D10*
X262255000Y-96820487D03*
X252095000Y-96820487D03*
D12*
X253365000Y-94280487D03*
X259715000Y-91740487D03*
%TD*%
D17*
%TO.C,SW_rotary2*%
X261937500Y-53137500D03*
X261937500Y-64337500D03*
D14*
X269437500Y-61237500D03*
D15*
X269437500Y-56237500D03*
X269437500Y-58737500D03*
X254937500Y-56237500D03*
X254937500Y-61237500D03*
%TD*%
D17*
%TO.C,SW_rotary6*%
X195262500Y-126250000D03*
D14*
X202762500Y-123150000D03*
D15*
X202762500Y-118150000D03*
X202762500Y-120650000D03*
X188262500Y-118150000D03*
X188262500Y-123150000D03*
%TD*%
D10*
%TO.C,SW9*%
X180657500Y-58737500D03*
X190817500Y-58737500D03*
D11*
X185737500Y-58737500D03*
D12*
X181927500Y-56197500D03*
X188277500Y-53657500D03*
%TD*%
D11*
%TO.C,SW33*%
X161925000Y-96820487D03*
D10*
X156845000Y-96820487D03*
X167005000Y-96820487D03*
D12*
X158115000Y-94280487D03*
X164465000Y-91740487D03*
%TD*%
D10*
%TO.C,SW43(2)1*%
X133667500Y-120650000D03*
D16*
X116681250Y-127635000D03*
D10*
X123507500Y-120650000D03*
D11*
X116681250Y-112395000D03*
X128587500Y-120650000D03*
D16*
X140493750Y-127635000D03*
D11*
X140493750Y-112395000D03*
D12*
X124777500Y-118110000D03*
X131127500Y-115570000D03*
%TD*%
D18*
%TO.C,SW44(4)1*%
X147637500Y-120650000D03*
D11*
X178625500Y-112420400D03*
D16*
X116649500Y-127635000D03*
X178625500Y-127660400D03*
D11*
X116649500Y-112395000D03*
D19*
X143827500Y-118110000D03*
X150177500Y-115570000D03*
%TD*%
D10*
%TO.C,SW33(ortho)1*%
X171767500Y-96820487D03*
X161607500Y-96820487D03*
D11*
X166687500Y-96820487D03*
D12*
X162877500Y-94280487D03*
X169227500Y-91740487D03*
%TD*%
D11*
%TO.C,SW10*%
X204787500Y-58737500D03*
D10*
X199707500Y-58737500D03*
X209867500Y-58737500D03*
D12*
X200977500Y-56197500D03*
X207327500Y-53657500D03*
%TD*%
D11*
%TO.C,SW18*%
X109537500Y-77787500D03*
D10*
X114617500Y-77787500D03*
X104457500Y-77787500D03*
D12*
X105727500Y-75247500D03*
X112077500Y-72707500D03*
%TD*%
D10*
%TO.C,SW34(ortho)1*%
X180657500Y-96820487D03*
D11*
X185737500Y-96820487D03*
D10*
X190817500Y-96820487D03*
D12*
X181927500Y-94280487D03*
X188277500Y-91740487D03*
%TD*%
D11*
%TO.C,SW36(ortho)1*%
X223837500Y-96820487D03*
D10*
X218757500Y-96820487D03*
X228917500Y-96820487D03*
D12*
X220027500Y-94280487D03*
X226377500Y-91740487D03*
%TD*%
D17*
%TO.C,SW_rotary5*%
X100012500Y-126250000D03*
X100012500Y-115050000D03*
D14*
X92512500Y-118150000D03*
D15*
X92512500Y-123150000D03*
X92512500Y-120650000D03*
X107012500Y-123150000D03*
X107012500Y-118150000D03*
%TD*%
D10*
%TO.C,SW2*%
X47307500Y-58737500D03*
X57467500Y-58737500D03*
D11*
X52387500Y-58737500D03*
D12*
X48577500Y-56197500D03*
X54927500Y-53657500D03*
%TD*%
D11*
%TO.C,SW38(ortho)1*%
X261937500Y-96820487D03*
D10*
X256857500Y-96820487D03*
X267017500Y-96820487D03*
D12*
X258127500Y-94280487D03*
X264477500Y-91740487D03*
%TD*%
D11*
%TO.C,SW49(1.5)1*%
X252412500Y-115887500D03*
D10*
X257492500Y-115887500D03*
X247332500Y-115887500D03*
D12*
X248602500Y-113347500D03*
X254952500Y-110807500D03*
%TD*%
D10*
%TO.C,SW34*%
X175895000Y-96820487D03*
X186055000Y-96820487D03*
D11*
X180975000Y-96820487D03*
D12*
X177165000Y-94280487D03*
X183515000Y-91740487D03*
%TD*%
D10*
%TO.C,SW4*%
X85407500Y-58737500D03*
X95567500Y-58737500D03*
D11*
X90487500Y-58737500D03*
D12*
X86677500Y-56197500D03*
X93027500Y-53657500D03*
%TD*%
D10*
%TO.C,SW13*%
X267017500Y-58737500D03*
D11*
X261937500Y-58737500D03*
D10*
X256857500Y-58737500D03*
D12*
X258127500Y-56197500D03*
X264477500Y-53657500D03*
%TD*%
D10*
%TO.C,SW35(ortho)1*%
X199707500Y-96820487D03*
D11*
X204787500Y-96820487D03*
D10*
X209867500Y-96820487D03*
D12*
X200977500Y-94280487D03*
X207327500Y-91740487D03*
%TD*%
D10*
%TO.C,SW32*%
X138430000Y-96820487D03*
D11*
X133350000Y-96820487D03*
D10*
X128270000Y-96820487D03*
D12*
X129540000Y-94280487D03*
X135890000Y-91740487D03*
%TD*%
D11*
%TO.C,SW29(ortho)1*%
X71437500Y-96820487D03*
D10*
X76517500Y-96820487D03*
X66357500Y-96820487D03*
D12*
X67627500Y-94280487D03*
X73977500Y-91740487D03*
%TD*%
D11*
%TO.C,SW30(1.5stagger)1*%
X100012500Y-96820487D03*
D10*
X105092500Y-96820487D03*
X94932500Y-96820487D03*
D12*
X96202500Y-94280487D03*
X102552500Y-91740487D03*
%TD*%
D10*
%TO.C,SW29(1.5stagger)1*%
X86042500Y-96820487D03*
X75882500Y-96820487D03*
D11*
X80962500Y-96820487D03*
D12*
X77152500Y-94280487D03*
X83502500Y-91740487D03*
%TD*%
D10*
%TO.C,SW45(2)1*%
X161607500Y-120650000D03*
D16*
X154781250Y-127635000D03*
X178593750Y-127635000D03*
D11*
X166687500Y-120650000D03*
X178593750Y-112395000D03*
X154781250Y-112395000D03*
D10*
X171767500Y-120650000D03*
D12*
X162877500Y-118110000D03*
X169227500Y-115570000D03*
%TD*%
D11*
%TO.C,SW46(1.25)1*%
X192895066Y-120635521D03*
D10*
X197975066Y-120635521D03*
X187815066Y-120635521D03*
D12*
X189085066Y-118095521D03*
X195435066Y-115555521D03*
%TD*%
D20*
%TO.C,OL1*%
X143827500Y-87312500D03*
X146367500Y-87312500D03*
X148907500Y-87312500D03*
X151447500Y-87312500D03*
%TD*%
D10*
%TO.C,SW16*%
X66357500Y-77787500D03*
X76517500Y-77787500D03*
D11*
X71437500Y-77787500D03*
D12*
X67627500Y-75247500D03*
X73977500Y-72707500D03*
%TD*%
D10*
%TO.C,SW25*%
X247967500Y-77787500D03*
D11*
X242887500Y-77787500D03*
D10*
X237807500Y-77787500D03*
D12*
X239077500Y-75247500D03*
X245427500Y-72707500D03*
%TD*%
D11*
%TO.C,SW46(3)1*%
X157162500Y-112395000D03*
X195262500Y-112395000D03*
D16*
X195262500Y-127635000D03*
D10*
X171132500Y-120650000D03*
D16*
X157162500Y-127635000D03*
D10*
X181292500Y-120650000D03*
D11*
X176212500Y-120650000D03*
D12*
X172402500Y-118110000D03*
X178752500Y-115570000D03*
%TD*%
D10*
%TO.C,SW39*%
X33020000Y-115887500D03*
D11*
X38100000Y-115887500D03*
D10*
X43180000Y-115887500D03*
D12*
X34290000Y-113347500D03*
X40640000Y-110807500D03*
%TD*%
D10*
%TO.C,SW19*%
X123507500Y-77787500D03*
D11*
X128587500Y-77787500D03*
D10*
X133667500Y-77787500D03*
D12*
X124777500Y-75247500D03*
X131127500Y-72707500D03*
%TD*%
D21*
%TO.C,J2*%
X157162500Y-64135000D03*
D22*
X157162500Y-66675000D03*
X157162500Y-69215000D03*
X157162500Y-71755000D03*
X157162500Y-74295000D03*
%TD*%
D11*
%TO.C,SW44(6)1*%
X195262500Y-112395000D03*
X147637500Y-120650000D03*
X100012500Y-112395000D03*
D16*
X100012500Y-127635000D03*
D10*
X152717500Y-120650000D03*
X142557500Y-120650000D03*
D16*
X195262500Y-127635000D03*
D12*
X143827500Y-118110000D03*
X150177500Y-115570000D03*
%TD*%
D10*
%TO.C,SW35*%
X194945000Y-96820487D03*
D11*
X200025000Y-96820487D03*
D10*
X205105000Y-96820487D03*
D12*
X196215000Y-94280487D03*
X202565000Y-91740487D03*
%TD*%
D11*
%TO.C,SW37*%
X238125000Y-96820487D03*
D10*
X243205000Y-96820487D03*
X233045000Y-96820487D03*
D12*
X234315000Y-94280487D03*
X240665000Y-91740487D03*
%TD*%
D11*
%TO.C,SW20*%
X147637500Y-77787500D03*
D10*
X152717500Y-77787500D03*
X142557500Y-77787500D03*
D12*
X143827500Y-75247500D03*
X150177500Y-72707500D03*
%TD*%
D11*
%TO.C,SW11*%
X223837500Y-58737500D03*
D10*
X218757500Y-58737500D03*
X228917500Y-58737500D03*
D12*
X220027500Y-56197500D03*
X226377500Y-53657500D03*
%TD*%
D10*
%TO.C,SW24(1.5)1*%
X233680000Y-77787500D03*
D11*
X228600000Y-77787500D03*
D10*
X223520000Y-77787500D03*
D12*
X224790000Y-75247500D03*
X231140000Y-72707500D03*
%TD*%
D11*
%TO.C,SW7*%
X147637500Y-58737500D03*
D10*
X142557500Y-58737500D03*
X152717500Y-58737500D03*
D12*
X143827500Y-56197500D03*
X150177500Y-53657500D03*
%TD*%
D11*
%TO.C,SW40*%
X57150000Y-115887500D03*
D10*
X52070000Y-115887500D03*
X62230000Y-115887500D03*
D12*
X53340000Y-113347500D03*
X59690000Y-110807500D03*
%TD*%
D16*
%TO.C,SW26(2)1*%
X264318750Y-70802500D03*
D10*
X257492500Y-77787500D03*
X247332500Y-77787500D03*
D11*
X240506250Y-86042500D03*
D16*
X240506250Y-70802500D03*
D11*
X264318750Y-86042500D03*
X252412500Y-77787500D03*
D12*
X248602500Y-75247500D03*
X254952500Y-72707500D03*
%TD*%
D10*
%TO.C,SW48(3)1*%
X243205000Y-115887500D03*
X233045000Y-115887500D03*
D16*
X257175000Y-122872500D03*
D11*
X219075000Y-107632500D03*
X257175000Y-107632500D03*
D16*
X219075000Y-122872500D03*
D11*
X238125000Y-115887500D03*
D12*
X234315000Y-113347500D03*
X240665000Y-110807500D03*
%TD*%
D13*
%TO.C,SW_rotary1*%
X27737500Y-58737500D03*
X38937500Y-58737500D03*
D14*
X30837500Y-66237500D03*
D15*
X35837500Y-66237500D03*
X33337500Y-66237500D03*
X35837500Y-51737500D03*
X30837500Y-51737500D03*
%TD*%
D13*
%TO.C,SW_rotary4*%
X153237500Y-77787500D03*
X142037500Y-77787500D03*
D14*
X145137500Y-85287500D03*
D15*
X150137500Y-85287500D03*
X147637500Y-85287500D03*
X150137500Y-70787500D03*
X145137500Y-70787500D03*
%TD*%
D10*
%TO.C,SW36(1.5stagger)1*%
X209232500Y-96820487D03*
D11*
X214312500Y-96820487D03*
D10*
X219392500Y-96820487D03*
D12*
X210502500Y-94280487D03*
X216852500Y-91740487D03*
%TD*%
D10*
%TO.C,SW5*%
X104457500Y-58737500D03*
X114617500Y-58737500D03*
D11*
X109537500Y-58737500D03*
D12*
X105727500Y-56197500D03*
X112077500Y-53657500D03*
%TD*%
D16*
%TO.C,SW44(3)1*%
X166687500Y-127635000D03*
D11*
X147637500Y-120650000D03*
X128587500Y-112395000D03*
D16*
X128587500Y-127635000D03*
D10*
X142557500Y-120650000D03*
D11*
X166687500Y-112395000D03*
D10*
X152717500Y-120650000D03*
D12*
X143827500Y-118110000D03*
X150177500Y-115570000D03*
%TD*%
D13*
%TO.C,SW_rotary7*%
X153237500Y-96820487D03*
X142037500Y-96820487D03*
D14*
X145137500Y-104320487D03*
D15*
X150137500Y-104320487D03*
X147637500Y-104320487D03*
X150137500Y-89820487D03*
X145137500Y-89820487D03*
%TD*%
D10*
%TO.C,SW22*%
X190817500Y-77787500D03*
X180657500Y-77787500D03*
D11*
X185737500Y-77787500D03*
D12*
X181927500Y-75247500D03*
X188277500Y-72707500D03*
%TD*%
D10*
%TO.C,SW27(1.5)1*%
X33020000Y-96820487D03*
D11*
X38100000Y-96820487D03*
D10*
X43180000Y-96820487D03*
D12*
X34290000Y-94280487D03*
X40640000Y-91740487D03*
%TD*%
D10*
%TO.C,SW42(1.25)1*%
X97327566Y-120635521D03*
X107487566Y-120635521D03*
D11*
X102407566Y-120635521D03*
D12*
X98597566Y-118095521D03*
X104947566Y-115555521D03*
%TD*%
D10*
%TO.C,SW42(1.5)1*%
X109855000Y-120650000D03*
X99695000Y-120650000D03*
D11*
X104775000Y-120650000D03*
D12*
X100965000Y-118110000D03*
X107315000Y-115570000D03*
%TD*%
D10*
%TO.C,SW27(1.25)1*%
X30640000Y-96820487D03*
X40800000Y-96820487D03*
D11*
X35720000Y-96820487D03*
D12*
X31910000Y-94280487D03*
X38260000Y-91740487D03*
%TD*%
D11*
%TO.C,SW49*%
X257175000Y-115887500D03*
D10*
X252095000Y-115887500D03*
X262255000Y-115887500D03*
D12*
X253365000Y-113347500D03*
X259715000Y-110807500D03*
%TD*%
D11*
%TO.C,SW26*%
X261937500Y-77787500D03*
D10*
X256857500Y-77787500D03*
X267017500Y-77787500D03*
D12*
X258127500Y-75247500D03*
X264477500Y-72707500D03*
%TD*%
D11*
%TO.C,SW28(ortho)1*%
X52387500Y-96820487D03*
D10*
X47307500Y-96820487D03*
X57467500Y-96820487D03*
D12*
X48577500Y-94280487D03*
X54927500Y-91740487D03*
%TD*%
D10*
%TO.C,SW24*%
X218757500Y-77787500D03*
X228917500Y-77787500D03*
D11*
X223837500Y-77787500D03*
D12*
X220027500Y-75247500D03*
X226377500Y-72707500D03*
%TD*%
D10*
%TO.C,SW17*%
X95567500Y-77787500D03*
X85407500Y-77787500D03*
D11*
X90487500Y-77787500D03*
D12*
X86677500Y-75247500D03*
X93027500Y-72707500D03*
%TD*%
D11*
%TO.C,SW40(3)1*%
X76200000Y-107632500D03*
D10*
X62230000Y-115887500D03*
D16*
X76200000Y-122872500D03*
X38100000Y-122872500D03*
D11*
X57150000Y-115887500D03*
X38100000Y-107632500D03*
D10*
X52070000Y-115887500D03*
D12*
X53340000Y-113347500D03*
X59690000Y-110807500D03*
%TD*%
D10*
%TO.C,SW3*%
X76517500Y-58737500D03*
D11*
X71437500Y-58737500D03*
D10*
X66357500Y-58737500D03*
D12*
X67627500Y-56197500D03*
X73977500Y-53657500D03*
%TD*%
D10*
%TO.C,SW45(1.75)1*%
X169400066Y-120635521D03*
X159240066Y-120635521D03*
D11*
X164320066Y-120635521D03*
D12*
X160510066Y-118095521D03*
X166860066Y-115555521D03*
%TD*%
D11*
%TO.C,SW14*%
X33337500Y-77787500D03*
D10*
X38417500Y-77787500D03*
X28257500Y-77787500D03*
D12*
X29527500Y-75247500D03*
X35877500Y-72707500D03*
%TD*%
D10*
%TO.C,SW41*%
X81280000Y-115887500D03*
D11*
X76200000Y-115887500D03*
D10*
X71120000Y-115887500D03*
D12*
X72390000Y-113347500D03*
X78740000Y-110807500D03*
%TD*%
D10*
%TO.C,SW47(1.5)1*%
X228917500Y-115887500D03*
D11*
X223837500Y-115887500D03*
D10*
X218757500Y-115887500D03*
D12*
X220027500Y-113347500D03*
X226377500Y-110807500D03*
%TD*%
D10*
%TO.C,SW35(1.5stagger)1*%
X190182500Y-96820487D03*
D11*
X195262500Y-96820487D03*
D10*
X200342500Y-96820487D03*
D12*
X191452500Y-94280487D03*
X197802500Y-91740487D03*
%TD*%
D11*
%TO.C,SW30*%
X95250000Y-96820487D03*
D10*
X100330000Y-96820487D03*
X90170000Y-96820487D03*
D12*
X91440000Y-94280487D03*
X97790000Y-91740487D03*
%TD*%
D10*
%TO.C,SW32(1.5stagger)1*%
X143192500Y-96820487D03*
X133032500Y-96820487D03*
D11*
X138112500Y-96820487D03*
D12*
X134302500Y-94280487D03*
X140652500Y-91740487D03*
%TD*%
D10*
%TO.C,SW31(1.5stagger)1*%
X113982500Y-96820487D03*
X124142500Y-96820487D03*
D11*
X119062500Y-96820487D03*
D12*
X115252500Y-94280487D03*
X121602500Y-91740487D03*
%TD*%
D10*
%TO.C,SW29*%
X81280000Y-96820487D03*
X71120000Y-96820487D03*
D11*
X76200000Y-96820487D03*
D12*
X72390000Y-94280487D03*
X78740000Y-91740487D03*
%TD*%
D23*
%TO.C,D32*%
X188912500Y-79187500D03*
X188912500Y-76387500D03*
%TD*%
D24*
%TO.C,SW27*%
X83160000Y-71750000D03*
X76860000Y-71750000D03*
X83160000Y-67950000D03*
X76860000Y-67950000D03*
%TD*%
D25*
%TO.C,LED2*%
X150187500Y-108700000D03*
X150187500Y-107200000D03*
D26*
X145087500Y-107200000D03*
D25*
X145087500Y-108700000D03*
%TD*%
D23*
%TO.C,D2*%
X36512500Y-77981000D03*
X36512500Y-75181000D03*
%TD*%
D27*
%TO.C,R7*%
X43230800Y-90680000D03*
X43230800Y-89660000D03*
%TD*%
D28*
%TO.C,LED8*%
X244449000Y-67225000D03*
X244449000Y-66125000D03*
X246279000Y-66125000D03*
X246279000Y-67225000D03*
%TD*%
D29*
%TO.C,C22*%
X85217000Y-67155000D03*
X85217000Y-66195000D03*
%TD*%
D23*
%TO.C,D11*%
X84137500Y-101412500D03*
X84137500Y-98612500D03*
%TD*%
D30*
%TO.C,C2*%
X47904400Y-89639200D03*
X47904400Y-90599200D03*
%TD*%
D23*
%TO.C,D9*%
X74612500Y-60137500D03*
X74612500Y-57337500D03*
%TD*%
%TO.C,D50*%
X154686000Y-101349000D03*
X154686000Y-98549000D03*
%TD*%
%TO.C,D7*%
X65087500Y-101412500D03*
X65087500Y-98612500D03*
%TD*%
D28*
%TO.C,LED15*%
X88221288Y-105812500D03*
X88221288Y-106912500D03*
X86391288Y-106912500D03*
X86391288Y-105812500D03*
%TD*%
D24*
%TO.C,SW38*%
X96862500Y-67950000D03*
X103162500Y-67950000D03*
X103162500Y-71750000D03*
X96862500Y-71750000D03*
%TD*%
D29*
%TO.C,C10*%
X40792400Y-78331000D03*
X40792400Y-77371000D03*
%TD*%
D30*
%TO.C,C14*%
X42164000Y-93274000D03*
X42164000Y-94234000D03*
%TD*%
D23*
%TO.C,D24*%
X150812500Y-123637500D03*
X150812500Y-120837500D03*
%TD*%
D31*
%TO.C,UR1*%
X159337500Y-66516250D03*
X161337500Y-66516250D03*
%TD*%
D23*
%TO.C,D42*%
X239712500Y-61725000D03*
X239712500Y-58925000D03*
%TD*%
%TO.C,D44*%
X246062500Y-101412500D03*
X246062500Y-98612500D03*
%TD*%
D30*
%TO.C,C20*%
X50165000Y-105882500D03*
X50165000Y-106842500D03*
%TD*%
D29*
%TO.C,C21*%
X50165000Y-67155000D03*
X50165000Y-66195000D03*
%TD*%
D23*
%TO.C,D5*%
X60325000Y-60137500D03*
X60325000Y-57337500D03*
%TD*%
%TO.C,D23*%
X138112500Y-123637500D03*
X138112500Y-120837500D03*
%TD*%
%TO.C,D49*%
X260350000Y-117287500D03*
X260350000Y-114487500D03*
%TD*%
D32*
%TO.C,C1*%
X46003085Y-94996000D03*
X45043085Y-94996000D03*
%TD*%
D23*
%TO.C,D25*%
X150812500Y-60137500D03*
X150812500Y-57337500D03*
%TD*%
D29*
%TO.C,C5*%
X32764129Y-70306555D03*
X32764129Y-69346555D03*
%TD*%
D23*
%TO.C,D13*%
X93662500Y-60137500D03*
X93662500Y-57337500D03*
%TD*%
%TO.C,D39*%
X231775000Y-79187500D03*
X231775000Y-76387500D03*
%TD*%
D33*
%TO.C,C18*%
X161375000Y-68897500D03*
X159300000Y-68897500D03*
%TD*%
D29*
%TO.C,C19*%
X29006800Y-91412000D03*
X29006800Y-90452000D03*
%TD*%
D23*
%TO.C,D19*%
X111918750Y-123637500D03*
X111918750Y-120837500D03*
%TD*%
D28*
%TO.C,LED4*%
X86391288Y-67225000D03*
X86391288Y-66125000D03*
X88221288Y-66125000D03*
X88221288Y-67225000D03*
%TD*%
D34*
%TO.C,U5*%
X33090700Y-89982000D03*
X33090700Y-90932000D03*
X33090700Y-91882000D03*
X30815700Y-91882000D03*
X30815700Y-89982000D03*
%TD*%
D35*
%TO.C,Y1*%
X44629600Y-93439736D03*
X44629600Y-91239736D03*
X46329600Y-91239736D03*
X46329600Y-93439736D03*
%TD*%
D36*
%TO.C,U3*%
X37734952Y-70381444D03*
X35834952Y-70381444D03*
X36784952Y-68506444D03*
%TD*%
D32*
%TO.C,C16*%
X37973000Y-80175193D03*
X37013000Y-80175193D03*
%TD*%
D23*
%TO.C,D46*%
X265112500Y-60137500D03*
X265112500Y-57337500D03*
%TD*%
%TO.C,D21*%
X131762500Y-79187500D03*
X131762500Y-76387500D03*
%TD*%
D37*
%TO.C,C13*%
X49050000Y-85217000D03*
X50010000Y-85217000D03*
%TD*%
D30*
%TO.C,C29*%
X175260000Y-105882500D03*
X175260000Y-106842500D03*
%TD*%
D23*
%TO.C,D48*%
X264033000Y-101730000D03*
X264033000Y-98930000D03*
%TD*%
%TO.C,D40*%
X227012500Y-101412500D03*
X227012500Y-98612500D03*
%TD*%
%TO.C,D35*%
X207962500Y-60137500D03*
X207962500Y-57337500D03*
%TD*%
D28*
%TO.C,LED13*%
X173952500Y-105812500D03*
X173952500Y-106912500D03*
X172122500Y-106912500D03*
X172122500Y-105812500D03*
%TD*%
%TO.C,LED6*%
X172122500Y-67225000D03*
X172122500Y-66125000D03*
X173952500Y-66125000D03*
X173952500Y-67225000D03*
%TD*%
D23*
%TO.C,D26*%
X150812500Y-79187500D03*
X150812500Y-76387500D03*
%TD*%
D38*
%TO.C,R3*%
X135450520Y-72515000D03*
X135450520Y-73535000D03*
%TD*%
D23*
%TO.C,D22*%
X140462000Y-101412500D03*
X140462000Y-98612500D03*
%TD*%
%TO.C,D14*%
X93662500Y-79187500D03*
X93662500Y-76387500D03*
%TD*%
D25*
%TO.C,LED3*%
X183525000Y-108700000D03*
X183525000Y-107200000D03*
D26*
X178425000Y-107200000D03*
D25*
X178425000Y-108700000D03*
%TD*%
D31*
%TO.C,UR2*%
X159337500Y-64135000D03*
X161337500Y-64135000D03*
%TD*%
D32*
%TO.C,C7*%
X40231000Y-79375000D03*
X39271000Y-79375000D03*
%TD*%
D29*
%TO.C,C15*%
X42617467Y-77216643D03*
X42617467Y-76256643D03*
%TD*%
D39*
%TO.C,R2*%
X39751000Y-72454000D03*
X39751000Y-74104000D03*
%TD*%
D40*
%TO.C,R6*%
X75155499Y-67952227D03*
X74135499Y-67952227D03*
%TD*%
D23*
%TO.C,D36*%
X207962500Y-79187500D03*
X207962500Y-76387500D03*
%TD*%
%TO.C,D6*%
X55562500Y-79187500D03*
X55562500Y-76387500D03*
%TD*%
D41*
%TO.C,U2*%
X65957000Y-67945000D03*
X65957000Y-69215000D03*
X65957000Y-70485000D03*
X65957000Y-71755000D03*
X58757000Y-71755000D03*
X58757000Y-70485000D03*
X58757000Y-69215000D03*
X58757000Y-67945000D03*
%TD*%
D29*
%TO.C,C3*%
X55626000Y-67980500D03*
X55626000Y-67020500D03*
%TD*%
D32*
%TO.C,C8*%
X37973000Y-81114807D03*
X37013000Y-81114807D03*
%TD*%
D23*
%TO.C,D37*%
X207962500Y-101412500D03*
X207962500Y-98612500D03*
%TD*%
%TO.C,D38*%
X227012500Y-60137500D03*
X227012500Y-57337500D03*
%TD*%
D39*
%TO.C,R1*%
X41275000Y-72454000D03*
X41275000Y-74104000D03*
%TD*%
D23*
%TO.C,D31*%
X188912500Y-60137500D03*
X188912500Y-57337500D03*
%TD*%
D30*
%TO.C,C27*%
X247485799Y-105819000D03*
X247485799Y-106779000D03*
%TD*%
D23*
%TO.C,D47*%
X265112500Y-80775000D03*
X265112500Y-77975000D03*
%TD*%
D30*
%TO.C,C9*%
X43180000Y-93274000D03*
X43180000Y-94234000D03*
%TD*%
D23*
%TO.C,D20*%
X131762500Y-60137500D03*
X131762500Y-57337500D03*
%TD*%
D42*
%TO.C,U4*%
X43812500Y-64637500D03*
X42862500Y-64637500D03*
X41912500Y-64637500D03*
X41912500Y-62362500D03*
X42862500Y-62362500D03*
X43812500Y-62362500D03*
%TD*%
D43*
%TO.C,F1*%
X39243000Y-61973000D03*
X39243000Y-64773000D03*
%TD*%
D29*
%TO.C,C6*%
X33780128Y-70306555D03*
X33780128Y-69346555D03*
%TD*%
D23*
%TO.C,D17*%
X112712500Y-79187500D03*
X112712500Y-76387500D03*
%TD*%
D32*
%TO.C,C4*%
X39215000Y-66675000D03*
X38255000Y-66675000D03*
%TD*%
D28*
%TO.C,LED5*%
X121320676Y-67225000D03*
X121320676Y-66125000D03*
X123150676Y-66125000D03*
X123150676Y-67225000D03*
%TD*%
D29*
%TO.C,C24*%
X170942000Y-67155000D03*
X170942000Y-66195000D03*
%TD*%
D23*
%TO.C,D29*%
X169862500Y-101412500D03*
X169862500Y-98612500D03*
%TD*%
D28*
%TO.C,LED14*%
X123159832Y-105812500D03*
X123159832Y-106912500D03*
X121329832Y-106912500D03*
X121329832Y-105812500D03*
%TD*%
D23*
%TO.C,D8*%
X60325000Y-117287500D03*
X60325000Y-114487500D03*
%TD*%
D29*
%TO.C,C23*%
X120015000Y-67155000D03*
X120015000Y-66195000D03*
%TD*%
D28*
%TO.C,LED9*%
X246183750Y-105812500D03*
X246183750Y-106912500D03*
X244353750Y-106912500D03*
X244353750Y-105812500D03*
%TD*%
D30*
%TO.C,C26*%
X243078000Y-66195000D03*
X243078000Y-67155000D03*
%TD*%
D38*
%TO.C,R4*%
X41402000Y-58418000D03*
X41402000Y-59438000D03*
%TD*%
D44*
%TO.C,USB1*%
X39972500Y-53686838D03*
X45752500Y-53686838D03*
D45*
X39637500Y-55631838D03*
X40412500Y-55631838D03*
D46*
X41112500Y-55631838D03*
X41612500Y-55631838D03*
X42112500Y-55631838D03*
X42612500Y-55631838D03*
X43112500Y-55631838D03*
X43612500Y-55631838D03*
X44112500Y-55631838D03*
X44612500Y-55631838D03*
D45*
X45312500Y-55631838D03*
X46087500Y-55631838D03*
%TD*%
D23*
%TO.C,D41*%
X227012500Y-117287500D03*
X227012500Y-114487500D03*
%TD*%
%TO.C,D3*%
X41910000Y-101349000D03*
X41910000Y-98549000D03*
%TD*%
D38*
%TO.C,R5*%
X45085000Y-58418000D03*
X45085000Y-59438000D03*
%TD*%
D29*
%TO.C,C30*%
X124467332Y-106851933D03*
X124467332Y-105891933D03*
%TD*%
D28*
%TO.C,LED10*%
X53302500Y-105812500D03*
X53302500Y-106912500D03*
X51472500Y-106912500D03*
X51472500Y-105812500D03*
%TD*%
D25*
%TO.C,LED1*%
X116850000Y-108700000D03*
X116850000Y-107200000D03*
D26*
X111750000Y-107200000D03*
D25*
X111750000Y-108700000D03*
%TD*%
D30*
%TO.C,C28*%
X215582500Y-105860500D03*
X215582500Y-106820500D03*
%TD*%
D47*
%TO.C,LS1*%
X212367000Y-110363000D03*
X199367000Y-110363000D03*
%TD*%
D23*
%TO.C,D4*%
X46037500Y-117287500D03*
X46037500Y-114487500D03*
%TD*%
D28*
%TO.C,LED12*%
X214275000Y-105812500D03*
X214275000Y-106912500D03*
X212445000Y-106912500D03*
X212445000Y-105812500D03*
%TD*%
D30*
%TO.C,C31*%
X89528788Y-105860500D03*
X89528788Y-106820500D03*
%TD*%
%TO.C,C32*%
X119888000Y-110264000D03*
X119888000Y-111224000D03*
%TD*%
D23*
%TO.C,D1*%
X36512500Y-60137500D03*
X36512500Y-57337500D03*
%TD*%
D28*
%TO.C,LED7*%
X207041288Y-67225000D03*
X207041288Y-66125000D03*
X208871288Y-66125000D03*
X208871288Y-67225000D03*
%TD*%
D23*
%TO.C,D34*%
X183388000Y-123637500D03*
X183388000Y-120837500D03*
%TD*%
D32*
%TO.C,C11*%
X37310000Y-85150164D03*
X36350000Y-85150164D03*
%TD*%
D23*
%TO.C,D30*%
X179387500Y-123637500D03*
X179387500Y-120837500D03*
%TD*%
D29*
%TO.C,C12*%
X43633467Y-77216643D03*
X43633467Y-76256643D03*
%TD*%
D23*
%TO.C,D18*%
X122237500Y-101412500D03*
X122237500Y-98612500D03*
%TD*%
D30*
%TO.C,C34*%
X184912000Y-110264000D03*
X184912000Y-111224000D03*
%TD*%
D23*
%TO.C,D45*%
X241300000Y-117287500D03*
X241300000Y-114487500D03*
%TD*%
%TO.C,D33*%
X188912500Y-101412500D03*
X188912500Y-98612500D03*
%TD*%
%TO.C,D10*%
X74612500Y-79187500D03*
X74612500Y-76387500D03*
%TD*%
%TO.C,D27*%
X169862500Y-60137500D03*
X169862500Y-57337500D03*
%TD*%
D30*
%TO.C,C33*%
X152146000Y-110264000D03*
X152146000Y-111224000D03*
%TD*%
D23*
%TO.C,D12*%
X79375000Y-117287500D03*
X79375000Y-114487500D03*
%TD*%
%TO.C,D15*%
X103187500Y-101412500D03*
X103187500Y-98612500D03*
%TD*%
D48*
%TO.C,U1*%
X46300000Y-81538914D03*
X46300000Y-81938914D03*
X46300000Y-82338914D03*
X46300000Y-82738914D03*
X46300000Y-83138914D03*
X46300000Y-83538914D03*
X46300000Y-83938914D03*
X46300000Y-84338914D03*
X46300000Y-84738914D03*
X46300000Y-85138914D03*
X46300000Y-85538914D03*
X46300000Y-85938914D03*
X46300000Y-86338914D03*
X46300000Y-86738914D03*
D49*
X45462500Y-87576414D03*
X45062500Y-87576414D03*
X44662500Y-87576414D03*
X44262500Y-87576414D03*
X43862500Y-87576414D03*
X43462500Y-87576414D03*
X43062500Y-87576414D03*
X42662500Y-87576414D03*
X42262500Y-87576414D03*
X41862500Y-87576414D03*
X41462500Y-87576414D03*
X41062500Y-87576414D03*
X40662500Y-87576414D03*
X40262500Y-87576414D03*
D48*
X39425000Y-86738914D03*
X39425000Y-86338914D03*
X39425000Y-85938914D03*
X39425000Y-85538914D03*
X39425000Y-85138914D03*
X39425000Y-84738914D03*
X39425000Y-84338914D03*
X39425000Y-83938914D03*
X39425000Y-83538914D03*
X39425000Y-83138914D03*
X39425000Y-82738914D03*
X39425000Y-82338914D03*
X39425000Y-81938914D03*
X39425000Y-81538914D03*
D49*
X40262500Y-80701414D03*
X40662500Y-80701414D03*
X41062500Y-80701414D03*
X41462500Y-80701414D03*
X41862500Y-80701414D03*
X42262500Y-80701414D03*
X42662500Y-80701414D03*
X43062500Y-80701414D03*
X43462500Y-80701414D03*
X43862500Y-80701414D03*
X44262500Y-80701414D03*
X44662500Y-80701414D03*
X45062500Y-80701414D03*
X45462500Y-80701414D03*
D50*
X42862500Y-84138914D03*
%TD*%
D23*
%TO.C,D16*%
X112712500Y-60137500D03*
X112712500Y-57337500D03*
%TD*%
D21*
%TO.C,J1*%
X138074000Y-74265000D03*
D22*
X138074000Y-71725000D03*
X138074000Y-69185000D03*
X138074000Y-66645000D03*
X138074000Y-64105000D03*
%TD*%
D23*
%TO.C,D28*%
X169862500Y-79187500D03*
X169862500Y-76387500D03*
%TD*%
%TO.C,D43*%
X239712500Y-80775000D03*
X239712500Y-77975000D03*
%TD*%
D51*
%TO.C,UR3*%
X161337500Y-71278750D03*
X159337500Y-71278750D03*
%TD*%
D28*
%TO.C,LED11*%
X51472500Y-67225000D03*
X51472500Y-66125000D03*
X53302500Y-66125000D03*
X53302500Y-67225000D03*
%TD*%
D29*
%TO.C,C17*%
X47625000Y-80716000D03*
X47625000Y-79756000D03*
%TD*%
D30*
%TO.C,C25*%
X205740000Y-66195000D03*
X205740000Y-67155000D03*
%TD*%
M02*
